<!DOCTYPE svg PUBLIC "-//W3C//DTD SVG 20010904//EN" "http://www.w3.org/TR/2001/REC-SVG-20010904/DTD/svg10.dtd">
<svg version="1.0" xmlns="http://www.w3.org/2000/svg" width="13px" height="13px" viewBox="0 0 130 130" preserveAspectRatio="xMidYMid meet">
<g id="layer101" fill="#e4b083" stroke="none">
 <path d="M12 110 c-30 -48 -2 -104 52 -104 44 0 66 19 66 56 0 51 -16 68 -63 68 -31 0 -45 -5 -55 -20z"/>
 </g>
<g id="layer102" fill="#e5bec1" stroke="none">
 <path d="M36 104 c-5 -19 -2 -31 12 -45 19 -17 20 -17 36 0 24 26 12 71 -19 71 -16 0 -25 -8 -29 -26z"/>
 </g>
<g id="layer103" fill="#e8dbea" stroke="none">
 <path d="M40 104 c-13 -33 -12 -43 1 -24 8 12 12 12 16 2 4 -10 8 -10 19 -1 11 9 14 8 14 -1 0 -8 2 -11 5 -8 10 10 -15 58 -30 58 -9 0 -20 -12 -25 -26z"/>
 </g>
<g id="layer104" fill="#eaf8fe" stroke="none">
 <path d="M40 101 c-13 -26 -13 -40 1 -21 9 12 12 13 16 1 5 -11 7 -11 14 0 8 12 11 11 19 -1 13 -20 13 -4 0 21 -6 10 -17 19 -25 19 -8 0 -19 -9 -25 -19z"/>
 </g>

</svg>