<?xml version="1.0" standalone="no"?>
<!DOCTYPE svg PUBLIC "-//W3C//DTD SVG 1.1//EN" "http://www.w3.org/Graphics/SVG/1.1/DTD/svg11.dtd" >
<svg>
<metadata>
Created by FontForge 20090914 at Thu Jul  2 10:33:54 2020
 By www-data
Copyright (c) 2015 by Fontfabric LLC. All rights reserved.
</metadata>
<defs>
<font id="MullerUltraLight" horiz-adv-x="577" >
  <font-face 
    font-family="Muller UltraLight"
    font-weight="250"
    font-stretch="normal"
    units-per-em="1000"
    panose-1="0 0 0 0 0 0 0 0 0 0"
    ascent="780"
    descent="-220"
    x-height="480"
    cap-height="700"
    bbox="-158 -231.046 1219 932"
    underline-thickness="50"
    underline-position="-175"
    unicode-range="U+0020-U+25CA"
  />
<missing-glyph horiz-adv-x="283" 
 />
    <glyph glyph-name="f_f" unicode="ff" horiz-adv-x="666" 
d="M689 662c-27.333 15.333 -63.333 23 -108 23c-84 0 -126 -40 -126 -120v-85h205v-36h-205v-444h-38v444h-272v-444h-38v444h-84v36h84v57c0 50.667 16 89.667 48 117s72.667 41 122 41c56.667 0 109.334 -16 158.001 -48c24 49.333 70.333 74 139 74
c43.333 0 81.666 -7.66699 114.999 -23v-36zM145 480h272v87c0 16.667 1.66699 32.667 5 48c-42.667 29.333 -90.667 44 -144 44c-40 0 -72.167 -10.667 -96.5 -32s-36.5 -51.333 -36.5 -90v-57z" />
    <glyph glyph-name="f_f_i" unicode="ffi" horiz-adv-x="845" 
d="M145 0h-38v444h-84v36h84v57c0 50.667 16.333 89.667 49 117s75 41 127 41c54 0 106.333 -16.667 157 -50c30.667 46.667 79.667 70 147 70c52 0 103 -14.333 153 -43v-39c-48 30.667 -98.667 46 -152 46c-40 0 -72.167 -10.5 -96.5 -31.5s-36.5 -50.5 -36.5 -88.5v-79
h305v-480h-38v444h-267v-444h-38v444h-272v-444zM145 537v-57.001h272v79c0 20.667 3 39.334 9 56.001c-44 29.333 -91.333 44 -142 44c-42.667 0 -76.5 -10.667 -101.5 -32s-37.5 -51.333 -37.5 -90z" />
    <glyph glyph-name="f_f_l" unicode="ffl" horiz-adv-x="855" 
d="M732 680l0.000976562 16.001l38 11v-707h-38v644c-43.333 23.333 -91.333 35 -144 35c-40 0 -72.167 -10.833 -96.5 -32.5s-36.5 -52.834 -36.5 -93.501v-73h184v-36h-184v-444h-38v444h-272v-444h-38v444h-84v36h84v57c0 50.667 16.333 89.667 49 117s75 41 127 41
c52.667 0 105.667 -17 159 -51c28.667 47.333 77 71 145 71c51.333 0 99.666 -11.667 144.999 -35zM417.001 480.001v73c0 20.667 3.33301 41 10 61c-43.333 30 -91 45 -143 45c-42.667 0 -76.5 -10.667 -101.5 -32s-37.5 -51.333 -37.5 -90v-57h272z" />
    <glyph glyph-name=".notdef" horiz-adv-x="283" 
 />
    <glyph glyph-name="space" unicode=" " horiz-adv-x="263" 
 />
    <glyph glyph-name="exclam" unicode="!" horiz-adv-x="205" 
d="M120 177h-34l-3 523h40zM132 22c0 -8.66699 -2.83301 -15.667 -8.5 -21s-12.834 -8 -21.501 -8c-8 0 -14.833 2.66699 -20.5 8s-8.5 12.333 -8.5 21s2.83301 15.667 8.5 21s12.5 8 20.5 8c8.66699 0 15.834 -2.66699 21.501 -8s8.5 -12.333 8.5 -21z" />
    <glyph glyph-name="quotedbl" unicode="&#x22;" horiz-adv-x="267" 
d="M195 556h-27v144h38zM95 556h-27v144h38z" />
    <glyph glyph-name="numbersign" unicode="#" horiz-adv-x="648" 
d="M127 0h-39l44 185h-92v34h100l58 243h-108v34h116l43 185h39l-44 -185h234l43 185h39l-44 -185h91v-34h-99l-57 -243h106v-34h-114l-44 -185h-39l44 185h-234zM237 462l-58 -243h234l57 243h-233z" />
    <glyph glyph-name="dollar" unicode="$" horiz-adv-x="569" 
d="M300 -130l-33.998 0.000976562v120c-82 4 -153.667 23.333 -215 58v40c71.333 -40.667 151 -61 239 -61c59.333 0 107.166 10.667 143.499 32s54.5 55.333 54.5 102c0 30 -8 55.5 -24 76.5s-36.667 37.333 -62 49s-53.5 22 -84.5 31l-93 27.5
c-31 9.33301 -59.167 20.5 -84.5 33.5s-46 31.167 -62 54.5s-24 51.333 -24 84c0 54 20.167 95.667 60.5 125s90.833 45.333 151.5 48v120h34v-120c70 -2 131.667 -18 185 -48v-39c-58 33.333 -124.667 50 -200 50c-56 0 -101.833 -11.167 -137.5 -33.5
s-53.5 -56.166 -53.5 -101.499c0 -28 8 -52 24 -72s36.667 -35.5 62 -46.5s53.5 -20.833 84.5 -29.5s62 -17.834 93 -27.501s59.167 -21.167 84.5 -34.5s46 -32.166 62 -56.499s24 -53.5 24 -87.5c0 -58.667 -21.333 -102.334 -64 -131.001
s-97.334 -43.334 -164.001 -44.001v-119z" />
    <glyph glyph-name="percent" unicode="%" horiz-adv-x="879" 
d="M255 -60h-39l409 820h39zM339 564c0 -46 -14.667 -82 -44 -108s-65 -39 -107 -39s-77.833 13 -107.5 39s-44.5 62 -44.5 108s14.833 82 44.5 108s65.5 39 107.5 39s77.667 -13 107 -39s44 -62 44 -108zM73 564c0 -34.667 10.833 -62.167 32.5 -82.5
s49.5 -30.5 83.5 -30.5c32.667 0 60 10.333 82 31s33 48 33 82s-11 61.333 -33 82s-49.333 31 -82 31c-34 0 -61.833 -10.167 -83.5 -30.5s-32.5 -47.833 -32.5 -82.5zM843 136c0 -46 -14.667 -82 -44 -108s-65 -39 -107 -39s-77.833 13 -107.5 39s-44.5 62 -44.5 108
s14.833 82 44.5 108s65.5 39 107.5 39s77.667 -13 107 -39s44 -62 44 -108zM577 136c0 -34.667 10.833 -62.167 32.5 -82.5s49.5 -30.5 83.5 -30.5c32.667 0 60 10.333 82 31s33 48 33 82s-11 61.333 -33 82s-49.333 31 -82 31c-34 0 -61.833 -10.167 -83.5 -30.5
s-32.5 -47.833 -32.5 -82.5z" />
    <glyph glyph-name="ampersand" unicode="&#x26;" horiz-adv-x="688" 
d="M551 113l125 -113h-48l-99 88c-64 -66 -146.667 -99 -248 -99c-70 0 -125.167 16.5 -165.5 49.5s-60.5 74.5 -60.5 124.5c0 74 53.667 142.667 161 206c-64.667 63.333 -97 121 -97 173c0 46 18.833 85.667 56.5 119s86.5 50 146.5 50c51.333 0 93.166 -13 125.499 -39
s48.5 -59.667 48.5 -101c0 -12 -2 -23.833 -6 -35.5s-8.66699 -22 -14 -31s-13.666 -18.833 -24.999 -29.5s-20.833 -19.167 -28.5 -25.5s-19.667 -14.5 -36 -24.5l-35.5 -21.5c-7.33301 -4.33301 -20.333 -11.5 -39 -21.5s-30.667 -16.667 -36 -20l6 -6l240 -217
c40 52 59.333 111.333 58 178h40c0 -76 -23 -144 -69 -204zM322 674c-50 0 -89.833 -13 -119.5 -39s-44.5 -57 -44.5 -93c0 -44 30.333 -95.667 91 -155c4.66699 2.66699 17.334 9.33398 38.001 20.001s34.667 18.334 42 23.001l37 22.5c17.333 10.333 29.833 19 37.5 26
s16.5 15.667 26.5 26s17 20.666 21 30.999s6 21.166 6 32.499c0 31.333 -12.333 56.833 -37 76.5s-57.334 29.5 -98.001 29.5zM95 164c0 -40.667 16.666 -73.835 49.999 -99.502s79.333 -38.5 138 -38.5c88.667 0 161.334 29.333 218.001 88l-253 225
c-0.666992 0.666992 -1.5 1.33398 -2.5 2.00098s-1.83301 1.33398 -2.5 2.00098c-45.333 -26 -81.333 -53 -108 -81s-40 -60.667 -40 -98z" />
    <glyph glyph-name="quotesingle" unicode="'" horiz-adv-x="167" 
d="M95 556h-27v144h38z" />
    <glyph glyph-name="parenleft" unicode="(" horiz-adv-x="257" 
d="M197 808l38 -0.00585938c-44.667 -63.333 -79.834 -135.666 -105.501 -216.999s-38.5 -161.666 -38.5 -240.999s12.833 -159.666 38.5 -240.999s60.834 -153.666 105.501 -216.999h-38c-45.333 64.667 -81.333 137.334 -108 218.001s-40 160.667 -40 240
s13.333 159.333 40 240s62.667 153.334 108 218.001z" />
    <glyph glyph-name="parenright" unicode=")" horiz-adv-x="257" 
d="M22 808l38 0.00488281c46 -64.667 82.167 -137.334 108.5 -218.001s39.5 -160.667 39.5 -240c0 -78.667 -13.333 -158.5 -40 -239.5s-62.667 -153.833 -108 -218.5h-38c44.667 63.333 79.834 135.666 105.501 216.999s38.5 161.666 38.5 240.999
s-12.833 159.666 -38.5 240.999s-60.834 153.666 -105.501 216.999z" />
    <glyph glyph-name="asterisk" unicode="*" horiz-adv-x="427" 
d="M213 525l-82 -119l-29 21l87 113l-135 40l13 34l132 -48l-4 134h36l-4 -134l133 48l12 -34l-135 -40l87 -113l-29 -21z" />
    <glyph glyph-name="plus" unicode="+" horiz-adv-x="534" 
d="M285 368h197v-36h-197v-197h-36v197h-197v36h197v197h36v-197z" />
    <glyph glyph-name="comma" unicode="," horiz-adv-x="203" 
d="M70 -144h-32l51 218h40z" />
    <glyph glyph-name="hyphen" unicode="-" horiz-adv-x="485" 
d="M69 262h347v-36h-347v36z" />
    <glyph glyph-name="period" unicode="." horiz-adv-x="198" 
d="M129 23c0 -9.33301 -2.83203 -16.666 -8.49902 -21.999s-12.834 -8 -21.501 -8s-15.834 2.66699 -21.501 8s-8.5 12.666 -8.5 21.999c0 8.66699 3 15.667 9 21s13 8 21 8c8.66699 0 15.834 -2.66699 21.501 -8s8.5 -12.333 8.5 -21z" />
    <glyph glyph-name="slash" unicode="/" horiz-adv-x="406" 
d="M69 -57h-30l297 814h30z" />
    <glyph glyph-name="zero" unicode="0" horiz-adv-x="702" 
d="M57 340c0 106 25 191.002 75 255.002s123 96 219 96c96.667 0 169.834 -31.833 219.501 -95.5s74.5 -148.834 74.5 -255.501s-24.833 -191.834 -74.5 -255.501s-122.834 -95.5 -219.501 -95.5c-96 0 -169 32 -219 96s-75 149 -75 255zM605 340.002
c0 97.333 -21.333 173.833 -64 229.5s-106 83.5 -190 83.5s-147.333 -27.833 -190 -83.5s-64 -132.167 -64 -229.5s21.333 -173.833 64 -229.5s106 -83.5 190 -83.5s147.333 27.833 190 83.5s64 132.167 64 229.5z" />
    <glyph glyph-name="one" unicode="1" horiz-adv-x="406" 
d="M219 680h28v-642h138v-38h-331v38h153v599l-153 -58v38z" />
    <glyph glyph-name="two" unicode="2" horiz-adv-x="562" 
d="M72 628c60 42 129.001 63.001 207.001 63.001c65.333 0 118.333 -15.333 159 -46s61 -72 61 -124c0 -22.667 -4 -44 -12 -64s-17.333 -37.167 -28 -51.5s-25.834 -29.5 -45.501 -45.5s-37 -28.667 -52 -38l-59.5 -36c-68 -39.333 -113 -68.666 -135 -87.999
c-50 -44.667 -75.667 -98 -77 -160h417v-38h-460v22c0 30.667 4.5 59.167 13.5 85.5s19.5 48.166 31.5 65.499s29 35.166 51 53.499s41 32.5 57 42.5s37.333 22.667 64 38c2 1.33301 3.66699 2.33301 5 3s2.83301 1.5 4.5 2.5s3.16699 1.83301 4.5 2.5l56 34
c10.667 6.66699 26.167 17.667 46.5 33s34.666 28.666 42.999 39.999s16.333 25.833 24 43.5s11.5 36.5 11.5 56.5c0 40.667 -16.667 72.834 -50 96.501s-77.666 35.5 -132.999 35.5c-70.667 0 -138.667 -21.667 -204 -65v39z" />
    <glyph glyph-name="three" unicode="3" horiz-adv-x="586" 
d="M502 510c0 -36.667 -11 -69.502 -33 -98.502s-53.333 -47.833 -94 -56.5c44.667 -8.66699 81.667 -27.5 111 -56.5s44 -68.5 44 -118.5c0 -60 -21.667 -106.833 -65 -140.5s-99.333 -50.5 -168 -50.5c-96 0 -175 15 -237 45v39c64 -31.333 142 -46.666 234 -45.999
c60 0 108 13.333 144 40s54 65 54 115c0 51.333 -18.5 89.333 -55.5 114s-84.5 37 -142.5 37h-100v38l96 -1c56.667 0 99.667 13.167 129 39.5s44 58.833 44 97.5c0 42.667 -16.333 77.834 -49 105.501s-78 41.5 -136 41.5c-71.333 0 -140 -15.667 -206 -47v39
c62 30 132 45 210 45c66.667 0 120 -17.333 160 -52s60 -77.667 60 -129z" />
    <glyph glyph-name="four" unicode="4" horiz-adv-x="637" 
d="M420 680h43v-477h142v-38h-142v-165h-39v165h-397v35zM424 203v423l-347 -423h347z" />
    <glyph glyph-name="five" unicode="5" horiz-adv-x="574" 
d="M99 680l390.999 0.00195312v-38h-353l-18 -268c50 16 101.333 24 154 24c72 0 132 -16.833 180 -50.5s72 -84.834 72 -153.501c0 -61.333 -22.667 -110.833 -68 -148.5s-105.333 -56.5 -180 -56.5c-83.333 0 -155.666 15.333 -216.999 46v38
c62.667 -31.333 133.667 -47 213 -47c65.333 0 117 15.167 155 45.5s57 71.166 57 122.499c0 57.333 -20.833 99.5 -62.5 126.5s-95.167 40.5 -160.5 40.5c-62 0 -123.333 -10.667 -184 -32z" />
    <glyph glyph-name="six" unicode="6" horiz-adv-x="607" 
d="M98 313c70.667 66.667 150.668 99.999 240.001 99.999c62 0 115 -18.167 159 -54.5s66 -87.833 66 -154.5s-22 -119.167 -66 -157.5s-99.333 -57.5 -166 -57.5c-89.333 0 -157.166 29.333 -203.499 88s-69.5 140 -69.5 244c0 126 26.667 219.167 80 279.5
s126.666 90.5 219.999 90.5c53.333 0 103 -12.333 149 -37v-38c-46 24.667 -95.333 37 -148 37c-80.667 0 -144.334 -26.667 -191.001 -80s-70 -137.666 -70 -252.999v-7zM100.001 269.999c7.33301 -78 30.5 -138.168 69.5 -180.501s92.167 -63.5 159.5 -63.5
c56.667 0 103.167 15.333 139.5 46s54.5 74.334 54.5 131.001c0 58 -18.333 101.333 -55 130s-82.667 43 -138 43c-42 0 -83.333 -9.16699 -124 -27.5s-76 -44.5 -106 -78.5z" />
    <glyph glyph-name="seven" unicode="7" horiz-adv-x="520" 
d="M35 680h466v-34l-312 -646h-43l310 642h-421v38z" />
    <glyph glyph-name="eight" unicode="8" horiz-adv-x="643" 
d="M81 524c0 46 20.3301 85.3301 60.9971 117.997s100.334 49 179.001 49c73.333 0 131.833 -17.667 175.5 -53s65.834 -76.666 66.501 -123.999c0.666992 -39.333 -8.83301 -75 -28.5 -107s-47.5 -58.333 -83.5 -79c42.667 -17.333 76.167 -38.833 100.5 -64.5
s36.5 -58.5 36.5 -98.5c0 -48.667 -22.833 -90.167 -68.5 -124.5s-111.167 -51.5 -196.5 -51.5s-151.166 18.5 -197.499 55.5s-69.5 83.167 -69.5 138.5c0 40 11.5 77.333 34.5 112s55.5 62.334 97.5 83.001c-71.333 34.667 -107 83.334 -107 146.001zM324.997 329.997
c-42.667 11.333 -76.332 21.9961 -100.999 31.9961c-40.667 -17.333 -72.167 -41.666 -94.5 -72.999s-33.5 -65.666 -33.5 -102.999c0 -48 19.5 -86.667 58.5 -116s95.5 -44 169.5 -44c69.333 0 124 13.333 164 40s60 59.334 60 98.001c0 20 -4 37.833 -12 53.5
s-18 28.667 -30 39s-27.667 20 -47 29s-37.833 16.333 -55.5 22s-38.834 11.834 -63.501 18.501c-6.66699 2 -11.667 3.33301 -15 4zM522.999 507.993c0 38.667 -18.1699 72.667 -54.5029 102s-85.833 44 -148.5 44c-64.667 0 -114.167 -12.5 -148.5 -37.5
s-51.5 -55.5 -51.5 -91.5c0 -24 5.33301 -44.833 16 -62.5s26.334 -32.167 47.001 -43.5s39.834 -20.333 57.501 -27s39.834 -13.667 66.501 -21c6.66699 -2 11.667 -3.33301 15 -4c28 -7.33301 59 -16 93 -26c34 18 60.5 41.5 79.5 70.5s28.5 61.167 28.5 96.5z" />
    <glyph glyph-name="nine" unicode="9" horiz-adv-x="607" 
d="M44 476c0 66.667 21.999 119.168 65.999 157.501s99.333 57.5 166 57.5c89.333 0 157.166 -29.333 203.499 -88s69.5 -140 69.5 -244c0 -126 -26.667 -219.167 -80 -279.5s-126.666 -90.5 -219.999 -90.5c-53.333 0 -103 12.333 -149 37v38
c46 -24.667 95.333 -37 148 -37c81.333 0 145.333 26.667 192 80s70 137.666 70 252.999v8c-71.333 -67.333 -151.666 -101 -240.999 -101c-62 0 -115 18.167 -159 54.5s-66 87.833 -66 154.5zM83.999 477.001c0 -58 18.498 -101.331 55.498 -129.998s83.167 -43 138.5 -43
c42 0 83.333 9.33301 124 28s76 45 106 79c-7.33301 77.333 -30.666 137.166 -69.999 179.499s-92.666 63.5 -159.999 63.5c-56.667 0 -103.167 -15.333 -139.5 -46s-54.5 -74.334 -54.5 -131.001z" />
    <glyph glyph-name="colon" unicode=":" horiz-adv-x="198" 
d="M129 402c0 -8.66699 -2.83301 -15.667 -8.5 -21s-12.834 -8 -21.501 -8c-8 0 -15 2.66699 -21 8s-9 12.333 -9 21s3 15.667 9 21s13 8 21 8c8.66699 0 15.834 -2.66699 21.501 -8s8.5 -12.333 8.5 -21zM129 23c0 -9.33301 -2.83203 -16.666 -8.49902 -21.999
s-12.834 -8 -21.501 -8s-15.834 2.66699 -21.501 8s-8.5 12.666 -8.5 21.999c0 8.66699 3 15.667 9 21s13 8 21 8c8.66699 0 15.834 -2.66699 21.501 -8s8.5 -12.333 8.5 -21z" />
    <glyph glyph-name="semicolon" unicode=";" horiz-adv-x="288" 
d="M119 -144h-32l51 218h40zM177 443c0 -8.66699 -2.83398 -15.667 -8.50098 -21s-12.834 -8 -21.501 -8c-8 0 -15 2.66699 -21 8s-9 12.333 -9 21c0 9.33301 2.83301 16.666 8.5 21.999s12.834 8 21.501 8s15.834 -2.66699 21.501 -8s8.5 -12.666 8.5 -21.999z" />
    <glyph glyph-name="less" unicode="&#x3c;" horiz-adv-x="483" 
d="M407 209v-38l-361 159v40l361 159v-38l-322 -141z" />
    <glyph glyph-name="equal" unicode="=" horiz-adv-x="543" 
d="M470 422h-397v37h397v-37zM470 241h-397v37h397v-37z" />
    <glyph glyph-name="greater" unicode="&#x3e;" horiz-adv-x="483" 
d="M437 330l-361 -159v38l322 141l-322 141v38l361 -159v-40z" />
    <glyph glyph-name="question" unicode="?" horiz-adv-x="488" 
d="M251 192l-38.0029 0.00195312c0 24.667 6.66699 49.667 20 75s29.5 48.666 48.5 69.999l57 64.5c19 21.667 35.167 45 48.5 70s20 49.5 20 73.5c0 40.667 -16.167 72.167 -48.5 94.5s-76.833 33.5 -133.5 33.5c-63.333 0 -125.666 -18.667 -186.999 -56v38
c58.667 37.333 122.667 56 192 56c65.333 0 117.833 -14.333 157.5 -43s59.5 -68.667 59.5 -120c0 -26.667 -6.66699 -53.334 -20 -80.001s-29.666 -51.167 -48.999 -73.5l-58 -65.5c-19.333 -21.333 -35.666 -44 -48.999 -68s-20 -47 -20 -69zM260.997 23.002
c0 -9.33301 -2.83203 -16.666 -8.49902 -21.999s-12.834 -8 -21.501 -8s-15.834 2.66699 -21.501 8s-8.5 12.666 -8.5 21.999c0 8.66699 3 15.667 9 21s13 8 21 8c8.66699 0 15.834 -2.66699 21.501 -8s8.5 -12.333 8.5 -21z" />
    <glyph glyph-name="at" unicode="@" horiz-adv-x="1056" 
d="M50 240c0 60.667 10.834 119.002 32.501 175.002s52.5 106.167 92.5 150.5s91.167 79.666 153.5 105.999s131.5 39.5 207.5 39.5c58.667 0 113.667 -8.83301 165 -26.5s95 -41.167 131 -70.5s67 -62.666 93 -99.999s45.167 -76 57.5 -116s18.5 -79.667 18.5 -119
c0 -87.333 -16.667 -154.166 -50 -200.499s-77 -69.5 -131 -69.5c-40.667 0 -73.334 10.667 -98.001 32s-39.334 52.333 -44.001 93c-16 -31.333 -39 -56.166 -69 -74.499s-63.333 -27.5 -100 -27.5c-56.667 0 -103.334 19 -140.001 57s-55 87.667 -55 149
c0 60.667 18.333 110.167 55 148.5s83.334 57.5 140.001 57.5c37.333 0 70.666 -9.33301 99.999 -28s51.333 -42.334 66 -71.001v90h37v-280c0 -35.333 9.16699 -62.833 27.5 -82.5s45.166 -29.5 80.499 -29.5c43.333 0 77.833 20.667 103.5 62s38.5 99.333 38.5 174
c0 45.333 -9.5 91 -28.5 137s-45.667 88.167 -80 126.5s-79.333 69.666 -135 93.999s-116.5 36.5 -182.5 36.5c-69.333 0 -132.666 -12 -189.999 -36s-104.333 -56.167 -141 -96.5s-65 -86.333 -85 -138s-30 -105.834 -30 -162.501c0 -67.333 12.667 -128.833 38 -184.5
s59.5 -101.334 102.5 -137.001s92.667 -63.167 149 -82.5s115.833 -29 178.5 -29c80.667 0 155 12 223 36v-38c-67.333 -24 -142 -36 -224 -36c-67.333 0 -131.166 10.5 -191.499 31.5s-114.166 50.833 -161.499 89.5s-84.833 88.167 -112.5 148.5s-41.5 127.5 -41.5 201.5z
M675.001 290.002c-10.667 33.333 -30.667 61.333 -60 84s-63.333 34 -102 34c-46 0 -84.333 -15.5 -115 -46.5s-46 -72.167 -46 -123.5s15.333 -92.5 46 -123.5s69 -46.5 115 -46.5c38.667 0 72.667 11.333 102 34s49.333 50.667 60 84v104z" />
    <glyph glyph-name="A" unicode="A" horiz-adv-x="708" 
d="M57 0h-43l318 700h45l317 -700h-42l-93 204h-410zM347 642l-180.999 -401h378l-181 401c-0.666992 2 -1.83398 5 -3.50098 9s-3.16699 7 -4.5 9c-0.666992 -2 -2 -5 -4 -9s-3.33301 -7 -4 -9z" />
    <glyph glyph-name="B" unicode="B" horiz-adv-x="678" 
d="M101 700l261.003 -0.00195312c72 0 129.167 -14.5 171.5 -43.5s63.5 -72.833 63.5 -131.5c0 -44.667 -13 -80.167 -39 -106.5s-58.667 -43.166 -98 -50.499c20 -4 38.667 -9.66699 56 -17s34.666 -17.5 51.999 -30.5s31.166 -30.833 41.499 -53.5s15.5 -48.667 15.5 -78
c0 -31.333 -6 -58.833 -18 -82.5s-26.833 -42 -44.5 -55s-39.167 -23.667 -64.5 -32s-48.833 -13.666 -70.5 -15.999s-44.834 -3.5 -69.501 -3.5h-257v700zM585.003 192.998c0 24 -4.83301 45.332 -14.5 63.999s-21.5 33.5 -35.5 44.5s-30.333 20 -49 27
s-36.334 11.833 -53.001 14.5s-33 4 -49 4h-243v-309h210c24.667 0 46.334 0.833008 65.001 2.5s39.167 5.5 61.5 11.5s40.833 14.333 55.5 25s27 25.834 37 45.501s15 43.167 15 70.5zM557.003 519.997c0 94.667 -65.999 142 -197.999 142h-218v-277h251
c45.333 0 84.166 12 116.499 36s48.5 57 48.5 99z" />
    <glyph glyph-name="C" unicode="C" horiz-adv-x="657" 
d="M51 342c0 58.667 10.501 111.997 31.501 159.997s48.833 86.833 83.5 116.5s73.167 52.5 115.5 68.5s86.166 24 131.499 24c72 0 137.333 -16 196 -48v-40c-55.333 33.333 -119 50 -191 50c-40.667 0 -80 -7 -118 -21s-72.833 -34.167 -104.5 -60.5
s-57 -61.166 -76 -104.499s-28.5 -91.666 -28.5 -144.999c0 -51.333 9.66699 -97.666 29 -138.999s44.833 -74.5 76.5 -99.5s66.667 -44 105 -57s77.833 -19.5 118.5 -19.5c76 0 141.667 17 197 51v-40c-59.333 -32.667 -127.333 -49 -204 -49
c-44.667 0 -88.167 7.5 -130.5 22.5s-80.833 36.5 -115.5 64.5s-62.667 65.167 -84 111.5s-32 97.833 -32 154.5z" />
    <glyph glyph-name="D" unicode="D" horiz-adv-x="731" 
d="M101 700h207c120.667 0 212.667 -32.167 276 -96.5s95 -148.833 95 -253.5s-31.667 -189.167 -95 -253.5s-155.333 -96.5 -276 -96.5h-207v700zM639 350c0 96 -28 172 -84 228s-138.333 84 -247 84h-167v-624h167c108.667 0 191 28 247 84s84 132 84 228z" />
    <glyph glyph-name="E" unicode="E" horiz-adv-x="624" 
d="M101 700h459v-38h-419v-291h389v-38h-389v-295h428v-38h-468v700z" />
    <glyph glyph-name="F" unicode="F" horiz-adv-x="597" 
d="M101 700h461v-38h-421v-300h392v-38h-392v-324h-40v700z" />
    <glyph glyph-name="G" unicode="G" horiz-adv-x="708" 
d="M52 350c0 60 10.502 113.671 31.502 161.004s49.333 85.166 85 113.499s75 49.833 118 64.5s87.833 22 134.5 22c74.667 0 142.667 -15.667 204 -47v-39c-56.667 32 -123 48 -199 48c-42.667 0 -83.334 -6.33301 -122.001 -19s-74.167 -31.334 -106.5 -56.001
s-58 -58.334 -77 -101.001s-28.5 -91.667 -28.5 -147c0 -56 9.66699 -105.333 29 -148s45.333 -76.334 78 -101.001s68.5 -43.167 107.5 -55.5s80.5 -18.5 124.5 -18.5c64 0 121.667 12.333 173 37v303h39v-330c-65.333 -32 -137 -48 -215 -48
c-48.667 0 -94.834 6.83301 -138.501 20.5s-83.5 34.5 -119.5 62.5s-64.667 65.833 -86 113.5s-32 102.5 -32 164.5z" />
    <glyph glyph-name="H" unicode="H" horiz-adv-x="766" 
d="M625 700h40v-700h-40v333h-484v-333h-40v700h40v-329h484v329z" />
    <glyph glyph-name="I" unicode="I" horiz-adv-x="242" 
d="M101 700h40v-700h-40v700z" />
    <glyph glyph-name="J" unicode="J" horiz-adv-x="521" 
d="M163 700h263.999v-513c0 -64.667 -19.833 -113.667 -59.5 -147s-92.167 -50 -157.5 -50c-74.667 0 -134.334 14.333 -179.001 43v40c44.667 -30 102.334 -45 173.001 -45c56.667 0 101.334 13.167 134.001 39.5s49 66.5 49 120.5v474h-224v38z" />
    <glyph glyph-name="K" unicode="K" horiz-adv-x="656" 
d="M141 0h-40v700h40v-322h202l237 322h46l-252 -341l278 -359h-47l-262 340h-202v-340z" />
    <glyph glyph-name="L" unicode="L" horiz-adv-x="576" 
d="M101 700h40v-662h418v-38h-458v700z" />
    <glyph glyph-name="M" unicode="M" horiz-adv-x="898" 
d="M764 700h33v-700h-40v623l-296 -435h-24l-296 435v-623h-40v700h32l316 -463z" />
    <glyph glyph-name="N" unicode="N" horiz-adv-x="766" 
d="M141 0h-40v700h36l488 -633v61v572h40v-700h-35l-489 632v-59v-573z" />
    <glyph glyph-name="O" unicode="O" horiz-adv-x="825" 
d="M50 350c0 44.667 7.66699 88.167 23 130.5s37.5 80.833 66.5 115.5s67.167 62.5 114.5 83.5s100 31.5 158 31.5c58.667 0 111.667 -10.5 159 -31.5s85.5 -48.833 114.5 -83.5s51.167 -73.167 66.5 -115.5s23 -85.833 23 -130.5s-7.66699 -88.167 -23 -130.5
s-37.5 -80.833 -66.5 -115.5s-67.167 -62.5 -114.5 -83.5s-100.333 -31.5 -159 -31.5c-58 0 -110.667 10.5 -158 31.5s-85.5 48.833 -114.5 83.5s-51.167 73.167 -66.5 115.5s-23 85.833 -23 130.5zM735 350c0 40.667 -6.83301 79.834 -20.5 117.501s-33.334 72 -59.001 103
s-59.667 55.833 -102 74.5s-89.5 28 -141.5 28s-99 -9.33301 -141 -28s-75.833 -43.5 -101.5 -74.5s-45.334 -65.333 -59.001 -103s-20.5 -76.834 -20.5 -117.501s6.83301 -79.834 20.5 -117.501s33.334 -72 59.001 -103s59.5 -55.833 101.5 -74.5s89 -28 141 -28
s99.167 9.33301 141.5 28s76.333 43.5 102 74.5s45.334 65.333 59.001 103s20.5 76.834 20.5 117.501z" />
    <glyph glyph-name="P" unicode="P" horiz-adv-x="653" 
d="M101 700h223c195.333 0 293 -73 293 -219c0 -146.667 -97.667 -220 -293 -220h-183v-261h-40v700zM577 481c0 120.667 -83.667 181 -251 181h-185v-363h185c167.333 0 251 60.667 251 182z" />
    <glyph glyph-name="Q" unicode="Q" horiz-adv-x="825" 
d="M776 -33l-26 -26l-116 116c-63.333 -45.333 -137.333 -68 -222 -68c-58 0 -110.667 10.5 -158 31.5s-85.5 48.833 -114.5 83.5s-51.167 73.167 -66.5 115.5s-23 85.833 -23 130.5s7.66699 88.167 23 130.5s37.5 80.833 66.5 115.5s67.167 62.5 114.5 83.5
s100 31.5 158 31.5c58.667 0 111.667 -10.5 159 -31.5s85.5 -48.833 114.5 -83.5s51.167 -73.167 66.5 -115.5s23 -85.833 23 -130.5c0 -50.667 -9.66699 -99.667 -29 -147s-47.333 -88 -84 -122zM90 350c0 -40.667 6.83301 -79.833 20.5 -117.5s33.334 -72 59.001 -103
s59.5 -55.833 101.5 -74.5s89 -28 141 -28c74.667 0 139.334 19.667 194.001 59l-152 152l25 25l155 -154c33.333 30 58.5 66.333 75.5 109s25.5 86.667 25.5 132c0 40.667 -6.83301 79.834 -20.5 117.501s-33.334 72 -59.001 103s-59.667 55.833 -102 74.5
s-89.5 28 -141.5 28s-99 -9.33301 -141 -28s-75.833 -43.5 -101.5 -74.5s-45.334 -65.333 -59.001 -103s-20.5 -76.834 -20.5 -117.501z" />
    <glyph glyph-name="R" unicode="R" horiz-adv-x="685" 
d="M141 0h-40v700h266c42.667 0 82 -6.16699 118 -18.5s67 -34.5 93 -66.5s39 -72 39 -120c0 -64 -20.833 -112.5 -62.5 -145.5s-92.5 -52.167 -152.5 -57.5l260 -292h-49l-257 289h-215v-289zM141 662v-335h228c56.667 0 105.5 13.5 146.5 40.5s61.5 69.5 61.5 127.5
s-20.333 100.333 -61 127s-89.667 40 -147 40h-228z" />
    <glyph glyph-name="S" unicode="S" horiz-adv-x="568" 
d="M57 537c0 56.667 21.666 99.832 64.999 129.499s96 44.5 158 44.5c76 0 143.333 -16.333 202 -49v-39c-58 33.333 -124.667 50 -200 50c-52.667 0 -96.667 -11.167 -132 -33.5s-53 -56.166 -53 -101.499c0 -28 8 -52.333 24 -73s36.667 -37.167 62 -49.5
s53.333 -23.5 84 -33.5l92.5 -31.5c31 -11 59.167 -23.833 84.5 -38.5s46 -34.5 62 -59.5s24 -54.5 24 -88.5c0 -59.333 -22.667 -103.333 -68 -132s-102.666 -43 -171.999 -43c-88.667 0 -168 19.667 -238 59v40c71.333 -40.667 150 -61 236 -61
c59.333 0 107.833 10.667 145.5 32s56.5 55.333 56.5 102c0 30 -8 55.833 -24 77.5s-36.667 39 -62 52s-53.333 24.667 -84 35l-92.5 32c-31 11 -59.167 23.5 -84.5 37.5s-46 33 -62 57s-24 52.333 -24 85z" />
    <glyph glyph-name="T" unicode="T" horiz-adv-x="594" 
d="M14 700h566v-38h-263v-662h-40v662h-263v38z" />
    <glyph glyph-name="U" unicode="U" horiz-adv-x="750" 
d="M617 700h39.998v-455c0 -46 -7.16699 -86 -21.5 -120s-34.666 -60.667 -60.999 -80s-56 -33.5 -89 -42.5s-69.833 -13.5 -110.5 -13.5s-77.5 4.5 -110.5 13.5s-62.667 23.167 -89 42.5s-46.666 46 -60.999 80s-21.5 74 -21.5 120v455h40v-454
c0 -146 80.667 -219 242 -219s242 73 242 219v454z" />
    <glyph glyph-name="V" unicode="V" horiz-adv-x="681" 
d="M361 0h-41l-302 700h43l279 -655l280 655h43z" />
    <glyph glyph-name="W" unicode="W" horiz-adv-x="993" 
d="M925 700h43l-223 -700h-43l-206 628l-205 -628h-43l-223 700h43l202 -649l209 643h36l208 -643z" />
    <glyph glyph-name="X" unicode="X" horiz-adv-x="614" 
d="M55 0h-47l276 360l-261 340h47l237 -309l237 309h47l-260 -340l275 -360h-47l-252 329z" />
    <glyph glyph-name="Y" unicode="Y" horiz-adv-x="634" 
d="M337 0h-40v279l-276 421h45l251 -384l251 384h45l-276 -421v-279z" />
    <glyph glyph-name="Z" unicode="Z" horiz-adv-x="574" 
d="M543 0h-516v35l458 627h-441v38h490v-35l-459 -627h468v-38z" />
    <glyph glyph-name="bracketleft" unicode="[" horiz-adv-x="249" 
d="M226 -110h-150v920h150v-38h-110v-844h110v-38z" />
    <glyph glyph-name="backslash" unicode="\" horiz-adv-x="406" 
d="M367 -57h-30l-297 814h30z" />
    <glyph glyph-name="bracketright" unicode="]" horiz-adv-x="249" 
d="M173 -110h-150v38h111v844h-111v38h150v-920z" />
    <glyph glyph-name="asciicircum" unicode="^" horiz-adv-x="495" 
d="M96 398h-43l177 302h34l178 -302h-43l-152 260z" />
    <glyph glyph-name="underscore" unicode="_" horiz-adv-x="434" 
d="M434 -132h-434v36h434v-36z" />
    <glyph glyph-name="grave" unicode="`" horiz-adv-x="170" 
d="M148 776h-42l-94 137h48z" />
    <glyph glyph-name="a" unicode="a" horiz-adv-x="540" 
d="M450 77c0 -30.667 16 -46.0029 48 -46.0029c10.667 0 23 2.33301 37 7v-32c-16 -5.33301 -31.667 -8 -47 -8c-22 0 -40.167 6.33301 -54.5 19s-21.5 32.334 -21.5 59.001v13c-50 -66.667 -119.333 -100 -208 -100c-45.333 0 -84.166 12 -116.499 36
s-48.5 58.667 -48.5 104c0 52.667 20.167 91.334 60.5 116.001s89.833 37 148.5 37c55.333 0 110 -8.66699 164 -26v44c0 47.333 -14.333 85 -43 113s-69.334 42 -122.001 42c-60 0 -117 -10.333 -171 -31v37c56.667 20 114.667 30 174 30
c63.333 0 112.5 -17.167 147.5 -51.5s52.5 -82.166 52.5 -143.499v-219zM78 129.997c0 -34.667 13.001 -61.167 39.001 -79.5s57.333 -27.5 94 -27.5c41.333 0 79.833 9.83301 115.5 29.5s64.167 47.5 85.5 83.5v87c-54 17.333 -107.333 26 -160 26
c-48.667 0 -89.834 -9.5 -123.501 -28.5s-50.5 -49.167 -50.5 -90.5z" />
    <glyph glyph-name="b" unicode="b" horiz-adv-x="615" 
d="M81 700h38.001v-330c20 35.333 48.167 64.333 84.5 87s78.166 34 125.499 34c68.667 0 125.667 -23.167 171 -69.5s68 -106.833 68 -181.5s-22.667 -135.167 -68 -181.5s-102.333 -69.5 -171 -69.5c-47.333 0 -89.333 11.5 -126 34.5s-65.667 53.167 -87 90.5v-114h-35
v700zM530.001 240c0 66 -19.333 118.333 -58 157s-87.667 58 -147 58c-48 0 -90.5 -13.667 -127.5 -41s-63.167 -62 -78.5 -104v-140c15.333 -42 41.5 -76.667 78.5 -104s79.5 -41 127.5 -41c59.333 0 108.333 19.5 147 58.5s58 91.167 58 156.5z" />
    <glyph glyph-name="c" unicode="c" horiz-adv-x="493" 
d="M47 236c0 82.667 25.667 145.833 77 189.5s111.666 65.5 180.999 65.5c56 0 103.667 -13 143 -39v-37c-38.667 26.667 -85 40 -139 40c-61.333 0 -114 -18.333 -158 -55s-66 -91 -66 -163c0 -68.667 21 -121.167 63 -157.5s92.667 -54.5 152 -54.5
c57.333 0 108.333 12.667 153 38v-38c-45.333 -24 -97.666 -36 -156.999 -36c-68 0 -126.5 21.167 -175.5 63.5s-73.5 103.5 -73.5 183.5z" />
    <glyph glyph-name="d" unicode="d" horiz-adv-x="615" 
d="M496 700h37.999v-700h-35v114c-21.333 -37.333 -50.5 -67.5 -87.5 -90.5s-78.833 -34.5 -125.5 -34.5c-69.333 0 -126.5 23.167 -171.5 69.5s-67.5 106.833 -67.5 181.5s22.5 135.167 67.5 181.5s102.167 69.5 171.5 69.5c46.667 0 88.334 -11.333 125.001 -34
s65 -51.667 85 -87v330zM495.999 310c-16 42 -42.502 76.667 -79.502 104s-79.5 41 -127.5 41c-59.333 0 -108.166 -19.333 -146.499 -58s-57.5 -91 -57.5 -157c0 -65.333 19.333 -117.5 58 -156.5s87.334 -58.5 146.001 -58.5c48 0 90.5 13.667 127.5 41s63.5 62 79.5 104
v140z" />
    <glyph glyph-name="e" unicode="e" horiz-adv-x="546" 
d="M47 240c0 77.333 23.3311 138.498 69.998 183.498s101.667 67.5 165 67.5c34.667 0 65.834 -5.66699 93.501 -17s49.667 -26.166 66 -44.499s30.166 -39.166 41.499 -62.499s17.5 -47.5 18.5 -72.5s-0.166992 -49.5 -3.5 -73.5h-413
c2.66699 -65.333 25.834 -114.333 69.501 -147s96.834 -49 159.501 -49c60.667 0 112.667 12.667 156 38v-38c-44 -24 -97.667 -36 -161 -36c-74.667 0 -137 21.167 -187 63.5s-75 104.833 -75 187.5zM464.998 254.998c2.66699 22 1.33301 44.168 -4 66.501
s-14.666 43.666 -27.999 63.999s-32.833 37 -58.5 50s-55.834 19.5 -90.501 19.5c-54 0 -100.167 -17.833 -138.5 -53.5s-58.5 -84.5 -60.5 -146.5h380z" />
    <glyph glyph-name="f" unicode="f" horiz-adv-x="356" 
d="M145 0h-37.999v444h-84v36h84v77c0 53.333 15 92.333 45 117s67.333 37 112 37c43.333 0 81.666 -7.66699 114.999 -23v-36c-27.333 15.333 -63.333 23 -108 23c-84 0 -126 -40 -126 -120v-75h205v-36h-205v-444z" />
    <glyph glyph-name="g" unicode="g" horiz-adv-x="615" 
d="M47 240c0 74.667 22.501 135.168 67.501 181.501s102.167 69.5 171.5 69.5c46.667 0 88.5 -11.5 125.5 -34.5s66.167 -53.167 87.5 -90.5v114h35v-480c0 -76.667 -24.5 -134.334 -73.5 -173.001s-109.167 -58 -180.5 -58c-68.667 0 -132 15.333 -190 46v37
c60.667 -31.333 122.667 -47 186 -47s115.833 16 157.5 48s62.5 81 62.5 147v111c-20 -35.333 -48.333 -64.5 -85 -87.5s-78.334 -34.5 -125.001 -34.5c-69.333 0 -126.5 23.167 -171.5 69.5s-67.5 106.833 -67.5 181.5zM496.001 310.001
c-16 42 -42.502 76.666 -79.502 103.999s-79.5 41 -127.5 41c-59.333 0 -108.166 -19.333 -146.499 -58s-57.5 -91 -57.5 -157c0 -65.333 19.333 -117.5 58 -156.5s87.334 -58.5 146.001 -58.5c48 0 90.5 13.333 127.5 40s63.5 60.334 79.5 101.001v144z" />
    <glyph glyph-name="h" unicode="h" 
d="M81 700l38.002 -0.000976562v-315c20 28.667 46.5 53.5 79.5 74.5s70.833 31.5 113.5 31.5c54.667 0 100 -17.833 136 -53.5s54 -83.167 54 -142.5v-295h-38v291c0 52 -14.5 92.333 -43.5 121s-66.167 43 -111.5 43c-42.667 0 -80.334 -11.667 -113.001 -35
s-58.334 -51.666 -77.001 -84.999v-335h-38v700z" />
    <glyph glyph-name="i" unicode="i" horiz-adv-x="208" 
d="M123 0h-38v480h38v-480zM132 620c0 -18.667 -9.33301 -28 -28 -28s-28 9.33301 -28 28c0 18 9.33301 27 28 27s28 -9 28 -27z" />
    <glyph glyph-name="j" unicode="j" horiz-adv-x="208" 
d="M123 -109c0 -43.333 -11.667 -74.5 -35 -93.5s-52.333 -28.5 -87 -28.5c-24 0 -47.333 4 -70 12v36c16.667 -7.33301 37 -11 61 -11c62 0 93 29.667 93 89v585h38v-589zM131 620c0 -18.667 -9.33301 -28.001 -28 -28.001c-7.33301 0 -13.833 2.5 -19.5 7.5
s-8.5 11.833 -8.5 20.5s2.83301 15.334 8.5 20.001s12.167 7 19.5 7c18.667 0 28 -9 28 -27z" />
    <glyph glyph-name="k" unicode="k" horiz-adv-x="498" 
d="M494 0h-46l-209 229h-120v-229h-38v700h38v-435h123l180 215h45l-195 -234z" />
    <glyph glyph-name="l" unicode="l" horiz-adv-x="208" 
d="M85 730h38v-730h-38v730z" />
    <glyph glyph-name="m" unicode="m" horiz-adv-x="892" 
d="M119 0l-38.002 0.00195312v480h35v-92c18.667 26.667 43.834 50.5 75.501 71.5s67.834 31.5 108.501 31.5c37.333 0 69.833 -9.33301 97.5 -28s47.5 -43.667 59.5 -75c52.667 68.667 115 103 187 103c52 0 93.833 -17 125.5 -51s47.5 -77.667 47.5 -131v-309h-38v308
c0 43.333 -12.5 78.666 -37.5 105.999s-58.833 41 -101.5 41c-66.667 0 -123.667 -34.667 -171 -104c2.66699 -11.333 4 -25.333 4 -42v-309h-38v308c0 43.333 -12.5 78.666 -37.5 105.999s-58.833 41 -101.5 41c-38.667 0 -73.167 -11.333 -103.5 -34
s-54.833 -49 -73.5 -79v-342z" />
    <glyph glyph-name="n" unicode="n" 
d="M116 381c19.333 29.333 46.002 54.999 80.002 76.999s72.667 33 116 33c54.667 0 100 -17.833 136 -53.5s54 -83.167 54 -142.5v-295h-38v291c0 52 -14.5 92.333 -43.5 121s-66.167 43 -111.5 43c-42.667 0 -80.334 -11.667 -113.001 -35
s-58.334 -51.666 -77.001 -84.999v-335h-38v480h35v-99z" />
    <glyph glyph-name="o" unicode="o" horiz-adv-x="591" 
d="M46 240c0 77.333 24.5 138.5 73.5 183.5s107.5 67.5 175.5 67.5c68.667 0 127.5 -22.5 176.5 -67.5s73.5 -106.167 73.5 -183.5s-24.5 -138.5 -73.5 -183.5s-107.833 -67.5 -176.5 -67.5c-68 0 -126.5 22.5 -175.5 67.5s-73.5 106.167 -73.5 183.5zM507 240
c0 65.333 -20.5 117.333 -61.5 156s-91.167 58 -150.5 58s-109.333 -19.333 -150 -58s-61 -90.667 -61 -156s20.333 -117.333 61 -156s90.667 -58 150 -58s109.5 19.333 150.5 58s61.5 90.667 61.5 156z" />
    <glyph glyph-name="p" unicode="p" horiz-adv-x="615" 
d="M116 366c21.333 37.333 50.332 67.5 86.999 90.5s78.667 34.5 126 34.5c68.667 0 125.667 -23.167 171 -69.5s68 -106.833 68 -181.5s-22.667 -135.167 -68 -181.5s-102.333 -69.5 -171 -69.5c-47.333 0 -89.166 11.333 -125.499 34s-64.5 51.667 -84.5 87v-330h-38v700
h35v-114zM529.999 240c0 65.333 -19.333 117.5 -58 156.5s-87.667 58.5 -147 58.5c-48 0 -90.5 -13.667 -127.5 -41s-63.167 -62 -78.5 -104v-140c15.333 -42 41.5 -76.667 78.5 -104s79.5 -41 127.5 -41c59.333 0 108.333 19.333 147 58s58 91 58 157z" />
    <glyph glyph-name="q" unicode="q" horiz-adv-x="615" 
d="M47 240c0 74.667 22.501 135.167 67.501 181.5s102.167 69.5 171.5 69.5c46.667 0 88.5 -11.5 125.5 -34.5s66.167 -53.167 87.5 -90.5v114h35v-700h-38v330c-20 -35.333 -48.333 -64.333 -85 -87s-78.334 -34 -125.001 -34c-69.333 0 -126.5 23.167 -171.5 69.5
s-67.5 106.833 -67.5 181.5zM496.001 310c-16 42 -42.498 76.667 -79.498 104s-79.5 41 -127.5 41c-58.667 0 -107.334 -19.5 -146.001 -58.5s-58 -91.167 -58 -156.5c0 -66 19.167 -118.333 57.5 -157s87.166 -58 146.499 -58c48 0 90.5 13.667 127.5 41s63.5 62 79.5 104
v140z" />
    <glyph glyph-name="r" unicode="r" horiz-adv-x="344" 
d="M116 349c17.333 41.333 45.167 75.5 83.5 102.5s82.5 39.833 132.5 38.5v-38c-54.667 2 -100.667 -13 -138 -45s-62.333 -71.667 -75 -119v-288h-38v480h35v-131z" />
    <glyph glyph-name="s" unicode="s" horiz-adv-x="455" 
d="M51 365c0 42 16.8291 73.5 50.4961 94.5s73.834 31.5 120.501 31.5c62.667 0 117.667 -14 165 -42v-36c-44.667 28.667 -99 43 -163 43c-37.333 0 -69.166 -7.5 -95.499 -22.5s-39.5 -37.5 -39.5 -67.5c0 -22.667 8 -41.667 24 -57s36.167 -26.5 60.5 -33.5l79 -23.5
c28.333 -8.66699 54.666 -17.334 78.999 -26.001s44.5 -22.5 60.5 -41.5s24 -42.167 24 -69.5c0 -42 -17.667 -73.5 -53 -94.5s-79 -31.5 -131 -31.5c-32.667 0 -66.167 4.33301 -100.5 13s-62.166 20.334 -83.499 35.001v38c22.667 -15.333 50.834 -27.5 84.501 -36.5
s66.167 -13.5 97.5 -13.5c43.333 0 78.833 7.33301 106.5 22s41.5 37 41.5 67c0 26 -11.167 47 -33.5 63s-49.666 28.167 -81.999 36.5s-64.5 17.166 -96.5 26.499s-59.167 24.333 -81.5 45s-33.5 47.334 -33.5 80.001z" />
    <glyph glyph-name="t" unicode="t" horiz-adv-x="376" 
d="M105 636l38.001 11v-167h208v-36h-208v-303c0 -76.667 39.333 -115 118 -115c38.667 0 73 8 103 24v-36c-30.667 -15.333 -68.334 -23 -113.001 -23c-46 0 -81.833 12.333 -107.5 37s-38.5 60.667 -38.5 108v308h-90v36h90v156z" />
    <glyph glyph-name="u" unicode="u" 
d="M458 480l37.998 0.000976562v-480h-35v99c-19.333 -29.333 -46 -55 -80 -77s-72.667 -33 -116 -33c-56.667 0 -102.5 17.667 -137.5 53s-52.5 83 -52.5 143v295h38v-291c0 -52 14.167 -92.333 42.5 -121s65.833 -43 112.5 -43c42.667 0 80.334 11.667 113.001 35
s58.334 51.666 77.001 84.999v335z" />
    <glyph glyph-name="v" unicode="v" horiz-adv-x="525" 
d="M463 480h42l-222 -480h-41l-222 480h42l201 -437z" />
    <glyph glyph-name="w" unicode="w" horiz-adv-x="799" 
d="M734 480h40l-180 -480h-39l-156 423l-155 -423h-39l-180 480h40l160 -435l156 429h36l157 -429z" />
    <glyph glyph-name="x" unicode="x" horiz-adv-x="483" 
d="M412 480h45l-193 -234l203 -246h-44l-182 219l-181 -219h-45l204 246l-193 234h44l171 -206z" />
    <glyph glyph-name="y" unicode="y" horiz-adv-x="531" 
d="M276 40l193.997 440.001h40l-250 -564c-23.333 -52.667 -48.166 -90.334 -74.499 -113.001s-56.166 -34 -89.499 -34c-17.333 0 -34 2.33301 -50 7v34c18.667 -4.66699 34 -7 46 -7c28.667 0 53.834 10.167 75.501 30.5s42.167 52.833 61.5 97.5l29 67l-243 482h41z" />
    <glyph glyph-name="z" unicode="z" horiz-adv-x="449" 
d="M45 480h358v-33l-324 -413h338v-34h-385v33l325 413h-312v34z" />
    <glyph glyph-name="braceleft" unicode="{" horiz-adv-x="271" 
d="M231 -76v-34c-76.667 -14 -115 18.333 -115 97v251c0 31.333 -9.16699 55.333 -27.5 72s-38.833 24.334 -61.5 23.001v34c22.667 -1.33301 43.167 6.33398 61.5 23.001s27.5 40.667 27.5 72v251c0 37.333 9.33301 64.833 28 82.5s47.667 22.5 87 14.5v-34
c-28 4 -47.5 -0.333008 -58.5 -13s-16.5 -34 -16.5 -64v-239c0 -31.333 -6.5 -56.333 -19.5 -75s-29.5 -30.334 -49.5 -35.001c20 -4.66699 36.5 -16.334 49.5 -35.001s19.5 -43.667 19.5 -75v-239c0 -30 5.5 -51.333 16.5 -64s30.5 -17 58.5 -13z" />
    <glyph glyph-name="bar" unicode="|" horiz-adv-x="192" 
d="M116 -100h-40v910h40v-910z" />
    <glyph glyph-name="braceright" unicode="}" horiz-adv-x="271" 
d="M155 -13c0 -78.667 -38.333 -111 -115 -97v34c28 -4 47.667 0.333008 59 13s17 34 17 64v239c0 31.333 6.5 56.333 19.5 75s29.5 30.334 49.5 35.001c-20 4.66699 -36.5 16.334 -49.5 35.001s-19.5 43.667 -19.5 75v239c0 30 -5.66699 51.333 -17 64s-31 17 -59 13v34
c39.333 8 68.333 3.16699 87 -14.5s28 -45.167 28 -82.5v-251c0 -31.333 9.16699 -55.333 27.5 -72s38.833 -24.334 61.5 -23.001v-34c-22.667 1.33301 -43.167 -6.33398 -61.5 -23.001s-27.5 -40.667 -27.5 -72v-251z" />
    <glyph glyph-name="asciitilde" unicode="~" horiz-adv-x="581" 
d="M509 369c0.666992 -26.667 -7.16406 -48.501 -23.4971 -65.501s-38.166 -25.5 -65.499 -25.5c-24.667 0 -66.667 11.167 -126 33.5s-101 33.5 -125 33.5c-18 0 -31.833 -5 -41.5 -15s-14.167 -23.333 -13.5 -40h-37c-0.666992 27.333 7.16602 49.333 23.499 66
s38.166 25 65.499 25c25.333 0 67.333 -11 126 -33s100 -33 124 -33c17.333 0 31.166 4.83301 41.499 14.5s15.166 22.834 14.499 39.501h37z" />
    <glyph glyph-name="exclamdown" unicode="&#xa1;" horiz-adv-x="191" 
d="M116 -216h-40l3 523h34zM125 462c0 -8.66699 -2.83301 -15.667 -8.5 -21s-12.834 -8 -21.501 -8c-8 0 -14.833 2.66699 -20.5 8s-8.5 12.333 -8.5 21s2.83301 15.667 8.5 21s12.5 8 20.5 8c8.66699 0 15.834 -2.66699 21.501 -8s8.5 -12.333 8.5 -21z" />
    <glyph glyph-name="cent" unicode="&#xa2;" horiz-adv-x="511" 
d="M320 25c52.667 3.33301 98.334 16.002 137.001 38.002v-38c-38.667 -20.667 -84.334 -32.667 -137.001 -36v-109h-34v109c-65.333 3.33301 -120.833 26.166 -166.5 68.499s-68.5 101.833 -68.5 178.5c0 78 23 138.667 69 182s101.333 67.333 166 72v110h34v-109
c52 -2 96 -15 132 -39v-37c-36.667 25.333 -80.667 38.666 -132 39.999v-430zM286 454.002c-55.333 -5.33301 -102 -26.333 -140 -63s-57 -88 -57 -154c0 -64.667 19 -115 57 -151s84.667 -56 140 -60v428z" />
    <glyph glyph-name="sterling" unicode="&#xa3;" horiz-adv-x="605" 
d="M560 0h-522.001v38h33c24 0 43 8.33301 57 25s21 39.667 21 69v187h-82v38h82v106c0 76 21.333 132.833 64 170.5s94.667 56.5 156 56.5c54 0 101.667 -12.667 143 -38v-38c-41.333 26 -87.666 39 -138.999 39c-52.667 0 -96.5 -15.667 -131.5 -47
s-52.5 -79.333 -52.5 -144v-105h247v-38h-247v-187c0 -48 -14.333 -79.333 -43 -94h414v-38z" />
    <glyph glyph-name="currency" unicode="&#xa4;" horiz-adv-x="572" 
d="M166 201l-64 -64.998l-27 27l63 63c-31.333 33.333 -47 74.666 -47 123.999s15.667 90.666 47 123.999l-63 63l27 27l64 -65c34.667 25.333 74.667 38 120 38s85.333 -12.667 120 -38l64 65l27 -27l-63 -63c30.667 -34 46 -75.333 46 -124s-15.333 -90 -46 -124l63 -63
l-27 -27l-64 65c-34.667 -25.333 -74.667 -38 -120 -38s-85.333 12.667 -120 38zM129 350.002c0 -45.333 15.166 -82 45.499 -110s67.5 -42 111.5 -42s81 14 111 42s45 64.667 45 110c0 44.667 -15.167 81.167 -45.5 109.5s-67.166 42.5 -110.499 42.5
c-44 0 -81.167 -14 -111.5 -42s-45.5 -64.667 -45.5 -110z" />
    <glyph glyph-name="yen" unicode="&#xa5;" horiz-adv-x="635" 
d="M556 680h44l-244 -371h166v-34h-185v-87h185v-34h-185v-154h-39v154h-184v34h184v87h-184v34h164l-243 371h44l238 -364z" />
    <glyph glyph-name="brokenbar" unicode="&#xa6;" horiz-adv-x="210" 
d="M125 463h-40v347h40v-347zM125 -100h-40v347h40v-347z" />
    <glyph glyph-name="section" unicode="&#xa7;" horiz-adv-x="486" 
d="M422 88c0 -39.333 -17.167 -69.4951 -51.5 -90.4951s-76.833 -31.5 -127.5 -31.5c-68.667 0 -125.667 15 -171 45v36c46 -31.333 102.333 -47 169 -47c41.333 0 75.5 7.66699 102.5 23s40.5 37 40.5 65c0 13.333 -3.16699 25.5 -9.5 36.5s-13.166 19.833 -20.499 26.5
s-19.166 13.5 -35.499 20.5s-29.333 12 -39 15l-47.5 14.5c-22.667 6 -39.834 10.833 -51.501 14.5s-26.667 9.5 -45 17.5s-32 16.333 -41 25s-17.167 20.167 -24.5 34.5s-11 30.5 -11 48.5c0 54 32.667 98.333 98 133c-58.667 24.667 -88 62 -88 112
c0 39.333 16.333 70 49 92s72.667 33 120 33c59.333 0 111.666 -13.333 156.999 -40v-36c-44 28 -95.667 42 -155 42c-37.333 0 -68.833 -8 -94.5 -24s-38.5 -38 -38.5 -66c0 -16.667 3.66699 -30.834 11 -42.501s19.166 -21.667 35.499 -30s31.333 -14.833 45 -19.5
s32.834 -10.334 57.501 -17.001c6.66699 -2 11.667 -3.33301 15 -4c25.333 -6.66699 45.666 -12.834 60.999 -18.501s31.833 -13.834 49.5 -24.501s30.834 -23.834 39.501 -39.501s13 -34.5 13 -56.5c0 -52.667 -34.667 -96 -104 -130c61.333 -25.333 92 -64.333 92 -117z
M243 235.005c2 -0.666992 9.16406 -2.66699 21.4971 -6s21.5 -6.33301 27.5 -9c70 25.333 105 62 105 110c0 13.333 -2.66699 25.333 -8 36s-11.666 19.5 -18.999 26.5s-17.666 13.667 -30.999 20s-25.5 11.333 -36.5 15s-25.167 7.83398 -42.5 12.501
c-37.333 10.667 -59 17 -65 19c-26 -8.66699 -49 -23 -69 -43s-30 -43.333 -30 -70c0 -14 3 -26.333 9 -37s12.667 -19.5 20 -26.5s18.833 -13.833 34.5 -20.5s28.334 -11.334 38.001 -14.001z" />
    <glyph glyph-name="dieresis" unicode="&#xa8;" horiz-adv-x="282" 
d="M273 836c0 -8.66699 -3 -16 -9 -22s-13.333 -9 -22 -9s-16 3 -22 9s-9 13.333 -9 22c0 8 3 15.167 9 21.5s13.333 9.5 22 9.5s16 -3.16699 22 -9.5s9 -13.5 9 -21.5zM72 836c0 -8.66699 -3 -16 -9 -22s-13.333 -9 -22 -9s-16 3 -22 9s-9 13.333 -9 22
c0 8 3 15.167 9 21.5s13.333 9.5 22 9.5s16 -3.16699 22 -9.5s9 -13.5 9 -21.5z" />
    <glyph glyph-name="copyright" unicode="&#xa9;" horiz-adv-x="854" 
d="M800 350c0 -57.333 -11.167 -109.666 -33.5 -156.999s-51.666 -85.333 -87.999 -114s-76.166 -50.834 -119.499 -66.501s-87.333 -23.5 -132 -23.5s-88.667 7.83301 -132 23.5s-83.166 37.834 -119.499 66.501s-65.666 66.667 -87.999 114s-33.5 99.666 -33.5 156.999
s11.167 109.666 33.5 156.999s51.666 85.333 87.999 114s76.166 50.834 119.499 66.501s87.333 23.5 132 23.5s88.667 -7.83301 132 -23.5s83.166 -37.834 119.499 -66.501s65.666 -66.667 87.999 -114s33.5 -99.666 33.5 -156.999zM573 183
c-43.333 -22.667 -87.667 -34.001 -133 -34.001c-52.667 0 -98.667 16.667 -138 50s-59 81 -59 143c0 68.667 20.667 120.667 62 156s90 53 146 53c45.333 0 86 -11.667 122 -35v-30c-35.333 22.667 -74.333 34 -117 34c-49.333 0 -91.666 -14.667 -126.999 -44
s-53 -73.666 -53 -132.999c0 -54 16.667 -94.667 50 -122s73.666 -41 120.999 -41c43.333 0 85.333 11 126 33v-30zM72.999 349.999c0 -54.667 10.5 -104.334 31.5 -149.001s48.667 -80.834 83 -108.501s72 -48.834 113 -63.501s83.167 -22 126.5 -22
s85.666 7.33301 126.999 22s79.166 35.834 113.499 63.501s62 63.834 83 108.501s31.5 94.334 31.5 149.001s-10.5 104.334 -31.5 149.001s-48.667 80.834 -83 108.501s-72.166 48.834 -113.499 63.501s-83.666 22 -126.999 22s-85.5 -7.33301 -126.5 -22
s-78.667 -35.834 -113 -63.501s-62 -63.834 -83 -108.501s-31.5 -94.334 -31.5 -149.001z" />
    <glyph glyph-name="guillemotleft" unicode="&#xab;" horiz-adv-x="434" 
d="M371 66h-42l-119 169v10l119 169h42l-123 -174zM212 66h-42l-119 169v10l119 169h42l-123 -174z" />
    <glyph glyph-name="logicalnot" unicode="&#xac;" horiz-adv-x="579" 
d="M503 294h-38v150h-392v36h430v-186z" />
    <glyph glyph-name="registered" unicode="&#xae;" horiz-adv-x="854" 
d="M800 350c0 -57.333 -11.167 -109.666 -33.5 -156.999s-51.666 -85.333 -87.999 -114s-76.166 -50.834 -119.499 -66.501s-87.333 -23.5 -132 -23.5s-88.667 7.83301 -132 23.5s-83.166 37.834 -119.499 66.501s-65.666 66.667 -87.999 114s-33.5 99.666 -33.5 156.999
s11.167 109.666 33.5 156.999s51.666 85.333 87.999 114s76.166 50.834 119.499 66.501s87.333 23.5 132 23.5s88.667 -7.83301 132 -23.5s83.166 -37.834 119.499 -66.501s65.666 -66.667 87.999 -114s33.5 -99.666 33.5 -156.999zM73 350
c0 -54.667 10.5 -104.334 31.5 -149.001s48.667 -80.834 83 -108.501s72 -48.834 113 -63.501s83.167 -22 126.5 -22s85.666 7.33301 126.999 22s79.166 35.834 113.499 63.501s62 63.834 83 108.501s31.5 94.334 31.5 149.001s-10.5 104.334 -31.5 149.001
s-48.667 80.834 -83 108.501s-72.166 48.834 -113.499 63.501s-83.666 22 -126.999 22s-85.5 -7.33301 -126.5 -22s-78.667 -35.834 -113 -63.501s-62 -63.834 -83 -108.501s-31.5 -94.334 -31.5 -149.001zM325 150l-30 -0.000976562v395h155c16 0 31.5 -1.66699 46.5 -5
s30.5 -9.16602 46.5 -17.499s28.833 -21 38.5 -38s14.5 -37.5 14.5 -61.5c0 -60 -30.333 -96.667 -91 -110l114 -163h-34l-110 158c-7.33301 -0.666992 -17 -1 -29 -1h-121v-157zM325 514.999v-179h123c78.667 0 118 29 118 87c0 61.333 -39.333 92 -118 92h-123z" />
    <glyph glyph-name="macron" unicode="&#xaf;" horiz-adv-x="312" 
d="M24 840h264v-36h-264v36z" />
    <glyph glyph-name="degree" unicode="&#xb0;" horiz-adv-x="392" 
d="M343 573c0 -43.333 -14.5 -78.166 -43.5 -104.499s-63.5 -39.5 -103.5 -39.5s-74.5 13.167 -103.5 39.5s-43.5 61.166 -43.5 104.499s14.5 78.166 43.5 104.499s63.5 39.5 103.5 39.5s74.5 -13.167 103.5 -39.5s43.5 -61.166 43.5 -104.499zM79 573
c0 -34.667 11.333 -62.334 34 -83.001s50.334 -31 83.001 -31s60.334 10.333 83.001 31s34 48.334 34 83.001s-11.333 62.334 -34 83.001s-50.334 31 -83.001 31s-60.334 -10.333 -83.001 -31s-34 -48.334 -34 -83.001z" />
    <glyph glyph-name="plusminus" unicode="&#xb1;" horiz-adv-x="578" 
d="M307 579v-197h197v-37h-197v-197h-36v197h-197v37h197v197h36zM504 0h-430v36h430v-36z" />
    <glyph glyph-name="acute" unicode="&#xb4;" horiz-adv-x="170" 
d="M71 776h-43l89 137h47z" />
    <glyph glyph-name="paragraph" unicode="&#xb6;" horiz-adv-x="601" 
d="M291 -220h-40v512c-67.333 0 -120.166 18 -158.499 54s-57.5 86 -57.5 150s19.167 114 57.5 150s91.166 54 158.499 54h265v-920h-39v882h-186v-882z" />
    <glyph glyph-name="periodcentered" unicode="&#xb7;" horiz-adv-x="199" 
d="M130 239c0 -8.66699 -2.83301 -15.667 -8.5 -21s-12.834 -8 -21.501 -8c-8 0 -15 2.66699 -21 8s-9 12.333 -9 21s3 15.667 9 21s13 8 21 8c8.66699 0 15.834 -2.66699 21.501 -8s8.5 -12.333 8.5 -21z" />
    <glyph glyph-name="cedilla" unicode="&#xb8;" horiz-adv-x="211" 
d="M85 0h34.001l-21 -86c32 6 59.5 3.33301 82.5 -8s34.833 -29.666 35.5 -54.999s-9.5 -45.333 -30.5 -60s-50.167 -22 -87.5 -22c-36 0 -68.667 7.33301 -98 22v33c27.333 -15.333 58.666 -23 93.999 -23c29.333 0 51.5 4.83301 66.5 14.5s22.167 21.834 21.5 36.501
c0 19.333 -13.167 32.166 -39.5 38.499s-54.5 5.16602 -84.5 -3.50098z" />
    <glyph glyph-name="guillemotright" unicode="&#xbb;" horiz-adv-x="434" 
d="M263 66h-41l123 174l-123 174h41l120 -169v-10zM104 66h-41l123 174l-123 174h41l120 -169v-10z" />
    <glyph glyph-name="onequarter" unicode="&#xbc;" horiz-adv-x="919" 
d="M763 408h37v-281h82v-31h-82v-96h-34v96h-234v30zM766 127v235l-192 -235h192zM210 -11h-22l456 722h22zM163 680h25v-376h77v-32h-209v32h99v340l-91 -34v32z" />
    <glyph glyph-name="onehalf" unicode="&#xbd;" horiz-adv-x="873" 
d="M206 -11h-22l456 722h22zM563 377c37.333 25.333 79.6699 38.0029 127.003 38.0029c40 0 72.333 -9.33301 97 -28s37 -44.334 37 -77.001c0 -22 -6.33301 -42.333 -19 -61s-25.834 -33.167 -39.501 -43.5s-33.167 -22.833 -58.5 -37.5
c-2.66699 -1.33301 -8.5 -4.83301 -17.5 -10.5s-15 -9.33398 -18 -11.001s-8.5 -5.16699 -16.5 -10.5s-13.5 -9.16602 -16.5 -11.499s-7.66699 -6.16602 -14 -11.499s-10.833 -9.83301 -13.5 -13.5l-10 -14c-4 -5.66699 -7 -11 -9 -16s-3.66699 -10.833 -5 -17.5
s-2 -13.334 -2 -20.001h243v-32h-280v18c0 19.333 3.16699 37.166 9.5 53.499s12.666 29.5 18.999 39.5s17.5 21.167 33.5 33.5s27.5 20.5 34.5 24.5l40.5 24c24.667 14.667 42.667 25.667 54 33s22.666 18.666 33.999 33.999s17 32 17 50
c0 22.667 -9.16699 40.5 -27.5 53.5s-43.5 19.5 -75.5 19.5c-42 0 -83.333 -13.333 -124 -40v34zM159.004 680.003h25v-376h77v-32h-209v32h99v340l-91 -34v32z" />
    <glyph glyph-name="threequarters" unicode="&#xbe;" horiz-adv-x="967" 
d="M281 -11h-22l456 722h22zM812 408h37v-281h82v-31h-82v-96h-34v96h-234v30zM815 127v235l-192 -235h192zM327 581c0 -21.333 -6.16602 -40.5 -18.499 -57.5s-29.5 -28.5 -51.5 -34.5c24.667 -6 45.167 -17.5 61.5 -34.5s24.5 -40.167 24.5 -69.5
c0 -36.667 -13.333 -65.167 -40 -85.5s-61 -30.5 -103 -30.5c-54.667 0 -102 9 -142 27v33c38 -18.667 84.667 -28 140 -28c34 0 61.333 7.16699 82 21.5s31 35.833 31 64.5s-10.333 49.667 -31 63s-47.334 20 -80.001 20h-62v33h58c32 0 56.333 7.16699 73 21.5
s25 32.5 25 54.5c0 23.333 -9.33301 42.5 -28 57.5s-44.667 22.5 -78 22.5c-42 0 -83 -9.66699 -123 -29v33c37.333 18.667 79.666 28 126.999 28c40.667 0 73.334 -10.333 98.001 -31s37 -47 37 -79z" />
    <glyph glyph-name="questiondown" unicode="&#xbf;" horiz-adv-x="478" 
d="M444 -171c-59.333 -37.333 -123.333 -56.002 -192 -56.002c-65.333 0 -117.833 14.333 -157.5 43s-59.5 68.667 -59.5 120c0 26.667 6.83301 53.334 20.5 80.001s30.167 51.167 49.5 73.5l57.5 65.5c19 21.333 35.333 44 49 68s20.5 47 20.5 69h38
c0 -24.667 -6.66699 -49.667 -20 -75s-29.5 -48.666 -48.5 -69.999l-57.5 -64.5c-19.333 -21.667 -35.666 -45 -48.999 -70s-20 -49.5 -20 -73.5c0 -40.667 16.167 -72.167 48.5 -94.5s76.833 -33.5 133.5 -33.5c63.333 0 125.666 18.667 186.999 56v-38zM281 460.998
c0 -8.66699 -3.00098 -15.667 -9.00098 -21s-13 -8 -21 -8c-8.66699 0 -15.834 2.66699 -21.501 8s-8.5 12.333 -8.5 21c0 9.33301 2.83301 16.666 8.5 21.999s12.834 8 21.501 8s15.834 -2.66699 21.501 -8s8.5 -12.666 8.5 -21.999z" />
    <glyph glyph-name="Agrave" unicode="&#xc0;" horiz-adv-x="708" 
d="M57 0h-43l318 700h45l317 -700h-42l-93 204h-410zM347 642l-180.999 -401h378l-181 401c-0.666992 2 -1.83398 5 -3.50098 9s-3.16699 7 -4.5 9c-0.666992 -2 -2 -5 -4 -9s-3.33301 -7 -4 -9zM395.001 776h-42l-94 137h48z" />
    <glyph glyph-name="Aacute" unicode="&#xc1;" horiz-adv-x="708" 
d="M57 0h-43l318 700h45l317 -700h-42l-93 204h-410zM347 642l-180.999 -401h378l-181 401c-0.666992 2 -1.83398 5 -3.50098 9s-3.16699 7 -4.5 9c-0.666992 -2 -2 -5 -4 -9s-3.33301 -7 -4 -9zM353.001 776h-43l89 137h47z" />
    <glyph glyph-name="Acircumflex" unicode="&#xc2;" horiz-adv-x="708" 
d="M57 0h-43l318 700h45l317 -700h-42l-93 204h-410zM347 642l-180.999 -401h378l-181 401c-0.666992 2 -1.83398 5 -3.50098 9s-3.16699 7 -4.5 9c-0.666992 -2 -2 -5 -4 -9s-3.33301 -7 -4 -9zM339.001 907h33l128 -131h-44l-100 101l-101 -101h-44z" />
    <glyph glyph-name="Atilde" unicode="&#xc3;" horiz-adv-x="708" 
d="M57 0h-43l318 700h45l317 -700h-42l-93 204h-410zM347 642l-180.999 -401h378l-181 401c-0.666992 2 -1.83398 5 -3.50098 9s-3.16699 7 -4.5 9c-0.666992 -2 -2 -5 -4 -9s-3.33301 -7 -4 -9zM503.001 863c2.66699 -24.667 -1.83008 -44.332 -13.4971 -58.999
s-28.167 -22 -49.5 -22c-20 0 -49 8.83301 -87 26.5s-63.333 26.5 -76 26.5s-22.334 -4.33301 -29.001 -13s-9.33398 -20.334 -8.00098 -35.001h-34c-3.33301 24 1.16699 43.667 13.5 59s28.833 23 49.5 23c19.333 0 48.166 -8.83301 86.499 -26.5s63.833 -26.5 76.5 -26.5
c28 0 40.333 15.667 37 47h34z" />
    <glyph glyph-name="Adieresis" unicode="&#xc4;" horiz-adv-x="708" 
d="M57 0h-43l318 700h45l317 -700h-42l-93 204h-410zM347 642l-180.999 -401h378l-181 401c-0.666992 2 -1.83398 5 -3.50098 9s-3.16699 7 -4.5 9c-0.666992 -2 -2 -5 -4 -9s-3.33301 -7 -4 -9zM485.001 836c0 -8.66699 -3 -16 -9 -22s-13.333 -9 -22 -9s-16 3 -22 9
s-9 13.333 -9 22c0 8 3 15.167 9 21.5s13.333 9.5 22 9.5s16 -3.16699 22 -9.5s9 -13.5 9 -21.5zM284.001 836c0 -8.66699 -3 -16 -9 -22s-13.333 -9 -22 -9s-16 3 -22 9s-9 13.333 -9 22c0 8 3 15.167 9 21.5s13.333 9.5 22 9.5s16 -3.16699 22 -9.5s9 -13.5 9 -21.5z" />
    <glyph glyph-name="Aring" unicode="&#xc5;" horiz-adv-x="708" 
d="M57 0h-43l318 700h45l317 -700h-42l-93 204h-410zM347 642l-180.999 -401h378l-181 401c-0.666992 2 -1.83398 5 -3.50098 9s-3.16699 7 -4.5 9c-0.666992 -2 -2 -5 -4 -9s-3.33301 -7 -4 -9zM446.001 844c0 -26.667 -9.16699 -48.334 -27.5 -65.001
s-39.833 -25 -64.5 -25c-25.333 0 -47.166 8.33301 -65.499 25s-27.5 38.334 -27.5 65.001c0 26 9.16699 47.167 27.5 63.5s40.166 24.5 65.499 24.5c24.667 0 46.167 -8.16699 64.5 -24.5s27.5 -37.5 27.5 -63.5zM292.001 843c0 -18 6.16699 -32.667 18.5 -44
s26.833 -17 43.5 -17s31.167 5.66699 43.5 17s18.5 26 18.5 44s-6.16699 32.667 -18.5 44s-26.833 17 -43.5 17s-31.167 -5.66699 -43.5 -17s-18.5 -26 -18.5 -44z" />
    <glyph glyph-name="AE" unicode="&#xc6;" horiz-adv-x="991" 
d="M540 333v-295h396v-38h-436v205h-321l-146 -205h-45l496 700h446v-38h-390v-291h360v-38h-360zM202 241h298v418z" />
    <glyph glyph-name="Ccedilla" unicode="&#xc7;" horiz-adv-x="657" 
d="M617 78v-40.002c-54 -30 -116.333 -46 -187 -48l-18 -72c32 4.66699 59.333 1 82 -11s34.334 -30.667 35.001 -56s-9.5 -45.333 -30.5 -60s-50.167 -22 -87.5 -22c-36 0 -68.667 7.33301 -98 22v33c27.333 -15.333 58.666 -23 93.999 -23
c29.333 0 51.5 4.83301 66.5 14.5s22.167 21.834 21.5 36.501c0 19.333 -13.167 32.166 -39.5 38.499s-54.5 5.16602 -84.5 -3.50098l25 103c-43.333 2 -85.166 10.833 -125.499 26.5s-77 37.5 -110 65.5s-59.5 64.5 -79.5 109.5s-30 95.167 -30 150.5
c0 58.667 10.5 112 31.5 160s48.833 86.833 83.5 116.5s73.167 52.5 115.5 68.5s86.166 24 131.499 24c72 0 137.333 -16 196 -48v-40c-55.333 33.333 -119 50 -191 50c-40.667 0 -80 -7 -118 -21s-72.833 -34.167 -104.5 -60.5s-57 -61.166 -76 -104.499
s-28.5 -91.666 -28.5 -144.999c0 -51.333 9.66699 -97.666 29 -138.999s44.833 -74.5 76.5 -99.5s66.667 -44 105 -57s77.833 -19.5 118.5 -19.5c76 0 141.667 17 197 51z" />
    <glyph glyph-name="Egrave" unicode="&#xc8;" horiz-adv-x="624" 
d="M101 700h459v-38h-419v-291h389v-38h-389v-295h428v-38h-468v700zM374 776h-42l-94 137h48z" />
    <glyph glyph-name="Eacute" unicode="&#xc9;" horiz-adv-x="624" 
d="M101 700h459v-38h-419v-291h389v-38h-389v-295h428v-38h-468v700zM332 776h-43l89 137h47z" />
    <glyph glyph-name="Ecircumflex" unicode="&#xca;" horiz-adv-x="624" 
d="M101 700h459v-38h-419v-291h389v-38h-389v-295h428v-38h-468v700zM318 907h33l128 -131h-44l-100 101l-101 -101h-44z" />
    <glyph glyph-name="Edieresis" unicode="&#xcb;" horiz-adv-x="624" 
d="M101 700h459v-38h-419v-291h389v-38h-389v-295h428v-38h-468v700zM464 836c0 -8.66699 -3 -16 -9 -22s-13.333 -9 -22 -9s-16 3 -22 9s-9 13.333 -9 22c0 8 3 15.167 9 21.5s13.333 9.5 22 9.5s16 -3.16699 22 -9.5s9 -13.5 9 -21.5zM263 836c0 -8.66699 -3 -16 -9 -22
s-13.333 -9 -22 -9s-16 3 -22 9s-9 13.333 -9 22c0 8 3 15.167 9 21.5s13.333 9.5 22 9.5s16 -3.16699 22 -9.5s9 -13.5 9 -21.5z" />
    <glyph glyph-name="Igrave" unicode="&#xcc;" horiz-adv-x="242" 
d="M101 700h40v-700h-40v700zM162 776h-42l-94 137h48z" />
    <glyph glyph-name="Iacute" unicode="&#xcd;" horiz-adv-x="242" 
d="M101 700h40v-700h-40v700zM120 776h-43l89 137h47z" />
    <glyph glyph-name="Icircumflex" unicode="&#xce;" horiz-adv-x="242" 
d="M101 700h40v-700h-40v700zM106 907h33l128 -131h-44l-100 101l-101 -101h-44z" />
    <glyph glyph-name="Idieresis" unicode="&#xcf;" horiz-adv-x="242" 
d="M101 700h40v-700h-40v700zM252 836c0 -8.66699 -3 -16 -9 -22s-13.333 -9 -22 -9s-16 3 -22 9s-9 13.333 -9 22c0 8 3 15.167 9 21.5s13.333 9.5 22 9.5s16 -3.16699 22 -9.5s9 -13.5 9 -21.5zM51 836c0 -8.66699 -3 -16 -9 -22s-13.333 -9 -22 -9s-16 3 -22 9
s-9 13.333 -9 22c0 8 3 15.167 9 21.5s13.333 9.5 22 9.5s16 -3.16699 22 -9.5s9 -13.5 9 -21.5z" />
    <glyph glyph-name="Eth" unicode="&#xd0;" horiz-adv-x="732" 
d="M103 700h206c121.333 0 213.5 -32 276.5 -96s94.5 -148.667 94.5 -254s-31.5 -190 -94.5 -254s-155.167 -96 -276.5 -96h-206v331h-81v37h81v332zM142 38h167c108.667 0 191 28 247 84s84 132 84 228s-28 172 -84 228s-138.333 84 -247 84h-167v-294h234v-37h-234v-293z
" />
    <glyph glyph-name="Ntilde" unicode="&#xd1;" horiz-adv-x="766" 
d="M141 0h-40v700h36l488 -633v61v572h40v-700h-35l-489 632v-59v-573zM532 863c2.66699 -24.667 -1.83008 -44.332 -13.4971 -58.999s-28.167 -22 -49.5 -22c-20 0 -49 8.83301 -87 26.5s-63.333 26.5 -76 26.5s-22.334 -4.33301 -29.001 -13
s-9.33398 -20.334 -8.00098 -35.001h-34c-3.33301 24 1.16699 43.667 13.5 59s28.833 23 49.5 23c19.333 0 48.166 -8.83301 86.499 -26.5s63.833 -26.5 76.5 -26.5c28 0 40.333 15.667 37 47h34z" />
    <glyph glyph-name="Ograve" unicode="&#xd2;" horiz-adv-x="825" 
d="M50 350c0 44.667 7.66699 88.167 23 130.5s37.5 80.833 66.5 115.5s67.167 62.5 114.5 83.5s100 31.5 158 31.5c58.667 0 111.667 -10.5 159 -31.5s85.5 -48.833 114.5 -83.5s51.167 -73.167 66.5 -115.5s23 -85.833 23 -130.5s-7.66699 -88.167 -23 -130.5
s-37.5 -80.833 -66.5 -115.5s-67.167 -62.5 -114.5 -83.5s-100.333 -31.5 -159 -31.5c-58 0 -110.667 10.5 -158 31.5s-85.5 48.833 -114.5 83.5s-51.167 73.167 -66.5 115.5s-23 85.833 -23 130.5zM735 350c0 40.667 -6.83301 79.834 -20.5 117.501s-33.334 72 -59.001 103
s-59.667 55.833 -102 74.5s-89.5 28 -141.5 28s-99 -9.33301 -141 -28s-75.833 -43.5 -101.5 -74.5s-45.334 -65.333 -59.001 -103s-20.5 -76.834 -20.5 -117.501s6.83301 -79.834 20.5 -117.501s33.334 -72 59.001 -103s59.5 -55.833 101.5 -74.5s89 -28 141 -28
s99.167 9.33301 141.5 28s76.333 43.5 102 74.5s45.334 65.333 59.001 103s20.5 76.834 20.5 117.501zM454 776h-42l-94 137h48z" />
    <glyph glyph-name="Oacute" unicode="&#xd3;" horiz-adv-x="825" 
d="M50 350c0 44.667 7.66699 88.167 23 130.5s37.5 80.833 66.5 115.5s67.167 62.5 114.5 83.5s100 31.5 158 31.5c58.667 0 111.667 -10.5 159 -31.5s85.5 -48.833 114.5 -83.5s51.167 -73.167 66.5 -115.5s23 -85.833 23 -130.5s-7.66699 -88.167 -23 -130.5
s-37.5 -80.833 -66.5 -115.5s-67.167 -62.5 -114.5 -83.5s-100.333 -31.5 -159 -31.5c-58 0 -110.667 10.5 -158 31.5s-85.5 48.833 -114.5 83.5s-51.167 73.167 -66.5 115.5s-23 85.833 -23 130.5zM735 350c0 40.667 -6.83301 79.834 -20.5 117.501s-33.334 72 -59.001 103
s-59.667 55.833 -102 74.5s-89.5 28 -141.5 28s-99 -9.33301 -141 -28s-75.833 -43.5 -101.5 -74.5s-45.334 -65.333 -59.001 -103s-20.5 -76.834 -20.5 -117.501s6.83301 -79.834 20.5 -117.501s33.334 -72 59.001 -103s59.5 -55.833 101.5 -74.5s89 -28 141 -28
s99.167 9.33301 141.5 28s76.333 43.5 102 74.5s45.334 65.333 59.001 103s20.5 76.834 20.5 117.501zM412 776h-43l89 137h47z" />
    <glyph glyph-name="Ocircumflex" unicode="&#xd4;" horiz-adv-x="825" 
d="M50 350c0 44.667 7.66699 88.167 23 130.5s37.5 80.833 66.5 115.5s67.167 62.5 114.5 83.5s100 31.5 158 31.5c58.667 0 111.667 -10.5 159 -31.5s85.5 -48.833 114.5 -83.5s51.167 -73.167 66.5 -115.5s23 -85.833 23 -130.5s-7.66699 -88.167 -23 -130.5
s-37.5 -80.833 -66.5 -115.5s-67.167 -62.5 -114.5 -83.5s-100.333 -31.5 -159 -31.5c-58 0 -110.667 10.5 -158 31.5s-85.5 48.833 -114.5 83.5s-51.167 73.167 -66.5 115.5s-23 85.833 -23 130.5zM735 350c0 40.667 -6.83301 79.834 -20.5 117.501s-33.334 72 -59.001 103
s-59.667 55.833 -102 74.5s-89.5 28 -141.5 28s-99 -9.33301 -141 -28s-75.833 -43.5 -101.5 -74.5s-45.334 -65.333 -59.001 -103s-20.5 -76.834 -20.5 -117.501s6.83301 -79.834 20.5 -117.501s33.334 -72 59.001 -103s59.5 -55.833 101.5 -74.5s89 -28 141 -28
s99.167 9.33301 141.5 28s76.333 43.5 102 74.5s45.334 65.333 59.001 103s20.5 76.834 20.5 117.501zM398 907h33l128 -131h-44l-100 101l-101 -101h-44z" />
    <glyph glyph-name="Otilde" unicode="&#xd5;" horiz-adv-x="825" 
d="M50 350c0 44.667 7.66699 88.167 23 130.5s37.5 80.833 66.5 115.5s67.167 62.5 114.5 83.5s100 31.5 158 31.5c58.667 0 111.667 -10.5 159 -31.5s85.5 -48.833 114.5 -83.5s51.167 -73.167 66.5 -115.5s23 -85.833 23 -130.5s-7.66699 -88.167 -23 -130.5
s-37.5 -80.833 -66.5 -115.5s-67.167 -62.5 -114.5 -83.5s-100.333 -31.5 -159 -31.5c-58 0 -110.667 10.5 -158 31.5s-85.5 48.833 -114.5 83.5s-51.167 73.167 -66.5 115.5s-23 85.833 -23 130.5zM735 350c0 40.667 -6.83301 79.834 -20.5 117.501s-33.334 72 -59.001 103
s-59.667 55.833 -102 74.5s-89.5 28 -141.5 28s-99 -9.33301 -141 -28s-75.833 -43.5 -101.5 -74.5s-45.334 -65.333 -59.001 -103s-20.5 -76.834 -20.5 -117.501s6.83301 -79.834 20.5 -117.501s33.334 -72 59.001 -103s59.5 -55.833 101.5 -74.5s89 -28 141 -28
s99.167 9.33301 141.5 28s76.333 43.5 102 74.5s45.334 65.333 59.001 103s20.5 76.834 20.5 117.501zM562 863c2.66699 -24.667 -1.83008 -44.332 -13.4971 -58.999s-28.167 -22 -49.5 -22c-20 0 -49 8.83301 -87 26.5s-63.333 26.5 -76 26.5s-22.334 -4.33301 -29.001 -13
s-9.33398 -20.334 -8.00098 -35.001h-34c-3.33301 24 1.16699 43.667 13.5 59s28.833 23 49.5 23c19.333 0 48.166 -8.83301 86.499 -26.5s63.833 -26.5 76.5 -26.5c28 0 40.333 15.667 37 47h34z" />
    <glyph glyph-name="Odieresis" unicode="&#xd6;" horiz-adv-x="825" 
d="M50 350c0 44.667 7.66699 88.167 23 130.5s37.5 80.833 66.5 115.5s67.167 62.5 114.5 83.5s100 31.5 158 31.5c58.667 0 111.667 -10.5 159 -31.5s85.5 -48.833 114.5 -83.5s51.167 -73.167 66.5 -115.5s23 -85.833 23 -130.5s-7.66699 -88.167 -23 -130.5
s-37.5 -80.833 -66.5 -115.5s-67.167 -62.5 -114.5 -83.5s-100.333 -31.5 -159 -31.5c-58 0 -110.667 10.5 -158 31.5s-85.5 48.833 -114.5 83.5s-51.167 73.167 -66.5 115.5s-23 85.833 -23 130.5zM735 350c0 40.667 -6.83301 79.834 -20.5 117.501s-33.334 72 -59.001 103
s-59.667 55.833 -102 74.5s-89.5 28 -141.5 28s-99 -9.33301 -141 -28s-75.833 -43.5 -101.5 -74.5s-45.334 -65.333 -59.001 -103s-20.5 -76.834 -20.5 -117.501s6.83301 -79.834 20.5 -117.501s33.334 -72 59.001 -103s59.5 -55.833 101.5 -74.5s89 -28 141 -28
s99.167 9.33301 141.5 28s76.333 43.5 102 74.5s45.334 65.333 59.001 103s20.5 76.834 20.5 117.501zM544 836c0 -8.66699 -3 -16 -9 -22s-13.333 -9 -22 -9s-16 3 -22 9s-9 13.333 -9 22c0 8 3 15.167 9 21.5s13.333 9.5 22 9.5s16 -3.16699 22 -9.5s9 -13.5 9 -21.5z
M343 836c0 -8.66699 -3 -16 -9 -22s-13.333 -9 -22 -9s-16 3 -22 9s-9 13.333 -9 22c0 8 3 15.167 9 21.5s13.333 9.5 22 9.5s16 -3.16699 22 -9.5s9 -13.5 9 -21.5z" />
    <glyph glyph-name="multiply" unicode="&#xd7;" horiz-adv-x="451" 
d="M226 326l-133 -133l-25 25l133 133l-133 132l25 25l133 -132l132 132l25 -25l-133 -132l133 -133l-25 -25z" />
    <glyph glyph-name="Oslash" unicode="&#xd8;" horiz-adv-x="825" 
d="M725 748l-82.001 -112.999c42.667 -34 75.334 -76.333 98.001 -127s34 -103.334 34 -158.001c0 -44.667 -7.66699 -88.167 -23 -130.5s-37.5 -80.833 -66.5 -115.5s-67.167 -62.5 -114.5 -83.5s-100.333 -31.5 -159 -31.5c-74.667 0 -141 18 -199 54l-67 -91h-39l79 109
c-44 34 -77.667 76.833 -101 128.5s-35 105.167 -35 160.5c0 44.667 7.66699 88.167 23 130.5s37.5 80.833 66.5 115.5s67.167 62.5 114.5 83.5s100 31.5 158 31.5c78 0 146.333 -19 205 -57l69 94h39zM411.999 673.001c-52 0 -98.998 -9.33203 -140.998 -27.999
s-75.833 -43.5 -101.5 -74.5s-45.334 -65.333 -59.001 -103s-20.5 -76.834 -20.5 -117.501c0 -50 10.167 -98 30.5 -144s50.166 -83.667 89.499 -113l384 529c-50 34 -110.667 51 -182 51zM236.001 74.002c50.667 -31.333 109.665 -47.001 176.998 -47.001
c52 0 99 9.33301 141 28s75.833 43.5 101.5 74.5s45.334 65.333 59.001 103s20.5 76.834 20.5 117.501c0 48.667 -9.66699 95.5 -29 140.5s-47.666 82.833 -84.999 113.5z" />
    <glyph glyph-name="Ugrave" unicode="&#xd9;" horiz-adv-x="750" 
d="M617 700h39.998v-455c0 -46 -7.16699 -86 -21.5 -120s-34.666 -60.667 -60.999 -80s-56 -33.5 -89 -42.5s-69.833 -13.5 -110.5 -13.5s-77.5 4.5 -110.5 13.5s-62.667 23.167 -89 42.5s-46.666 46 -60.999 80s-21.5 74 -21.5 120v455h40v-454
c0 -146 80.667 -219 242 -219s242 73 242 219v454zM417.998 776h-42l-94 137h48z" />
    <glyph glyph-name="Uacute" unicode="&#xda;" horiz-adv-x="750" 
d="M617 700h39.998v-455c0 -46 -7.16699 -86 -21.5 -120s-34.666 -60.667 -60.999 -80s-56 -33.5 -89 -42.5s-69.833 -13.5 -110.5 -13.5s-77.5 4.5 -110.5 13.5s-62.667 23.167 -89 42.5s-46.666 46 -60.999 80s-21.5 74 -21.5 120v455h40v-454
c0 -146 80.667 -219 242 -219s242 73 242 219v454zM375.998 776h-43l89 137h47z" />
    <glyph glyph-name="Ucircumflex" unicode="&#xdb;" horiz-adv-x="750" 
d="M617 700h39.998v-455c0 -46 -7.16699 -86 -21.5 -120s-34.666 -60.667 -60.999 -80s-56 -33.5 -89 -42.5s-69.833 -13.5 -110.5 -13.5s-77.5 4.5 -110.5 13.5s-62.667 23.167 -89 42.5s-46.666 46 -60.999 80s-21.5 74 -21.5 120v455h40v-454
c0 -146 80.667 -219 242 -219s242 73 242 219v454zM361.998 907h33l128 -131h-44l-100 101l-101 -101h-44z" />
    <glyph glyph-name="Udieresis" unicode="&#xdc;" horiz-adv-x="750" 
d="M617 700h39.998v-455c0 -46 -7.16699 -86 -21.5 -120s-34.666 -60.667 -60.999 -80s-56 -33.5 -89 -42.5s-69.833 -13.5 -110.5 -13.5s-77.5 4.5 -110.5 13.5s-62.667 23.167 -89 42.5s-46.666 46 -60.999 80s-21.5 74 -21.5 120v455h40v-454
c0 -146 80.667 -219 242 -219s242 73 242 219v454zM507.998 836c0 -8.66699 -3 -16 -9 -22s-13.333 -9 -22 -9s-16 3 -22 9s-9 13.333 -9 22c0 8 3 15.167 9 21.5s13.333 9.5 22 9.5s16 -3.16699 22 -9.5s9 -13.5 9 -21.5zM306.998 836c0 -8.66699 -3 -16 -9 -22
s-13.333 -9 -22 -9s-16 3 -22 9s-9 13.333 -9 22c0 8 3 15.167 9 21.5s13.333 9.5 22 9.5s16 -3.16699 22 -9.5s9 -13.5 9 -21.5z" />
    <glyph glyph-name="Yacute" unicode="&#xdd;" horiz-adv-x="634" 
d="M337 0h-40v279l-276 421h45l251 -384l251 384h45l-276 -421v-279zM317 776h-43l89 137h47z" />
    <glyph glyph-name="Thorn" unicode="&#xde;" horiz-adv-x="651" 
d="M141 569h183c195.333 0 293 -73 293 -219s-97.667 -219 -293 -219h-183v-131h-40v700h40v-131zM141 169h185c167.333 0 251 60.333 251 181s-83.667 181 -251 181h-185v-362z" />
    <glyph glyph-name="germandbls" unicode="&#xdf;" horiz-adv-x="589" 
d="M551 149c0 -52 -19.3301 -91.6689 -57.9971 -119.002s-86.334 -41 -143.001 -41c-50 0 -93.333 10 -130 30v34c37.333 -20 78.666 -30 123.999 -30c48.667 0 89 10.667 121 32s48 53.666 48 96.999c0 20 -5.33301 39.667 -16 59s-23.834 36.333 -39.501 51l-46.5 43
c-15.333 14 -28.333 28.333 -39 43s-16 28.667 -16 42c0 18 6.5 35.833 19.5 53.5s26 36.334 39 56.001s19.5 41.167 19.5 64.5c0 30 -13 56.333 -39 79s-60.667 34 -104 34c-50.667 0 -92 -15 -124 -45s-48 -71.333 -48 -124v-508h-38v502
c0 65.333 19.167 116.333 57.5 153s89.166 55.334 152.499 56.001c56 0 100.167 -14.667 132.5 -44s48.5 -62.666 48.5 -99.999c0 -25.333 -6.5 -48.166 -19.5 -68.499s-26 -38.833 -39 -55.5s-19.5 -32.667 -19.5 -48c0 -12 5.33301 -24.833 16 -38.5
s23.667 -27.334 39 -41.001s30.833 -28.334 46.5 -44.001s28.834 -34.167 39.501 -55.5s16 -43.666 16 -66.999z" />
    <glyph glyph-name="agrave" unicode="&#xe0;" horiz-adv-x="540" 
d="M450 77c0 -30.667 16 -46.0029 48 -46.0029c10.667 0 23 2.33301 37 7v-32c-16 -5.33301 -31.667 -8 -47 -8c-22 0 -40.167 6.33301 -54.5 19s-21.5 32.334 -21.5 59.001v13c-50 -66.667 -119.333 -100 -208 -100c-45.333 0 -84.166 12 -116.499 36
s-48.5 58.667 -48.5 104c0 52.667 20.167 91.334 60.5 116.001s89.833 37 148.5 37c55.333 0 110 -8.66699 164 -26v44c0 47.333 -14.333 85 -43 113s-69.334 42 -122.001 42c-60 0 -117 -10.333 -171 -31v37c56.667 20 114.667 30 174 30
c63.333 0 112.5 -17.167 147.5 -51.5s52.5 -82.166 52.5 -143.499v-219zM78 129.997c0 -34.667 13.001 -61.167 39.001 -79.5s57.333 -27.5 94 -27.5c41.333 0 79.833 9.83301 115.5 29.5s64.167 47.5 85.5 83.5v87c-54 17.333 -107.333 26 -160 26
c-48.667 0 -89.834 -9.5 -123.501 -28.5s-50.5 -49.167 -50.5 -90.5zM291.001 555.997h-42l-94 137h48z" />
    <glyph glyph-name="aacute" unicode="&#xe1;" horiz-adv-x="540" 
d="M450 77c0 -30.667 16 -46.0029 48 -46.0029c10.667 0 23 2.33301 37 7v-32c-16 -5.33301 -31.667 -8 -47 -8c-22 0 -40.167 6.33301 -54.5 19s-21.5 32.334 -21.5 59.001v13c-50 -66.667 -119.333 -100 -208 -100c-45.333 0 -84.166 12 -116.499 36
s-48.5 58.667 -48.5 104c0 52.667 20.167 91.334 60.5 116.001s89.833 37 148.5 37c55.333 0 110 -8.66699 164 -26v44c0 47.333 -14.333 85 -43 113s-69.334 42 -122.001 42c-60 0 -117 -10.333 -171 -31v37c56.667 20 114.667 30 174 30
c63.333 0 112.5 -17.167 147.5 -51.5s52.5 -82.166 52.5 -143.499v-219zM78 129.997c0 -34.667 13.001 -61.167 39.001 -79.5s57.333 -27.5 94 -27.5c41.333 0 79.833 9.83301 115.5 29.5s64.167 47.5 85.5 83.5v87c-54 17.333 -107.333 26 -160 26
c-48.667 0 -89.834 -9.5 -123.501 -28.5s-50.5 -49.167 -50.5 -90.5zM249.001 555.997h-43l89 137h47z" />
    <glyph glyph-name="acircumflex" unicode="&#xe2;" horiz-adv-x="540" 
d="M450 77c0 -30.667 16 -46.0029 48 -46.0029c10.667 0 23 2.33301 37 7v-32c-16 -5.33301 -31.667 -8 -47 -8c-22 0 -40.167 6.33301 -54.5 19s-21.5 32.334 -21.5 59.001v13c-50 -66.667 -119.333 -100 -208 -100c-45.333 0 -84.166 12 -116.499 36
s-48.5 58.667 -48.5 104c0 52.667 20.167 91.334 60.5 116.001s89.833 37 148.5 37c55.333 0 110 -8.66699 164 -26v44c0 47.333 -14.333 85 -43 113s-69.334 42 -122.001 42c-60 0 -117 -10.333 -171 -31v37c56.667 20 114.667 30 174 30
c63.333 0 112.5 -17.167 147.5 -51.5s52.5 -82.166 52.5 -143.499v-219zM78 129.997c0 -34.667 13.001 -61.167 39.001 -79.5s57.333 -27.5 94 -27.5c41.333 0 79.833 9.83301 115.5 29.5s64.167 47.5 85.5 83.5v87c-54 17.333 -107.333 26 -160 26
c-48.667 0 -89.834 -9.5 -123.501 -28.5s-50.5 -49.167 -50.5 -90.5zM235.001 686.997h33l128 -131h-44l-100 101l-101 -101h-44z" />
    <glyph glyph-name="atilde" unicode="&#xe3;" horiz-adv-x="540" 
d="M450 77c0 -30.667 16 -46.0029 48 -46.0029c10.667 0 23 2.33301 37 7v-32c-16 -5.33301 -31.667 -8 -47 -8c-22 0 -40.167 6.33301 -54.5 19s-21.5 32.334 -21.5 59.001v13c-50 -66.667 -119.333 -100 -208 -100c-45.333 0 -84.166 12 -116.499 36
s-48.5 58.667 -48.5 104c0 52.667 20.167 91.334 60.5 116.001s89.833 37 148.5 37c55.333 0 110 -8.66699 164 -26v44c0 47.333 -14.333 85 -43 113s-69.334 42 -122.001 42c-60 0 -117 -10.333 -171 -31v37c56.667 20 114.667 30 174 30
c63.333 0 112.5 -17.167 147.5 -51.5s52.5 -82.166 52.5 -143.499v-219zM78 129.997c0 -34.667 13.001 -61.167 39.001 -79.5s57.333 -27.5 94 -27.5c41.333 0 79.833 9.83301 115.5 29.5s64.167 47.5 85.5 83.5v87c-54 17.333 -107.333 26 -160 26
c-48.667 0 -89.834 -9.5 -123.501 -28.5s-50.5 -49.167 -50.5 -90.5zM399.001 642.997c2.66699 -24.667 -1.83008 -44.332 -13.4971 -58.999s-28.167 -22 -49.5 -22c-20 0 -49 8.83301 -87 26.5s-63.333 26.5 -76 26.5s-22.334 -4.33301 -29.001 -13
s-9.33398 -20.334 -8.00098 -35.001h-34c-3.33301 24 1.16699 43.667 13.5 59s28.833 23 49.5 23c19.333 0 48.166 -8.83301 86.499 -26.5s63.833 -26.5 76.5 -26.5c28 0 40.333 15.667 37 47h34z" />
    <glyph glyph-name="adieresis" unicode="&#xe4;" horiz-adv-x="540" 
d="M450 77c0 -30.667 16 -46.0029 48 -46.0029c10.667 0 23 2.33301 37 7v-32c-16 -5.33301 -31.667 -8 -47 -8c-22 0 -40.167 6.33301 -54.5 19s-21.5 32.334 -21.5 59.001v13c-50 -66.667 -119.333 -100 -208 -100c-45.333 0 -84.166 12 -116.499 36
s-48.5 58.667 -48.5 104c0 52.667 20.167 91.334 60.5 116.001s89.833 37 148.5 37c55.333 0 110 -8.66699 164 -26v44c0 47.333 -14.333 85 -43 113s-69.334 42 -122.001 42c-60 0 -117 -10.333 -171 -31v37c56.667 20 114.667 30 174 30
c63.333 0 112.5 -17.167 147.5 -51.5s52.5 -82.166 52.5 -143.499v-219zM78 129.997c0 -34.667 13.001 -61.167 39.001 -79.5s57.333 -27.5 94 -27.5c41.333 0 79.833 9.83301 115.5 29.5s64.167 47.5 85.5 83.5v87c-54 17.333 -107.333 26 -160 26
c-48.667 0 -89.834 -9.5 -123.501 -28.5s-50.5 -49.167 -50.5 -90.5zM381.001 615.997c0 -8.66699 -3 -16 -9 -22s-13.333 -9 -22 -9s-16 3 -22 9s-9 13.333 -9 22c0 8 3 15.167 9 21.5s13.333 9.5 22 9.5s16 -3.16699 22 -9.5s9 -13.5 9 -21.5zM180.001 615.997
c0 -8.66699 -3 -16 -9 -22s-13.333 -9 -22 -9s-16 3 -22 9s-9 13.333 -9 22c0 8 3 15.167 9 21.5s13.333 9.5 22 9.5s16 -3.16699 22 -9.5s9 -13.5 9 -21.5z" />
    <glyph glyph-name="aring" unicode="&#xe5;" horiz-adv-x="540" 
d="M450 77c0 -30.667 16 -46.0029 48 -46.0029c10.667 0 23 2.33301 37 7v-32c-16 -5.33301 -31.667 -8 -47 -8c-22 0 -40.167 6.33301 -54.5 19s-21.5 32.334 -21.5 59.001v13c-50 -66.667 -119.333 -100 -208 -100c-45.333 0 -84.166 12 -116.499 36
s-48.5 58.667 -48.5 104c0 52.667 20.167 91.334 60.5 116.001s89.833 37 148.5 37c55.333 0 110 -8.66699 164 -26v44c0 47.333 -14.333 85 -43 113s-69.334 42 -122.001 42c-60 0 -117 -10.333 -171 -31v37c56.667 20 114.667 30 174 30
c63.333 0 112.5 -17.167 147.5 -51.5s52.5 -82.166 52.5 -143.499v-219zM78 129.997c0 -34.667 13.001 -61.167 39.001 -79.5s57.333 -27.5 94 -27.5c41.333 0 79.833 9.83301 115.5 29.5s64.167 47.5 85.5 83.5v87c-54 17.333 -107.333 26 -160 26
c-48.667 0 -89.834 -9.5 -123.501 -28.5s-50.5 -49.167 -50.5 -90.5zM342.001 623.997c0 -26.667 -9.16699 -48.334 -27.5 -65.001s-39.833 -25 -64.5 -25c-25.333 0 -47.166 8.33301 -65.499 25s-27.5 38.334 -27.5 65.001c0 26 9.16699 47.167 27.5 63.5
s40.166 24.5 65.499 24.5c24.667 0 46.167 -8.16699 64.5 -24.5s27.5 -37.5 27.5 -63.5zM188.001 622.997c0 -18 6.16699 -32.667 18.5 -44s26.833 -17 43.5 -17s31.167 5.66699 43.5 17s18.5 26 18.5 44s-6.16699 32.667 -18.5 44s-26.833 17 -43.5 17
s-31.167 -5.66699 -43.5 -17s-18.5 -26 -18.5 -44z" />
    <glyph glyph-name="ae" unicode="&#xe6;" horiz-adv-x="908" 
d="M455 105c-30.667 -38 -67.6699 -66.832 -111.003 -86.499s-88.666 -29.5 -135.999 -29.5s-87.333 12 -120 36s-49 58.667 -49 104c0 52.667 20.333 91.334 61 116.001s91.334 37 152.001 37c58 0 114 -8.66699 168 -26v44c0 48 -14.333 85.833 -43 113.5
s-72 41.5 -130 41.5c-60 0 -117 -10.333 -171 -31v37c56.667 20 114.667 30 174 30c57.333 0 102.5 -12.833 135.5 -38.5s53.5 -61.5 61.5 -107.5c16 45.333 43.333 81 82 107s80.334 39 125.001 39c54 0 98.333 -14.333 133 -43s57.334 -63.334 68.001 -104.001
s12 -83.334 4 -128.001h-401c2.66699 -62.667 25.667 -110.167 69 -142.5s94.666 -48.5 153.999 -48.5c56 0 105.667 12.667 149 38v-36c-45.333 -25.333 -97.333 -38 -156 -38c-45.333 0 -87.833 9.83301 -127.5 29.5s-70.167 48.5 -91.5 86.5zM77.9971 130.001
c0 -34.667 13.167 -61.167 39.5 -79.5s58.833 -27.5 97.5 -27.5c93.333 0 168.333 36 225 108c-10.667 27.333 -17 58 -19 92c-56.667 17.333 -111.667 26 -165 26c-50.667 0 -93 -9.5 -127 -28.5s-51 -49.167 -51 -90.5zM653.997 455.001
c-53.333 0 -98.833 -18.001 -136.5 -54.001s-57.5 -86.333 -59.5 -151h367c3.33301 32.667 0.5 63.834 -8.5 93.501s-27.5 55.667 -55.5 78s-63.667 33.5 -107 33.5z" />
    <glyph glyph-name="ccedilla" unicode="&#xe7;" horiz-adv-x="493" 
d="M453 63l0.00195312 -38.001c-42.667 -22 -90.334 -33.667 -143.001 -35l-19 -76c32 6 59.5 3.33301 82.5 -8s34.833 -29.666 35.5 -54.999s-9.5 -45.333 -30.5 -60s-50.167 -22 -87.5 -22s-70 7.33301 -98 22v33c26.667 -15.333 58 -23 94 -23
c29.333 0 51.5 4.83301 66.5 14.5s22.167 21.834 21.5 36.501c0 19.333 -13.167 32.166 -39.5 38.499s-54.5 5.16602 -84.5 -3.50098l25 103c-64 4.66699 -118.167 28 -162.5 70s-66.5 100.667 -66.5 176c0 82.667 25.667 145.834 77 189.501s111.666 65.5 180.999 65.5
c56 0 103.667 -13 143 -39v-37c-38.667 26.667 -85 40 -139 40c-61.333 0 -114 -18.333 -158 -55s-66 -91 -66 -163c0 -68.667 21 -121.167 63 -157.5s92.667 -54.5 152 -54.5c57.333 0 108.333 12.667 153 38z" />
    <glyph glyph-name="egrave" unicode="&#xe8;" horiz-adv-x="546" 
d="M47 240c0 77.333 23.3311 138.498 69.998 183.498s101.667 67.5 165 67.5c34.667 0 65.834 -5.66699 93.501 -17s49.667 -26.166 66 -44.499s30.166 -39.166 41.499 -62.499s17.5 -47.5 18.5 -72.5s-0.166992 -49.5 -3.5 -73.5h-413
c2.66699 -65.333 25.834 -114.333 69.501 -147s96.834 -49 159.501 -49c60.667 0 112.667 12.667 156 38v-38c-44 -24 -97.667 -36 -161 -36c-74.667 0 -137 21.167 -187 63.5s-75 104.833 -75 187.5zM464.998 254.998c2.66699 22 1.33301 44.168 -4 66.501
s-14.666 43.666 -27.999 63.999s-32.833 37 -58.5 50s-55.834 19.5 -90.501 19.5c-54 0 -100.167 -17.833 -138.5 -53.5s-58.5 -84.5 -60.5 -146.5h380zM322.997 555.999h-42l-94 137h48z" />
    <glyph glyph-name="eacute" unicode="&#xe9;" horiz-adv-x="546" 
d="M47 240c0 77.333 23.3311 138.498 69.998 183.498s101.667 67.5 165 67.5c34.667 0 65.834 -5.66699 93.501 -17s49.667 -26.166 66 -44.499s30.166 -39.166 41.499 -62.499s17.5 -47.5 18.5 -72.5s-0.166992 -49.5 -3.5 -73.5h-413
c2.66699 -65.333 25.834 -114.333 69.501 -147s96.834 -49 159.501 -49c60.667 0 112.667 12.667 156 38v-38c-44 -24 -97.667 -36 -161 -36c-74.667 0 -137 21.167 -187 63.5s-75 104.833 -75 187.5zM464.998 254.998c2.66699 22 1.33301 44.168 -4 66.501
s-14.666 43.666 -27.999 63.999s-32.833 37 -58.5 50s-55.834 19.5 -90.501 19.5c-54 0 -100.167 -17.833 -138.5 -53.5s-58.5 -84.5 -60.5 -146.5h380zM280.997 555.999h-43l89 137h47z" />
    <glyph glyph-name="ecircumflex" unicode="&#xea;" horiz-adv-x="546" 
d="M47 240c0 77.333 23.3311 138.498 69.998 183.498s101.667 67.5 165 67.5c34.667 0 65.834 -5.66699 93.501 -17s49.667 -26.166 66 -44.499s30.166 -39.166 41.499 -62.499s17.5 -47.5 18.5 -72.5s-0.166992 -49.5 -3.5 -73.5h-413
c2.66699 -65.333 25.834 -114.333 69.501 -147s96.834 -49 159.501 -49c60.667 0 112.667 12.667 156 38v-38c-44 -24 -97.667 -36 -161 -36c-74.667 0 -137 21.167 -187 63.5s-75 104.833 -75 187.5zM464.998 254.998c2.66699 22 1.33301 44.168 -4 66.501
s-14.666 43.666 -27.999 63.999s-32.833 37 -58.5 50s-55.834 19.5 -90.501 19.5c-54 0 -100.167 -17.833 -138.5 -53.5s-58.5 -84.5 -60.5 -146.5h380zM266.997 686.999h33l128 -131h-44l-100 101l-101 -101h-44z" />
    <glyph glyph-name="edieresis" unicode="&#xeb;" horiz-adv-x="546" 
d="M47 240c0 77.333 23.3311 138.498 69.998 183.498s101.667 67.5 165 67.5c34.667 0 65.834 -5.66699 93.501 -17s49.667 -26.166 66 -44.499s30.166 -39.166 41.499 -62.499s17.5 -47.5 18.5 -72.5s-0.166992 -49.5 -3.5 -73.5h-413
c2.66699 -65.333 25.834 -114.333 69.501 -147s96.834 -49 159.501 -49c60.667 0 112.667 12.667 156 38v-38c-44 -24 -97.667 -36 -161 -36c-74.667 0 -137 21.167 -187 63.5s-75 104.833 -75 187.5zM464.998 254.998c2.66699 22 1.33301 44.168 -4 66.501
s-14.666 43.666 -27.999 63.999s-32.833 37 -58.5 50s-55.834 19.5 -90.501 19.5c-54 0 -100.167 -17.833 -138.5 -53.5s-58.5 -84.5 -60.5 -146.5h380zM412.997 615.999c0 -8.66699 -3 -16 -9 -22s-13.333 -9 -22 -9s-16 3 -22 9s-9 13.333 -9 22c0 8 3 15.167 9 21.5
s13.333 9.5 22 9.5s16 -3.16699 22 -9.5s9 -13.5 9 -21.5zM211.997 615.999c0 -8.66699 -3 -16 -9 -22s-13.333 -9 -22 -9s-16 3 -22 9s-9 13.333 -9 22c0 8 3 15.167 9 21.5s13.333 9.5 22 9.5s16 -3.16699 22 -9.5s9 -13.5 9 -21.5z" />
    <glyph glyph-name="igrave" unicode="&#xec;" horiz-adv-x="207" 
d="M122 0h-38v480h38v-480zM151 556h-37l-86 137h43z" />
    <glyph glyph-name="iacute" unicode="&#xed;" horiz-adv-x="207" 
d="M85 480h38v-480h-38v480zM103 556h-43l89 137h47z" />
    <glyph glyph-name="icircumflex" unicode="&#xee;" horiz-adv-x="206" 
d="M88 677h33l100 -121h-42l-75 91l-75 -91h-41zM84 480h38v-480h-38v480z" />
    <glyph glyph-name="idieresis" unicode="&#xef;" horiz-adv-x="206" 
d="M206 616c0 -8 -2.83301 -14.833 -8.5 -20.5s-12.5 -8.5 -20.5 -8.5s-14.833 2.83301 -20.5 8.5s-8.5 12.5 -8.5 20.5c0 7.33301 2.83301 14 8.5 20s12.5 9 20.5 9s14.833 -3 20.5 -9s8.5 -12.667 8.5 -20zM57 616c0 -8 -2.83301 -14.833 -8.5 -20.5
s-12.5 -8.5 -20.5 -8.5s-14.833 2.83301 -20.5 8.5s-8.5 12.5 -8.5 20.5c0 7.33301 2.83301 14 8.5 20s12.5 9 20.5 9s14.833 -3 20.5 -9s8.5 -12.667 8.5 -20zM84 480h38v-480h-38v480z" />
    <glyph glyph-name="eth" unicode="&#xf0;" horiz-adv-x="595" 
d="M538 267c0 -85.333 -22.667 -152.999 -68 -202.999s-105 -75 -179 -75c-70.667 0 -129 21.5 -175 64.5s-69 99.5 -69 169.5c0 65.333 22.667 119.166 68 161.499s99.666 63.5 162.999 63.5c53.333 0 101.333 -14.667 144 -44s69.667 -70.666 81 -123.999
c0 10 -0.333008 17.667 -1 23c-8 164 -82 273.333 -222 328l-113 -112l-22 23l101 101c-47.333 14 -95.666 21 -144.999 21v36c58 0 115.667 -9.66699 173 -29l85 85l22 -23l-76 -76c68.667 -30 124.667 -76.333 168 -139s65 -146.334 65 -251.001zM85 223.001
c0 -60 19 -107.834 57 -143.501s87.667 -53.5 149 -53.5c55.333 0 100.5 15.667 135.5 47s57.5 74 67.5 128c-1.33301 66 -22.5 117.667 -63.5 155s-90.167 56 -147.5 56c-56 0 -103 -17.667 -141 -53s-57 -80.666 -57 -135.999z" />
    <glyph glyph-name="ntilde" unicode="&#xf1;" 
d="M116 381c19.333 29.333 46.002 54.999 80.002 76.999s72.667 33 116 33c54.667 0 100 -17.833 136 -53.5s54 -83.167 54 -142.5v-295h-38v291c0 52 -14.5 92.333 -43.5 121s-66.167 43 -111.5 43c-42.667 0 -80.334 -11.667 -113.001 -35
s-58.334 -51.666 -77.001 -84.999v-335h-38v480h35v-99zM437.002 642.999c2.66699 -24.667 -1.83008 -44.332 -13.4971 -58.999s-28.167 -22 -49.5 -22c-20 0 -49 8.83301 -87 26.5s-63.333 26.5 -76 26.5s-22.334 -4.33301 -29.001 -13s-9.33398 -20.334 -8.00098 -35.001
h-34c-3.33301 24 1.16699 43.667 13.5 59s28.833 23 49.5 23c19.333 0 48.166 -8.83301 86.499 -26.5s63.833 -26.5 76.5 -26.5c28 0 40.333 15.667 37 47h34z" />
    <glyph glyph-name="ograve" unicode="&#xf2;" horiz-adv-x="591" 
d="M46 240c0 77.333 24.5 138.5 73.5 183.5s107.5 67.5 175.5 67.5c68.667 0 127.5 -22.5 176.5 -67.5s73.5 -106.167 73.5 -183.5s-24.5 -138.5 -73.5 -183.5s-107.833 -67.5 -176.5 -67.5c-68 0 -126.5 22.5 -175.5 67.5s-73.5 106.167 -73.5 183.5zM507 240
c0 65.333 -20.5 117.333 -61.5 156s-91.167 58 -150.5 58s-109.333 -19.333 -150 -58s-61 -90.667 -61 -156s20.333 -117.333 61 -156s90.667 -58 150 -58s109.5 19.333 150.5 58s61.5 90.667 61.5 156zM336 550h-42l-94 137h48z" />
    <glyph glyph-name="oacute" unicode="&#xf3;" horiz-adv-x="591" 
d="M46 240c0 77.333 24.5 138.5 73.5 183.5s107.5 67.5 175.5 67.5c68.667 0 127.5 -22.5 176.5 -67.5s73.5 -106.167 73.5 -183.5s-24.5 -138.5 -73.5 -183.5s-107.833 -67.5 -176.5 -67.5c-68 0 -126.5 22.5 -175.5 67.5s-73.5 106.167 -73.5 183.5zM507 240
c0 65.333 -20.5 117.333 -61.5 156s-91.167 58 -150.5 58s-109.333 -19.333 -150 -58s-61 -90.667 -61 -156s20.333 -117.333 61 -156s90.667 -58 150 -58s109.5 19.333 150.5 58s61.5 90.667 61.5 156zM294 550h-43l89 137h47z" />
    <glyph glyph-name="ocircumflex" unicode="&#xf4;" horiz-adv-x="591" 
d="M46 240c0 77.333 24.5 138.5 73.5 183.5s107.5 67.5 175.5 67.5c68.667 0 127.5 -22.5 176.5 -67.5s73.5 -106.167 73.5 -183.5s-24.5 -138.5 -73.5 -183.5s-107.833 -67.5 -176.5 -67.5c-68 0 -126.5 22.5 -175.5 67.5s-73.5 106.167 -73.5 183.5zM507 240
c0 65.333 -20.5 117.333 -61.5 156s-91.167 58 -150.5 58s-109.333 -19.333 -150 -58s-61 -90.667 -61 -156s20.333 -117.333 61 -156s90.667 -58 150 -58s109.5 19.333 150.5 58s61.5 90.667 61.5 156zM280 681h33l128 -131h-44l-100 101l-101 -101h-44z" />
    <glyph glyph-name="otilde" unicode="&#xf5;" horiz-adv-x="591" 
d="M46 240c0 77.333 24.5 138.5 73.5 183.5s107.5 67.5 175.5 67.5c68.667 0 127.5 -22.5 176.5 -67.5s73.5 -106.167 73.5 -183.5s-24.5 -138.5 -73.5 -183.5s-107.833 -67.5 -176.5 -67.5c-68 0 -126.5 22.5 -175.5 67.5s-73.5 106.167 -73.5 183.5zM507 240
c0 65.333 -20.5 117.333 -61.5 156s-91.167 58 -150.5 58s-109.333 -19.333 -150 -58s-61 -90.667 -61 -156s20.333 -117.333 61 -156s90.667 -58 150 -58s109.5 19.333 150.5 58s61.5 90.667 61.5 156zM444 637c2.66699 -24.667 -1.83008 -44.332 -13.4971 -58.999
s-28.167 -22 -49.5 -22c-20 0 -49 8.83301 -87 26.5s-63.333 26.5 -76 26.5s-22.334 -4.33301 -29.001 -13s-9.33398 -20.334 -8.00098 -35.001h-34c-3.33301 24 1.16699 43.667 13.5 59s28.833 23 49.5 23c19.333 0 48.166 -8.83301 86.499 -26.5s63.833 -26.5 76.5 -26.5
c28 0 40.333 15.667 37 47h34z" />
    <glyph glyph-name="odieresis" unicode="&#xf6;" horiz-adv-x="591" 
d="M46 240c0 77.333 24.5 138.5 73.5 183.5s107.5 67.5 175.5 67.5c68.667 0 127.5 -22.5 176.5 -67.5s73.5 -106.167 73.5 -183.5s-24.5 -138.5 -73.5 -183.5s-107.833 -67.5 -176.5 -67.5c-68 0 -126.5 22.5 -175.5 67.5s-73.5 106.167 -73.5 183.5zM507 240
c0 65.333 -20.5 117.333 -61.5 156s-91.167 58 -150.5 58s-109.333 -19.333 -150 -58s-61 -90.667 -61 -156s20.333 -117.333 61 -156s90.667 -58 150 -58s109.5 19.333 150.5 58s61.5 90.667 61.5 156zM426 610c0 -8.66699 -3 -16 -9 -22s-13.333 -9 -22 -9s-16 3 -22 9
s-9 13.333 -9 22c0 8 3 15.167 9 21.5s13.333 9.5 22 9.5s16 -3.16699 22 -9.5s9 -13.5 9 -21.5zM225 610c0 -8.66699 -3 -16 -9 -22s-13.333 -9 -22 -9s-16 3 -22 9s-9 13.333 -9 22c0 8 3 15.167 9 21.5s13.333 9.5 22 9.5s16 -3.16699 22 -9.5s9 -13.5 9 -21.5z" />
    <glyph glyph-name="divide" unicode="&#xf7;" horiz-adv-x="638" 
d="M559 332h-480v36h480v-36zM349 125c0 -8.66699 -2.83301 -15.667 -8.5 -21s-12.834 -8 -21.501 -8c-8 0 -15 2.66699 -21 8s-9 12.333 -9 21c0 9.33301 2.83301 16.5 8.5 21.5s12.834 7.5 21.501 7.5c20 0 30 -9.66699 30 -29zM349 572
c0 -8.66699 -2.83301 -15.667 -8.5 -21s-12.834 -8 -21.501 -8c-8 0 -15 2.66699 -21 8s-9 12.333 -9 21c0 9.33301 2.83301 16.5 8.5 21.5s12.834 7.5 21.501 7.5c20 0 30 -9.66699 30 -29z" />
    <glyph glyph-name="oslash" unicode="&#xf8;" horiz-adv-x="591" 
d="M507 543l-63 -98c67.333 -46 101 -114.333 101 -205c0 -77.333 -24.5 -138.5 -73.5 -183.5s-107.833 -67.5 -176.5 -67.5c-45.333 0 -87.333 10.667 -126 32l-50 -79h-35l61 94c-66 46.667 -99 114.667 -99 204c0 77.333 24.5 138.5 73.5 183.5s107.5 67.5 175.5 67.5
c44.667 0 86 -10.333 124 -31l53 83h35zM295 454c-59.333 0 -109.332 -19.333 -149.999 -58s-61 -90.667 -61 -156c0 -75.333 27.333 -133 82 -173l233 363c-30.667 16 -65.334 24 -104.001 24zM190.001 52c31.333 -17.333 66.333 -26 105 -26
c59.333 0 109.5 19.333 150.5 58s61.5 90.667 61.5 156c0 76.667 -28 135 -84 175z" />
    <glyph glyph-name="ugrave" unicode="&#xf9;" 
d="M458 480l37.998 0.000976562v-480h-35v99c-19.333 -29.333 -46 -55 -80 -77s-72.667 -33 -116 -33c-56.667 0 -102.5 17.667 -137.5 53s-52.5 83 -52.5 143v295h38v-291c0 -52 14.167 -92.333 42.5 -121s65.833 -43 112.5 -43c42.667 0 80.334 11.667 113.001 35
s58.334 51.666 77.001 84.999v335zM332.998 556.001h-42l-94 137h48z" />
    <glyph glyph-name="uacute" unicode="&#xfa;" 
d="M458 480l37.998 0.000976562v-480h-35v99c-19.333 -29.333 -46 -55 -80 -77s-72.667 -33 -116 -33c-56.667 0 -102.5 17.667 -137.5 53s-52.5 83 -52.5 143v295h38v-291c0 -52 14.167 -92.333 42.5 -121s65.833 -43 112.5 -43c42.667 0 80.334 11.667 113.001 35
s58.334 51.666 77.001 84.999v335zM290.998 556.001h-43l89 137h47z" />
    <glyph glyph-name="ucircumflex" unicode="&#xfb;" 
d="M458 480l37.998 0.000976562v-480h-35v99c-19.333 -29.333 -46 -55 -80 -77s-72.667 -33 -116 -33c-56.667 0 -102.5 17.667 -137.5 53s-52.5 83 -52.5 143v295h38v-291c0 -52 14.167 -92.333 42.5 -121s65.833 -43 112.5 -43c42.667 0 80.334 11.667 113.001 35
s58.334 51.666 77.001 84.999v335zM276.998 687.001h33l128 -131h-44l-100 101l-101 -101h-44z" />
    <glyph glyph-name="udieresis" unicode="&#xfc;" 
d="M458 480l37.998 0.000976562v-480h-35v99c-19.333 -29.333 -46 -55 -80 -77s-72.667 -33 -116 -33c-56.667 0 -102.5 17.667 -137.5 53s-52.5 83 -52.5 143v295h38v-291c0 -52 14.167 -92.333 42.5 -121s65.833 -43 112.5 -43c42.667 0 80.334 11.667 113.001 35
s58.334 51.666 77.001 84.999v335zM422.998 616.001c0 -8.66699 -3 -16 -9 -22s-13.333 -9 -22 -9s-16 3 -22 9s-9 13.333 -9 22c0 8 3 15.167 9 21.5s13.333 9.5 22 9.5s16 -3.16699 22 -9.5s9 -13.5 9 -21.5zM221.998 616.001c0 -8.66699 -3 -16 -9 -22s-13.333 -9 -22 -9
s-16 3 -22 9s-9 13.333 -9 22c0 8 3 15.167 9 21.5s13.333 9.5 22 9.5s16 -3.16699 22 -9.5s9 -13.5 9 -21.5z" />
    <glyph glyph-name="yacute" unicode="&#xfd;" horiz-adv-x="531" 
d="M276 40l193.997 440.001h40l-250 -564c-23.333 -52.667 -48.166 -90.334 -74.499 -113.001s-56.166 -34 -89.499 -34c-17.333 0 -34 2.33301 -50 7v34c18.667 -4.66699 34 -7 46 -7c28.667 0 53.834 10.167 75.501 30.5s42.167 52.833 61.5 97.5l29 67l-243 482h41z
M256.997 556.001h-43l89 137h47z" />
    <glyph glyph-name="thorn" unicode="&#xfe;" horiz-adv-x="615" 
d="M81 700h38v-330c20 35.333 48.167 64.333 84.5 87s78.166 34 125.499 34c68.667 0 125.667 -23.167 171 -69.5s68 -106.833 68 -181.5s-22.667 -135.167 -68 -181.5s-102.333 -69.5 -171 -69.5c-47.333 0 -89.166 11.333 -125.499 34s-64.5 51.667 -84.5 87v-330h-38v920
zM530 240c0 65.333 -19.333 117.5 -58 156.5s-87.667 58.5 -147 58.5c-48 0 -90.5 -13.667 -127.5 -41s-63.167 -62 -78.5 -104v-140c15.333 -42 41.5 -76.667 78.5 -104s79.5 -41 127.5 -41c59.333 0 108.333 19.333 147 58s58 91 58 157z" />
    <glyph glyph-name="ydieresis" unicode="&#xff;" horiz-adv-x="531" 
d="M276 40l193.997 440.001h40l-250 -564c-23.333 -52.667 -48.166 -90.334 -74.499 -113.001s-56.166 -34 -89.499 -34c-17.333 0 -34 2.33301 -50 7v34c18.667 -4.66699 34 -7 46 -7c28.667 0 53.834 10.167 75.501 30.5s42.167 52.833 61.5 97.5l29 67l-243 482h41z
M388.997 616.001c0 -8.66699 -3 -16 -9 -22s-13.333 -9 -22 -9s-16 3 -22 9s-9 13.333 -9 22c0 8 3 15.167 9 21.5s13.333 9.5 22 9.5s16 -3.16699 22 -9.5s9 -13.5 9 -21.5zM187.997 616.001c0 -8.66699 -3 -16 -9 -22s-13.333 -9 -22 -9s-16 3 -22 9s-9 13.333 -9 22
c0 8 3 15.167 9 21.5s13.333 9.5 22 9.5s16 -3.16699 22 -9.5s9 -13.5 9 -21.5z" />
    <glyph glyph-name="Amacron" unicode="&#x100;" horiz-adv-x="708" 
d="M57 0h-43l318 700h45l317 -700h-42l-93 204h-410zM347 642l-180.999 -401h378l-181 401c-0.666992 2 -1.83398 5 -3.50098 9s-3.16699 7 -4.5 9c-0.666992 -2 -2 -5 -4 -9s-3.33301 -7 -4 -9zM222.001 840h264v-36h-264v36z" />
    <glyph glyph-name="amacron" unicode="&#x101;" horiz-adv-x="540" 
d="M450 77c0 -30.667 16 -46.0029 48 -46.0029c10.667 0 23 2.33301 37 7v-32c-16 -5.33301 -31.667 -8 -47 -8c-22 0 -40.167 6.33301 -54.5 19s-21.5 32.334 -21.5 59.001v13c-50 -66.667 -119.333 -100 -208 -100c-45.333 0 -84.166 12 -116.499 36
s-48.5 58.667 -48.5 104c0 52.667 20.167 91.334 60.5 116.001s89.833 37 148.5 37c55.333 0 110 -8.66699 164 -26v44c0 47.333 -14.333 85 -43 113s-69.334 42 -122.001 42c-60 0 -117 -10.333 -171 -31v37c56.667 20 114.667 30 174 30
c63.333 0 112.5 -17.167 147.5 -51.5s52.5 -82.166 52.5 -143.499v-219zM78 129.997c0 -34.667 13.001 -61.167 39.001 -79.5s57.333 -27.5 94 -27.5c41.333 0 79.833 9.83301 115.5 29.5s64.167 47.5 85.5 83.5v87c-54 17.333 -107.333 26 -160 26
c-48.667 0 -89.834 -9.5 -123.501 -28.5s-50.5 -49.167 -50.5 -90.5zM118.001 619.997h264v-36h-264v36z" />
    <glyph glyph-name="Abreve" unicode="&#x102;" horiz-adv-x="708" 
d="M57 0h-43l318 700h45l317 -700h-42l-93 204h-410zM347 642l-180.999 -401h378l-181 401c-0.666992 2 -1.83398 5 -3.50098 9s-3.16699 7 -4.5 9c-0.666992 -2 -2 -5 -4 -9s-3.33301 -7 -4 -9zM482.001 820c-34 -28 -76.667 -42 -128 -42s-94 14 -128 42v39
c37.333 -29.333 80 -44 128 -44s90.667 14.667 128 44v-39z" />
    <glyph glyph-name="abreve" unicode="&#x103;" horiz-adv-x="540" 
d="M450 77c0 -30.667 16 -46.0029 48 -46.0029c10.667 0 23 2.33301 37 7v-32c-16 -5.33301 -31.667 -8 -47 -8c-22 0 -40.167 6.33301 -54.5 19s-21.5 32.334 -21.5 59.001v13c-50 -66.667 -119.333 -100 -208 -100c-45.333 0 -84.166 12 -116.499 36
s-48.5 58.667 -48.5 104c0 52.667 20.167 91.334 60.5 116.001s89.833 37 148.5 37c55.333 0 110 -8.66699 164 -26v44c0 47.333 -14.333 85 -43 113s-69.334 42 -122.001 42c-60 0 -117 -10.333 -171 -31v37c56.667 20 114.667 30 174 30
c63.333 0 112.5 -17.167 147.5 -51.5s52.5 -82.166 52.5 -143.499v-219zM78 129.997c0 -34.667 13.001 -61.167 39.001 -79.5s57.333 -27.5 94 -27.5c41.333 0 79.833 9.83301 115.5 29.5s64.167 47.5 85.5 83.5v87c-54 17.333 -107.333 26 -160 26
c-48.667 0 -89.834 -9.5 -123.501 -28.5s-50.5 -49.167 -50.5 -90.5zM378.001 599.997c-34 -28 -76.667 -42 -128 -42s-94 14 -128 42v39c37.333 -29.333 80 -44 128 -44s90.667 14.667 128 44v-39z" />
    <glyph glyph-name="Aogonek" unicode="&#x104;" horiz-adv-x="709" 
d="M582 -143c0 -17.333 5.33496 -31.001 16.002 -41.001s25.667 -15 45 -15c23.333 0 46.333 6.66699 69 20v-32c-22.667 -13.333 -48.334 -20 -77.001 -20s-50.834 7.33301 -66.501 22s-23.5 34.334 -23.5 59.001c0 47.333 34.333 100 103 158l-89 196h-410l-92 -204h-43
l318 700h45l317 -700h1c-75.333 -51.333 -113 -99 -113 -143zM346.002 641.999l-181 -401h379l-182 401c-4 8 -6.66699 14 -8 18c-1.33301 -4 -4 -10 -8 -18z" />
    <glyph glyph-name="aogonek" unicode="&#x105;" horiz-adv-x="540" 
d="M211 23c41.333 0 79.834 9.83301 115.501 29.5s64.167 47.5 85.5 83.5v87c-54 17.333 -107.333 26 -160 26c-48.667 0 -89.834 -9.5 -123.501 -28.5s-50.5 -49.167 -50.5 -90.5c0 -34.667 13 -61.167 39 -79.5s57.333 -27.5 94 -27.5zM533.001 -182l-0.000976562 -32.001
c-18.667 -7.33301 -38 -11 -58 -11c-28 -0.666992 -50 6.5 -66 21.5s-24 34.5 -24 58.5c0 48 32.333 95.667 97 143c-20.667 1.33301 -37.5 8.16602 -50.5 20.499s-19.5 31.5 -19.5 57.5v13c-50 -66.667 -119.333 -100 -208 -100c-45.333 0 -84.166 12 -116.499 36
s-48.5 58.667 -48.5 104c0 52.667 20.167 91.334 60.5 116.001s89.833 37 148.5 37c55.333 0 110 -8.66699 164 -26v44c0 47.333 -14.333 85 -43 113s-69.334 42 -122.001 42c-60 0 -117 -10.333 -171 -31v37c56.667 20 114.667 30 174 30
c63.333 0 112.5 -17.167 147.5 -51.5s52.5 -82.166 52.5 -143.499v-219c0 -30.667 16 -46 48 -46c10.667 0 23 2.33301 37 7v-32c-76 -51.333 -114 -99.333 -114 -144c0 -16.667 5.5 -30 16.5 -40s26.167 -15 45.5 -15c16.667 0 33.334 3.66699 50.001 11z" />
    <glyph glyph-name="Cacute" unicode="&#x106;" horiz-adv-x="657" 
d="M51 342c0 58.667 10.501 111.997 31.501 159.997s48.833 86.833 83.5 116.5s73.167 52.5 115.5 68.5s86.166 24 131.499 24c72 0 137.333 -16 196 -48v-40c-55.333 33.333 -119 50 -191 50c-40.667 0 -80 -7 -118 -21s-72.833 -34.167 -104.5 -60.5
s-57 -61.166 -76 -104.499s-28.5 -91.666 -28.5 -144.999c0 -51.333 9.66699 -97.666 29 -138.999s44.833 -74.5 76.5 -99.5s66.667 -44 105 -57s77.833 -19.5 118.5 -19.5c76 0 141.667 17 197 51v-40c-59.333 -32.667 -127.333 -49 -204 -49
c-44.667 0 -88.167 7.5 -130.5 22.5s-80.833 36.5 -115.5 64.5s-62.667 65.167 -84 111.5s-32 97.833 -32 154.5zM401.001 775.997h-43l89 137h47z" />
    <glyph glyph-name="cacute" unicode="&#x107;" horiz-adv-x="493" 
d="M47 236c0 82.667 25.667 145.833 77 189.5s111.666 65.5 180.999 65.5c56 0 103.667 -13 143 -39v-37c-38.667 26.667 -85 40 -139 40c-61.333 0 -114 -18.333 -158 -55s-66 -91 -66 -163c0 -68.667 21 -121.167 63 -157.5s92.667 -54.5 152 -54.5
c57.333 0 108.333 12.667 153 38v-38c-45.333 -24 -97.666 -36 -156.999 -36c-68 0 -126.5 21.167 -175.5 63.5s-73.5 103.5 -73.5 183.5zM297 555.999h-43l89 137h47z" />
    <glyph glyph-name="Cdotaccent" unicode="&#x10a;" horiz-adv-x="657" 
d="M51 342c0 58.667 10.501 111.997 31.501 159.997s48.833 86.833 83.5 116.5s73.167 52.5 115.5 68.5s86.166 24 131.499 24c72 0 137.333 -16 196 -48v-40c-55.333 33.333 -119 50 -191 50c-40.667 0 -80 -7 -118 -21s-72.833 -34.167 -104.5 -60.5
s-57 -61.166 -76 -104.499s-28.5 -91.666 -28.5 -144.999c0 -51.333 9.66699 -97.666 29 -138.999s44.833 -74.5 76.5 -99.5s66.667 -44 105 -57s77.833 -19.5 118.5 -19.5c76 0 141.667 17 197 51v-40c-59.333 -32.667 -127.333 -49 -204 -49
c-44.667 0 -88.167 7.5 -130.5 22.5s-80.833 36.5 -115.5 64.5s-62.667 65.167 -84 111.5s-32 97.833 -32 154.5zM364.001 819.997c0 10.667 3.5 19.167 10.5 25.5s15.5 9.5 25.5 9.5s18.5 -3.16699 25.5 -9.5s10.5 -14.833 10.5 -25.5s-3.5 -19.334 -10.5 -26.001
s-15.5 -10 -25.5 -10s-18.5 3.33301 -25.5 10s-10.5 15.334 -10.5 26.001z" />
    <glyph glyph-name="cdotaccent" unicode="&#x10b;" horiz-adv-x="493" 
d="M47 236c0 82.667 25.667 145.833 77 189.5s111.666 65.5 180.999 65.5c56 0 103.667 -13 143 -39v-37c-38.667 26.667 -85 40 -139 40c-61.333 0 -114 -18.333 -158 -55s-66 -91 -66 -163c0 -68.667 21 -121.167 63 -157.5s92.667 -54.5 152 -54.5
c57.333 0 108.333 12.667 153 38v-38c-45.333 -24 -97.666 -36 -156.999 -36c-68 0 -126.5 21.167 -175.5 63.5s-73.5 103.5 -73.5 183.5zM260 599.999c0 10.667 3.5 19.167 10.5 25.5s15.5 9.5 25.5 9.5s18.5 -3.16699 25.5 -9.5s10.5 -14.833 10.5 -25.5
s-3.5 -19.334 -10.5 -26.001s-15.5 -10 -25.5 -10s-18.5 3.33301 -25.5 10s-10.5 15.334 -10.5 26.001z" />
    <glyph glyph-name="Ccaron" unicode="&#x10c;" horiz-adv-x="657" 
d="M51 342c0 58.667 10.501 111.997 31.501 159.997s48.833 86.833 83.5 116.5s73.167 52.5 115.5 68.5s86.166 24 131.499 24c72 0 137.333 -16 196 -48v-40c-55.333 33.333 -119 50 -191 50c-40.667 0 -80 -7 -118 -21s-72.833 -34.167 -104.5 -60.5
s-57 -61.166 -76 -104.499s-28.5 -91.666 -28.5 -144.999c0 -51.333 9.66699 -97.666 29 -138.999s44.833 -74.5 76.5 -99.5s66.667 -44 105 -57s77.833 -19.5 118.5 -19.5c76 0 141.667 17 197 51v-40c-59.333 -32.667 -127.333 -49 -204 -49
c-44.667 0 -88.167 7.5 -130.5 22.5s-80.833 36.5 -115.5 64.5s-62.667 65.167 -84 111.5s-32 97.833 -32 154.5zM548.001 896.997l-128 -131h-33l-128 131h44l101 -101l100 101h44z" />
    <glyph glyph-name="ccaron" unicode="&#x10d;" horiz-adv-x="493" 
d="M47 236c0 82.667 25.667 145.833 77 189.5s111.666 65.5 180.999 65.5c56 0 103.667 -13 143 -39v-37c-38.667 26.667 -85 40 -139 40c-61.333 0 -114 -18.333 -158 -55s-66 -91 -66 -163c0 -68.667 21 -121.167 63 -157.5s92.667 -54.5 152 -54.5
c57.333 0 108.333 12.667 153 38v-38c-45.333 -24 -97.666 -36 -156.999 -36c-68 0 -126.5 21.167 -175.5 63.5s-73.5 103.5 -73.5 183.5zM444 676.999l-128 -131h-33l-128 131h44l101 -101l100 101h44z" />
    <glyph glyph-name="Dcaron" unicode="&#x10e;" horiz-adv-x="731" 
d="M101 700h207c120.667 0 212.667 -32.167 276 -96.5s95 -148.833 95 -253.5s-31.667 -189.167 -95 -253.5s-155.333 -96.5 -276 -96.5h-207v700zM639 350c0 96 -28 172 -84 228s-138.333 84 -247 84h-167v-624h167c108.667 0 191 28 247 84s84 132 84 228zM487 897
l-128 -131h-33l-128 131h44l101 -101l100 101h44z" />
    <glyph glyph-name="dcaron" unicode="&#x10f;" horiz-adv-x="615" 
d="M616 700h37l-22 -163h-33zM496 700h37.999v-700h-35v114c-21.333 -37.333 -50.5 -67.5 -87.5 -90.5s-78.833 -34.5 -125.5 -34.5c-69.333 0 -126.5 23.167 -171.5 69.5s-67.5 106.833 -67.5 181.5s22.5 135.167 67.5 181.5s102.167 69.5 171.5 69.5
c46.667 0 88.334 -11.333 125.001 -34s65 -51.667 85 -87v330zM495.999 310c-16 42 -42.502 76.667 -79.502 104s-79.5 41 -127.5 41c-59.333 0 -108.166 -19.333 -146.499 -58s-57.5 -91 -57.5 -157c0 -65.333 19.333 -117.5 58 -156.5s87.334 -58.5 146.001 -58.5
c48 0 90.5 13.667 127.5 41s63.5 62 79.5 104v140z" />
    <glyph glyph-name="Dcroat" unicode="&#x110;" horiz-adv-x="732" 
d="M103 700h206c121.333 0 213.5 -32 276.5 -96s94.5 -148.667 94.5 -254s-31.5 -190 -94.5 -254s-155.167 -96 -276.5 -96h-206v331h-81v37h81v332zM142 38h167c108.667 0 191 28 247 84s84 132 84 228s-28 172 -84 228s-138.333 84 -247 84h-167v-294h234v-37h-234v-293z
" />
    <glyph glyph-name="dcroat" unicode="&#x111;" horiz-adv-x="615" 
d="M534 618h73.999v-30h-74v-588h-35v114c-21.333 -37.333 -50.5 -67.5 -87.5 -90.5s-78.833 -34.5 -125.5 -34.5c-69.333 0 -126.5 23.167 -171.5 69.5s-67.5 106.833 -67.5 181.5s22.5 135.167 67.5 181.5s102.167 69.5 171.5 69.5c46.667 0 88.334 -11.333 125.001 -34
s65 -51.667 85 -87v218h-195v30h195v82h38v-82zM288.999 25c48 0 90.498 13.667 127.498 41s63.5 62 79.5 104v140c-16 42 -42.5 76.667 -79.5 104s-79.5 41 -127.5 41c-59.333 0 -108.166 -19.333 -146.499 -58s-57.5 -91 -57.5 -157c0 -65.333 19.333 -117.5 58 -156.5
s87.334 -58.5 146.001 -58.5z" />
    <glyph glyph-name="Emacron" unicode="&#x112;" horiz-adv-x="624" 
d="M101 700h459v-38h-419v-291h389v-38h-389v-295h428v-38h-468v700zM201 840h264v-36h-264v36z" />
    <glyph glyph-name="emacron" unicode="&#x113;" horiz-adv-x="546" 
d="M47 240c0 77.333 23.3311 138.498 69.998 183.498s101.667 67.5 165 67.5c34.667 0 65.834 -5.66699 93.501 -17s49.667 -26.166 66 -44.499s30.166 -39.166 41.499 -62.499s17.5 -47.5 18.5 -72.5s-0.166992 -49.5 -3.5 -73.5h-413
c2.66699 -65.333 25.834 -114.333 69.501 -147s96.834 -49 159.501 -49c60.667 0 112.667 12.667 156 38v-38c-44 -24 -97.667 -36 -161 -36c-74.667 0 -137 21.167 -187 63.5s-75 104.833 -75 187.5zM464.998 254.998c2.66699 22 1.33301 44.168 -4 66.501
s-14.666 43.666 -27.999 63.999s-32.833 37 -58.5 50s-55.834 19.5 -90.501 19.5c-54 0 -100.167 -17.833 -138.5 -53.5s-58.5 -84.5 -60.5 -146.5h380zM149.997 619.999h264v-36h-264v36z" />
    <glyph glyph-name="Edotaccent" unicode="&#x116;" horiz-adv-x="624" 
d="M101 700h459v-38h-419v-291h389v-38h-389v-295h428v-38h-468v700zM295 820c0 10.667 3.5 19.167 10.5 25.5s15.5 9.5 25.5 9.5s18.5 -3.16699 25.5 -9.5s10.5 -14.833 10.5 -25.5s-3.5 -19.334 -10.5 -26.001s-15.5 -10 -25.5 -10s-18.5 3.33301 -25.5 10
s-10.5 15.334 -10.5 26.001z" />
    <glyph glyph-name="edotaccent" unicode="&#x117;" horiz-adv-x="546" 
d="M47 240c0 77.333 23.3311 138.498 69.998 183.498s101.667 67.5 165 67.5c34.667 0 65.834 -5.66699 93.501 -17s49.667 -26.166 66 -44.499s30.166 -39.166 41.499 -62.499s17.5 -47.5 18.5 -72.5s-0.166992 -49.5 -3.5 -73.5h-413
c2.66699 -65.333 25.834 -114.333 69.501 -147s96.834 -49 159.501 -49c60.667 0 112.667 12.667 156 38v-38c-44 -24 -97.667 -36 -161 -36c-74.667 0 -137 21.167 -187 63.5s-75 104.833 -75 187.5zM464.998 254.998c2.66699 22 1.33301 44.168 -4 66.501
s-14.666 43.666 -27.999 63.999s-32.833 37 -58.5 50s-55.834 19.5 -90.501 19.5c-54 0 -100.167 -17.833 -138.5 -53.5s-58.5 -84.5 -60.5 -146.5h380zM243.997 599.999c0 10.667 3.5 19.167 10.5 25.5s15.5 9.5 25.5 9.5s18.5 -3.16699 25.5 -9.5s10.5 -14.833 10.5 -25.5
s-3.5 -19.334 -10.5 -26.001s-15.5 -10 -25.5 -10s-18.5 3.33301 -25.5 10s-10.5 15.334 -10.5 26.001z" />
    <glyph glyph-name="Eogonek" unicode="&#x118;" horiz-adv-x="624" 
d="M568 -187l0.000976562 -32c-18.667 -8 -39.334 -12 -62.001 -12c-28 -0.666992 -50 6.5 -66 21.5s-24 34.5 -24 58.5c0 50.667 34.667 101 104 151h-419v700h459v-38h-419v-291h389v-38h-389v-295h428v-38c-78 -52.667 -117 -100.667 -117 -144
c0 -16.667 5.33301 -30 16 -40s26 -15 46 -15c18 0 36 4 54 12z" />
    <glyph glyph-name="eogonek" unicode="&#x119;" horiz-adv-x="546" 
d="M460 -211c-22.667 -13.333 -48.334 -20.001 -77.001 -20.001s-50.834 7.33301 -66.501 22s-23.5 34.334 -23.5 59.001c0 46 37 96.667 111 152c-31.333 -8.66699 -63 -13 -95 -13c-74.667 0 -137 21.167 -187 63.5s-75 104.833 -75 187.5c0 77.333 23.333 138.5 70 183.5
s101.667 67.5 165 67.5c42.667 0 80.167 -8.5 112.5 -25.5s56 -38.667 71 -65s26 -55.333 33 -87s6.83301 -62.5 -0.5 -92.5h-413c2.66699 -65.333 25.834 -114.333 69.501 -147s96.834 -49 159.501 -49c60.667 0 112.667 12.667 156 38v-38
c-94 -70.667 -141 -126.667 -141 -168c0 -36 20.667 -54.667 62 -56c25.333 1.33301 48.333 8 69 20v-32zM284 454.999c-54 0 -100.168 -17.832 -138.501 -53.499s-58.5 -84.5 -60.5 -146.5h380c2.66699 22 1.33398 44.167 -3.99902 66.5s-14.666 43.666 -27.999 63.999
s-32.833 37 -58.5 50s-55.834 19.5 -90.501 19.5z" />
    <glyph glyph-name="Ecaron" unicode="&#x11a;" horiz-adv-x="624" 
d="M101 700h459v-38h-419v-291h389v-38h-389v-295h428v-38h-468v700zM479 897l-128 -131h-33l-128 131h44l101 -101l100 101h44z" />
    <glyph glyph-name="ecaron" unicode="&#x11b;" horiz-adv-x="546" 
d="M47 240c0 77.333 23.3311 138.498 69.998 183.498s101.667 67.5 165 67.5c34.667 0 65.834 -5.66699 93.501 -17s49.667 -26.166 66 -44.499s30.166 -39.166 41.499 -62.499s17.5 -47.5 18.5 -72.5s-0.166992 -49.5 -3.5 -73.5h-413
c2.66699 -65.333 25.834 -114.333 69.501 -147s96.834 -49 159.501 -49c60.667 0 112.667 12.667 156 38v-38c-44 -24 -97.667 -36 -161 -36c-74.667 0 -137 21.167 -187 63.5s-75 104.833 -75 187.5zM464.998 254.998c2.66699 22 1.33301 44.168 -4 66.501
s-14.666 43.666 -27.999 63.999s-32.833 37 -58.5 50s-55.834 19.5 -90.501 19.5c-54 0 -100.167 -17.833 -138.5 -53.5s-58.5 -84.5 -60.5 -146.5h380zM427.997 676.999l-128 -131h-33l-128 131h44l101 -101l100 101h44z" />
    <glyph glyph-name="Gbreve" unicode="&#x11e;" horiz-adv-x="708" 
d="M52 350c0 60 10.502 113.671 31.502 161.004s49.333 85.166 85 113.499s75 49.833 118 64.5s87.833 22 134.5 22c74.667 0 142.667 -15.667 204 -47v-39c-56.667 32 -123 48 -199 48c-42.667 0 -83.334 -6.33301 -122.001 -19s-74.167 -31.334 -106.5 -56.001
s-58 -58.334 -77 -101.001s-28.5 -91.667 -28.5 -147c0 -56 9.66699 -105.333 29 -148s45.333 -76.334 78 -101.001s68.5 -43.167 107.5 -55.5s80.5 -18.5 124.5 -18.5c64 0 121.667 12.333 173 37v303h39v-330c-65.333 -32 -137 -48 -215 -48
c-48.667 0 -94.834 6.83301 -138.501 20.5s-83.5 34.5 -119.5 62.5s-64.667 65.833 -86 113.5s-32 102.5 -32 164.5zM534.002 820.004c-34 -28 -76.667 -42 -128 -42s-94 14 -128 42v39c37.333 -29.333 80 -44 128 -44s90.667 14.667 128 44v-39z" />
    <glyph glyph-name="gbreve" unicode="&#x11f;" horiz-adv-x="615" 
d="M47 240c0 74.667 22.501 135.168 67.501 181.501s102.167 69.5 171.5 69.5c46.667 0 88.5 -11.5 125.5 -34.5s66.167 -53.167 87.5 -90.5v114h35v-480c0 -76.667 -24.5 -134.334 -73.5 -173.001s-109.167 -58 -180.5 -58c-68.667 0 -132 15.333 -190 46v37
c60.667 -31.333 122.667 -47 186 -47s115.833 16 157.5 48s62.5 81 62.5 147v111c-20 -35.333 -48.333 -64.5 -85 -87.5s-78.334 -34.5 -125.001 -34.5c-69.333 0 -126.5 23.167 -171.5 69.5s-67.5 106.833 -67.5 181.5zM496.001 310.001
c-16 42 -42.502 76.666 -79.502 103.999s-79.5 41 -127.5 41c-59.333 0 -108.166 -19.333 -146.499 -58s-57.5 -91 -57.5 -157c0 -65.333 19.333 -117.5 58 -156.5s87.334 -58.5 146.001 -58.5c48 0 90.5 13.333 127.5 40s63.5 60.334 79.5 101.001v144zM416.999 600
c-34 -28 -76.667 -42 -128 -42s-94 14 -128 42v39c37.333 -29.333 80 -44 128 -44s90.667 14.667 128 44v-39z" />
    <glyph glyph-name="Gdotaccent" unicode="&#x120;" horiz-adv-x="708" 
d="M52 350c0 60 10.502 113.671 31.502 161.004s49.333 85.166 85 113.499s75 49.833 118 64.5s87.833 22 134.5 22c74.667 0 142.667 -15.667 204 -47v-39c-56.667 32 -123 48 -199 48c-42.667 0 -83.334 -6.33301 -122.001 -19s-74.167 -31.334 -106.5 -56.001
s-58 -58.334 -77 -101.001s-28.5 -91.667 -28.5 -147c0 -56 9.66699 -105.333 29 -148s45.333 -76.334 78 -101.001s68.5 -43.167 107.5 -55.5s80.5 -18.5 124.5 -18.5c64 0 121.667 12.333 173 37v303h39v-330c-65.333 -32 -137 -48 -215 -48
c-48.667 0 -94.834 6.83301 -138.501 20.5s-83.5 34.5 -119.5 62.5s-64.667 65.833 -86 113.5s-32 102.5 -32 164.5zM368.002 820.004c0 10.667 3.5 19.167 10.5 25.5s15.5 9.5 25.5 9.5s18.5 -3.16699 25.5 -9.5s10.5 -14.833 10.5 -25.5s-3.5 -19.334 -10.5 -26.001
s-15.5 -10 -25.5 -10s-18.5 3.33301 -25.5 10s-10.5 15.334 -10.5 26.001z" />
    <glyph glyph-name="gdotaccent" unicode="&#x121;" horiz-adv-x="615" 
d="M47 240c0 74.667 22.501 135.168 67.501 181.501s102.167 69.5 171.5 69.5c46.667 0 88.5 -11.5 125.5 -34.5s66.167 -53.167 87.5 -90.5v114h35v-480c0 -76.667 -24.5 -134.334 -73.5 -173.001s-109.167 -58 -180.5 -58c-68.667 0 -132 15.333 -190 46v37
c60.667 -31.333 122.667 -47 186 -47s115.833 16 157.5 48s62.5 81 62.5 147v111c-20 -35.333 -48.333 -64.5 -85 -87.5s-78.334 -34.5 -125.001 -34.5c-69.333 0 -126.5 23.167 -171.5 69.5s-67.5 106.833 -67.5 181.5zM496.001 310.001
c-16 42 -42.502 76.666 -79.502 103.999s-79.5 41 -127.5 41c-59.333 0 -108.166 -19.333 -146.499 -58s-57.5 -91 -57.5 -157c0 -65.333 19.333 -117.5 58 -156.5s87.334 -58.5 146.001 -58.5c48 0 90.5 13.333 127.5 40s63.5 60.334 79.5 101.001v144zM250.999 600
c0 10.667 3.5 19.167 10.5 25.5s15.5 9.5 25.5 9.5s18.5 -3.16699 25.5 -9.5s10.5 -14.833 10.5 -25.5s-3.5 -19.334 -10.5 -26.001s-15.5 -10 -25.5 -10s-18.5 3.33301 -25.5 10s-10.5 15.334 -10.5 26.001z" />
    <glyph glyph-name="Gcommaaccent" unicode="&#x122;" horiz-adv-x="708" 
d="M52 350c0 60 10.502 113.671 31.502 161.004s49.333 85.166 85 113.499s75 49.833 118 64.5s87.833 22 134.5 22c74.667 0 142.667 -15.667 204 -47v-39c-56.667 32 -123 48 -199 48c-42.667 0 -83.334 -6.33301 -122.001 -19s-74.167 -31.334 -106.5 -56.001
s-58 -58.334 -77 -101.001s-28.5 -91.667 -28.5 -147c0 -56 9.66699 -105.333 29 -148s45.333 -76.334 78 -101.001s68.5 -43.167 107.5 -55.5s80.5 -18.5 124.5 -18.5c64 0 121.667 12.333 173 37v303h39v-330c-65.333 -32 -137 -48 -215 -48
c-48.667 0 -94.834 6.83301 -138.501 20.5s-83.5 34.5 -119.5 62.5s-64.667 65.833 -86 113.5s-32 102.5 -32 164.5zM417.002 -227.996h-34l21 172h38z" />
    <glyph glyph-name="gcommaaccent" unicode="&#x123;" horiz-adv-x="615" 
d="M312 549h-37l25 155h32zM47 240c0 74.667 22.501 135.168 67.501 181.501s102.167 69.5 171.5 69.5c46.667 0 88.5 -11.5 125.5 -34.5s66.167 -53.167 87.5 -90.5v114h35v-480c0 -76.667 -24.5 -134.334 -73.5 -173.001s-109.167 -58 -180.5 -58
c-68.667 0 -132 15.333 -190 46v37c60.667 -31.333 122.667 -47 186 -47s115.833 16 157.5 48s62.5 81 62.5 147v111c-20 -35.333 -48.333 -64.5 -85 -87.5s-78.334 -34.5 -125.001 -34.5c-69.333 0 -126.5 23.167 -171.5 69.5s-67.5 106.833 -67.5 181.5zM496.001 310.001
c-16 42 -42.502 76.666 -79.502 103.999s-79.5 41 -127.5 41c-59.333 0 -108.166 -19.333 -146.499 -58s-57.5 -91 -57.5 -157c0 -65.333 19.333 -117.5 58 -156.5s87.334 -58.5 146.001 -58.5c48 0 90.5 13.333 127.5 40s63.5 60.334 79.5 101.001v144z" />
    <glyph glyph-name="Hbar" unicode="&#x126;" horiz-adv-x="768" 
d="M142 0h-40v516h-77v34h77v150h40v-150h484v150h40v-150h77v-34h-77v-516h-40v333h-484v-333zM142 516v-145h484v145h-484z" />
    <glyph glyph-name="hbar" unicode="&#x127;" 
d="M119 385c19.333 28.667 45.667 53.499 79 74.499s71.333 31.5 114 31.5c54.667 0 100 -17.833 136 -53.5s54 -83.167 54 -142.5v-295h-38v291c0 52 -14.5 92.333 -43.5 121s-66.5 43 -112.5 43c-42.667 0 -80.167 -11.667 -112.5 -35s-57.833 -51.666 -76.5 -84.999v-335
h-38v583h-72v30h72v87h38v-87h197v-30h-197v-198z" />
    <glyph glyph-name="Imacron" unicode="&#x12a;" horiz-adv-x="242" 
d="M101 700h40v-700h-40v700zM-11 840h264v-36h-264v36z" />
    <glyph glyph-name="imacron" unicode="&#x12b;" horiz-adv-x="206" 
d="M-7 624h220v-36h-220v36zM84 480h38v-480h-38v480z" />
    <glyph glyph-name="Iogonek" unicode="&#x12e;" horiz-adv-x="242" 
d="M63 -144c0 -16.667 5.50098 -30 16.501 -40s26.167 -15 45.5 -15c23.333 0 46.333 6.66699 69 20v-32c-22.667 -13.333 -48.334 -20 -77.001 -20c-28 -0.666992 -50 6.5 -66 21.5s-24 34.5 -24 58.5c0 44.667 24.667 97 74 157v694h40v-700
c-17.333 -21.333 -30.5 -38 -39.5 -50s-17.667 -27 -26 -45s-12.5 -34.333 -12.5 -49z" />
    <glyph glyph-name="iogonek" unicode="&#x12f;" horiz-adv-x="208" 
d="M132 620c0 -18.667 -9.33301 -28.001 -28 -28.001c-7.33301 0 -13.833 2.5 -19.5 7.5s-8.5 11.833 -8.5 20.5s2.83301 15.334 8.5 20.001s12.167 7 19.5 7c18.667 0 28 -9 28 -27zM47 -144.001c0 -16.667 5.50098 -29.999 16.501 -39.999s26.167 -15 45.5 -15
c23.333 0 46.333 6.66699 69 20v-32c-22.667 -13.333 -48.334 -20 -77.001 -20c-28 -0.666992 -50 6.5 -66 21.5s-24 34.5 -24 58.5c0 45.333 24.667 95.666 74 150.999v480h38v-480c-50.667 -57.333 -76 -105.333 -76 -144z" />
    <glyph glyph-name="Idotaccent" unicode="&#x130;" horiz-adv-x="242" 
d="M101 700h40v-700h-40v700zM83 820c0 10.667 3.5 19.167 10.5 25.5s15.5 9.5 25.5 9.5s18.5 -3.16699 25.5 -9.5s10.5 -14.833 10.5 -25.5s-3.5 -19.334 -10.5 -26.001s-15.5 -10 -25.5 -10s-18.5 3.33301 -25.5 10s-10.5 15.334 -10.5 26.001z" />
    <glyph glyph-name="dotlessi" unicode="&#x131;" horiz-adv-x="208" 
d="M85 480h38v-480h-38v480z" />
    <glyph glyph-name="IJ" unicode="&#x132;" horiz-adv-x="763" 
d="M101 700h40v-700h-40v700zM405 700h263.999v-513c0 -64.667 -19.833 -113.667 -59.5 -147s-92.167 -50 -157.5 -50c-74.667 0 -134.334 14.333 -179.001 43v40c44.667 -30 102.334 -45 173.001 -45c56.667 0 101.334 13.167 134.001 39.5s49 66.5 49 120.5v474h-224v38z
" />
    <glyph glyph-name="ij" unicode="&#x133;" horiz-adv-x="416" 
d="M123 0h-38v480h38v-480zM132 620c0 -18.667 -9.33301 -28 -28 -28s-28 9.33301 -28 28c0 18 9.33301 27 28 27s28 -9 28 -27zM331 -109c0 -43.333 -11.667 -74.5 -35 -93.5s-52.333 -28.5 -87 -28.5c-24 0 -47.333 4 -70 12v36c16.667 -7.33301 37 -11 61 -11
c62 0 93 29.667 93 89v585h38v-589zM339 620c0 -18.667 -9.33301 -28.001 -28 -28.001c-7.33301 0 -13.833 2.5 -19.5 7.5s-8.5 11.833 -8.5 20.5s2.83301 15.334 8.5 20.001s12.167 7 19.5 7c18.667 0 28 -9 28 -27z" />
    <glyph glyph-name="Kcommaaccent" unicode="&#x136;" horiz-adv-x="656" 
d="M141 0h-40v700h40v-322h202l237 322h46l-252 -341l278 -359h-47l-262 340h-202v-340zM352 -218h-34l21 172h38z" />
    <glyph glyph-name="kcommaaccent" unicode="&#x137;" horiz-adv-x="498" 
d="M494 0h-46l-209 229h-120v-229h-38v700h38v-435h123l180 215h45l-195 -234zM267 -218h-34l21 172h38z" />
    <glyph glyph-name="Lacute" unicode="&#x139;" horiz-adv-x="576" 
d="M101 700h40v-662h418v-38h-458v700zM135 776h-43l89 137h47z" />
    <glyph glyph-name="lacute" unicode="&#x13a;" horiz-adv-x="208" 
d="M85 730h38v-730h-38v730zM113 782h-43l89 137h47z" />
    <glyph glyph-name="Lcommaaccent" unicode="&#x13b;" horiz-adv-x="576" 
d="M101 700h40v-662h418v-38h-458v700zM324 -218h-34l21 172h38z" />
    <glyph glyph-name="lcommaaccent" unicode="&#x13c;" horiz-adv-x="208" 
d="M85 730h38v-730h-38v730zM101 -218h-34l21 172h38z" />
    <glyph glyph-name="Lcaron" unicode="&#x13d;" horiz-adv-x="576" 
d="M373 700h37l-22 -163h-33zM101 700h40v-662h418v-38h-458v700z" />
    <glyph glyph-name="lcaron" unicode="&#x13e;" horiz-adv-x="207" 
d="M204 730h37l-22 -163h-33zM85 730h38v-730h-38v730z" />
    <glyph glyph-name="Ldot" unicode="&#x13f;" horiz-adv-x="582" 
d="M379 338c0 -8.66699 -2.83301 -15.667 -8.5 -21s-12.834 -8 -21.501 -8c-8 0 -15 2.66699 -21 8s-9 12.333 -9 21s3 15.667 9 21s13 8 21 8c8.66699 0 15.834 -2.66699 21.501 -8s8.5 -12.333 8.5 -21zM101 700h40v-662h418v-38h-458v700z" />
    <glyph glyph-name="ldot" unicode="&#x140;" horiz-adv-x="247" 
d="M85 730h38v-730h-38v730zM258 350c0 -8.66699 -2.83301 -15.667 -8.5 -21s-12.834 -8 -21.501 -8c-8 0 -15 2.66699 -21 8s-9 12.333 -9 21s3 15.667 9 21s13 8 21 8c8.66699 0 15.834 -2.66699 21.501 -8s8.5 -12.333 8.5 -21z" />
    <glyph glyph-name="Lslash" unicode="&#x141;" horiz-adv-x="581" 
d="M564 0h-458v286l-92 -40v34l92 40v380h40v-365l234 102v-34l-234 -102v-263h418v-38z" />
    <glyph glyph-name="lslash" unicode="&#x142;" horiz-adv-x="235" 
d="M99 730h38v-332l87 38v-34l-87 -38v-364h-38v348l-88 -38v34l88 39v347z" />
    <glyph glyph-name="Nacute" unicode="&#x143;" horiz-adv-x="766" 
d="M141 0h-40v700h36l488 -633v61v572h40v-700h-35l-489 632v-59v-573zM382 776h-43l89 137h47z" />
    <glyph glyph-name="nacute" unicode="&#x144;" 
d="M116 381c19.333 29.333 46.002 54.999 80.002 76.999s72.667 33 116 33c54.667 0 100 -17.833 136 -53.5s54 -83.167 54 -142.5v-295h-38v291c0 52 -14.5 92.333 -43.5 121s-66.167 43 -111.5 43c-42.667 0 -80.334 -11.667 -113.001 -35
s-58.334 -51.666 -77.001 -84.999v-335h-38v480h35v-99zM287.002 555.999h-43l89 137h47z" />
    <glyph glyph-name="Ncommaaccent" unicode="&#x145;" horiz-adv-x="766" 
d="M141 0h-40v700h36l488 -633v61v572h40v-700h-35l-489 632v-59v-573zM388 -218h-34l21 172h38z" />
    <glyph glyph-name="ncommaaccent" unicode="&#x146;" 
d="M116 381c19.333 29.333 46.002 54.999 80.002 76.999s72.667 33 116 33c54.667 0 100 -17.833 136 -53.5s54 -83.167 54 -142.5v-295h-38v291c0 52 -14.5 92.333 -43.5 121s-66.167 43 -111.5 43c-42.667 0 -80.334 -11.667 -113.001 -35
s-58.334 -51.666 -77.001 -84.999v-335h-38v480h35v-99zM293.002 -218.001h-34l21 172h38z" />
    <glyph glyph-name="Ncaron" unicode="&#x147;" horiz-adv-x="766" 
d="M141 0h-40v700h36l488 -633v61v572h40v-700h-35l-489 632v-59v-573zM529 897l-128 -131h-33l-128 131h44l101 -101l100 101h44z" />
    <glyph glyph-name="ncaron" unicode="&#x148;" 
d="M116 381c19.333 29.333 46.002 54.999 80.002 76.999s72.667 33 116 33c54.667 0 100 -17.833 136 -53.5s54 -83.167 54 -142.5v-295h-38v291c0 52 -14.5 92.333 -43.5 121s-66.167 43 -111.5 43c-42.667 0 -80.334 -11.667 -113.001 -35
s-58.334 -51.666 -77.001 -84.999v-335h-38v480h35v-99zM434.002 676.999l-128 -131h-33l-128 131h44l101 -101l100 101h44z" />
    <glyph glyph-name="Eng" unicode="&#x14a;" horiz-adv-x="766" 
d="M665 -106c0 -42.667 -11.833 -74 -35.5 -94s-53.5 -30 -89.5 -30c-22.667 0 -45.667 3.66699 -69 11v37c20 -6.66699 40.667 -10 62 -10c61.333 0 92 30 92 90v107l-484 628v-60v-573h-40v700h35l489 -632v60v572h40v-806z" />
    <glyph glyph-name="eng" unicode="&#x14b;" 
d="M502 -109c0 -43.333 -11.665 -74.501 -34.998 -93.501s-52.333 -28.5 -87 -28.5c-24 0 -47.333 4 -70 12v36c18.667 -8 39 -12 61 -12c62 0 93 30 93 90v396c0 52 -14.5 92.333 -43.5 121s-66.167 43 -111.5 43c-42.667 0 -80.334 -11.667 -113.001 -35
s-58.334 -51.666 -77.001 -84.999v-335h-38v480h35v-99c19.333 29.333 46 55 80 77s72.667 33 116 33c54.667 0 100 -17.833 136 -53.5s54 -83.167 54 -142.5v-404z" />
    <glyph glyph-name="Omacron" unicode="&#x14c;" horiz-adv-x="825" 
d="M50 350c0 44.667 7.66699 88.167 23 130.5s37.5 80.833 66.5 115.5s67.167 62.5 114.5 83.5s100 31.5 158 31.5c58.667 0 111.667 -10.5 159 -31.5s85.5 -48.833 114.5 -83.5s51.167 -73.167 66.5 -115.5s23 -85.833 23 -130.5s-7.66699 -88.167 -23 -130.5
s-37.5 -80.833 -66.5 -115.5s-67.167 -62.5 -114.5 -83.5s-100.333 -31.5 -159 -31.5c-58 0 -110.667 10.5 -158 31.5s-85.5 48.833 -114.5 83.5s-51.167 73.167 -66.5 115.5s-23 85.833 -23 130.5zM735 350c0 40.667 -6.83301 79.834 -20.5 117.501s-33.334 72 -59.001 103
s-59.667 55.833 -102 74.5s-89.5 28 -141.5 28s-99 -9.33301 -141 -28s-75.833 -43.5 -101.5 -74.5s-45.334 -65.333 -59.001 -103s-20.5 -76.834 -20.5 -117.501s6.83301 -79.834 20.5 -117.501s33.334 -72 59.001 -103s59.5 -55.833 101.5 -74.5s89 -28 141 -28
s99.167 9.33301 141.5 28s76.333 43.5 102 74.5s45.334 65.333 59.001 103s20.5 76.834 20.5 117.501zM281 840h264v-36h-264v36z" />
    <glyph glyph-name="omacron" unicode="&#x14d;" horiz-adv-x="591" 
d="M46 240c0 77.333 24.5 138.5 73.5 183.5s107.5 67.5 175.5 67.5c68.667 0 127.5 -22.5 176.5 -67.5s73.5 -106.167 73.5 -183.5s-24.5 -138.5 -73.5 -183.5s-107.833 -67.5 -176.5 -67.5c-68 0 -126.5 22.5 -175.5 67.5s-73.5 106.167 -73.5 183.5zM507 240
c0 65.333 -20.5 117.333 -61.5 156s-91.167 58 -150.5 58s-109.333 -19.333 -150 -58s-61 -90.667 -61 -156s20.333 -117.333 61 -156s90.667 -58 150 -58s109.5 19.333 150.5 58s61.5 90.667 61.5 156zM163 614h264v-36h-264v36z" />
    <glyph glyph-name="Ohungarumlaut" unicode="&#x150;" horiz-adv-x="825" 
d="M50 350c0 44.667 7.66699 88.167 23 130.5s37.5 80.833 66.5 115.5s67.167 62.5 114.5 83.5s100 31.5 158 31.5c58.667 0 111.667 -10.5 159 -31.5s85.5 -48.833 114.5 -83.5s51.167 -73.167 66.5 -115.5s23 -85.833 23 -130.5s-7.66699 -88.167 -23 -130.5
s-37.5 -80.833 -66.5 -115.5s-67.167 -62.5 -114.5 -83.5s-100.333 -31.5 -159 -31.5c-58 0 -110.667 10.5 -158 31.5s-85.5 48.833 -114.5 83.5s-51.167 73.167 -66.5 115.5s-23 85.833 -23 130.5zM735 350c0 40.667 -6.83301 79.834 -20.5 117.501s-33.334 72 -59.001 103
s-59.667 55.833 -102 74.5s-89.5 28 -141.5 28s-99 -9.33301 -141 -28s-75.833 -43.5 -101.5 -74.5s-45.334 -65.333 -59.001 -103s-20.5 -76.834 -20.5 -117.501s6.83301 -79.834 20.5 -117.501s33.334 -72 59.001 -103s59.5 -55.833 101.5 -74.5s89 -28 141 -28
s99.167 9.33301 141.5 28s76.333 43.5 102 74.5s45.334 65.333 59.001 103s20.5 76.834 20.5 117.501zM504 779h-41l74 143h43zM351 779h-41l74 143h43z" />
    <glyph glyph-name="ohungarumlaut" unicode="&#x151;" horiz-adv-x="591" 
d="M46 240c0 77.333 24.5 138.5 73.5 183.5s107.5 67.5 175.5 67.5c68.667 0 127.5 -22.5 176.5 -67.5s73.5 -106.167 73.5 -183.5s-24.5 -138.5 -73.5 -183.5s-107.833 -67.5 -176.5 -67.5c-68 0 -126.5 22.5 -175.5 67.5s-73.5 106.167 -73.5 183.5zM507 240
c0 65.333 -20.5 117.333 -61.5 156s-91.167 58 -150.5 58s-109.333 -19.333 -150 -58s-61 -90.667 -61 -156s20.333 -117.333 61 -156s90.667 -58 150 -58s109.5 19.333 150.5 58s61.5 90.667 61.5 156zM386 553h-41l74 143h43zM233 553h-41l74 143h43z" />
    <glyph glyph-name="OE" unicode="&#x152;" horiz-adv-x="1024" 
d="M533 0c-30.667 -7.33301 -71.334 -11 -122.001 -11c-58 0 -110.667 10.5 -158 31.5s-85.333 48.833 -114 83.5s-50.667 73.167 -66 115.5s-23 85.833 -23 130.5s7.66699 88.167 23 130.5s37.333 80.833 66 115.5s66.667 62.5 114 83.5s100 31.5 158 31.5
c50.667 0 91.334 -3.66699 122.001 -11h430v-38h-390v-291h360v-38h-360v-295h396v-38h-436zM90 350c0 -42 7 -82 21 -120s34.167 -72.333 60.5 -103s60.5 -55 102.5 -73s88.667 -27 140 -27c46 0 86 4 120 12v622c-34 8 -74 12 -120 12c-51.333 0 -98 -9 -140 -27
s-76.167 -42.333 -102.5 -73s-46.5 -65 -60.5 -103s-21 -78 -21 -120z" />
    <glyph glyph-name="oe" unicode="&#x153;" horiz-adv-x="991" 
d="M519 151c-16 -51.333 -44.3281 -91.168 -84.9951 -119.501s-87.667 -42.5 -141 -42.5c-68.667 0 -126.834 22.5 -174.501 67.5s-71.5 106.167 -71.5 183.5s23.833 138.5 71.5 183.5s105.834 67.5 174.501 67.5c53.333 0 100.5 -14.333 141.5 -43s69.5 -68.667 85.5 -120
c15.333 50.667 42.666 90.5 81.999 119.5s82.666 43.5 129.999 43.5c34 0 64.5 -5.66699 91.5 -17s48.5 -26.166 64.5 -44.499s29.333 -39.5 40 -63.5s16.667 -48.667 18 -74s0.333008 -50.666 -3 -75.999h-404c2.66699 -62.667 25.667 -110.167 69 -142.5
s94.666 -48.5 153.999 -48.5c57.333 0 107.666 12.667 150.999 38v-36c-44.667 -25.333 -97.334 -38 -158.001 -38c-54 0 -103 13.667 -147 41s-73.667 67.666 -89 120.999zM85.0049 239.998c0 -66 19.833 -118.167 59.5 -156.5s89.167 -57.5 148.5 -57.5
s108.833 19.167 148.5 57.5s59.5 90.5 59.5 156.5s-19.833 118.167 -59.5 156.5s-89.167 57.5 -148.5 57.5s-108.833 -19.167 -148.5 -57.5s-59.5 -90.5 -59.5 -156.5zM734.005 454.998c-52 0 -97.001 -18.167 -135.001 -54.5s-58 -86.5 -60 -150.5h370
c2.66699 23.333 1.5 46.333 -3.5 69s-13.667 44.5 -26 65.5s-31.166 38 -56.499 51s-55 19.5 -89 19.5z" />
    <glyph glyph-name="Racute" unicode="&#x154;" horiz-adv-x="685" 
d="M141 0h-40v700h266c42.667 0 82 -6.16699 118 -18.5s67 -34.5 93 -66.5s39 -72 39 -120c0 -64 -20.833 -112.5 -62.5 -145.5s-92.5 -52.167 -152.5 -57.5l260 -292h-49l-257 289h-215v-289zM141 662v-335h228c56.667 0 105.5 13.5 146.5 40.5s61.5 69.5 61.5 127.5
s-20.333 100.333 -61 127s-89.667 40 -147 40h-228zM338 776h-43l89 137h47z" />
    <glyph glyph-name="racute" unicode="&#x155;" horiz-adv-x="344" 
d="M116 349c17.333 41.333 45.167 75.5 83.5 102.5s82.5 39.833 132.5 38.5v-38c-54.667 2 -100.667 -13 -138 -45s-62.333 -71.667 -75 -119v-288h-38v480h35v-131zM191.001 556h-43l89 137h47z" />
    <glyph glyph-name="Rcommaaccent" unicode="&#x156;" horiz-adv-x="685" 
d="M141 0h-40v700h266c42.667 0 82 -6.16699 118 -18.5s67 -34.5 93 -66.5s39 -72 39 -120c0 -64 -20.833 -112.5 -62.5 -145.5s-92.5 -52.167 -152.5 -57.5l260 -292h-49l-257 289h-215v-289zM141 662v-335h228c56.667 0 105.5 13.5 146.5 40.5s61.5 69.5 61.5 127.5
s-20.333 100.333 -61 127s-89.667 40 -147 40h-228zM356 -218h-34l21 172h38z" />
    <glyph glyph-name="rcommaaccent" unicode="&#x157;" horiz-adv-x="344" 
d="M116 349c17.333 41.333 45.167 75.5 83.5 102.5s82.5 39.833 132.5 38.5v-38c-54.667 2 -100.667 -13 -138 -45s-62.333 -71.667 -75 -119v-288h-38v480h35v-131zM95.001 -218h-34l21 172h38z" />
    <glyph glyph-name="Rcaron" unicode="&#x158;" horiz-adv-x="685" 
d="M141 0h-40v700h266c42.667 0 82 -6.16699 118 -18.5s67 -34.5 93 -66.5s39 -72 39 -120c0 -64 -20.833 -112.5 -62.5 -145.5s-92.5 -52.167 -152.5 -57.5l260 -292h-49l-257 289h-215v-289zM141 662v-335h228c56.667 0 105.5 13.5 146.5 40.5s61.5 69.5 61.5 127.5
s-20.333 100.333 -61 127s-89.667 40 -147 40h-228zM485 897l-128 -131h-33l-128 131h44l101 -101l100 101h44z" />
    <glyph glyph-name="rcaron" unicode="&#x159;" horiz-adv-x="344" 
d="M116 349c17.333 41.333 45.167 75.5 83.5 102.5s82.5 39.833 132.5 38.5v-38c-54.667 2 -100.667 -13 -138 -45s-62.333 -71.667 -75 -119v-288h-38v480h35v-131zM338.001 677l-128 -131h-33l-128 131h44l101 -101l100 101h44z" />
    <glyph glyph-name="Sacute" unicode="&#x15a;" horiz-adv-x="568" 
d="M57 537c0 56.667 21.666 99.832 64.999 129.499s96 44.5 158 44.5c76 0 143.333 -16.333 202 -49v-39c-58 33.333 -124.667 50 -200 50c-52.667 0 -96.667 -11.167 -132 -33.5s-53 -56.166 -53 -101.499c0 -28 8 -52.333 24 -73s36.667 -37.167 62 -49.5
s53.333 -23.5 84 -33.5l92.5 -31.5c31 -11 59.167 -23.833 84.5 -38.5s46 -34.5 62 -59.5s24 -54.5 24 -88.5c0 -59.333 -22.667 -103.333 -68 -132s-102.666 -43 -171.999 -43c-88.667 0 -168 19.667 -238 59v40c71.333 -40.667 150 -61 236 -61
c59.333 0 107.833 10.667 145.5 32s56.5 55.333 56.5 102c0 30 -8 55.833 -24 77.5s-36.667 39 -62 52s-53.333 24.667 -84 35l-92.5 32c-31 11 -59.167 23.5 -84.5 37.5s-46 33 -62 57s-24 52.333 -24 85zM272.999 775.998h-43l89 137h47z" />
    <glyph glyph-name="sacute" unicode="&#x15b;" horiz-adv-x="455" 
d="M51 365c0 42 16.8291 73.5 50.4961 94.5s73.834 31.5 120.501 31.5c62.667 0 117.667 -14 165 -42v-36c-44.667 28.667 -99 43 -163 43c-37.333 0 -69.166 -7.5 -95.499 -22.5s-39.5 -37.5 -39.5 -67.5c0 -22.667 8 -41.667 24 -57s36.167 -26.5 60.5 -33.5l79 -23.5
c28.333 -8.66699 54.666 -17.334 78.999 -26.001s44.5 -22.5 60.5 -41.5s24 -42.167 24 -69.5c0 -42 -17.667 -73.5 -53 -94.5s-79 -31.5 -131 -31.5c-32.667 0 -66.167 4.33301 -100.5 13s-62.166 20.334 -83.499 35.001v38c22.667 -15.333 50.834 -27.5 84.501 -36.5
s66.167 -13.5 97.5 -13.5c43.333 0 78.833 7.33301 106.5 22s41.5 37 41.5 67c0 26 -11.167 47 -33.5 63s-49.666 28.167 -81.999 36.5s-64.5 17.166 -96.5 26.499s-59.167 24.333 -81.5 45s-33.5 47.334 -33.5 80.001zM219.996 556h-43l89 137h47z" />
    <glyph glyph-name="Scedilla" unicode="&#x15e;" horiz-adv-x="568" 
d="M97 538c0 -28 7.99902 -52.334 23.999 -73.001s36.667 -37.167 62 -49.5s53.333 -23.5 84 -33.5l92.5 -31.5c31 -11 59.167 -23.833 84.5 -38.5s46 -34.5 62 -59.5s24 -54.5 24 -88.5c0 -56.667 -20.333 -99.167 -61 -127.5s-92.667 -43.833 -156 -46.5l-20 -76
c32 6 59.667 3.33301 83 -8s35.333 -29.666 36 -54.999s-9.5 -45.333 -30.5 -60s-50.167 -22 -87.5 -22s-70 7.33301 -98 22v33c26.667 -15.333 58 -23 94 -23c29.333 0 51.5 4.83301 66.5 14.5s22.167 21.834 21.5 36.501c-0.666992 19.333 -14.167 32.166 -40.5 38.499
s-54.166 5.16602 -83.499 -3.50098l25 103c-83.333 1.33301 -159 20.666 -227 57.999v40c71.333 -40.667 150 -61 236 -61c59.333 0 107.833 10.667 145.5 32s56.5 55.333 56.5 102c0 30 -8 55.833 -24 77.5s-36.667 39 -62 52s-53.333 24.667 -84 35l-92.5 32
c-31 11 -59.167 23.5 -84.5 37.5s-46 33 -62 57s-24 52.333 -24 85c0 56.667 21.667 99.834 65 129.501s96 44.5 158 44.5c76 0 143.333 -16.333 202 -49v-39c-58 33.333 -124.667 50 -200 50c-52.667 0 -96.667 -11.167 -132 -33.5s-53 -56.166 -53 -101.499z" />
    <glyph glyph-name="scedilla" unicode="&#x15f;" horiz-adv-x="455" 
d="M89 366c0 -22.667 7.99512 -41.665 23.9951 -56.998s36.167 -26.5 60.5 -33.5l79 -23.5c28.333 -8.66699 54.666 -17.334 78.999 -26.001s44.5 -22.5 60.5 -41.5s24 -42.167 24 -69.5c0 -39.333 -15.167 -69.333 -45.5 -90s-69.166 -32.334 -116.499 -35.001l-16 -76
c32 6 59.5 3.33301 82.5 -8s34.833 -29.666 35.5 -54.999s-9.5 -45.333 -30.5 -60s-50.167 -22 -87.5 -22c-36 0 -68.667 7.33301 -98 22v33c27.333 -15.333 59 -23 95 -23c29.333 0 51.333 4.83301 66 14.5s22 21.834 22 36.501
c-0.666992 19.333 -14.167 32.166 -40.5 38.499s-54.166 5.16602 -83.499 -3.50098l22 103c-69.333 1.33301 -127 17 -173 47v38c22.667 -15.333 50.834 -27.5 84.501 -36.5s66.167 -13.5 97.5 -13.5c43.333 0 78.833 7.33301 106.5 22s41.5 37 41.5 67
c0 26 -11.167 47 -33.5 63s-49.666 28.167 -81.999 36.5s-64.5 17.166 -96.5 26.499s-59.167 24.333 -81.5 45s-33.5 47.334 -33.5 80.001c0 42 16.833 73.5 50.5 94.5s73.834 31.5 120.501 31.5c62.667 0 117.667 -14 165 -42v-36c-44.667 28.667 -99 43 -163 43
c-37.333 0 -69.166 -7.5 -95.499 -22.5s-39.5 -37.5 -39.5 -67.5z" />
    <glyph glyph-name="Scaron" unicode="&#x160;" horiz-adv-x="568" 
d="M57 537c0 56.667 21.666 99.832 64.999 129.499s96 44.5 158 44.5c76 0 143.333 -16.333 202 -49v-39c-58 33.333 -124.667 50 -200 50c-52.667 0 -96.667 -11.167 -132 -33.5s-53 -56.166 -53 -101.499c0 -28 8 -52.333 24 -73s36.667 -37.167 62 -49.5
s53.333 -23.5 84 -33.5l92.5 -31.5c31 -11 59.167 -23.833 84.5 -38.5s46 -34.5 62 -59.5s24 -54.5 24 -88.5c0 -59.333 -22.667 -103.333 -68 -132s-102.666 -43 -171.999 -43c-88.667 0 -168 19.667 -238 59v40c71.333 -40.667 150 -61 236 -61
c59.333 0 107.833 10.667 145.5 32s56.5 55.333 56.5 102c0 30 -8 55.833 -24 77.5s-36.667 39 -62 52s-53.333 24.667 -84 35l-92.5 32c-31 11 -59.167 23.5 -84.5 37.5s-46 33 -62 57s-24 52.333 -24 85zM419.999 896.998l-128 -131h-33l-128 131h44l101 -101l100 101h44z
" />
    <glyph glyph-name="scaron" unicode="&#x161;" horiz-adv-x="455" 
d="M51 365c0 42 16.8291 73.5 50.4961 94.5s73.834 31.5 120.501 31.5c62.667 0 117.667 -14 165 -42v-36c-44.667 28.667 -99 43 -163 43c-37.333 0 -69.166 -7.5 -95.499 -22.5s-39.5 -37.5 -39.5 -67.5c0 -22.667 8 -41.667 24 -57s36.167 -26.5 60.5 -33.5l79 -23.5
c28.333 -8.66699 54.666 -17.334 78.999 -26.001s44.5 -22.5 60.5 -41.5s24 -42.167 24 -69.5c0 -42 -17.667 -73.5 -53 -94.5s-79 -31.5 -131 -31.5c-32.667 0 -66.167 4.33301 -100.5 13s-62.166 20.334 -83.499 35.001v38c22.667 -15.333 50.834 -27.5 84.501 -36.5
s66.167 -13.5 97.5 -13.5c43.333 0 78.833 7.33301 106.5 22s41.5 37 41.5 67c0 26 -11.167 47 -33.5 63s-49.666 28.167 -81.999 36.5s-64.5 17.166 -96.5 26.499s-59.167 24.333 -81.5 45s-33.5 47.334 -33.5 80.001zM366.996 677l-128 -131h-33l-128 131h44l101 -101
l100 101h44z" />
    <glyph glyph-name="Tcommaaccent" unicode="&#x162;" horiz-adv-x="594" 
d="M14 700h566v-38h-263v-662h-40v662h-263v38zM293 -218h-34l21 172h38z" />
    <glyph glyph-name="tcommaaccent" unicode="&#x163;" horiz-adv-x="376" 
d="M105 636l38.001 11v-167h208v-36h-208v-303c0 -76.667 39.333 -115 118 -115c38.667 0 73 8 103 24v-36c-30.667 -15.333 -68.334 -23 -113.001 -23c-46 0 -81.833 12.333 -107.5 37s-38.5 60.667 -38.5 108v308h-90v36h90v156zM235.001 -218h-34l21 172h38z" />
    <glyph glyph-name="Tcaron" unicode="&#x164;" horiz-adv-x="594" 
d="M14 700h566v-38h-263v-662h-40v662h-263v38zM445 897l-128 -131h-33l-128 131h44l101 -101l100 101h44z" />
    <glyph glyph-name="tcaron" unicode="&#x165;" horiz-adv-x="376" 
d="M251 730h37l-22 -159h-33zM105 636l38.001 11v-167h208v-36h-208v-303c0 -76.667 39.333 -115 118 -115c38.667 0 73 8 103 24v-36c-30.667 -15.333 -68.334 -23 -113.001 -23c-46 0 -81.833 12.333 -107.5 37s-38.5 60.667 -38.5 108v308h-90v36h90v156z" />
    <glyph glyph-name="Tbar" unicode="&#x166;" horiz-adv-x="606" 
d="M323 0h-40v338h-134v34h134v290h-263v38h566v-38h-263v-290h135v-34h-135v-338z" />
    <glyph glyph-name="tbar" unicode="&#x167;" horiz-adv-x="376" 
d="M143 141c0 -76.667 39.334 -115 118.001 -115c38.667 0 73 8 103 24v-36c-30.667 -15.333 -68.334 -23 -113.001 -23c-46 0 -81.833 12.333 -107.5 37s-38.5 60.667 -38.5 108v134h-54v34h54v140h-90v36h90v156l38 11v-167h208v-36h-208v-140h164v-34h-164v-129z" />
    <glyph glyph-name="Umacron" unicode="&#x16a;" horiz-adv-x="750" 
d="M617 700h39.998v-455c0 -46 -7.16699 -86 -21.5 -120s-34.666 -60.667 -60.999 -80s-56 -33.5 -89 -42.5s-69.833 -13.5 -110.5 -13.5s-77.5 4.5 -110.5 13.5s-62.667 23.167 -89 42.5s-46.666 46 -60.999 80s-21.5 74 -21.5 120v455h40v-454
c0 -146 80.667 -219 242 -219s242 73 242 219v454zM244.998 840h264v-36h-264v36z" />
    <glyph glyph-name="umacron" unicode="&#x16b;" 
d="M458 480l37.998 0.000976562v-480h-35v99c-19.333 -29.333 -46 -55 -80 -77s-72.667 -33 -116 -33c-56.667 0 -102.5 17.667 -137.5 53s-52.5 83 -52.5 143v295h38v-291c0 -52 14.167 -92.333 42.5 -121s65.833 -43 112.5 -43c42.667 0 80.334 11.667 113.001 35
s58.334 51.666 77.001 84.999v335zM159.998 620.001h264v-36h-264v36z" />
    <glyph glyph-name="Uring" unicode="&#x16e;" horiz-adv-x="750" 
d="M617 700h39.998v-455c0 -46 -7.16699 -86 -21.5 -120s-34.666 -60.667 -60.999 -80s-56 -33.5 -89 -42.5s-69.833 -13.5 -110.5 -13.5s-77.5 4.5 -110.5 13.5s-62.667 23.167 -89 42.5s-46.666 46 -60.999 80s-21.5 74 -21.5 120v455h40v-454
c0 -146 80.667 -219 242 -219s242 73 242 219v454zM468.998 844c0 -26.667 -9.16699 -48.334 -27.5 -65.001s-39.833 -25 -64.5 -25c-25.333 0 -47.166 8.33301 -65.499 25s-27.5 38.334 -27.5 65.001c0 26 9.16699 47.167 27.5 63.5s40.166 24.5 65.499 24.5
c24.667 0 46.167 -8.16699 64.5 -24.5s27.5 -37.5 27.5 -63.5zM314.998 843c0 -18 6.16699 -32.667 18.5 -44s26.833 -17 43.5 -17s31.167 5.66699 43.5 17s18.5 26 18.5 44s-6.16699 32.667 -18.5 44s-26.833 17 -43.5 17s-31.167 -5.66699 -43.5 -17s-18.5 -26 -18.5 -44z
" />
    <glyph glyph-name="uring" unicode="&#x16f;" 
d="M458 480l37.998 0.000976562v-480h-35v99c-19.333 -29.333 -46 -55 -80 -77s-72.667 -33 -116 -33c-56.667 0 -102.5 17.667 -137.5 53s-52.5 83 -52.5 143v295h38v-291c0 -52 14.167 -92.333 42.5 -121s65.833 -43 112.5 -43c42.667 0 80.334 11.667 113.001 35
s58.334 51.666 77.001 84.999v335zM383.998 624.001c0 -26.667 -9.16699 -48.334 -27.5 -65.001s-39.833 -25 -64.5 -25c-25.333 0 -47.166 8.33301 -65.499 25s-27.5 38.334 -27.5 65.001c0 26 9.16699 47.167 27.5 63.5s40.166 24.5 65.499 24.5
c24.667 0 46.167 -8.16699 64.5 -24.5s27.5 -37.5 27.5 -63.5zM229.998 623.001c0 -18 6.16699 -32.667 18.5 -44s26.833 -17 43.5 -17s31.167 5.66699 43.5 17s18.5 26 18.5 44s-6.16699 32.667 -18.5 44s-26.833 17 -43.5 17s-31.167 -5.66699 -43.5 -17
s-18.5 -26 -18.5 -44z" />
    <glyph glyph-name="Uhungarumlaut" unicode="&#x170;" horiz-adv-x="750" 
d="M617 700h39.998v-455c0 -46 -7.16699 -86 -21.5 -120s-34.666 -60.667 -60.999 -80s-56 -33.5 -89 -42.5s-69.833 -13.5 -110.5 -13.5s-77.5 4.5 -110.5 13.5s-62.667 23.167 -89 42.5s-46.666 46 -60.999 80s-21.5 74 -21.5 120v455h40v-454
c0 -146 80.667 -219 242 -219s242 73 242 219v454zM467.998 779h-41l74 143h43zM314.998 779h-41l74 143h43z" />
    <glyph glyph-name="uhungarumlaut" unicode="&#x171;" 
d="M458 480l37.998 0.000976562v-480h-35v99c-19.333 -29.333 -46 -55 -80 -77s-72.667 -33 -116 -33c-56.667 0 -102.5 17.667 -137.5 53s-52.5 83 -52.5 143v295h38v-291c0 -52 14.167 -92.333 42.5 -121s65.833 -43 112.5 -43c42.667 0 80.334 11.667 113.001 35
s58.334 51.666 77.001 84.999v335zM382.998 559.001h-41l74 143h43zM229.998 559.001h-41l74 143h43z" />
    <glyph glyph-name="Uogonek" unicode="&#x172;" horiz-adv-x="750" 
d="M567 -211c-22.667 -13.333 -48.334 -20.002 -77.001 -20.002c-28 -0.666992 -50 6.5 -66 21.5s-24 34.5 -24 58.5c0 22.667 7.83301 48.5 23.5 77.5s36.167 55.167 61.5 78.5c-32 -10.667 -68.667 -16 -110 -16c-40.667 0 -77.5 4.5 -110.5 13.5s-62.667 23.167 -89 42.5
s-46.666 46 -60.999 80s-21.5 74 -21.5 120v455h40v-454c0 -146 80.667 -219 242 -219s242 73 242 219v454h40v-455c0 -94.667 -31.333 -163.667 -94 -207c-39.333 -27.333 -70.333 -58.166 -93 -92.499s-33.667 -64.166 -33 -89.499c-0.666992 -16.667 4.33301 -30 15 -40
s26 -15 46 -15c23.333 0 46.333 6.66699 69 20v-32z" />
    <glyph glyph-name="uogonek" unicode="&#x173;" 
d="M496 480l-0.000976562 -479.999c-32 -22 -58 -46 -78 -72s-30 -50.667 -30 -74c0 -16.667 5 -29.667 15 -39s23.667 -14 41 -14c16.667 0 34 3.66699 52 11v-31c-18 -8 -38 -12 -60 -12c-26.667 0 -47.334 7 -62.001 21s-22 33 -22 57c0 54.667 36.333 109 109 163v89
c-19.333 -29.333 -46 -55 -80 -77s-72.667 -33 -116 -33c-56.667 0 -102.5 17.667 -137.5 53s-52.5 83 -52.5 143v295h38v-291c0 -52 14.167 -92.333 42.5 -121s65.833 -43 112.5 -43c42.667 0 80.334 11.667 113.001 35s58.334 51.666 77.001 84.999v335h38z" />
    <glyph glyph-name="Wcircumflex" unicode="&#x174;" horiz-adv-x="993" 
d="M925 700h43l-223 -700h-43l-206 628l-205 -628h-43l-223 700h43l202 -649l209 643h36l208 -643zM481 907h33l128 -131h-44l-100 101l-101 -101h-44z" />
    <glyph glyph-name="wcircumflex" unicode="&#x175;" horiz-adv-x="799" 
d="M734 480h40l-180 -480h-39l-156 423l-155 -423h-39l-180 480h40l160 -435l156 429h36l157 -429zM384 687h33l128 -131h-44l-100 101l-101 -101h-44z" />
    <glyph glyph-name="Ycircumflex" unicode="&#x176;" horiz-adv-x="634" 
d="M337 0h-40v279l-276 421h45l251 -384l251 384h45l-276 -421v-279zM303 907h33l128 -131h-44l-100 101l-101 -101h-44z" />
    <glyph glyph-name="ycircumflex" unicode="&#x177;" horiz-adv-x="531" 
d="M276 40l193.997 440.001h40l-250 -564c-23.333 -52.667 -48.166 -90.334 -74.499 -113.001s-56.166 -34 -89.499 -34c-17.333 0 -34 2.33301 -50 7v34c18.667 -4.66699 34 -7 46 -7c28.667 0 53.834 10.167 75.501 30.5s42.167 52.833 61.5 97.5l29 67l-243 482h41z
M242.997 687.001h33l128 -131h-44l-100 101l-101 -101h-44z" />
    <glyph glyph-name="Ydieresis" unicode="&#x178;" horiz-adv-x="634" 
d="M337 0h-40v279l-276 421h45l251 -384l251 384h45l-276 -421v-279zM449 836c0 -8.66699 -3 -16 -9 -22s-13.333 -9 -22 -9s-16 3 -22 9s-9 13.333 -9 22c0 8 3 15.167 9 21.5s13.333 9.5 22 9.5s16 -3.16699 22 -9.5s9 -13.5 9 -21.5zM248 836c0 -8.66699 -3 -16 -9 -22
s-13.333 -9 -22 -9s-16 3 -22 9s-9 13.333 -9 22c0 8 3 15.167 9 21.5s13.333 9.5 22 9.5s16 -3.16699 22 -9.5s9 -13.5 9 -21.5z" />
    <glyph glyph-name="Zacute" unicode="&#x179;" horiz-adv-x="574" 
d="M543 0h-516v35l458 627h-441v38h490v-35l-459 -627h468v-38zM290 776h-43l89 137h47z" />
    <glyph glyph-name="zacute" unicode="&#x17a;" horiz-adv-x="449" 
d="M45 480h358v-33l-324 -413h338v-34h-385v33l325 413h-312v34zM233 556h-43l89 137h47z" />
    <glyph glyph-name="Zdotaccent" unicode="&#x17b;" horiz-adv-x="574" 
d="M543 0h-516v35l458 627h-441v38h490v-35l-459 -627h468v-38zM253 820c0 10.667 3.5 19.167 10.5 25.5s15.5 9.5 25.5 9.5s18.5 -3.16699 25.5 -9.5s10.5 -14.833 10.5 -25.5s-3.5 -19.334 -10.5 -26.001s-15.5 -10 -25.5 -10s-18.5 3.33301 -25.5 10
s-10.5 15.334 -10.5 26.001z" />
    <glyph glyph-name="zdotaccent" unicode="&#x17c;" horiz-adv-x="449" 
d="M45 480h358v-33l-324 -413h338v-34h-385v33l325 413h-312v34zM196 600c0 10.667 3.5 19.167 10.5 25.5s15.5 9.5 25.5 9.5s18.5 -3.16699 25.5 -9.5s10.5 -14.833 10.5 -25.5s-3.5 -19.334 -10.5 -26.001s-15.5 -10 -25.5 -10s-18.5 3.33301 -25.5 10
s-10.5 15.334 -10.5 26.001z" />
    <glyph glyph-name="Zcaron" unicode="&#x17d;" horiz-adv-x="574" 
d="M543 0h-516v35l458 627h-441v38h490v-35l-459 -627h468v-38zM437 897l-128 -131h-33l-128 131h44l101 -101l100 101h44z" />
    <glyph glyph-name="zcaron" unicode="&#x17e;" horiz-adv-x="449" 
d="M45 480h358v-33l-324 -413h338v-34h-385v33l325 413h-312v34zM380 677l-128 -131h-33l-128 131h44l101 -101l100 101h44z" />
    <glyph glyph-name="Scommaaccent" unicode="&#x218;" horiz-adv-x="568" 
d="M57 537c0 56.667 21.666 99.832 64.999 129.499s96 44.5 158 44.5c76 0 143.333 -16.333 202 -49v-39c-58 33.333 -124.667 50 -200 50c-52.667 0 -96.667 -11.167 -132 -33.5s-53 -56.166 -53 -101.499c0 -28 8 -52.333 24 -73s36.667 -37.167 62 -49.5
s53.333 -23.5 84 -33.5l92.5 -31.5c31 -11 59.167 -23.833 84.5 -38.5s46 -34.5 62 -59.5s24 -54.5 24 -88.5c0 -59.333 -22.667 -103.333 -68 -132s-102.666 -43 -171.999 -43c-88.667 0 -168 19.667 -238 59v40c71.333 -40.667 150 -61 236 -61
c59.333 0 107.833 10.667 145.5 32s56.5 55.333 56.5 102c0 30 -8 55.833 -24 77.5s-36.667 39 -62 52s-53.333 24.667 -84 35l-92.5 32c-31 11 -59.167 23.5 -84.5 37.5s-46 33 -62 57s-24 52.333 -24 85zM284.999 -218.002h-34l21 172h38z" />
    <glyph glyph-name="scommaaccent" unicode="&#x219;" horiz-adv-x="455" 
d="M51 365c0 42 16.8291 73.5 50.4961 94.5s73.834 31.5 120.501 31.5c62.667 0 117.667 -14 165 -42v-36c-44.667 28.667 -99 43 -163 43c-37.333 0 -69.166 -7.5 -95.499 -22.5s-39.5 -37.5 -39.5 -67.5c0 -22.667 8 -41.667 24 -57s36.167 -26.5 60.5 -33.5l79 -23.5
c28.333 -8.66699 54.666 -17.334 78.999 -26.001s44.5 -22.5 60.5 -41.5s24 -42.167 24 -69.5c0 -42 -17.667 -73.5 -53 -94.5s-79 -31.5 -131 -31.5c-32.667 0 -66.167 4.33301 -100.5 13s-62.166 20.334 -83.499 35.001v38c22.667 -15.333 50.834 -27.5 84.501 -36.5
s66.167 -13.5 97.5 -13.5c43.333 0 78.833 7.33301 106.5 22s41.5 37 41.5 67c0 26 -11.167 47 -33.5 63s-49.666 28.167 -81.999 36.5s-64.5 17.166 -96.5 26.499s-59.167 24.333 -81.5 45s-33.5 47.334 -33.5 80.001zM234.996 -218h-34l21 172h38z" />
    <glyph glyph-name="uni021A" unicode="&#x21a;" horiz-adv-x="594" 
d="M14 700h566v-38h-263v-662h-40v662h-263v38zM293 -218h-34l21 172h38z" />
    <glyph glyph-name="uni021B" unicode="&#x21b;" horiz-adv-x="376" 
d="M105 636l38.001 11v-167h208v-36h-208v-303c0 -76.667 39.333 -115 118 -115c38.667 0 73 8 103 24v-36c-30.667 -15.333 -68.334 -23 -113.001 -23c-46 0 -81.833 12.333 -107.5 37s-38.5 60.667 -38.5 108v308h-90v36h90v156zM235.001 -218h-34l21 172h38z" />
    <glyph glyph-name="circumflex" unicode="&#x2c6;" horiz-adv-x="275" 
d="M121 907h33l128 -131h-44l-100 101l-101 -101h-44z" />
    <glyph glyph-name="caron" unicode="&#x2c7;" horiz-adv-x="275" 
d="M282 897l-128 -131h-33l-128 131h44l101 -101l100 101h44z" />
    <glyph glyph-name="breve" unicode="&#x2d8;" horiz-adv-x="321" 
d="M289 820c-34 -28 -76.667 -42 -128 -42s-94 14 -128 42v39c37.333 -29.333 80 -44 128 -44s90.667 14.667 128 44v-39z" />
    <glyph glyph-name="dotaccent" unicode="&#x2d9;" horiz-adv-x="92" 
d="M10 820c0 10.667 3.5 19.167 10.5 25.5s15.5 9.5 25.5 9.5s18.5 -3.16699 25.5 -9.5s10.5 -14.833 10.5 -25.5s-3.5 -19.334 -10.5 -26.001s-15.5 -10 -25.5 -10s-18.5 3.33301 -25.5 10s-10.5 15.334 -10.5 26.001z" />
    <glyph glyph-name="ring" unicode="&#x2da;" horiz-adv-x="206" 
d="M195 844c0 -26.667 -9.16699 -48.334 -27.5 -65.001s-39.833 -25 -64.5 -25c-25.333 0 -47.166 8.33301 -65.499 25s-27.5 38.334 -27.5 65.001c0 26 9.16699 47.167 27.5 63.5s40.166 24.5 65.499 24.5c24.667 0 46.167 -8.16699 64.5 -24.5s27.5 -37.5 27.5 -63.5z
M41 843c0 -18 6.16699 -32.667 18.5 -44s26.833 -17 43.5 -17s31.167 5.66699 43.5 17s18.5 26 18.5 44s-6.16699 32.667 -18.5 44s-26.833 17 -43.5 17s-31.167 -5.66699 -43.5 -17s-18.5 -26 -18.5 -44z" />
    <glyph glyph-name="ogonek" unicode="&#x2db;" horiz-adv-x="206" 
d="M125 0h42.001c-76 -51.333 -114 -99.333 -114 -144c0 -16.667 5.5 -30 16.5 -40s26.167 -15 45.5 -15c23.333 0 46.333 6.66699 69 20v-32c-22.667 -13.333 -48.334 -20 -77.001 -20c-28 -0.666992 -50 6.5 -66 21.5s-24 34.5 -24 58.5c0 50.667 36 101 108 151z" />
    <glyph glyph-name="tilde" unicode="&#x2dc;" horiz-adv-x="319" 
d="M308 863c2.66699 -24.667 -1.83008 -44.332 -13.4971 -58.999s-28.167 -22 -49.5 -22c-20 0 -49 8.83301 -87 26.5s-63.333 26.5 -76 26.5s-22.334 -4.33301 -29.001 -13s-9.33398 -20.334 -8.00098 -35.001h-34c-3.33301 24 1.16699 43.667 13.5 59s28.833 23 49.5 23
c19.333 0 48.166 -8.83301 86.499 -26.5s63.833 -26.5 76.5 -26.5c28 0 40.333 15.667 37 47h34z" />
    <glyph glyph-name="hungarumlaut" unicode="&#x2dd;" horiz-adv-x="318" 
d="M218 779h-41l74 143h43zM65 779h-41l74 143h43z" />
    <glyph glyph-name="uni0326" unicode="&#x326;" horiz-adv-x="100" 
d="M55 -218h-34l21 172h38z" />
    <glyph glyph-name="uni0401" unicode="&#x401;" horiz-adv-x="622" 
d="M464 836c0 -8.66699 -3 -16 -9 -22s-13.333 -9 -22 -9s-16 3 -22 9s-9 13.333 -9 22c0 8 3 15.167 9 21.5s13.333 9.5 22 9.5s16 -3.16699 22 -9.5s9 -13.5 9 -21.5zM263 836c0 -8.66699 -3 -16 -9 -22s-13.333 -9 -22 -9s-16 3 -22 9s-9 13.333 -9 22
c0 8 3 15.167 9 21.5s13.333 9.5 22 9.5s16 -3.16699 22 -9.5s9 -13.5 9 -21.5zM101 700h459v-38h-419v-291h389v-38h-389v-295h428v-38h-468v700z" />
    <glyph glyph-name="uni0410" unicode="&#x410;" horiz-adv-x="708" 
d="M57 0h-43l318 700h45l317 -700h-42l-93 204h-410zM347 642l-180.999 -401h378l-181 401c-0.666992 2 -1.83398 5 -3.50098 9s-3.16699 7 -4.5 9c-0.666992 -2 -2 -5 -4 -9s-3.33301 -7 -4 -9z" />
    <glyph glyph-name="uni0411" unicode="&#x411;" horiz-adv-x="658" 
d="M141 401l195 0.00195312c40 0 75.333 -2.66699 106 -8s60 -14.833 88 -28.5s49.667 -34.334 65 -62.001s23 -61.834 23 -102.501s-7.66699 -74.667 -23 -102s-37 -47.833 -65 -61.5s-57.333 -23.167 -88 -28.5s-66 -8 -106 -8h-235v700h465v-38h-425v-261zM141 38.002
l197 -0.000976562c35.333 0 65.833 2 91.5 6s50.5 11.333 74.5 22s42.333 27.167 55 49.5s19 50.5 19 84.5s-6.33301 62.333 -19 85s-31 39.334 -55 50.001s-48.833 18 -74.5 22s-56.167 6 -91.5 6h-197v-325z" />
    <glyph glyph-name="uni0412" unicode="&#x412;" horiz-adv-x="679" 
d="M101 700l261.003 -0.00195312c72 0 129.167 -14.5 171.5 -43.5s63.5 -72.833 63.5 -131.5c0 -44.667 -13 -80.167 -39 -106.5s-58.667 -43.166 -98 -50.499c20 -4 38.667 -9.66699 56 -17s34.666 -17.5 51.999 -30.5s31.166 -30.833 41.499 -53.5s15.5 -48.667 15.5 -78
c0 -31.333 -6 -58.833 -18 -82.5s-26.833 -42 -44.5 -55s-39.167 -23.667 -64.5 -32s-48.833 -13.666 -70.5 -15.999s-44.834 -3.5 -69.501 -3.5h-257v700zM585.003 192.998c0 24 -4.83301 45.332 -14.5 63.999s-21.5 33.5 -35.5 44.5s-30.333 20 -49 27
s-36.334 11.833 -53.001 14.5s-33 4 -49 4h-243v-309h210c24.667 0 46.334 0.833008 65.001 2.5s39.167 5.5 61.5 11.5s40.833 14.333 55.5 25s27 25.834 37 45.501s15 43.167 15 70.5zM557.003 519.997c0 94.667 -65.999 142 -197.999 142h-218v-277h251
c45.333 0 84.166 12 116.499 36s48.5 57 48.5 99z" />
    <glyph glyph-name="uni0413" unicode="&#x413;" horiz-adv-x="568" 
d="M141 0h-40v700h453v-38h-413v-662z" />
    <glyph glyph-name="uni0414" unicode="&#x414;" horiz-adv-x="749" 
d="M55 -174h-38.001v212h74c44.667 80 77.334 178.667 98.001 296s31 239.333 31 366h412v-662h86v-212h-38v174h-625v-174zM258.999 662c-6.66699 -274 -48 -482 -124 -624h456v624h-332z" />
    <glyph glyph-name="uni0415" unicode="&#x415;" horiz-adv-x="622" 
d="M101 700h459v-38h-419v-291h389v-38h-389v-295h428v-38h-468v700z" />
    <glyph glyph-name="uni0416" unicode="&#x416;" horiz-adv-x="930" 
d="M56 0h-46l240 359l-214 341h45l200 -322h164v322h40v-322h164l200 322h45l-214 -341l240 -359h-46l-226 340h-163v-340h-40v340h-163z" />
    <glyph glyph-name="uni0417" unicode="&#x417;" horiz-adv-x="603" 
d="M551 188c0 -35.333 -8.00195 -66.3291 -24.002 -92.9961s-37.333 -47.334 -64 -62.001s-55.167 -25.667 -85.5 -33s-61.833 -11 -94.5 -11c-93.333 0 -174 14.667 -242 44v39c66 -30 145.667 -45 239 -45c29.333 0 56.833 2.83301 82.5 8.5s50 14.5 73 26.5
s41.333 29.167 55 51.5s20.5 48.166 20.5 77.499c0 38 -12.333 69.167 -37 93.5s-53.167 40.666 -85.5 48.999s-68.5 12.5 -108.5 12.5h-133v38h129c62.667 0 112.667 12.667 150 38s56 60 56 104c0 48.667 -19.667 85.334 -59 110.001s-90.333 37 -153 37
c-77.333 0 -149.666 -15.333 -216.999 -46v39c64 30 137.333 45 220 45c72.667 0 132.334 -15.5 179.001 -46.5s70 -75.833 70 -134.5c0 -44 -14.5 -80.167 -43.5 -108.5s-67.5 -46.833 -115.5 -55.5c52.667 -6.66699 97.167 -24.334 133.5 -53.001
s54.5 -70.334 54.5 -125.001z" />
    <glyph glyph-name="uni0418" unicode="&#x418;" horiz-adv-x="766" 
d="M665 0h-40v573v59l-489 -632h-35v700h40v-572v-61l488 633h36v-700z" />
    <glyph glyph-name="uni0419" unicode="&#x419;" horiz-adv-x="766" 
d="M625 0h40v700h-36l-488 -633v61v572h-40v-700h35l489 632v-59v-573zM511 820c-34 -28 -76.667 -42 -128 -42s-94 14 -128 42v39c37.333 -29.333 80 -44 128 -44s90.667 14.667 128 44v-39z" />
    <glyph glyph-name="uni041A" unicode="&#x41a;" horiz-adv-x="656" 
d="M141 0h-40v700h40v-322h202l237 322h46l-252 -341l278 -359h-47l-262 340h-202v-340z" />
    <glyph glyph-name="uni041B" unicode="&#x41b;" horiz-adv-x="735" 
d="M235 700l398.999 0.00390625v-700h-40v662h-321c-3.33301 -43.333 -6.16602 -77.833 -8.49902 -103.5s-5.5 -58.334 -9.5 -98.001s-7.83301 -71.834 -11.5 -96.501l-13.5 -87c-5.33301 -33.333 -11 -60.333 -17 -81s-13 -43.334 -21 -68.001s-17 -44.334 -27 -59.001
s-20.833 -28.5 -32.5 -41.5s-24.667 -22.5 -39 -28.5s-29.833 -9 -46.5 -9c-18.667 0 -35.667 3 -51 9v38c14.667 -4.66699 30 -7 46 -7c14 0 27 3 39 9s22.833 15.5 32.5 28.5s18.667 26.833 27 41.5s15.833 34.167 22.5 58.5l18 67.5c5.33301 20.667 10.333 47.667 15 81
l12 87c3.33301 24.667 6.83301 56.667 10.5 96s6.5 72 8.5 98z" />
    <glyph glyph-name="uni041C" unicode="&#x41c;" horiz-adv-x="898" 
d="M764 700h33v-700h-40v623l-296 -435h-24l-296 435v-623h-40v700h32l316 -463z" />
    <glyph glyph-name="uni041D" unicode="&#x41d;" horiz-adv-x="766" 
d="M625 700h40v-700h-40v333h-484v-333h-40v700h40v-329h484v329z" />
    <glyph glyph-name="uni041E" unicode="&#x41e;" horiz-adv-x="825" 
d="M50 350c0 44.667 7.66699 88.167 23 130.5s37.5 80.833 66.5 115.5s67.167 62.5 114.5 83.5s100 31.5 158 31.5c58.667 0 111.667 -10.5 159 -31.5s85.5 -48.833 114.5 -83.5s51.167 -73.167 66.5 -115.5s23 -85.833 23 -130.5s-7.66699 -88.167 -23 -130.5
s-37.5 -80.833 -66.5 -115.5s-67.167 -62.5 -114.5 -83.5s-100.333 -31.5 -159 -31.5c-58 0 -110.667 10.5 -158 31.5s-85.5 48.833 -114.5 83.5s-51.167 73.167 -66.5 115.5s-23 85.833 -23 130.5zM735 350c0 40.667 -6.83301 79.834 -20.5 117.501s-33.334 72 -59.001 103
s-59.667 55.833 -102 74.5s-89.5 28 -141.5 28s-99 -9.33301 -141 -28s-75.833 -43.5 -101.5 -74.5s-45.334 -65.333 -59.001 -103s-20.5 -76.834 -20.5 -117.501s6.83301 -79.834 20.5 -117.501s33.334 -72 59.001 -103s59.5 -55.833 101.5 -74.5s89 -28 141 -28
s99.167 9.33301 141.5 28s76.333 43.5 102 74.5s45.334 65.333 59.001 103s20.5 76.834 20.5 117.501z" />
    <glyph glyph-name="uni041F" unicode="&#x41f;" horiz-adv-x="748" 
d="M141 0h-40v700h546v-700h-39v662h-467v-662z" />
    <glyph glyph-name="uni0420" unicode="&#x420;" horiz-adv-x="653" 
d="M101 700h223c195.333 0 293 -73 293 -219c0 -146.667 -97.667 -220 -293 -220h-183v-261h-40v700zM577 481c0 120.667 -83.667 181 -251 181h-185v-363h185c167.333 0 251 60.667 251 182z" />
    <glyph glyph-name="uni0421" unicode="&#x421;" horiz-adv-x="662" 
d="M51 342c0 58.667 10.501 111.997 31.501 159.997s48.833 86.833 83.5 116.5s73.167 52.5 115.5 68.5s86.166 24 131.499 24c72 0 137.333 -16 196 -48v-40c-55.333 33.333 -119 50 -191 50c-40.667 0 -80 -7 -118 -21s-72.833 -34.167 -104.5 -60.5
s-57 -61.166 -76 -104.499s-28.5 -91.666 -28.5 -144.999c0 -51.333 9.66699 -97.666 29 -138.999s44.833 -74.5 76.5 -99.5s66.667 -44 105 -57s77.833 -19.5 118.5 -19.5c76 0 141.667 17 197 51v-40c-59.333 -32.667 -127.333 -49 -204 -49
c-44.667 0 -88.167 7.5 -130.5 22.5s-80.833 36.5 -115.5 64.5s-62.667 65.167 -84 111.5s-32 97.833 -32 154.5z" />
    <glyph glyph-name="uni0422" unicode="&#x422;" horiz-adv-x="594" 
d="M14 700h566v-38h-263v-662h-40v662h-263v38z" />
    <glyph glyph-name="uni0423" unicode="&#x423;" horiz-adv-x="621" 
d="M351 159c-32.667 -64.667 -65.3311 -109.168 -97.998 -133.501s-69.334 -36.5 -110.001 -36.5c-28.667 0 -55.334 4 -80.001 12v37c26 -7.33301 50.667 -11 74 -11c33.333 0 62.5 8.83301 87.5 26.5s50.167 48.834 75.5 93.501l12 24l-300 529h44l277 -491l247 491h43z
" />
    <glyph glyph-name="uni0424" unicode="&#x424;" horiz-adv-x="848" 
d="M444 -36h-40v94c-114 1.33301 -204.5 27.5 -271.5 78.5s-100.5 122.167 -100.5 213.5s33.5 162.5 100.5 213.5s157.5 77.167 271.5 78.5v94h40v-94c114 -1.33301 204.5 -27.5 271.5 -78.5s100.5 -122.167 100.5 -213.5s-33.5 -162.5 -100.5 -213.5
s-157.5 -77.167 -271.5 -78.5v-94zM72 350c0 -80 29.167 -142.333 87.5 -187s139.833 -67.667 244.5 -69v512c-104.667 -1.33301 -186.167 -24.333 -244.5 -69s-87.5 -107 -87.5 -187zM444 606v-512c104.667 1.33301 186.167 24.333 244.5 69s87.5 107 87.5 187
s-29.167 142.333 -87.5 187s-139.833 67.667 -244.5 69z" />
    <glyph glyph-name="uni0425" unicode="&#x425;" horiz-adv-x="614" 
d="M55 0h-47l276 360l-261 340h47l237 -309l237 309h47l-260 -340l275 -360h-47l-252 329z" />
    <glyph glyph-name="uni0426" unicode="&#x426;" horiz-adv-x="765" 
d="M734 -174h-38v174h-595v700h40v-662h468v662h39v-662h86v-212z" />
    <glyph glyph-name="uni0427" unicode="&#x427;" horiz-adv-x="675" 
d="M574 0l-39.999 0.000976562v290c-75.333 -26.667 -150.333 -39.334 -225 -38.001c-82.667 1.33301 -146.667 21.833 -192 61.5s-68 97.5 -68 173.5v213h40v-214c0 -66 20 -115 60 -147s96 -48.333 168 -49c71.333 -1.33301 143.666 11.667 216.999 39v371h40v-700z" />
    <glyph glyph-name="uni0428" unicode="&#x428;" horiz-adv-x="1062" 
d="M961 0h-860v700h40v-662h370v662h40v-662h371v662h39v-700z" />
    <glyph glyph-name="uni0429" unicode="&#x429;" horiz-adv-x="1078" 
d="M1047 -174h-38l1 174h-909v700h40v-662h370v662h40v-662h371v662h39v-662h86v-212z" />
    <glyph glyph-name="uni042A" unicode="&#x42a;" horiz-adv-x="751" 
d="M422 0h-223v662h-185v38h225v-262h183c195.333 0 293 -73 293 -219s-97.667 -219 -293 -219zM239 400v-362h185c167.333 0 251 60.333 251 181s-83.667 181 -251 181h-185z" />
    <glyph glyph-name="uni042B" unicode="&#x42b;" horiz-adv-x="842" 
d="M324 0h-223v700h40v-262h183c195.333 0 293 -73 293 -219s-97.667 -219 -293 -219zM141 400v-362h185c167.333 0 251 60.333 251 181s-83.667 181 -251 181h-185zM741 0h-40v700h40v-700z" />
    <glyph glyph-name="uni042C" unicode="&#x42c;" horiz-adv-x="653" 
d="M324 0h-223v700h40v-262h183c195.333 0 293 -73 293 -219s-97.667 -219 -293 -219zM141 400v-362h185c167.333 0 251 60.333 251 181s-83.667 181 -251 181h-185z" />
    <glyph glyph-name="uni042D" unicode="&#x42d;" horiz-adv-x="657" 
d="M48 663c58 32 123.669 48.001 197.002 48.001c44.667 0 88.167 -7.83301 130.5 -23.5s80.666 -38.167 114.999 -67.5s62 -68 83 -116s31.5 -101.333 31.5 -160c0 -59.333 -10.5 -112.333 -31.5 -159s-49 -83.834 -84 -111.501s-73.5 -48.667 -115.5 -63
s-85.667 -21.5 -131 -21.5c-72 0 -137 16.333 -195 49v41c57.333 -34.667 120.666 -52 189.999 -52c87.333 0 163 25.833 227 77.5s97.333 127.167 100 226.5h-398v38h398c-4.66699 96 -39 170.667 -103 224s-138 80 -222 80c-74 0 -138 -16.667 -192 -50v40z" />
    <glyph glyph-name="uni042E" unicode="&#x42e;" horiz-adv-x="1079" 
d="M1029 350c0 -44.667 -7.66699 -88.1689 -23 -130.502s-37.5 -80.833 -66.5 -115.5s-67.167 -62.5 -114.5 -83.5s-100.333 -31.5 -159 -31.5c-74.667 0 -139.5 17 -194.5 51s-95.833 76.333 -122.5 127s-41.334 105.334 -44.001 164.001h-164v-331h-40v700h40v-331h164
c2.66699 58.667 17.334 113.334 44.001 164.001s67.5 93 122.5 127s119.833 51 194.5 51c58.667 0 111.667 -10.5 159 -31.5s85.5 -48.833 114.5 -83.5s51.167 -73.167 66.5 -115.5s23 -85.833 23 -130.5zM344 349.998c0 -40.667 6.83301 -79.834 20.5 -117.501
s33.334 -72 59.001 -103s59.5 -55.833 101.5 -74.5s89 -28 141 -28s99.167 9.33301 141.5 28s76.333 43.5 102 74.5s45.334 65.333 59.001 103s20.5 76.834 20.5 117.501s-6.83301 79.834 -20.5 117.501s-33.334 72 -59.001 103s-59.667 55.833 -102 74.5
s-89.5 28 -141.5 28s-99 -9.33301 -141 -28s-75.833 -43.5 -101.5 -74.5s-45.334 -65.333 -59.001 -103s-20.5 -76.834 -20.5 -117.501z" />
    <glyph glyph-name="uni042F" unicode="&#x42f;" horiz-adv-x="679" 
d="M85 0h-48l214 275c-56.667 11.333 -102.167 34.833 -136.5 70.5s-51.5 82.167 -51.5 139.5c0 69.333 24.5 122.5 73.5 159.5s111.167 55.5 186.5 55.5h255v-700h-39v269h-216c-12.667 0 -22 0.333008 -28 1zM104 485c0 -58 20.167 -102.168 60.5 -132.501
s92.833 -45.5 157.5 -45.5h217v355h-217c-64.667 0 -117.167 -15.167 -157.5 -45.5s-60.5 -74.166 -60.5 -131.499z" />
    <glyph glyph-name="uni0430" unicode="&#x430;" horiz-adv-x="543" 
d="M450 77c0 -30.667 16 -46.0029 48 -46.0029c10.667 0 23 2.33301 37 7v-32c-16 -5.33301 -31.667 -8 -47 -8c-22 0 -40.167 6.33301 -54.5 19s-21.5 32.334 -21.5 59.001v13c-50 -66.667 -119.333 -100 -208 -100c-45.333 0 -84.166 12 -116.499 36
s-48.5 58.667 -48.5 104c0 52.667 20.167 91.334 60.5 116.001s89.833 37 148.5 37c55.333 0 110 -8.66699 164 -26v44c0 47.333 -14.333 85 -43 113s-69.334 42 -122.001 42c-60 0 -117 -10.333 -171 -31v37c56.667 20 114.667 30 174 30
c63.333 0 112.5 -17.167 147.5 -51.5s52.5 -82.166 52.5 -143.499v-219zM78 129.997c0 -34.667 13.001 -61.167 39.001 -79.5s57.333 -27.5 94 -27.5c41.333 0 79.833 9.83301 115.5 29.5s64.167 47.5 85.5 83.5v87c-54 17.333 -107.333 26 -160 26
c-48.667 0 -89.834 -9.5 -123.501 -28.5s-50.5 -49.167 -50.5 -90.5z" />
    <glyph glyph-name="uni0431" unicode="&#x431;" horiz-adv-x="589" 
d="M542 225c0 -71.333 -22.167 -128.5 -66.5 -171.5s-102.5 -64.5 -174.5 -64.5c-74 0 -133.833 25.333 -179.5 76s-68.5 117 -68.5 199c0 74.667 14 140.834 42 198.501s64.667 100.5 110 128.5c38 23.333 77.167 40.333 117.5 51l102.5 28c28 8 51 21.333 69 40v-41
c-21.333 -18.667 -60.666 -34.834 -117.999 -48.501s-107 -33.167 -149 -58.5c-72.667 -44 -118 -123.333 -136 -238c18 42 46.667 75.167 86 99.5s82.666 36.5 129.999 36.5c66.667 0 122.5 -22 167.5 -66s67.5 -100.333 67.5 -169zM91 247
c0 -63.333 19.168 -116.001 57.501 -158.001s88.833 -63 151.5 -63c61.333 0 110.666 18.333 147.999 55s56 84.334 56 143.001s-18.667 106.667 -56 144s-86 56 -146 56c-51.333 0 -96.833 -16 -136.5 -48s-64.5 -75 -74.5 -129z" />
    <glyph glyph-name="uni0432" unicode="&#x432;" horiz-adv-x="542" 
d="M339 0l-258 -0.00195312v480h246c45.333 0 81 -11 107 -33s39 -52.667 39 -92c0 -27.333 -7 -50.666 -21 -69.999s-33.333 -32.666 -58 -39.999c28.667 -6 52 -18.833 70 -38.5s27 -46.167 27 -79.5c0 -40.667 -13.667 -72 -41 -94s-64.333 -33 -111 -33zM119 226.998
v-193h215c36 0 64.833 7.66699 86.5 23s32.5 39.333 32.5 72c0 34.667 -10.667 59.667 -32 75s-49 23 -83 23h-219zM119 445.998v-186h207c35.333 0 62.333 8 81 24s28 38.667 28 68c0 30 -10 53.167 -30 69.5s-47.333 24.5 -82 24.5h-204z" />
    <glyph glyph-name="uni0433" unicode="&#x433;" horiz-adv-x="437" 
d="M119 0h-38v480h341v-36h-303v-444z" />
    <glyph glyph-name="uni0434" unicode="&#x434;" horiz-adv-x="611" 
d="M62 -136l-37 0.000976562v171h62c32 63.333 55.167 129.166 69.5 197.499s21.5 150.833 21.5 247.5h332v-445h69v-171h-38v136h-479v-136zM214 445.001c-0.666992 -86 -8.16699 -160.833 -22.5 -224.5s-35.833 -125.5 -64.5 -185.5h344v410h-257z" />
    <glyph glyph-name="uni0435" unicode="&#x435;" horiz-adv-x="544" 
d="M47 240c0 77.333 23.3311 138.498 69.998 183.498s101.667 67.5 165 67.5c34.667 0 65.834 -5.66699 93.501 -17s49.667 -26.166 66 -44.499s30.166 -39.166 41.499 -62.499s17.5 -47.5 18.5 -72.5s-0.166992 -49.5 -3.5 -73.5h-413
c2.66699 -65.333 25.834 -114.333 69.501 -147s96.834 -49 159.501 -49c60.667 0 112.667 12.667 156 38v-38c-44 -24 -97.667 -36 -161 -36c-74.667 0 -137 21.167 -187 63.5s-75 104.833 -75 187.5zM464.998 254.998c2.66699 22 1.33301 44.168 -4 66.501
s-14.666 43.666 -27.999 63.999s-32.833 37 -58.5 50s-55.834 19.5 -90.501 19.5c-54 0 -100.167 -17.833 -138.5 -53.5s-58.5 -84.5 -60.5 -146.5h380z" />
    <glyph glyph-name="uni0436" unicode="&#x436;" horiz-adv-x="719" 
d="M709 0h-43l-198 227h-90v-227h-38v227h-89l-198 -227h-44l211 246l-184 234h43l173 -217h88v217h38v-217h89l172 217h44l-184 -234z" />
    <glyph glyph-name="uni0437" unicode="&#x437;" horiz-adv-x="466" 
d="M416 127c0 -46 -18.999 -80.498 -56.999 -103.498s-86.667 -34.5 -146 -34.5c-63.333 0 -120.666 11.667 -171.999 35v37c49.333 -24 105.333 -36 168 -36c48.667 0 89 8.16699 121 24.5s48 43.166 48 80.499c0 31.333 -12.167 55.166 -36.5 71.499
s-51.833 24.5 -82.5 24.5h-117v36h117c72.667 5.33301 109 35 109 89c0 34 -14.833 60 -44.5 78s-67.5 27 -113.5 27c-54.667 0 -108.667 -11.667 -162 -35v36c54 22.667 109.333 34 166 34c57.333 0 103.666 -11.833 138.999 -35.5s53 -56.834 53 -99.501
c0 -29.333 -8.33301 -53.666 -25 -72.999s-40 -31.666 -70 -36.999c29.333 -7.33301 54.166 -21.333 74.499 -42s30.5 -46.334 30.5 -77.001z" />
    <glyph glyph-name="uni0438" unicode="&#x438;" horiz-adv-x="585" 
d="M115 0h-34v480h38v-420l350 420h35v-480h-38v420z" />
    <glyph glyph-name="uni0439" unicode="&#x439;" horiz-adv-x="585" 
d="M420 602c-33.333 -27.333 -76 -41 -128 -41s-94.667 13.667 -128 41v37c37.333 -29.333 80 -44 128 -44s90.667 14.667 128 44v-37zM115 0h-34v480h38v-420l350 420h35v-480h-38v420z" />
    <glyph glyph-name="uni043A" unicode="&#x43a;" horiz-adv-x="502" 
d="M119 0h-38v480h38v-215h123l180 215h45l-195 -234l222 -246h-46l-209 229h-120v-229z" />
    <glyph glyph-name="uni043B" unicode="&#x43b;" horiz-adv-x="586" 
d="M216 444c-6.66699 -149.333 -22.167 -261.667 -46.5 -337s-63.166 -113 -116.499 -113c-14.667 0 -29.667 2.66699 -45 8v31c9.33301 -4 21 -6 35 -6c43.333 0 75.666 38 96.999 114s34.333 189 39 339h326v-480h-38v444h-251z" />
    <glyph glyph-name="uni043C" unicode="&#x43c;" horiz-adv-x="663" 
d="M117 0h-36v480h41l210 -298l209 298h41v-480h-36v423l-201 -284h-27l-201 284v-423z" />
    <glyph glyph-name="uni043D" unicode="&#x43d;" 
d="M119 0h-38v480h38v-222h339v222h38v-480h-38v222h-339v-222z" />
    <glyph glyph-name="uni043E" unicode="&#x43e;" horiz-adv-x="591" 
d="M46 240c0 77.333 24.5 138.5 73.5 183.5s107.5 67.5 175.5 67.5c68.667 0 127.5 -22.5 176.5 -67.5s73.5 -106.167 73.5 -183.5s-24.5 -138.5 -73.5 -183.5s-107.833 -67.5 -176.5 -67.5c-68 0 -126.5 22.5 -175.5 67.5s-73.5 106.167 -73.5 183.5zM507 240
c0 65.333 -20.5 117.333 -61.5 156s-91.167 58 -150.5 58s-109.333 -19.333 -150 -58s-61 -90.667 -61 -156s20.333 -117.333 61 -156s90.667 -58 150 -58s109.5 19.333 150.5 58s61.5 90.667 61.5 156z" />
    <glyph glyph-name="uni043F" unicode="&#x43f;" 
d="M119 0h-38v480h415v-480h-38v444h-339v-444z" />
    <glyph glyph-name="uni0440" unicode="&#x440;" horiz-adv-x="615" 
d="M116 366c21.333 37.333 50.332 67.5 86.999 90.5s78.667 34.5 126 34.5c68.667 0 125.667 -23.167 171 -69.5s68 -106.833 68 -181.5s-22.667 -135.167 -68 -181.5s-102.333 -69.5 -171 -69.5c-47.333 0 -89.166 11.333 -125.499 34s-64.5 51.667 -84.5 87v-330h-38v700
h35v-114zM529.999 240c0 65.333 -19.333 117.5 -58 156.5s-87.667 58.5 -147 58.5c-48 0 -90.5 -13.667 -127.5 -41s-63.167 -62 -78.5 -104v-140c15.333 -42 41.5 -76.667 78.5 -104s79.5 -41 127.5 -41c59.333 0 108.333 19.333 147 58s58 91 58 157z" />
    <glyph glyph-name="uni0441" unicode="&#x441;" horiz-adv-x="497" 
d="M47 236c0 82.667 25.667 145.833 77 189.5s111.666 65.5 180.999 65.5c56 0 103.667 -13 143 -39v-37c-38.667 26.667 -85 40 -139 40c-61.333 0 -114 -18.333 -158 -55s-66 -91 -66 -163c0 -68.667 21 -121.167 63 -157.5s92.667 -54.5 152 -54.5
c57.333 0 108.333 12.667 153 38v-38c-45.333 -24 -97.666 -36 -156.999 -36c-68 0 -126.5 21.167 -175.5 63.5s-73.5 103.5 -73.5 183.5z" />
    <glyph glyph-name="uni0442" unicode="&#x442;" horiz-adv-x="455" 
d="M247 0h-38v444h-194v36h425v-36h-193v-444z" />
    <glyph glyph-name="uni0443" unicode="&#x443;" horiz-adv-x="531" 
d="M276 40l193.997 440.001h40l-250 -564c-23.333 -52.667 -48.166 -90.334 -74.499 -113.001s-56.166 -34 -89.499 -34c-17.333 0 -34 2.33301 -50 7v34c18.667 -4.66699 34 -7 46 -7c28.667 0 53.834 10.167 75.501 30.5s42.167 52.833 61.5 97.5l29 67l-243 482h41z" />
    <glyph glyph-name="uni0444" unicode="&#x444;" horiz-adv-x="703" 
d="M370 -220h-38v209c-83.333 1.33301 -151.833 24.333 -205.5 69s-80.5 105.334 -80.5 182.001s26.833 137.334 80.5 182.001s122.167 67.667 205.5 69v209h38v-209c83.333 -1.33301 152 -24.333 206 -69s81 -105.334 81 -182.001s-27 -137.334 -81 -182.001
s-122.667 -67.667 -206 -69v-209zM84 240c0 -66.667 23 -119.169 69 -157.502s105.667 -58.166 179 -59.499v434c-73.333 -1.33301 -133 -21.166 -179 -59.499s-69 -90.833 -69 -157.5zM370 456.998v-433.998c74 1.33301 133.833 21.166 179.5 59.499
s68.5 90.833 68.5 157.5s-22.833 119.167 -68.5 157.5s-105.5 58.166 -179.5 59.499z" />
    <glyph glyph-name="uni0445" unicode="&#x445;" horiz-adv-x="483" 
d="M412 480h45l-193 -234l203 -246h-44l-182 219l-181 -219h-45l204 246l-193 234h44l171 -206z" />
    <glyph glyph-name="uni0446" unicode="&#x446;" horiz-adv-x="592" 
d="M559 -136h-37v136h-441v480h38v-444h333v444h38v-444h69v-172z" />
    <glyph glyph-name="uni0447" unicode="&#x447;" horiz-adv-x="517" 
d="M436 0h-38.001v181c-48 -20.667 -101.667 -31 -161 -31s-106.166 14.333 -140.499 43s-51.5 71.667 -51.5 129v158h38v-156c0 -92 54.667 -138 164 -138c58 0 108.333 9.66699 151 29v265h38v-480z" />
    <glyph glyph-name="uni0448" unicode="&#x448;" horiz-adv-x="808" 
d="M727 0h-646v480h38v-444h266v444h38v-444h266v444h38v-480z" />
    <glyph glyph-name="uni0449" unicode="&#x449;" horiz-adv-x="829" 
d="M796 -136h-37v136h-678v480h38v-444h266v444h38v-444h266v444h38v-444h69v-172z" />
    <glyph glyph-name="uni044A" unicode="&#x44a;" horiz-adv-x="579" 
d="M190 300h175c54.667 0 98.5 -14 131.5 -42s49.5 -64 49.5 -108s-16.5 -80 -49.5 -108s-76.833 -42 -131.5 -42h-213v446h-136v34h174v-180zM190 35h171c45.333 0 81 10.5 107 31.5s39 48.833 39 83.5c0 35.333 -13.167 63.333 -39.5 84s-61.833 31 -106.5 31h-171v-230z
" />
    <glyph glyph-name="uni044B" unicode="&#x44b;" horiz-adv-x="691" 
d="M294 0h-213v480h38v-180h175c54.667 0 98.5 -14 131.5 -42s49.5 -64 49.5 -108s-16.5 -80 -49.5 -108s-76.833 -42 -131.5 -42zM119 265v-230h171c45.333 0 81 10.5 107 31.5s39 48.833 39 83.5c0 35.333 -13.167 63.333 -39.5 84s-61.833 31 -106.5 31h-171zM610 0h-38
v480h38v-480z" />
    <glyph glyph-name="uni044C" unicode="&#x44c;" horiz-adv-x="508" 
d="M294 0h-213v480h38v-180h175c54.667 0 98.5 -14 131.5 -42s49.5 -64 49.5 -108s-16.5 -80 -49.5 -108s-76.833 -42 -131.5 -42zM119 265v-230h171c45.333 0 81 10.5 107 31.5s39 48.833 39 83.5c0 35.333 -13.167 63.333 -39.5 84s-61.833 31 -106.5 31h-171z" />
    <glyph glyph-name="uni044D" unicode="&#x44d;" horiz-adv-x="502" 
d="M455 234c0 -81.333 -24.168 -142.5 -72.501 -183.5s-106.166 -61.5 -173.499 -61.5c-59.333 0 -114.666 14.333 -165.999 43v36c48.667 -28.667 102 -43 160 -43c60 0 110.167 16 150.5 48s61.5 81.667 63.5 149h-280v36h280c-4 65.333 -27.833 114.5 -71.5 147.5
s-95.167 49.5 -154.5 49.5c-52.667 0 -100.334 -14.333 -143.001 -43v35c44 29.333 93 44 147 44c70 0 130.833 -22 182.5 -66s77.5 -107.667 77.5 -191z" />
    <glyph glyph-name="uni044E" unicode="&#x44e;" horiz-adv-x="804" 
d="M757 240c0 -77.333 -24.333 -138.5 -73 -183.5s-107.334 -67.5 -176.001 -67.5c-66 0 -123 21 -171 63s-74 98.667 -78 170h-140v-222h-38v480h38v-222h140c4 71.333 30 128 78 170s105 63 171 63c68.667 0 127.334 -22.5 176.001 -67.5s73 -106.167 73 -183.5zM296 240
c0 -65.333 20.333 -117.333 61 -156s90.667 -58 150 -58s109.5 19.333 150.5 58s61.5 90.667 61.5 156s-20.5 117.333 -61.5 156s-91.167 58 -150.5 58s-109.333 -19.333 -150 -58s-61 -90.667 -61 -156z" />
    <glyph glyph-name="uni044F" unicode="&#x44f;" horiz-adv-x="539" 
d="M81 0l-45 0.000976562l145 191c-39.333 8 -70 24.667 -92 50s-33 56 -33 92c0 43.333 16 78.666 48 105.999s75.333 41 130 41h224v-480h-38v186h-186h-12zM94 333.001c0 -34 12.833 -61.167 38.5 -81.5s60.5 -30.5 104.5 -30.5h183v224h-183
c-44.667 0 -79.667 -10.167 -105 -30.5s-38 -47.5 -38 -81.5z" />
    <glyph glyph-name="uni0451" unicode="&#x451;" horiz-adv-x="544" 
d="M413 616c0 -8.66699 -3 -16 -9 -22s-13.333 -9 -22 -9s-16 3 -22 9s-9 13.333 -9 22c0 8 3 15.167 9 21.5s13.333 9.5 22 9.5s16 -3.16699 22 -9.5s9 -13.5 9 -21.5zM212 616c0 -8.66699 -3 -16 -9 -22s-13.333 -9 -22 -9s-16 3 -22 9s-9 13.333 -9 22
c0 8 3 15.167 9 21.5s13.333 9.5 22 9.5s16 -3.16699 22 -9.5s9 -13.5 9 -21.5zM47 240c0 77.333 23.3311 138.498 69.998 183.498s101.667 67.5 165 67.5c34.667 0 65.834 -5.66699 93.501 -17s49.667 -26.166 66 -44.499s30.166 -39.166 41.499 -62.499
s17.5 -47.5 18.5 -72.5s-0.166992 -49.5 -3.5 -73.5h-413c2.66699 -65.333 25.834 -114.333 69.501 -147s96.834 -49 159.501 -49c60.667 0 112.667 12.667 156 38v-38c-44 -24 -97.667 -36 -161 -36c-74.667 0 -137 21.167 -187 63.5s-75 104.833 -75 187.5z
M464.998 254.998c2.66699 22 1.33301 44.168 -4 66.501s-14.666 43.666 -27.999 63.999s-32.833 37 -58.5 50s-55.834 19.5 -90.501 19.5c-54 0 -100.167 -17.833 -138.5 -53.5s-58.5 -84.5 -60.5 -146.5h380z" />
    <glyph glyph-name="Wgrave" unicode="&#x1e80;" horiz-adv-x="993" 
d="M925 700h43l-223 -700h-43l-206 628l-205 -628h-43l-223 700h43l202 -649l209 643h36l208 -643zM537 776h-42l-94 137h48z" />
    <glyph glyph-name="wgrave" unicode="&#x1e81;" horiz-adv-x="799" 
d="M734 480h40l-180 -480h-39l-156 423l-155 -423h-39l-180 480h40l160 -435l156 429h36l157 -429zM440 556h-42l-94 137h48z" />
    <glyph glyph-name="Wacute" unicode="&#x1e82;" horiz-adv-x="993" 
d="M925 700h43l-223 -700h-43l-206 628l-205 -628h-43l-223 700h43l202 -649l209 643h36l208 -643zM495 776h-43l89 137h47z" />
    <glyph glyph-name="wacute" unicode="&#x1e83;" horiz-adv-x="799" 
d="M734 480h40l-180 -480h-39l-156 423l-155 -423h-39l-180 480h40l160 -435l156 429h36l157 -429zM398 556h-43l89 137h47z" />
    <glyph glyph-name="Wdieresis" unicode="&#x1e84;" horiz-adv-x="993" 
d="M925 700h43l-223 -700h-43l-206 628l-205 -628h-43l-223 700h43l202 -649l209 643h36l208 -643zM627 836c0 -8.66699 -3 -16 -9 -22s-13.333 -9 -22 -9s-16 3 -22 9s-9 13.333 -9 22c0 8 3 15.167 9 21.5s13.333 9.5 22 9.5s16 -3.16699 22 -9.5s9 -13.5 9 -21.5z
M426 836c0 -8.66699 -3 -16 -9 -22s-13.333 -9 -22 -9s-16 3 -22 9s-9 13.333 -9 22c0 8 3 15.167 9 21.5s13.333 9.5 22 9.5s16 -3.16699 22 -9.5s9 -13.5 9 -21.5z" />
    <glyph glyph-name="wdieresis" unicode="&#x1e85;" horiz-adv-x="799" 
d="M734 480h40l-180 -480h-39l-156 423l-155 -423h-39l-180 480h40l160 -435l156 429h36l157 -429zM530 616c0 -8.66699 -3 -16 -9 -22s-13.333 -9 -22 -9s-16 3 -22 9s-9 13.333 -9 22c0 8 3 15.167 9 21.5s13.333 9.5 22 9.5s16 -3.16699 22 -9.5s9 -13.5 9 -21.5z
M329 616c0 -8.66699 -3 -16 -9 -22s-13.333 -9 -22 -9s-16 3 -22 9s-9 13.333 -9 22c0 8 3 15.167 9 21.5s13.333 9.5 22 9.5s16 -3.16699 22 -9.5s9 -13.5 9 -21.5z" />
    <glyph glyph-name="Ygrave" unicode="&#x1ef2;" horiz-adv-x="634" 
d="M337 0h-40v279l-276 421h45l251 -384l251 384h45l-276 -421v-279zM359 776h-42l-94 137h48z" />
    <glyph glyph-name="ygrave" unicode="&#x1ef3;" horiz-adv-x="531" 
d="M276 40l193.997 440.001h40l-250 -564c-23.333 -52.667 -48.166 -90.334 -74.499 -113.001s-56.166 -34 -89.499 -34c-17.333 0 -34 2.33301 -50 7v34c18.667 -4.66699 34 -7 46 -7c28.667 0 53.834 10.167 75.501 30.5s42.167 52.833 61.5 97.5l29 67l-243 482h41z
M298.997 556.001h-42l-94 137h48z" />
    <glyph glyph-name="endash" unicode="&#x2013;" horiz-adv-x="568" 
d="M499 226h-430v36h430v-36z" />
    <glyph glyph-name="emdash" unicode="&#x2014;" horiz-adv-x="752" 
d="M683 226h-614v36h614v-36z" />
    <glyph glyph-name="quoteleft" unicode="&#x2018;" horiz-adv-x="189" 
d="M94 482h-40l59 218h32z" />
    <glyph glyph-name="quoteright" unicode="&#x2019;" horiz-adv-x="186" 
d="M87 482h-32l51 218h40z" />
    <glyph glyph-name="quotesinglbase" unicode="&#x201a;" horiz-adv-x="203" 
d="M70 -144h-32l51 218h40z" />
    <glyph glyph-name="quotedblleft" unicode="&#x201c;" horiz-adv-x="317" 
d="M222 482h-40l59 218h32zM94 482h-40l59 218h32z" />
    <glyph glyph-name="quotedblright" unicode="&#x201d;" horiz-adv-x="314" 
d="M215 482h-32l51 218h40zM87 482h-32l51 218h40z" />
    <glyph glyph-name="quotedblbase" unicode="&#x201e;" horiz-adv-x="331" 
d="M198 -144h-32l51 218h40zM70 -144h-32l51 218h40z" />
    <glyph glyph-name="dagger" unicode="&#x2020;" horiz-adv-x="488" 
d="M264 -220h-40v662h-190v38h190v220h40v-220h190v-38h-190v-662z" />
    <glyph glyph-name="daggerdbl" unicode="&#x2021;" horiz-adv-x="519" 
d="M279 -220h-39v328h-190v38h190v296h-190v38h190v220h39v-220h190v-38h-190v-296h190v-38h-190v-328z" />
    <glyph glyph-name="bullet" unicode="&#x2022;" horiz-adv-x="293" 
d="M96 350c0 15.333 4.83301 27.5 14.5 36.5s21.5 13.5 35.5 13.5c14.667 0 26.834 -4.5 36.501 -13.5s14.5 -21.167 14.5 -36.5s-4.83301 -27.5 -14.5 -36.5s-21.834 -13.5 -36.501 -13.5c-14 0 -25.833 4.5 -35.5 13.5s-14.5 21.167 -14.5 36.5z" />
    <glyph glyph-name="ellipsis" unicode="&#x2026;" horiz-adv-x="492" 
d="M423 23c0 -9.33301 -2.83203 -16.666 -8.49902 -21.999s-12.834 -8 -21.501 -8s-15.834 2.66699 -21.501 8s-8.5 12.666 -8.5 21.999c0 8.66699 3 15.667 9 21s13 8 21 8c8.66699 0 15.834 -2.66699 21.501 -8s8.5 -12.333 8.5 -21zM129.001 23
c0 -9.33301 -2.83203 -16.666 -8.49902 -21.999s-12.834 -8 -21.501 -8s-15.834 2.66699 -21.501 8s-8.5 12.666 -8.5 21.999c0 8.66699 3 15.667 9 21s13 8 21 8c8.66699 0 15.834 -2.66699 21.501 -8s8.5 -12.333 8.5 -21zM276.002 23
c0 -9.33301 -2.83203 -16.666 -8.49902 -21.999s-12.834 -8 -21.501 -8s-15.834 2.66699 -21.501 8s-8.5 12.666 -8.5 21.999c0 8.66699 3 15.667 9 21s13 8 21 8c8.66699 0 15.834 -2.66699 21.501 -8s8.5 -12.333 8.5 -21z" />
    <glyph glyph-name="perthousand" unicode="&#x2030;" horiz-adv-x="1249" 
d="M255 -60h-39l409 820h39zM339 564c0 -46 -14.667 -82 -44 -108s-65 -39 -107 -39s-77.833 13 -107.5 39s-44.5 62 -44.5 108s14.833 82 44.5 108s65.5 39 107.5 39s77.667 -13 107 -39s44 -62 44 -108zM73 564c0 -34.667 10.833 -62.167 32.5 -82.5
s49.5 -30.5 83.5 -30.5c32.667 0 60 10.333 82 31s33 48 33 82s-11 61.333 -33 82s-49.333 31 -82 31c-34 0 -61.833 -10.167 -83.5 -30.5s-32.5 -47.833 -32.5 -82.5zM843 136c0 -46 -14.667 -82 -44 -108s-65 -39 -107 -39s-77.833 13 -107.5 39s-44.5 62 -44.5 108
s14.833 82 44.5 108s65.5 39 107.5 39s77.667 -13 107 -39s44 -62 44 -108zM577 136c0 -34.667 10.833 -62.167 32.5 -82.5s49.5 -30.5 83.5 -30.5c32.667 0 60 10.333 82 31s33 48 33 82s-11 61.333 -33 82s-49.333 31 -82 31c-34 0 -61.833 -10.167 -83.5 -30.5
s-32.5 -47.833 -32.5 -82.5zM1214 136c0 -46 -14.667 -82 -44 -108s-65 -39 -107 -39s-77.833 13 -107.5 39s-44.5 62 -44.5 108s14.833 82 44.5 108s65.5 39 107.5 39s77.667 -13 107 -39s44 -62 44 -108zM948 136c0 -34.667 10.833 -62.167 32.5 -82.5
s49.5 -30.5 83.5 -30.5c32.667 0 60 10.333 82 31s33 48 33 82s-11 61.333 -33 82s-49.333 31 -82 31c-34 0 -61.833 -10.167 -83.5 -30.5s-32.5 -47.833 -32.5 -82.5z" />
    <glyph glyph-name="guilsinglleft" unicode="&#x2039;" horiz-adv-x="275" 
d="M212 66h-42l-119 169v10l119 169h42l-123 -174z" />
    <glyph glyph-name="guilsinglright" unicode="&#x203a;" horiz-adv-x="275" 
d="M104 66h-41l123 174l-123 174h41l120 -169v-10z" />
    <glyph glyph-name="fraction" unicode="&#x2044;" horiz-adv-x="165" 
d="M-136 -11h-22l456 722h22z" />
    <glyph glyph-name="Euro" unicode="&#x20ac;" horiz-adv-x="736" 
d="M670 38c-59.333 -32.667 -124.666 -49 -195.999 -49c-52 0 -101.167 9.5 -147.5 28.5s-87.333 48.833 -123 89.5s-59.5 89 -71.5 145h-88v34h82c-2 16 -3 33 -3 51c0 22 1.33301 41 4 57h-83v34h89c19.333 82.667 61.166 147.167 125.499 193.5
s136.166 69.5 215.499 69.5c72 0 137.333 -16 196 -48v-40c-54 33.333 -117.333 50 -190 50c-70.667 0 -134.667 -19.667 -192 -59s-95 -94.666 -113 -165.999h379v-34h-386c-3.33301 -14.667 -5 -33.667 -5 -57c0 -18 1 -35 3 -51h388v-34h-380
c17.333 -72.667 54.833 -128.334 112.5 -167.001s122.834 -58 195.501 -58c70 0 132.667 17 188 51v-40z" />
    <glyph glyph-name="trademark" unicode="&#x2122;" horiz-adv-x="660" 
d="M331 448h-25v252h29l107 -151l107 151h29v-252h-25v216l-104 -145h-15l-103 145v-216zM162 448h-25v228h-91v24h207v-24h-91v-228z" />
    <glyph glyph-name="oneeighth" unicode="&#x215b;" horiz-adv-x="900" 
d="M553 313c0 27.333 12.667 51.168 38 71.501s61.333 30.5 108 30.5c44 0 79.333 -10.833 106 -32.5s40.667 -47.167 42 -76.5c0 -46.667 -21 -82.667 -63 -108c51.333 -22.667 77 -55 77 -97c0 -29.333 -13.667 -54.666 -41 -75.999s-67 -32 -119 -32
s-92.167 11.167 -120.5 33.5s-42.5 50.166 -42.5 83.499c0 49.333 25 87.666 75 114.999c-40 20.667 -60 50 -60 88zM702 192.002l-58.999 19.001c-22.667 -10 -40.167 -23.833 -52.5 -41.5s-18.5 -36.167 -18.5 -55.5c0 -26.667 11.167 -48.167 33.5 -64.5
s54.166 -24.5 95.499 -24.5c38.667 0 69.334 7.16699 92.001 21.5s34 32.166 34 53.499c0 11.333 -2.66699 21.5 -8 30.5s-11 16.167 -17 21.5s-15.833 10.833 -29.5 16.5s-24.334 9.66699 -32.001 12zM813.001 300.003c0 22.667 -10.168 42.167 -30.501 58.5
s-48.166 24.5 -83.499 24.5c-34 0 -61.167 -6.66699 -81.5 -20s-30.5 -30 -30.5 -50c0 -33.333 22.667 -58 68 -74c6 -2.66699 21.333 -7.66699 46 -15c20.667 -5.33301 38.667 -10.333 54 -15c38.667 22.667 58 53 58 91zM202 -10.9971h-22l456 722h22zM159 680.003h25
v-376h77v-32h-209v32h99v340l-91 -34v32z" />
    <glyph glyph-name="threeeighths" unicode="&#x215c;" horiz-adv-x="948" 
d="M601 313c0 27.333 12.667 51.168 38 71.501s61.333 30.5 108 30.5c44 0 79.333 -10.833 106 -32.5s40.667 -47.167 42 -76.5c0 -46.667 -21 -82.667 -63 -108c51.333 -22.667 77 -55 77 -97c0 -29.333 -13.833 -54.666 -41.5 -75.999s-67.167 -32 -118.5 -32
c-52 0 -92.167 11.167 -120.5 33.5s-42.5 50.166 -42.5 83.499c0 49.333 25 87.666 75 114.999c-40 20.667 -60 50 -60 88zM750 192.002l-58.999 19.001c-22.667 -10 -40.167 -23.833 -52.5 -41.5s-18.5 -36.167 -18.5 -55.5c0 -26.667 11.167 -48.167 33.5 -64.5
s54.166 -24.5 95.499 -24.5c38.667 0 69.334 7.16699 92.001 21.5s34 32.166 34 53.499c0 11.333 -2.66699 21.5 -8 30.5s-11 16.167 -17 21.5s-15.833 10.833 -29.5 16.5s-24.334 9.66699 -32.001 12zM861.001 300.003c0 22.667 -10.168 42.167 -30.501 58.5
s-48.166 24.5 -83.499 24.5c-34 0 -61.167 -6.66699 -81.5 -20s-30.5 -30 -30.5 -50c0 -33.333 22.667 -58 68 -74c6 -2.66699 21.333 -7.66699 46 -15c20.667 -5.33301 38.667 -10.333 54 -15c38.667 22.667 58 53 58 91zM260 -10.9971h-22l456 722h22zM323 581.003
c0 -21.333 -6.16602 -40.5 -18.499 -57.5s-29.5 -28.5 -51.5 -34.5c24.667 -6 45.167 -17.5 61.5 -34.5s24.5 -40.167 24.5 -69.5c0 -36.667 -13.333 -65.167 -40 -85.5s-61 -30.5 -103 -30.5c-54.667 0 -102 9 -142 27v33c38 -18.667 84.667 -28 140 -28
c34 0 61.333 7.16699 82 21.5s31 35.833 31 64.5s-10.333 49.667 -31 63s-47.334 20 -80.001 20h-62v33h58c32 0 56.333 7.16699 73 21.5s25 32.5 25 54.5c0 23.333 -9.33301 42.5 -28 57.5s-44.667 22.5 -78 22.5c-42 0 -83 -9.66699 -123 -29v33
c37.333 18.667 79.666 28 126.999 28c40.667 0 73.334 -10.333 98.001 -31s37 -47 37 -79z" />
    <glyph glyph-name="fiveeighths" unicode="&#x215d;" horiz-adv-x="938" 
d="M591 313c0 27.333 12.667 51.168 38 71.501s61.333 30.5 108 30.5c44 0 79.333 -10.833 106 -32.5s40.667 -47.167 42 -76.5c0 -46.667 -21 -82.667 -63 -108c51.333 -22.667 77 -55 77 -97c0 -29.333 -13.833 -54.666 -41.5 -75.999s-67.167 -32 -118.5 -32
c-52 0 -92.167 11.167 -120.5 33.5s-42.5 50.166 -42.5 83.499c0 49.333 25 87.666 75 114.999c-40 20.667 -60 50 -60 88zM740 192.002l-58.999 19.001c-22.667 -10 -40.167 -23.833 -52.5 -41.5s-18.5 -36.167 -18.5 -55.5c0 -26.667 11.167 -48.167 33.5 -64.5
s54.166 -24.5 95.499 -24.5c38.667 0 69.334 7.16699 92.001 21.5s34 32.166 34 53.499c0 11.333 -2.66699 21.5 -8 30.5s-11 16.167 -17 21.5s-15.833 10.833 -29.5 16.5s-24.334 9.66699 -32.001 12zM851.001 300.003c0 22.667 -10.168 42.167 -30.501 58.5
s-48.166 24.5 -83.499 24.5c-34 0 -61.167 -6.66699 -81.5 -20s-30.5 -30 -30.5 -50c0 -33.333 22.667 -58 68 -74c6 -2.66699 21.333 -7.66699 46 -15c20.667 -5.33301 38.667 -10.333 54 -15c38.667 22.667 58 53 58 91zM250 -10.9971h-22l456 722h22zM76 680.003
l238.999 0.00195312v-32h-207l-9 -144c28 8.66699 56 13 84 13c42.667 0 78.667 -10.333 108 -31s44 -52.334 44 -95.001c0 -38.667 -14.167 -69.334 -42.5 -92.001s-65.166 -34 -110.499 -34c-50.667 0 -94 9.33301 -130 28v32c36 -18.667 78.333 -28 127 -28
c36.667 0 66 8.33301 88 25s33 39.667 33 69c0 62.667 -43 94 -129 94c-37.333 0 -73.333 -6.33301 -108 -19z" />
    <glyph glyph-name="seveneighths" unicode="&#x215e;" horiz-adv-x="837" 
d="M145 -11h-22l456 722h22zM488 313c0 27.333 12.667 51.168 38 71.501s61.333 30.5 108 30.5c44 0 79.333 -10.833 106 -32.5s40.667 -47.167 42 -76.5c0 -46.667 -21 -82.667 -63 -108c51.333 -22.667 77 -55 77 -97c0 -29.333 -13.667 -54.666 -41 -75.999
s-67 -32 -119 -32s-92.167 11.167 -120.5 33.5s-42.5 50.166 -42.5 83.499c0 49.333 25 87.666 75 114.999c-40 20.667 -60 50 -60 88zM637 192.002c-36.667 12 -56.332 18.334 -58.999 19.001c-22.667 -10 -40.167 -23.833 -52.5 -41.5s-18.5 -36.167 -18.5 -55.5
c0 -26.667 11.167 -48.167 33.5 -64.5s54.166 -24.5 95.499 -24.5c38.667 0 69.334 7.16699 92.001 21.5s34 32.166 34 53.499c0 11.333 -2.66699 21.5 -8 30.5s-11 16.167 -17 21.5s-15.833 10.833 -29.5 16.5s-24.334 9.66699 -32.001 12zM748.002 300.003
c0 22.667 -10.168 42.167 -30.501 58.5s-48.166 24.5 -83.499 24.5c-34.667 0 -62 -6.66699 -82 -20s-30 -30 -30 -50c0 -33.333 22.667 -58 68 -74c6 -2.66699 21.333 -7.66699 46 -15c20.667 -5.33301 38.667 -10.333 54 -15c38.667 22.667 58 53 58 91zM145.001 272.003
h-36l166 376h-237v32h275v-30z" />
    <glyph glyph-name="partialdiff" unicode="&#x2202;" horiz-adv-x="594" 
d="M538 267c0 -85.333 -22.666 -152.997 -67.999 -202.997s-105 -75 -179 -75c-70.667 0 -129 21.5 -175 64.5s-69 99.5 -69 169.5c0 65.333 22.667 119.166 68 161.499s99.666 63.5 162.999 63.5c53.333 0 101.333 -14.667 144 -44s69.667 -70.666 81 -123.999
c0 10 -0.333008 17.667 -1 23c-4 61.333 -18 115.666 -42 162.999s-54.667 85.166 -92 113.499s-78.5 49.5 -123.5 63.5s-92.833 21 -143.5 21v36c57.333 0 111.5 -8.66699 162.5 -26s97.333 -43 139 -77s74.667 -79.333 99 -136s36.5 -121.334 36.5 -194.001z
M85.001 223.003c0 -60 19 -107.834 57 -143.501s87.667 -53.5 149 -53.5c55.333 0 100.5 15.667 135.5 47s57.5 74 67.5 128c-1.33301 66 -22.5 117.667 -63.5 155s-90.167 56 -147.5 56c-56 0 -103 -17.667 -141 -53s-57 -80.666 -57 -135.999z" />
    <glyph glyph-name="emptyset" unicode="&#x2205;" horiz-adv-x="820" 
d="M723 700l-71 -83c79.333 -72 119 -161 119 -267c0 -99.333 -35.333 -184.333 -106 -255s-155.667 -106 -255 -106c-84.667 0 -160.334 27 -227.001 81l-60 -70h-26l71 83c-37.333 33.333 -66.5 73.333 -87.5 120s-31.5 95.667 -31.5 147c0 99.333 35.333 184.333 106 255
s155.667 106 255 106c84.667 0 160.334 -27 227.001 -81l60 70h26zM411 688c-93.333 0 -173.001 -33 -239.001 -99s-99 -145.667 -99 -239c0 -48.667 9.83301 -94.667 29.5 -138s46.834 -80.333 81.501 -111l439 512c-62 50 -132.667 75 -212 75zM198.999 88
c62.667 -50.667 133.334 -76 212.001 -76c92.667 0 172.167 33 238.5 99s99.5 145.667 99.5 239c0 48 -9.83301 93.833 -29.5 137.5s-46.834 81.167 -81.501 112.5z" />
    <glyph glyph-name="product" unicode="&#x220f;" horiz-adv-x="730" 
d="M178 -220h-40v882h-101v38h656v-38h-101v-882h-40v882h-374v-882z" />
    <glyph glyph-name="summation" unicode="&#x2211;" horiz-adv-x="562" 
d="M509 0h-469v24l284 326l-284 326v24h466v-38h-402l267 -307v-10l-267 -307h405v-38z" />
    <glyph glyph-name="minus" unicode="&#x2212;" horiz-adv-x="515" 
d="M442 330h-369v36h369v-36z" />
    <glyph glyph-name="radical" unicode="&#x221a;" horiz-adv-x="718" 
d="M349 0h-36l-188 442h-95v38h120l181 -434l343 734h42z" />
    <glyph glyph-name="infinity" unicode="&#x221e;" horiz-adv-x="827" 
d="M414 389c19.333 29.333 36.167 52.5 50.5 69.5s34.166 33 59.499 48s53 22.5 83 22.5c46 0 84.833 -15.5 116.5 -46.5s47.5 -72.5 47.5 -124.5s-15.833 -93.5 -47.5 -124.5s-70.5 -46.5 -116.5 -46.5c-22.667 0 -43.667 3.66699 -63 11s-37 18.5 -53 33.5
s-29.5 29.333 -40.5 43s-23.5 31.167 -37.5 52.5c-18.667 -29.333 -35.167 -52.5 -49.5 -69.5s-34.166 -33 -59.499 -48s-53 -22.5 -83 -22.5c-46.667 0 -85.834 15.5 -117.501 46.5s-47.5 72.5 -47.5 124.5s15.833 93.5 47.5 124.5s70.834 46.5 117.501 46.5
c42.667 0 78 -12 106 -36s57 -58.667 87 -104zM393.001 357c-19.333 30 -35 52.999 -47 68.999s-28.833 31.167 -50.5 45.5s-45.167 21.5 -70.5 21.5c-37.333 0 -68.5 -12 -93.5 -36s-37.5 -57 -37.5 -99s12.5 -75 37.5 -99s56.167 -36 93.5 -36c19.333 0 37 3.33301 53 10
s31.167 17.334 45.5 32.001s26 28.167 35 40.5s20.5 29.5 34.5 51.5zM733.001 357.999c0 42.667 -12.501 75.833 -37.501 99.5s-56.5 35.5 -94.5 35.5c-18.667 0 -36 -3.33301 -52 -10s-31.167 -17.334 -45.5 -32.001s-26 -28.167 -35 -40.5s-20.5 -29.5 -34.5 -51.5
c19.333 -30 35 -53 47 -69s28.833 -31.167 50.5 -45.5s44.834 -21.5 69.501 -21.5c38 0 69.5 11.833 94.5 35.5s37.5 56.834 37.5 99.501z" />
    <glyph glyph-name="integral" unicode="&#x222b;" horiz-adv-x="396" 
d="M179 656c0 47.333 13.501 81.665 40.501 102.998s58.833 32 95.5 32c27.333 0 51 -4.66699 71 -14v-36c-19.333 8.66699 -41.666 13 -66.999 13c-28 0 -52 -7.66699 -72 -23s-30 -40.666 -30 -75.999v-751c0 -47.333 -13.5 -81.666 -40.5 -102.999s-58.833 -32 -95.5 -32
c-24.667 0 -48.334 4.66699 -71.001 14v36c19.333 -8.66699 40.666 -13 63.999 -13c70 0 105 33 105 99v751z" />
    <glyph glyph-name="approxequal" unicode="&#x2248;" horiz-adv-x="582" 
d="M509 471c0.666992 -26.667 -7.16406 -48.501 -23.4971 -65.501s-38.166 -25.5 -65.499 -25.5c-24.667 0 -66.667 11.167 -126 33.5s-101 33.5 -125 33.5c-18 0 -31.833 -5 -41.5 -15s-14.167 -23.333 -13.5 -40h-37c-0.666992 27.333 7.16602 49.333 23.499 66
s38.166 25 65.499 25c25.333 0 67.333 -11 126 -33s100 -33 124 -33c17.333 0 31.166 4.83301 41.499 14.5s15.166 22.834 14.499 39.501h37zM509.002 326.999c0.666992 -27.333 -6.99609 -49.5 -22.9961 -66.5s-38 -25.5 -66 -25.5c-24.667 0 -66.667 11.167 -126 33.5
s-101 33.5 -125 33.5c-18 0 -31.833 -5 -41.5 -15s-14.167 -23.333 -13.5 -40h-37c-0.666992 27.333 7.16602 49.333 23.499 66s38.166 25 65.499 25c25.333 0 67.333 -11 126 -33s100 -33 124 -33c17.333 0 31.166 5 41.499 15s15.166 23.333 14.499 40h37z" />
    <glyph glyph-name="notequal" unicode="&#x2260;" horiz-adv-x="543" 
d="M158 140h-35l63 101h-113v37h135l92 144h-227v37h249l63 101h36l-64 -101h113v-37h-135l-92 -144h227v-37h-248z" />
    <glyph glyph-name="lessequal" unicode="&#x2264;" horiz-adv-x="514" 
d="M434 219v-38l-361 159v39l361 159v-38l-322 -140zM434 0h-361v36h361v-36z" />
    <glyph glyph-name="greaterequal" unicode="&#x2265;" horiz-adv-x="514" 
d="M441 340l-361 -159v38l322 141l-322 140v38l361 -159v-39zM441 0h-361v36h361v-36z" />
    <glyph glyph-name="lozenge" unicode="&#x25ca;" horiz-adv-x="547" 
d="M295 0h-43l-213 350l213 350h43l213 -350zM83 350l191 -311l192 311l-192 311z" />
    <glyph glyph-name=".null" horiz-adv-x="0" 
 />
    <glyph glyph-name="nonmarkingreturn" horiz-adv-x="333" 
 />
    <glyph glyph-name="i.loclTRK" horiz-adv-x="208" 
d="M85 480h38v-480h-38v480zM66 600c0 10.667 3.5 19.167 10.5 25.5s15.5 9.5 25.5 9.5s18.5 -3.16699 25.5 -9.5s10.5 -14.833 10.5 -25.5s-3.5 -19.334 -10.5 -26.001s-15.5 -10 -25.5 -10s-18.5 3.33301 -25.5 10s-10.5 15.334 -10.5 26.001z" />
    <glyph glyph-name="a.ss01" horiz-adv-x="615" 
d="M499 114c-20.667 -37.333 -49.167 -67.5 -85.5 -90.5s-77.833 -34.5 -124.5 -34.5c-69.333 0 -127 23.167 -173 69.5s-69 106.833 -69 181.5s23 135.167 69 181.5s103.667 69.5 173 69.5c46.667 0 88.167 -11.5 124.5 -34.5s64.833 -53.167 85.5 -90.5v114h35v-480h-35
v114zM85 240c0 -66 19.667 -118.333 59 -157s88.666 -58 147.999 -58c48 0 90.333 13.667 127 41s62.334 62 77.001 104v140c-14.667 42 -40.334 76.667 -77.001 104s-79 41 -127 41c-59.333 0 -108.666 -19.5 -147.999 -58.5s-59 -91.167 -59 -156.5z" />
    <glyph glyph-name="aacute.ss01" horiz-adv-x="615" 
d="M499 114c-20.667 -37.333 -49.167 -67.5 -85.5 -90.5s-77.833 -34.5 -124.5 -34.5c-69.333 0 -127 23.167 -173 69.5s-69 106.833 -69 181.5s23 135.167 69 181.5s103.667 69.5 173 69.5c46.667 0 88.167 -11.5 124.5 -34.5s64.833 -53.167 85.5 -90.5v114h35v-480h-35
v114zM85 240c0 -66 19.667 -118.333 59 -157s88.666 -58 147.999 -58c48 0 90.333 13.667 127 41s62.334 62 77.001 104v140c-14.667 42 -40.334 76.667 -77.001 104s-79 41 -127 41c-59.333 0 -108.666 -19.5 -147.999 -58.5s-59 -91.167 -59 -156.5zM307 556h-43l89 137
h47z" />
    <glyph glyph-name="abreve.ss01" horiz-adv-x="615" 
d="M499 114c-20.667 -37.333 -49.167 -67.5 -85.5 -90.5s-77.833 -34.5 -124.5 -34.5c-69.333 0 -127 23.167 -173 69.5s-69 106.833 -69 181.5s23 135.167 69 181.5s103.667 69.5 173 69.5c46.667 0 88.167 -11.5 124.5 -34.5s64.833 -53.167 85.5 -90.5v114h35v-480h-35
v114zM85 240c0 -66 19.667 -118.333 59 -157s88.666 -58 147.999 -58c48 0 90.333 13.667 127 41s62.334 62 77.001 104v140c-14.667 42 -40.334 76.667 -77.001 104s-79 41 -127 41c-59.333 0 -108.666 -19.5 -147.999 -58.5s-59 -91.167 -59 -156.5zM436 600
c-34 -28 -76.667 -42 -128 -42s-94 14 -128 42v39c37.333 -29.333 80 -44 128 -44s90.667 14.667 128 44v-39z" />
    <glyph glyph-name="acircumflex.ss01" horiz-adv-x="615" 
d="M499 114c-20.667 -37.333 -49.167 -67.5 -85.5 -90.5s-77.833 -34.5 -124.5 -34.5c-69.333 0 -127 23.167 -173 69.5s-69 106.833 -69 181.5s23 135.167 69 181.5s103.667 69.5 173 69.5c46.667 0 88.167 -11.5 124.5 -34.5s64.833 -53.167 85.5 -90.5v114h35v-480h-35
v114zM85 240c0 -66 19.667 -118.333 59 -157s88.666 -58 147.999 -58c48 0 90.333 13.667 127 41s62.334 62 77.001 104v140c-14.667 42 -40.334 76.667 -77.001 104s-79 41 -127 41c-59.333 0 -108.666 -19.5 -147.999 -58.5s-59 -91.167 -59 -156.5zM293 687h33l128 -131
h-44l-100 101l-101 -101h-44z" />
    <glyph glyph-name="adieresis.ss01" horiz-adv-x="615" 
d="M499 114c-20.667 -37.333 -49.167 -67.5 -85.5 -90.5s-77.833 -34.5 -124.5 -34.5c-69.333 0 -127 23.167 -173 69.5s-69 106.833 -69 181.5s23 135.167 69 181.5s103.667 69.5 173 69.5c46.667 0 88.167 -11.5 124.5 -34.5s64.833 -53.167 85.5 -90.5v114h35v-480h-35
v114zM85 240c0 -66 19.667 -118.333 59 -157s88.666 -58 147.999 -58c48 0 90.333 13.667 127 41s62.334 62 77.001 104v140c-14.667 42 -40.334 76.667 -77.001 104s-79 41 -127 41c-59.333 0 -108.666 -19.5 -147.999 -58.5s-59 -91.167 -59 -156.5zM439 616
c0 -8.66699 -3 -16 -9 -22s-13.333 -9 -22 -9s-16 3 -22 9s-9 13.333 -9 22c0 8 3 15.167 9 21.5s13.333 9.5 22 9.5s16 -3.16699 22 -9.5s9 -13.5 9 -21.5zM238 616c0 -8.66699 -3 -16 -9 -22s-13.333 -9 -22 -9s-16 3 -22 9s-9 13.333 -9 22c0 8 3 15.167 9 21.5
s13.333 9.5 22 9.5s16 -3.16699 22 -9.5s9 -13.5 9 -21.5z" />
    <glyph glyph-name="agrave.ss01" horiz-adv-x="615" 
d="M499 114c-20.667 -37.333 -49.167 -67.5 -85.5 -90.5s-77.833 -34.5 -124.5 -34.5c-69.333 0 -127 23.167 -173 69.5s-69 106.833 -69 181.5s23 135.167 69 181.5s103.667 69.5 173 69.5c46.667 0 88.167 -11.5 124.5 -34.5s64.833 -53.167 85.5 -90.5v114h35v-480h-35
v114zM85 240c0 -66 19.667 -118.333 59 -157s88.666 -58 147.999 -58c48 0 90.333 13.667 127 41s62.334 62 77.001 104v140c-14.667 42 -40.334 76.667 -77.001 104s-79 41 -127 41c-59.333 0 -108.666 -19.5 -147.999 -58.5s-59 -91.167 -59 -156.5zM349 556h-42l-94 137
h48z" />
    <glyph glyph-name="amacron.ss01" horiz-adv-x="615" 
d="M499 114c-20.667 -37.333 -49.167 -67.5 -85.5 -90.5s-77.833 -34.5 -124.5 -34.5c-69.333 0 -127 23.167 -173 69.5s-69 106.833 -69 181.5s23 135.167 69 181.5s103.667 69.5 173 69.5c46.667 0 88.167 -11.5 124.5 -34.5s64.833 -53.167 85.5 -90.5v114h35v-480h-35
v114zM85 240c0 -66 19.667 -118.333 59 -157s88.666 -58 147.999 -58c48 0 90.333 13.667 127 41s62.334 62 77.001 104v140c-14.667 42 -40.334 76.667 -77.001 104s-79 41 -127 41c-59.333 0 -108.666 -19.5 -147.999 -58.5s-59 -91.167 -59 -156.5zM176 620h264v-36h-264
v36z" />
    <glyph glyph-name="aogonek.ss01" horiz-adv-x="615" 
d="M534 480l0.000976562 -480.001c-31.333 -22 -57 -46.167 -77 -72.5s-30 -51.166 -30 -74.499c0 -16 5 -28.667 15 -38s23.667 -14 41 -14c18.667 0 35.667 3.33301 51 10v-31c-16.667 -7.33301 -36.334 -11 -59.001 -11c-26 -0.666992 -46.5 6 -61.5 20
s-22.5 33 -22.5 57c0 56 36 111 108 165v103c-20.667 -37.333 -49.167 -67.5 -85.5 -90.5s-77.833 -34.5 -124.5 -34.5c-69.333 0 -127 23.167 -173 69.5s-69 106.833 -69 181.5s23 135.167 69 181.5s103.667 69.5 173 69.5c46.667 0 88.167 -11.5 124.5 -34.5
s64.833 -53.167 85.5 -90.5v114h35zM292.001 24.999c48 0 90.333 13.667 127 41s62.334 62 77.001 104v140c-14.667 42 -40.334 76.667 -77.001 104s-79 41 -127 41c-59.333 0 -108.666 -19.5 -147.999 -58.5s-59 -91.167 -59 -156.5c0 -66 19.667 -118.333 59 -157
s88.666 -58 147.999 -58z" />
    <glyph glyph-name="aring.ss01" horiz-adv-x="615" 
d="M499 114c-20.667 -37.333 -49.167 -67.5 -85.5 -90.5s-77.833 -34.5 -124.5 -34.5c-69.333 0 -127 23.167 -173 69.5s-69 106.833 -69 181.5s23 135.167 69 181.5s103.667 69.5 173 69.5c46.667 0 88.167 -11.5 124.5 -34.5s64.833 -53.167 85.5 -90.5v114h35v-480h-35
v114zM85 240c0 -66 19.667 -118.333 59 -157s88.666 -58 147.999 -58c48 0 90.333 13.667 127 41s62.334 62 77.001 104v140c-14.667 42 -40.334 76.667 -77.001 104s-79 41 -127 41c-59.333 0 -108.666 -19.5 -147.999 -58.5s-59 -91.167 -59 -156.5zM400 624
c0 -26.667 -9.16699 -48.334 -27.5 -65.001s-39.833 -25 -64.5 -25c-25.333 0 -47.166 8.33301 -65.499 25s-27.5 38.334 -27.5 65.001c0 26 9.16699 47.167 27.5 63.5s40.166 24.5 65.499 24.5c24.667 0 46.167 -8.16699 64.5 -24.5s27.5 -37.5 27.5 -63.5zM246 623
c0 -18 6.16699 -32.667 18.5 -44s26.833 -17 43.5 -17s31.167 5.66699 43.5 17s18.5 26 18.5 44s-6.16699 32.667 -18.5 44s-26.833 17 -43.5 17s-31.167 -5.66699 -43.5 -17s-18.5 -26 -18.5 -44z" />
    <glyph glyph-name="atilde.ss01" horiz-adv-x="615" 
d="M499 114c-20.667 -37.333 -49.167 -67.5 -85.5 -90.5s-77.833 -34.5 -124.5 -34.5c-69.333 0 -127 23.167 -173 69.5s-69 106.833 -69 181.5s23 135.167 69 181.5s103.667 69.5 173 69.5c46.667 0 88.167 -11.5 124.5 -34.5s64.833 -53.167 85.5 -90.5v114h35v-480h-35
v114zM85 240c0 -66 19.667 -118.333 59 -157s88.666 -58 147.999 -58c48 0 90.333 13.667 127 41s62.334 62 77.001 104v140c-14.667 42 -40.334 76.667 -77.001 104s-79 41 -127 41c-59.333 0 -108.666 -19.5 -147.999 -58.5s-59 -91.167 -59 -156.5zM457 643
c2.66699 -24.667 -1.83008 -44.332 -13.4971 -58.999s-28.167 -22 -49.5 -22c-20 0 -49 8.83301 -87 26.5s-63.333 26.5 -76 26.5s-22.334 -4.33301 -29.001 -13s-9.33398 -20.334 -8.00098 -35.001h-34c-3.33301 24 1.16699 43.667 13.5 59s28.833 23 49.5 23
c19.333 0 48.166 -8.83301 86.499 -26.5s63.833 -26.5 76.5 -26.5c28 0 40.333 15.667 37 47h34z" />
    <glyph glyph-name="ae.ss01" horiz-adv-x="999" 
d="M499 114c-20.667 -37.333 -49.1699 -67.502 -85.5029 -90.502s-77.833 -34.5 -124.5 -34.5c-69.333 0 -127 23.167 -173 69.5s-69 106.833 -69 181.5s23 135.167 69 181.5s103.667 69.5 173 69.5c46.667 0 88.167 -11.5 124.5 -34.5s64.833 -53.167 85.5 -90.5v114h35
v-131c16.667 44.667 43.667 79.5 81 104.5s78.666 37.5 123.999 37.5c56 0 101.833 -14.667 137.5 -44s59 -64.166 70 -104.499s12.5 -82.5 4.5 -126.5h-413c2.66699 -63.333 25.834 -111 69.501 -143s96.834 -48 159.501 -48c60 0 111.667 12.667 155 38v-36
c-45.333 -25.333 -98 -38 -158 -38c-53.333 0 -100.666 11.833 -141.999 35.5s-70.666 58.834 -87.999 105.501v-130h-35v114zM84.9971 239.998c0 -66 19.667 -118.333 59 -157s88.666 -58 147.999 -58c48 0 90.333 13.667 127 41s62.334 62 77.001 104v140
c-14.667 42 -40.334 76.667 -77.001 104s-79 41 -127 41c-59.333 0 -108.666 -19.5 -147.999 -58.5s-59 -91.167 -59 -156.5zM736.997 454.998c-54.667 0 -101.001 -18 -139.001 -54s-58 -86.333 -60 -151h380c2.66699 23.333 1.33398 46.5 -3.99902 69.5
s-14.666 44.833 -27.999 65.5s-32.833 37.5 -58.5 50.5s-55.834 19.5 -90.501 19.5z" />
    <glyph glyph-name="y.ss01" 
d="M496 -6c-0.666992 -40 -8.00195 -74.998 -22.002 -104.998s-32.667 -53.333 -56 -70s-48.333 -29.167 -75 -37.5s-54.667 -12.5 -84 -12.5c-68 0 -122.667 12.667 -164 38v35c40.667 -24.667 94 -37 160 -37c56 0 103.833 15.167 143.5 45.5s59.5 78.166 59.5 143.499
v101c-20 -28.667 -46.5 -53.5 -79.5 -74.5s-70.833 -31.5 -113.5 -31.5c-56.667 0 -102.5 17.667 -137.5 53s-52.5 83 -52.5 143v295h38v-291c0 -52 14.167 -92.333 42.5 -121s65.833 -43 112.5 -43c42.667 0 80.334 11.667 113.001 35s58.334 51.666 77.001 84.999v335h38
v-486z" />
    <glyph glyph-name="yacute.ss01" 
d="M496 -6c-0.666992 -40 -8.00195 -74.998 -22.002 -104.998s-32.667 -53.333 -56 -70s-48.333 -29.167 -75 -37.5s-54.667 -12.5 -84 -12.5c-68 0 -122.667 12.667 -164 38v35c40.667 -24.667 94 -37 160 -37c56 0 103.833 15.167 143.5 45.5s59.5 78.166 59.5 143.499
v101c-20 -28.667 -46.5 -53.5 -79.5 -74.5s-70.833 -31.5 -113.5 -31.5c-56.667 0 -102.5 17.667 -137.5 53s-52.5 83 -52.5 143v295h38v-291c0 -52 14.167 -92.333 42.5 -121s65.833 -43 112.5 -43c42.667 0 80.334 11.667 113.001 35s58.334 51.666 77.001 84.999v335h38
v-486zM290.998 556.002h-43l89 137h47z" />
    <glyph glyph-name="ycircumflex.ss01" 
d="M496 -6c-0.666992 -40 -8.00195 -74.998 -22.002 -104.998s-32.667 -53.333 -56 -70s-48.333 -29.167 -75 -37.5s-54.667 -12.5 -84 -12.5c-68 0 -122.667 12.667 -164 38v35c40.667 -24.667 94 -37 160 -37c56 0 103.833 15.167 143.5 45.5s59.5 78.166 59.5 143.499
v101c-20 -28.667 -46.5 -53.5 -79.5 -74.5s-70.833 -31.5 -113.5 -31.5c-56.667 0 -102.5 17.667 -137.5 53s-52.5 83 -52.5 143v295h38v-291c0 -52 14.167 -92.333 42.5 -121s65.833 -43 112.5 -43c42.667 0 80.334 11.667 113.001 35s58.334 51.666 77.001 84.999v335h38
v-486zM276.998 687.002h33l128 -131h-44l-100 101l-101 -101h-44z" />
    <glyph glyph-name="ydieresis.ss01" 
d="M496 -6c-0.666992 -40 -8.00195 -74.998 -22.002 -104.998s-32.667 -53.333 -56 -70s-48.333 -29.167 -75 -37.5s-54.667 -12.5 -84 -12.5c-68 0 -122.667 12.667 -164 38v35c40.667 -24.667 94 -37 160 -37c56 0 103.833 15.167 143.5 45.5s59.5 78.166 59.5 143.499
v101c-20 -28.667 -46.5 -53.5 -79.5 -74.5s-70.833 -31.5 -113.5 -31.5c-56.667 0 -102.5 17.667 -137.5 53s-52.5 83 -52.5 143v295h38v-291c0 -52 14.167 -92.333 42.5 -121s65.833 -43 112.5 -43c42.667 0 80.334 11.667 113.001 35s58.334 51.666 77.001 84.999v335h38
v-486zM422.998 616.002c0 -8.66699 -3 -16 -9 -22s-13.333 -9 -22 -9s-16 3 -22 9s-9 13.333 -9 22c0 8 3 15.167 9 21.5s13.333 9.5 22 9.5s16 -3.16699 22 -9.5s9 -13.5 9 -21.5zM221.998 616.002c0 -8.66699 -3 -16 -9 -22s-13.333 -9 -22 -9s-16 3 -22 9
s-9 13.333 -9 22c0 8 3 15.167 9 21.5s13.333 9.5 22 9.5s16 -3.16699 22 -9.5s9 -13.5 9 -21.5z" />
    <glyph glyph-name="ygrave.ss01" 
d="M496 -6c-0.666992 -40 -8.00195 -74.998 -22.002 -104.998s-32.667 -53.333 -56 -70s-48.333 -29.167 -75 -37.5s-54.667 -12.5 -84 -12.5c-68 0 -122.667 12.667 -164 38v35c40.667 -24.667 94 -37 160 -37c56 0 103.833 15.167 143.5 45.5s59.5 78.166 59.5 143.499
v101c-20 -28.667 -46.5 -53.5 -79.5 -74.5s-70.833 -31.5 -113.5 -31.5c-56.667 0 -102.5 17.667 -137.5 53s-52.5 83 -52.5 143v295h38v-291c0 -52 14.167 -92.333 42.5 -121s65.833 -43 112.5 -43c42.667 0 80.334 11.667 113.001 35s58.334 51.666 77.001 84.999v335h38
v-486zM332.998 556.002h-42l-94 137h48z" />
    <glyph glyph-name="f_b" horiz-adv-x="956" 
d="M460 370c20 35.333 48.1689 64.333 84.502 87s78.166 34 125.499 34c68.667 0 125.667 -23.167 171 -69.5s68 -106.833 68 -181.5s-22.667 -135.167 -68 -181.5s-102.333 -69.5 -171 -69.5c-47.333 0 -89.333 11.5 -126 34.5s-65.667 53.167 -87 90.5v-114h-35v640
c-43.333 23.333 -91.333 35 -144 35c-40 0 -72.167 -10.667 -96.5 -32s-36.5 -51.333 -36.5 -90v-73h184v-36h-184v-444h-38v444h-84v36h84v73c0 50.667 16 89.667 48 117s72.667 41 122 41c51.333 0 99.666 -11.667 144.999 -35v16l38 11v-333zM460.002 170
c15.333 -42 41.5 -76.667 78.5 -104s79.5 -41 127.5 -41c59.333 0 108.333 19.5 147 58.5s58 91.167 58 156.5c0 66 -19.333 118.333 -58 157s-87.667 58 -147 58c-48 0 -90.5 -13.667 -127.5 -41s-63.167 -62 -78.5 -104v-140z" />
    <glyph glyph-name="f_f_b" horiz-adv-x="1266" 
d="M770 370c20 35.333 48.1689 64.334 84.502 87.001s78.166 34 125.499 34c68.667 0 125.667 -23.167 171 -69.5s68 -106.833 68 -181.5s-22.667 -135.167 -68 -181.5s-102.333 -69.5 -171 -69.5c-47.333 0 -89.333 11.5 -126 34.5s-65.667 53.167 -87 90.5v-114h-35v644
c-43.333 23.333 -91.333 35 -144 35c-40 0 -72.167 -10.833 -96.5 -32.5s-36.5 -52.834 -36.5 -93.501v-73h184v-36h-184v-444h-38v444h-272v-444h-38v444h-84v36h84v57c0 50.667 16.333 89.667 49 117s75 41 127 41c52.667 0 105.667 -17 159 -51
c28.667 47.333 77 71 145 71c51.333 0 99.666 -11.667 144.999 -35v16l38 11v-337zM417.002 480.001v73c0 20.667 3.33301 41 10 61c-43.333 30 -91 45 -143 45c-42.667 0 -76.5 -10.667 -101.5 -32s-37.5 -51.333 -37.5 -90v-57h272zM770.002 170.001
c15.333 -42 41.5 -76.667 78.5 -104s79.5 -41 127.5 -41c59.333 0 108.333 19.5 147 58.5s58 91.167 58 156.5c0 66 -19.333 118.333 -58 157s-87.667 58 -147 58c-48 0 -90.5 -13.667 -127.5 -41s-63.167 -62 -78.5 -104v-140z" />
    <glyph glyph-name="f_f_h" horiz-adv-x="1228" 
d="M770 385c20 28.667 46.5029 53.5 79.5029 74.5s70.833 31.5 113.5 31.5c54.667 0 100 -17.833 136 -53.5s54 -83.167 54 -142.5v-295h-38v291c0 52 -14.5 92.333 -43.5 121s-66.167 43 -111.5 43c-42.667 0 -80.334 -11.667 -113.001 -35
s-58.334 -51.666 -77.001 -84.999v-335h-38v644c-43.333 23.333 -91.333 35 -144 35c-40 0 -72.167 -10.833 -96.5 -32.5s-36.5 -52.834 -36.5 -93.501v-73h184v-36h-184v-444h-38v444h-272v-444h-38v444h-84v36h84v57c0 50.667 16.333 89.667 49 117s75 41 127 41
c52.667 0 105.667 -17 159 -51c28.667 47.333 77 71 145 71c51.333 0 99.666 -11.667 144.999 -35v16l38 11v-322zM417.003 480v73c0 20.667 3.33301 41 10 61c-43.333 30 -91 45 -143 45c-42.667 0 -76.5 -10.667 -101.5 -32s-37.5 -51.333 -37.5 -90v-57h272z" />
    <glyph glyph-name="f_f_j" horiz-adv-x="845" 
d="M760 -109c0 -43.333 -11.667 -74.5 -35 -93.5s-52.333 -28.5 -87 -28.5c-24 0 -47.333 4 -70 12v36c18.667 -8 39 -12 61 -12c62 0 93 30 93 90v549h-267v-444h-38v444h-272v-444h-38v444h-84v36h84v57c0 50.667 16.333 89.667 49 117s75 41 127 41
c54 0 106.333 -16.667 157 -50c30.667 46.667 79.667 70 147 70c52 0 103 -14.333 153 -43v-39c-48 30.667 -98.667 46 -152 46c-40 0 -72.167 -10.5 -96.5 -31.5s-36.5 -50.5 -36.5 -88.5v-79h305v-589zM145 537v-57.001h272v79c0 20.667 3 39.334 9 56.001
c-44 29.333 -91.333 44 -142 44c-42.667 0 -76.5 -10.667 -101.5 -32s-37.5 -51.333 -37.5 -90z" />
    <glyph glyph-name="f_f_k" horiz-adv-x="1149" 
d="M1118 480l-194.999 -233.999l222 -246h-46l-209 229h-120v-229h-38v644c-43.333 23.333 -91.333 35 -144 35c-40 0 -72.167 -10.833 -96.5 -32.5s-36.5 -52.834 -36.5 -93.501v-73h184v-36h-184v-444h-38v444h-272v-444h-38v444h-84v36h84v57
c0 50.667 16.333 89.667 49 117s75 41 127 41c52.667 0 105.667 -17 159 -51c28.667 47.333 77 71 145 71c51.333 0 99.666 -11.667 144.999 -35v16l38 11v-442h123l180 215h45zM417.001 480.001v73c0 20.667 3.33301 41 10 61c-43.333 30 -91 45 -143 45
c-42.667 0 -76.5 -10.667 -101.5 -32s-37.5 -51.333 -37.5 -90v-57h272z" />
    <glyph glyph-name="f_h" horiz-adv-x="918" 
d="M460 385c20 28.667 46.5029 53.499 79.5029 74.499s70.833 31.5 113.5 31.5c54.667 0 100 -17.833 136 -53.5s54 -83.167 54 -142.5v-295h-38v291c0 52 -14.5 92.333 -43.5 121s-66.167 43 -111.5 43c-42.667 0 -80.334 -11.667 -113.001 -35
s-58.334 -51.666 -77.001 -84.999v-335h-38v640c-43.333 23.333 -91.333 35 -144 35c-40 0 -72.167 -10.667 -96.5 -32s-36.5 -51.333 -36.5 -90v-73h184v-36h-184v-444h-38v444h-84v36h84v73c0 50.667 16 89.667 48 117s72.667 41 122 41
c51.333 0 99.666 -11.667 144.999 -35v16l38 11v-318z" />
    <glyph glyph-name="f_i" horiz-adv-x="535" 
d="M145 480h305v-480h-38v444h-267v-444h-38v444h-84v36h84v73c0 50.667 16 89.667 48 117s72.667 41 122 41c52 0 103 -14.333 153 -43v-39c-48 30.667 -98.667 46 -152 46c-40 0 -72.167 -10.667 -96.5 -32s-36.5 -51.333 -36.5 -90v-73z" />
    <glyph glyph-name="f_j" horiz-adv-x="535" 
d="M145 480h305v-589c0 -43.333 -11.667 -74.5 -35 -93.5s-52.333 -28.5 -87 -28.5c-24 0 -47.333 4 -70 12v36c18.667 -8 39 -12 61 -12c62 0 93 30 93 90v549h-267v-444h-38v444h-84v36h84v73c0 50.667 16 89.667 48 117s72.667 41 122 41c52 0 103 -14.333 153 -43v-39
c-48 30.667 -98.667 46 -152 46c-40 0 -72.167 -10.667 -96.5 -32s-36.5 -51.333 -36.5 -90v-73z" />
    <glyph glyph-name="f_k" horiz-adv-x="839" 
d="M808 480l-194.999 -234l222 -246h-46l-209 229h-120v-229h-38v640c-43.333 23.333 -91.333 35 -144 35c-40 0 -72.167 -10.667 -96.5 -32s-36.5 -51.333 -36.5 -90v-73h184v-36h-184v-444h-38v444h-84v36h84v73c0 50.667 16 89.667 48 117s72.667 41 122 41
c51.333 0 99.666 -11.667 144.999 -35v16l38 11v-438h123l180 215h45z" />
    <glyph glyph-name="f_l" horiz-adv-x="545" 
d="M422 676l0.000976562 16l38 11v-703h-38v640c-43.333 23.333 -91.333 35 -144 35c-40 0 -72.167 -10.667 -96.5 -32s-36.5 -51.333 -36.5 -90v-73h184v-36h-184v-444h-38v444h-84v36h84v73c0 50.667 16 89.667 48 117s72.667 41 122 41
c51.333 0 99.666 -11.667 144.999 -35z" />
    <glyph glyph-name="uni0414.loclBGR" horiz-adv-x="792" 
d="M65 -174h-38v212h73l273 662h46l273 -662h73v-212h-38v174h-662v-174zM397 657l-254 -619h507z" />
    <glyph glyph-name="uni041B.loclBGR" horiz-adv-x="675" 
d="M317 700h41l302 -700h-43l-280 655l-279 -655h-43z" />
    <glyph glyph-name="uni0424.loclBGR" horiz-adv-x="890" 
d="M465 -106h-40v98c-112.667 2.66699 -203.167 37.5 -271.5 104.5s-102.5 151.5 -102.5 253.5s34.167 186.5 102.5 253.5s158.833 101.833 271.5 104.5v98h40v-98c112.667 -2.66699 203.167 -37.5 271.5 -104.5s102.5 -151.5 102.5 -253.5s-34.167 -186.5 -102.5 -253.5
s-158.833 -101.833 -271.5 -104.5v-98zM91 350c0 -90.667 30 -166 90 -226s141.333 -91.333 244 -94v640c-102.667 -2.66699 -184 -34 -244 -94s-90 -135.333 -90 -226zM465 670v-640c103.333 2.66699 184.833 34 244.5 94s89.5 135.333 89.5 226s-29.833 166 -89.5 226
s-141.167 91.333 -244.5 94z" />
    <glyph glyph-name="uni0432.loclBGR" horiz-adv-x="576" 
d="M486 550c0 -74.667 -40.666 -128.001 -121.999 -160.001c48.667 -6 88.667 -26.667 120 -62s47 -79 47 -131c0 -60 -20.833 -109.667 -62.5 -149s-95.834 -59 -162.501 -59c-71.333 0 -128.5 23.167 -171.5 69.5s-64.5 114.5 -64.5 204.5v115
c-0.666992 106.667 19.333 188.834 60 246.501s100 86.5 178 86.5c52.667 0 95.5 -15.5 128.5 -46.5s49.5 -69.167 49.5 -114.5zM448.001 547.999c0 35.333 -12.834 65.333 -38.501 90s-59.5 37 -101.5 37c-61.333 0 -110 -23.5 -146 -70.5s-54 -122.5 -54 -226.5v-14
l184 33c50.667 9.33301 89.334 27.5 116.001 54.5s40 59.167 40 96.5zM108 262.999c0 -80 17.8311 -139.667 53.498 -179s83.834 -59 144.501 -59c55.333 0 100.333 15.667 135 47s52 73 52 125c0 54.667 -19.167 98.167 -57.5 130.5s-86.166 43.5 -143.499 33.5l-184 -33
v-65z" />
    <glyph glyph-name="uni0433.loclBGR" horiz-adv-x="467" 
d="M419 37c-21.333 -14.667 -49.167 -26.334 -83.5 -35.001s-67.833 -13 -100.5 -13c-56.667 0 -103.167 10.5 -139.5 31.5s-54.5 53.167 -54.5 96.5c0 26 6.16699 47.833 18.5 65.5s28.5 31 48.5 40s42 16.333 66 22s47.833 11 71.5 16s45.5 11 65.5 18
s36.167 17.333 48.5 31s18.5 31.167 18.5 52.5c0 31.333 -13.5 54.666 -40.5 69.999s-60.5 23 -100.5 23c-60 0 -117.333 -14 -172 -42v36c56 28 114 42 174 42c49.333 0 91.166 -10.833 125.499 -32.5s51.5 -53.834 51.5 -96.501c0 -29.333 -8.33301 -53.666 -25 -72.999
s-37.5 -32.666 -62.5 -39.999s-52 -14.666 -81 -21.999s-56 -13.833 -81 -19.5s-45.833 -16.167 -62.5 -31.5s-25 -35.333 -25 -60c0 -30.667 14.333 -53.5 43 -68.5s67 -22.5 115 -22.5c31.333 0 63.833 4.5 97.5 13.5s61.834 21.167 84.501 36.5v-38z" />
    <glyph glyph-name="uni0434.loclBGR" horiz-adv-x="615" 
d="M47 240c0 74.667 22.501 135.168 67.501 181.501s102.167 69.5 171.5 69.5c46.667 0 88.5 -11.5 125.5 -34.5s66.167 -53.167 87.5 -90.5v114h35v-480c0 -76.667 -24.5 -134.334 -73.5 -173.001s-109.167 -58 -180.5 -58c-68.667 0 -132 15.333 -190 46v37
c60.667 -31.333 122.667 -47 186 -47s115.833 16 157.5 48s62.5 81 62.5 147v111c-20 -35.333 -48.333 -64.5 -85 -87.5s-78.334 -34.5 -125.001 -34.5c-69.333 0 -126.5 23.167 -171.5 69.5s-67.5 106.833 -67.5 181.5zM496.001 310.001
c-16 42 -42.502 76.666 -79.502 103.999s-79.5 41 -127.5 41c-59.333 0 -108.166 -19.333 -146.499 -58s-57.5 -91 -57.5 -157c0 -65.333 19.333 -117.5 58 -156.5s87.334 -58.5 146.001 -58.5c48 0 90.5 13.333 127.5 40s63.5 60.334 79.5 101.001v144z" />
    <glyph glyph-name="uni0436.loclBGR" horiz-adv-x="719" 
d="M53 0h-44l211 246l-184 234h43l173 -217h88v437h38v-437h89l172 217h44l-184 -234l210 -246h-43l-198 227h-90v-227h-38v227h-89z" />
    <glyph glyph-name="uni0438.loclBGR" 
d="M458 480l37.998 0.000976562v-480h-35v99c-19.333 -29.333 -46 -55 -80 -77s-72.667 -33 -116 -33c-56.667 0 -102.5 17.667 -137.5 53s-52.5 83 -52.5 143v295h38v-291c0 -52 14.167 -92.333 42.5 -121s65.833 -43 112.5 -43c42.667 0 80.334 11.667 113.001 35
s58.334 51.666 77.001 84.999v335z" />
    <glyph glyph-name="uni0439.loclBGR" 
d="M420 602c-33.333 -27.333 -76 -41 -128 -41s-94.667 13.667 -128 41v37c37.333 -29.333 80 -44 128 -44s90.667 14.667 128 44v-37zM458 480l37.998 0.000976562v-480h-35v99c-19.333 -29.333 -46 -55 -80 -77s-72.667 -33 -116 -33c-56.667 0 -102.5 17.667 -137.5 53
s-52.5 83 -52.5 143v295h38v-291c0 -52 14.167 -92.333 42.5 -121s65.833 -43 112.5 -43c42.667 0 80.334 11.667 113.001 35s58.334 51.666 77.001 84.999v335z" />
    <glyph glyph-name="uni043A.loclBGR" horiz-adv-x="502" 
d="M494 0h-46l-209 229h-120v-229h-38v700h38v-435h123l180 215h45l-195 -234z" />
    <glyph glyph-name="uni043B.loclBGR" horiz-adv-x="525" 
d="M505 0h-42l-200 437l-201 -437h-42l222 480h41z" />
    <glyph glyph-name="uni043F.loclBGR" 
d="M116 381c19.333 29.333 46.002 54.999 80.002 76.999s72.667 33 116 33c54.667 0 100 -17.833 136 -53.5s54 -83.167 54 -142.5v-295h-38v291c0 52 -14.5 92.333 -43.5 121s-66.167 43 -111.5 43c-42.667 0 -80.334 -11.667 -113.001 -35
s-58.334 -51.666 -77.001 -84.999v-335h-38v480h35v-99z" />
    </font>
</defs>
</svg>
