<?xml version="1.0" standalone="no"?>
<!DOCTYPE svg PUBLIC "-//W3C//DTD SVG 1.1//EN" "http://www.w3.org/Graphics/SVG/1.1/DTD/svg11.dtd" >
<svg>
<metadata>
Created by FontForge 20090914 at Thu Jul  2 10:34:01 2020
 By www-data
Copyright (c) 2015 by Fontfabric LLC. All rights reserved.
</metadata>
<defs>
<font id="MullerLightItalic" horiz-adv-x="623" >
  <font-face 
    font-family="Muller Light Italic"
    font-weight="300"
    font-style="italic"
    font-stretch="normal"
    units-per-em="1000"
    panose-1="0 0 0 0 0 0 0 0 0 0"
    ascent="780"
    descent="-220"
    x-height="480"
    cap-height="700"
    bbox="-207 -234.002 1221.83 946"
    underline-thickness="50"
    underline-position="-175"
    slope="-9"
    unicode-range="U+0020-U+25CA"
  />
<missing-glyph horiz-adv-x="259" 
 />
    <glyph glyph-name="f_f" unicode="ff" horiz-adv-x="679" 
d="M756 647c-27.333 14.667 -60.667 22 -100 22c-79.333 0 -125 -38.333 -137 -115l-12 -74h193l-8 -53h-194l-67 -427h-57l68 427h-254l-67 -427h-57l68 427h-87l8 53h87l9 57c8 51.333 31 91 69 119s83 42 135 42c51.333 0 100.333 -14.667 147 -44
c32 44.667 81.333 67 148 67c44 0 82.667 -7.66699 116 -23zM196.999 480h253l13 80c3.33301 19.333 7.66602 36 12.999 50c-35.333 23.333 -75.666 35 -120.999 35c-40.667 0 -74.167 -9.5 -100.5 -28.5s-42.5 -46.833 -48.5 -83.5z" />
    <glyph glyph-name="f_f_i" unicode="ffi" horiz-adv-x="860" 
d="M121 0h-57.002l68 427h-87l8 53h87l9 57c8 52 30.667 91.833 68 119.5s82.666 41.5 135.999 41.5c52.667 0 103.334 -16 152.001 -48c37.333 45.333 90 68 158 68c50.667 0 99.334 -13.333 146.001 -40l-9 -55c-41.333 28 -86.666 42 -135.999 42
c-38.667 0 -71.167 -9.83301 -97.5 -29.5s-42.5 -49.5 -48.5 -89.5l-11 -66h301l-76 -480h-57l68 427h-245l-67 -427h-57l68 427h-254zM205.998 533l-9.00195 -53h253l12 70c2.66699 19.333 8.33398 38 17.001 56c-37.333 26 -78.666 39 -123.999 39
c-40.667 0 -74.167 -9.5 -100.5 -28.5s-42.5 -46.833 -48.5 -83.5z" />
    <glyph glyph-name="f_f_l" unicode="ffl" horiz-adv-x="870" 
d="M794 687l1 6l59 15l-112 -708h-57l101 635c-38 20 -78.667 30 -122 30c-39.333 0 -72 -9.83301 -98 -29.5s-42 -49.5 -48 -89.5l-11 -66h168l-8 -53h-169l-67 -427h-57l68 427h-254l-67 -427h-57l68 427h-87l8 53h87l9 57c8 51.333 31 91 69 119s83 42 135 42
s102.333 -16 151 -48c37.333 45.333 89.333 68 156 68c49.333 0 94 -10.333 134 -31zM450 480l11.999 69.999c2.66699 20.667 8.33398 39.334 17.001 56.001c-36 26 -77.333 39 -124 39c-39.333 0 -72.5 -9.5 -99.5 -28.5s-43.5 -46.833 -49.5 -83.5l-9 -53h253z" />
    <glyph glyph-name=".notdef" horiz-adv-x="259" 
 />
    <glyph glyph-name="space" unicode=" " horiz-adv-x="259" 
 />
    <glyph glyph-name="exclam" unicode="!" horiz-adv-x="215" 
d="M117 189h-50l77 511h59zM105 26c-4 -22.667 -17.667 -34 -41 -34c-12 0 -21.5 3.66699 -28.5 11s-9.5 17.666 -7.5 30.999c4 22.667 17.667 34 41 34c12 0 21.5 -3.66699 28.5 -11s9.5 -17.666 7.5 -30.999z" />
    <glyph glyph-name="quotedbl" unicode="&#x22;" horiz-adv-x="292" 
d="M257 540h-40l26 160h54zM144 540h-40l26 160h54z" />
    <glyph glyph-name="numbersign" unicode="#" horiz-adv-x="651" 
d="M92 0h-57l71 179h-85l8 50h97l88 223h-99l7 50h111l71 178h57l-70 -178h213l71 178h57l-71 -178h83l-7 -50h-95l-89 -223h98l-8 -50h-109l-71 -179h-57l70 179h-213zM271 452l-88 -223h213l88 223h-213z" />
    <glyph glyph-name="dollar" unicode="$" horiz-adv-x="578" 
d="M251 -130l-50.0039 -0.00488281l19 120c-82 6.66699 -150 26.334 -204 59.001l9 58c62.667 -41.333 138.667 -62 228 -62c54.667 0 101.334 9.5 140.001 28.5s61.334 49.833 68.001 92.5c4 25.333 -0.5 47.333 -13.5 66s-31.333 33.834 -55 45.501s-50 22.5 -79 32.5
s-57.833 20.833 -86.5 32.5s-54.5 24.834 -77.5 39.501s-40.5 34.5 -52.5 59.5s-15.333 53.833 -10 86.5c8.66699 50 36.5 89.167 83.5 117.5s100.5 43.5 160.5 45.5l18 119h50l-18 -120c64.667 -5.33301 119.334 -22 164.001 -50l-8 -56c-51.333 34 -117.333 51 -198 51
c-47.333 0 -89.666 -9.33301 -126.999 -28s-59 -46.667 -65 -84c-4 -26 0.166992 -48.5 12.5 -67.5s30.333 -34.5 54 -46.5s50 -23.167 79 -33.5s57.833 -21.166 86.5 -32.499s54.667 -24.166 78 -38.499s41 -33.5 53 -57.5s15.667 -52 11 -84
c-9.33301 -58 -37.5 -101 -84.5 -129s-102.5 -43 -166.5 -45z" />
    <glyph glyph-name="percent" unicode="%" horiz-adv-x="887" 
d="M213 -60h-59l539 820h59zM390 555c-6.66699 -46 -26.998 -81.833 -60.998 -107.5s-72.333 -38.5 -115 -38.5s-77.834 14.167 -105.501 42.5s-37.834 66.166 -30.501 113.499c7.33301 46 28 81.833 62 107.5s72.667 38.5 116 38.5c42.667 0 77.667 -14.167 105 -42.5
s37 -66.166 29 -113.499zM130.002 561c-4.66699 -29.333 0.999023 -53.666 16.999 -72.999s39 -29 69 -29c31.333 0 58.333 9.16699 81 27.5s36.334 42.5 41.001 72.5c4.66699 29.333 -1 53.666 -17 72.999s-38.333 29 -67 29c-32 0 -59.5 -9.16699 -82.5 -27.5
s-36.833 -42.5 -41.5 -72.5zM828.001 135c-7.33301 -46 -27.999 -81.833 -61.999 -107.5s-72.333 -38.5 -115 -38.5s-77.834 14.167 -105.501 42.5s-37.834 66.166 -30.501 113.499c7.33301 46 28 81.833 62 107.5s72.667 38.5 116 38.5c42 0 76.833 -14.167 104.5 -42.5
s37.834 -66.166 30.501 -113.499zM567.002 141c-4.66699 -29.333 0.999023 -53.666 16.999 -72.999s39 -29 69 -29c31.333 0 58.333 9.16699 81 27.5s36.334 42.5 41.001 72.5c4.66699 29.333 -1 53.666 -17 72.999s-38.333 29 -67 29c-32 0 -59.5 -9.16699 -82.5 -27.5
s-36.833 -42.5 -41.5 -72.5z" />
    <glyph glyph-name="ampersand" unicode="&#x26;" horiz-adv-x="687" 
d="M530 116l108.998 -116.002h-69l-76 80c-70.667 -60.667 -155.334 -91 -254.001 -91c-70.667 0 -125 17.5 -163 52.5s-53 78.5 -45 130.5c3.33301 22.667 11.333 44.5 24 65.5s28.834 39.833 48.501 56.5s38.334 30.667 56.001 42s37.834 23 60.501 35
c-52.667 62.667 -74.667 121.334 -66 176.001c7.33301 46 32.333 84.833 75 116.5s93.334 47.5 152.001 47.5c51.333 0 93.333 -14.333 126 -43s45.667 -65 39 -109c-4 -28.667 -19.667 -56.5 -47 -83.5s-52.333 -46.833 -75 -59.5s-55.667 -29.667 -99 -51
c-8.66699 -4.66699 -15.334 -8 -20.001 -10l186 -199c42 48.667 67 103.667 75 165h59c-11.333 -77.333 -43.333 -145.666 -96 -204.999zM380.998 656.998c-49.333 0 -88.8311 -11.498 -118.498 -34.498s-46.834 -51.833 -51.501 -86.5c-6.66699 -41.333 13 -88.333 59 -141
c25.333 11.333 43.5 19.666 54.5 24.999s28.667 14.666 53 27.999s42.666 25 54.999 35s24.5 22.5 36.5 37.5s19 29.833 21 44.5c4.66699 27.333 -4 49.5 -26 66.5s-49.667 25.5 -83 25.5zM91 167c-6 -36.667 5.33105 -66.499 33.998 -89.499s70.334 -34.5 125.001 -34.5
c79.333 0 148.333 25.667 207 77l-200 211c-21.333 -10.667 -39.666 -20.667 -54.999 -30s-31.666 -21 -48.999 -35s-31.333 -29.333 -42 -46s-17.334 -34.334 -20.001 -53.001z" />
    <glyph glyph-name="quotesingle" unicode="'" horiz-adv-x="179" 
d="M144 540h-40l26 160h54z" />
    <glyph glyph-name="parenleft" unicode="(" horiz-adv-x="272" 
d="M275 809l57 0.00292969c-54 -64 -99.833 -137.167 -137.5 -219.5s-62.834 -163.5 -75.501 -243.5c-12.667 -77.333 -13.167 -156.833 -1.5 -238.5s34.167 -153.834 67.5 -216.501h-54c-35.333 65.333 -59.666 138.833 -72.999 220.5s-14 162.5 -2 242.5
c12.667 79.333 38.5 159.166 77.5 239.499s86.167 152.166 141.5 215.499z" />
    <glyph glyph-name="parenright" unicode=")" horiz-adv-x="272" 
d="M105 809l54 -0.000976562c35.333 -66 59.833 -139.667 73.5 -221s14.167 -162 1.5 -242c-12.667 -78.667 -38.334 -158.167 -77.001 -238.5s-85.667 -152.5 -141 -216.5h-58c54 64 99.833 137.167 137.5 219.5s62.834 163.5 75.501 243.5
c12.667 77.333 13.167 156.833 1.5 238.5s-34.167 153.834 -67.5 216.501z" />
    <glyph glyph-name="asterisk" unicode="*" horiz-adv-x="434" 
d="M252 510l-98 -119l-40 30l103 110l-125 37l26 50l121 -49l15 131h53l-27 -131l136 49l11 -50l-140 -37l71 -110l-47 -30z" />
    <glyph glyph-name="plus" unicode="+" horiz-adv-x="532" 
d="M307 377h192l-9 -54h-192l-30 -192h-54l30 192h-191l8 54h192l30 192h54z" />
    <glyph glyph-name="comma" unicode="," horiz-adv-x="218" 
d="M11 -147h-47l89 224h60z" />
    <glyph glyph-name="hyphen" unicode="-" horiz-adv-x="486" 
d="M64 273h352l-9 -54h-351z" />
    <glyph glyph-name="period" unicode="." horiz-adv-x="203" 
d="M104 28c-4 -24 -18 -35.999 -42 -35.999c-12 0 -21.667 4 -29 12s-9.66602 18.333 -6.99902 31c1.33301 10.667 6.16602 19.167 14.499 25.5s17.5 9.5 27.5 9.5c12.667 0 22.5 -3.83301 29.5 -11.5s9.16699 -17.834 6.5 -30.501z" />
    <glyph glyph-name="slash" unicode="/" horiz-adv-x="419" 
d="M28 -58h-45l427 816h44z" />
    <glyph glyph-name="zero" unicode="0" horiz-adv-x="703" 
d="M63 345c16.667 105.333 54.832 189.333 114.499 252s137.834 94 234.501 94c96 0 164.833 -32.833 206.5 -98.5s54.167 -151.5 37.5 -257.5c-16.667 -104.667 -54.834 -188.5 -114.501 -251.5s-138.167 -94.5 -235.5 -94.5c-96 0 -164.667 32.833 -206 98.5
s-53.666 151.5 -36.999 257.5zM595.998 339c14.667 92 6.5 164.333 -24.5 217s-85.5 79 -163.5 79c-80 0 -144.167 -25.667 -192.5 -77s-79.833 -123.666 -94.5 -216.999c-14.667 -92 -6.5 -164.333 24.5 -217s85.5 -79 163.5 -79c80 0 144.167 25.667 192.5 77
s79.833 123.666 94.5 216.999z" />
    <glyph glyph-name="one" unicode="1" horiz-adv-x="415" 
d="M282 680h43l-99 -623h133l-9 -57h-342l9 57h150l88 559l-158 -56l10 57z" />
    <glyph glyph-name="two" unicode="2" horiz-adv-x="568" 
d="M124 628c68.667 42 142.333 62.9932 221 62.9932c65.333 0 117.166 -16 155.499 -48s53.166 -75.333 44.499 -130c-4 -27.333 -12.5 -52.5 -25.5 -75.5s-31 -44.167 -54 -63.5s-45.167 -35.666 -66.5 -48.999s-49 -29.333 -83 -48l-32.5 -17l-33.5 -17.5
c-4.66699 -2.33301 -14.667 -7.83301 -30 -16.5s-25.666 -15 -30.999 -19l-26.5 -19c-12.333 -8.66699 -21 -15.834 -26 -21.501l-20.5 -22.5c-8.66699 -9.33301 -15 -18.166 -19 -26.499s-8.16699 -17.666 -12.5 -27.999s-7.5 -21.166 -9.5 -32.499h405l-10 -57h-468l5 32
c5.33301 32 14.5 61.5 27.5 88.5s27 49.333 42 67s35.667 35.834 62 54.501s48.5 32.834 66.5 42.501l76 39.5l58.5 31c13.667 7.33301 30.667 17.666 51 30.999s36 25.833 47 37.5s21.333 25.834 31 42.501s15.834 34.334 18.501 53.001
c5.33301 36.667 -5.33398 65.334 -32.001 86.001s-66 31 -118 31c-71.333 0 -145.666 -23.667 -222.999 -71z" />
    <glyph glyph-name="three" unicode="3" horiz-adv-x="587" 
d="M540 505c-6 -35.333 -21.1699 -66.835 -45.5029 -94.502s-55.5 -46.5 -93.5 -56.5c38 -9.33301 68.667 -28.666 92 -57.999s31.333 -68.333 24 -117c-10 -60.667 -40.333 -107.5 -91 -140.5s-110.667 -49.5 -180 -49.5c-92 0 -168 15 -228 45l8 55
c57.333 -30 130 -45 218 -45c58 0 106.667 12.333 146 37s63 60.667 71 108c7.33301 46.667 -4.16699 80.667 -34.5 102s-72.833 32 -127.5 32h-103l10 55h94c52.667 0 94.834 12.333 126.501 37s50.5 55.667 56.5 93c6 38 -4.5 68.833 -31.5 92.5s-67.167 35.5 -120.5 35.5
c-69.333 0 -141.666 -16.333 -216.999 -49l10 59c65.333 30 138 45 218 45c64.667 0 115.834 -17.667 153.501 -53s52.5 -79.666 44.5 -132.999z" />
    <glyph glyph-name="four" unicode="4" horiz-adv-x="641" 
d="M472 680h66l-74 -466h135l-9 -55h-135l-25 -159h-59l25 159h-389l8 52zM404 214l62 385l-376 -385h314z" />
    <glyph glyph-name="five" unicode="5" horiz-adv-x="578" 
d="M160 680h398l-9 -57h-343l-52 -233c44 12.667 89.667 19 137 19c70 0 127.667 -18 173 -54s62.333 -90 51 -162c-10 -62.667 -41.5 -112.334 -94.5 -149.001s-116.167 -55 -189.5 -55c-85.333 0 -156 15.333 -212 46l8 54c54 -30 120.667 -45 200 -45
c61.333 0 113 13.833 155 41.5s66.667 65.834 74 114.501c8.66699 54 -4.83301 93.333 -40.5 118s-84.167 37 -145.5 37c-62 0 -124.333 -11 -187 -33z" />
    <glyph glyph-name="six" unicode="6" horiz-adv-x="614" 
d="M562 599c-40.667 24 -88.6719 36 -144.005 36c-35.333 0 -68.166 -5.5 -98.499 -16.5s-58.666 -28 -84.999 -51s-49.166 -54.167 -68.499 -93.5s-34 -85.666 -44 -138.999c76 55.333 155.333 83 238 83c61.333 0 112.333 -18.833 153 -56.5s55.667 -90.167 45 -157.5
s-41.167 -120 -91.5 -158s-109.166 -57 -176.499 -57c-90.667 0 -155.667 30.167 -195 90.5s-50.666 143.166 -33.999 248.499c19.333 122 61 213 125 273s142 90 234 90c56 0 106.333 -12.667 151 -38zM288.995 44c54 0 100.332 14 138.999 42s62.334 68.667 71.001 122
c8.66699 54 -2 93.333 -32 118s-71 37 -123 37c-84.667 0 -161.667 -31 -231 -93c-5.33301 -74 7 -130.167 37 -168.5s76.333 -57.5 139 -57.5z" />
    <glyph glyph-name="seven" unicode="7" horiz-adv-x="527" 
d="M89 680h476l-8 -53l-398 -627h-65l395 623h-409z" />
    <glyph glyph-name="eight" unicode="8" horiz-adv-x="644" 
d="M572 160c-7.33301 -48.667 -35.666 -89.334 -84.999 -122.001s-115.333 -49 -198 -49c-88 0 -154 19.833 -198 59.5s-61.667 88.167 -53 145.5c6 35.333 22 68.833 48 100.5s61.667 58.834 107 81.501c-61.333 36.667 -87 86 -77 148c7.33301 46 33.5 85.333 78.5 118
s106.167 49 183.5 49c73.333 0 130.666 -19.667 171.999 -59s58.333 -84 51 -134c-8.66699 -66 -52 -122.667 -130 -170c79.333 -36.667 113 -92.667 101 -168zM98 194c-7.33301 -44.667 6.50195 -80.834 41.502 -108.501s87.167 -41.5 156.5 -41.5
c59.333 0 109 11.833 149 35.5s62.667 53.167 68 88.5c3.33301 22.667 1.5 42.167 -5.5 58.5s-19.5 30 -37.5 41s-35.833 19.833 -53.5 26.5s-40.834 14.334 -69.501 23.001c-4.66699 1.33301 -8.33398 2.33301 -11.001 3c-34.667 10 -66 20 -94 30
c-85.333 -38 -133.333 -90 -144 -156zM336.002 374c10.667 -2.66699 39.334 -10.666 86.001 -23.999c70.667 42 110.667 91.333 120 148c6 37.333 -5.83301 69.666 -35.5 96.999s-73.167 41 -130.5 41c-56.667 0 -103 -11.167 -139 -33.5s-56.667 -49.833 -62 -82.5
c-3.33301 -22 -1.5 -41 5.5 -57s19.667 -29.5 38 -40.5s34.666 -19.333 48.999 -25s33.833 -12.5 58.5 -20.5c4.66699 -1.33301 8 -2.33301 10 -3z" />
    <glyph glyph-name="nine" unicode="9" horiz-adv-x="613" 
d="M71 476c10.667 67.333 41.1719 120 91.5049 158s109.166 57 176.499 57c90.667 0 155.667 -30.167 195 -90.5s50.666 -143.166 33.999 -248.499c-19.333 -122 -61 -213 -125 -273s-142 -90 -234 -90c-56.667 0 -107 12.667 -151 38l9 55
c39.333 -24.667 87.333 -37 144 -37c35.333 0 68.166 5.5 98.499 16.5s58.666 28 84.999 51s49.166 54.167 68.499 93.5s34 85.666 44 138.999c-76 -55.333 -155.333 -83 -238 -83c-61.333 0 -112.333 18.833 -153 56.5s-55.667 90.167 -45 157.5zM340.005 636
c-54 0 -100.332 -13.833 -138.999 -41.5s-62.334 -68.5 -71.001 -122.5c-8.66699 -53.333 2 -92.5 32 -117.5s71 -37.5 123 -37.5c84.667 0 161.667 31 231 93c5.33301 74 -7 130.167 -37 168.5s-76.333 57.5 -139 57.5z" />
    <glyph glyph-name="colon" unicode=":" horiz-adv-x="214" 
d="M163 393c-4 -23.333 -18.334 -35 -43.001 -35c-11.333 0 -20.666 3.83301 -27.999 11.5s-10 17.834 -8 30.501c2 11.333 7 20.166 15 26.499s17 9.5 27 9.5c12.667 0 22.5 -3.83301 29.5 -11.5s9.5 -18.167 7.5 -31.5zM104.999 28
c-4 -24 -18.334 -35.999 -43.001 -35.999c-11.333 0 -20.666 4 -27.999 12s-9.66602 18.333 -6.99902 31c1.33301 10.667 6.16602 19.167 14.499 25.5s17.5 9.5 27.5 9.5c12.667 0 22.5 -3.83301 29.5 -11.5s9.16699 -17.834 6.5 -30.501z" />
    <glyph glyph-name="semicolon" unicode=";" horiz-adv-x="282" 
d="M44 -147h-47l89 224h60zM201 432c-4 -23.333 -18.334 -35 -43.001 -35c-11.333 0 -20.666 3.83301 -27.999 11.5s-10 17.834 -8 30.501c1.33301 11.333 6.33301 20.166 15 26.499s18 9.5 28 9.5c12 0 21.5 -3.83301 28.5 -11.5s9.5 -18.167 7.5 -31.5z" />
    <glyph glyph-name="less" unicode="&#x3c;" horiz-adv-x="483" 
d="M400 221l-9 -56l-343 157l9 57l392 156l-8 -56l-330 -129z" />
    <glyph glyph-name="equal" unicode="=" horiz-adv-x="552" 
d="M499 414h-409l9 54h408zM470 232h-409l8 54h409z" />
    <glyph glyph-name="greater" unicode="&#x3e;" horiz-adv-x="482" 
d="M443 321l-392 -156l9 56l331 129l-290 129l8 56l344 -157z" />
    <glyph glyph-name="question" unicode="?" horiz-adv-x="491" 
d="M245 199l-57.001 0.00292969c4 26 14.333 51.833 31 77.5s36 49 58 70l66 62c22 20.333 41.5 42.166 58.5 65.499s27.167 46.666 30.5 69.999c6 37.333 -4.33301 65.166 -31 83.499s-66 27.5 -118 27.5c-63.333 0 -129 -19 -197 -57l9 59c64 36 130.667 54 200 54
c63.333 0 114 -15 152 -45s52.667 -71.333 44 -124c-4 -26 -14.667 -51.833 -32 -77.5s-37.166 -49.167 -59.499 -70.5l-66.5 -62.5c-22 -20.333 -41.333 -42 -58 -65s-26.667 -45.5 -30 -67.5zM228.999 28.0029c-4 -24 -18 -35.999 -42 -35.999c-12 0 -21.667 4 -29 12
s-9.66602 18.333 -6.99902 31c1.33301 10.667 6.16602 19.167 14.499 25.5s17.5 9.5 27.5 9.5c12.667 0 22.5 -3.83301 29.5 -11.5s9.16699 -17.834 6.5 -30.501z" />
    <glyph glyph-name="at" unicode="@" horiz-adv-x="1055" 
d="M41 252c9.33301 60.667 29.3359 118.33 60.0029 172.997s69.5 103.334 116.5 146.001s103.667 76.667 170 102s137.166 38 212.499 38c58 0 111.167 -9 159.5 -27s88.5 -41.667 120.5 -71s58.333 -63 79 -101s34.334 -77.333 41.001 -118s7 -80.667 1 -120
c-14 -87.333 -41.5 -153.333 -82.5 -198s-89.5 -67 -145.5 -67c-40.667 0 -72.667 10 -96 30s-35.333 48.333 -36 85c-20.667 -29.333 -46.334 -52.166 -77.001 -68.499s-63 -24.5 -97 -24.5c-54 0 -97.5 20 -130.5 60s-44.5 90 -34.5 150c9.33301 60 35.166 109 77.499 147
s91.5 57 147.5 57c34 0 63.667 -8.83301 89 -26.5s43.333 -40.167 54 -67.5l13 85h56l-44 -274c-10.667 -68.667 16 -103 80 -103c42 0 77.667 19.833 107 59.5s49.333 93.834 60 162.501c6.66699 43.333 4.33398 86.833 -6.99902 130.5s-30.833 83.667 -58.5 120
s-65.834 66 -114.501 89s-104 34.5 -166 34.5c-132.667 0 -244.167 -39.833 -334.5 -119.5s-144.5 -176.5 -162.5 -290.5c-10 -64 -6.83301 -122.833 9.5 -176.5s42.666 -98 78.999 -133s80 -62.167 131 -81.5s106.167 -29 165.5 -29c78.667 0 155 12.333 229 37l-9 -59
c-67.333 -22.667 -142 -34 -224 -34c-66.667 0 -129 11 -187 33s-108 52.833 -150 92.5s-72.5 90.5 -91.5 152.5s-22.5 130.333 -10.5 205zM659.003 283.996c-4 30.667 -17.333 56.499 -40 77.499s-52 31.5 -88 31.5c-42.667 0 -80.5 -14.167 -113.5 -42.5
s-53.167 -65.833 -60.5 -112.5c-6.66699 -46 1.33301 -83.333 24 -112s54 -43 94 -43c37.333 0 71.5 10.833 102.5 32.5s53.5 47.834 67.5 78.501z" />
    <glyph glyph-name="A" unicode="A" horiz-adv-x="714" 
d="M656 0h-62l-53 188h-396l-112 -188h-67l422 700h68zM402 616l-223.998 -372h349l-106 373c-2.66699 10.667 -4.33398 18.667 -5.00098 24c-2.66699 -6 -7.33398 -14.333 -14.001 -25z" />
    <glyph glyph-name="B" unicode="B" horiz-adv-x="686" 
d="M163 700l271 0.000976562c68.667 0 123 -15.667 163 -47s55.333 -76 46 -134c-7.33301 -42.667 -24.666 -76.667 -51.999 -102s-60 -42 -98 -50c39.333 -8.66699 72.166 -27.334 98.499 -56.001s35.5 -70 27.5 -124c-20 -124.667 -117.333 -187 -292 -187h-275z
M560 200.001c3.33301 23.333 2 43.667 -4 61s-14.5 30.666 -25.5 39.999s-25 16.666 -42 21.999s-32.5 8.83301 -46.5 10.5s-29 2.5 -45 2.5h-233l-44 -279h202c28.667 0 53.667 1.5 75 4.5s44.5 8.83301 69.5 17.5s45.667 23.334 62 44.001s26.833 46.334 31.5 77.001z
M583 520.002c6.66699 44 -4.16797 75.5 -32.501 94.5s-71.166 28.5 -128.499 28.5h-210l-39 -251h236c44.667 0 83 10.5 115 31.5s51.667 53.167 59 96.5z" />
    <glyph glyph-name="C" unicode="C" horiz-adv-x="647" 
d="M60 364c12 72.667 40.665 136.167 85.998 190.5s96.833 94 154.5 119s116.5 37.5 176.5 37.5c71.333 0 133 -16 185 -48l-9 -57c-44.667 32.667 -101.334 49 -170.001 49c-53.333 0 -105.166 -10.5 -155.499 -31.5s-95.166 -54.833 -134.499 -101.5
s-64.333 -102 -75 -166c-8 -51.333 -5.83301 -97.5 6.5 -138.5s32 -73.667 59 -98s57.5 -42.833 91.5 -55.5s70 -19 108 -19c72 0 136.667 17.333 194 52l-10 -64c-56.667 -29.333 -123 -44 -199 -44c-44 0 -86 8 -126 24s-75.667 39 -107 69s-54.166 69.5 -68.499 118.5
s-16.5 103.5 -6.5 163.5z" />
    <glyph glyph-name="D" unicode="D" horiz-adv-x="735" 
d="M163 700l214.001 -0.000976562c118.667 0 205.5 -32.667 260.5 -98s74.167 -150.666 57.5 -255.999s-60.834 -189.333 -132.501 -252s-169.167 -94 -292.5 -94h-218zM635.001 353.999c14.667 90 -0.166992 160.667 -44.5 212s-117.5 77 -219.5 77h-159l-92 -586h156
c102 0 183.667 26.5 245 79.5s99.333 125.5 114 217.5z" />
    <glyph glyph-name="E" unicode="E" horiz-adv-x="621" 
d="M163 700h465l-9 -57h-406l-41 -262h375l-8 -57h-376l-42 -267h411l-9 -57h-471z" />
    <glyph glyph-name="F" unicode="F" horiz-adv-x="604" 
d="M163 700h467l-10 -57h-407l-43 -273h378l-9 -57h-378l-50 -313h-59z" />
    <glyph glyph-name="G" unicode="G" horiz-adv-x="709" 
d="M60 364c9.33301 58.667 28.4961 110.832 57.4961 156.499s63.667 82 104 109s82.833 47.333 127.5 61s89.667 20.5 135 20.5c76 0 142.667 -15.667 200 -47l-8 -57c-46.667 32 -109 48 -187 48c-40.667 0 -80.167 -5.5 -118.5 -16.5s-75.166 -27.833 -110.499 -50.5
s-65.666 -54 -90.999 -94s-42 -86 -50 -138c-8.66699 -52.667 -6.66699 -99.667 6 -141s32.834 -74 60.501 -98s58.834 -42 93.501 -54s71.667 -18 111 -18c59.333 0 113.333 11.333 162 34l46 290h60l-52 -334c-70.667 -30.667 -145 -46 -223 -46
c-46 0 -89.833 7.5 -131.5 22.5s-79 37 -112 66s-57 68.333 -72 118s-17.5 105.834 -7.5 168.501z" />
    <glyph glyph-name="H" unicode="H" horiz-adv-x="768" 
d="M676 700h59l-111 -700h-59l51 323h-454l-51 -323h-59l111 700h59l-50 -320h453z" />
    <glyph glyph-name="I" unicode="I" horiz-adv-x="255" 
d="M163 700h59l-111 -700h-59z" />
    <glyph glyph-name="J" unicode="J" horiz-adv-x="516" 
d="M215 700l274.999 0.000976562l-79 -503c-10.667 -70.667 -38.5 -122.834 -83.5 -156.501s-101.167 -50.5 -168.5 -50.5c-74 0 -132.333 14.667 -175 44l9 58c40.667 -30 93.334 -45 158.001 -45c118 0 185 52 201 156l70 440h-217z" />
    <glyph glyph-name="K" unicode="K" horiz-adv-x="658" 
d="M629 700h68l-297 -343l209 -357h-64l-195 330h-187l-52 -330h-59l111 700h59l-49 -314h183z" />
    <glyph glyph-name="L" unicode="L" horiz-adv-x="572" 
d="M163 700h59l-101 -643h404l-9 -57h-464z" />
    <glyph glyph-name="M" unicode="M" horiz-adv-x="903" 
d="M810 700h60l-111 -700h-59l94 593l-339 -415h-39l-210 415l-95 -593h-59l111 700h52l227 -450z" />
    <glyph glyph-name="N" unicode="N" horiz-adv-x="768" 
d="M111 0h-59l111 700h50l368 -604c0.666992 7.33301 2 17.5 4 30.5s3.33301 23.167 4 30.5l87 543h59l-111 -700h-50l-368 605c-0.666992 -8 -2 -18.5 -4 -31.5s-3.33301 -22.833 -4 -29.5z" />
    <glyph glyph-name="O" unicode="O" horiz-adv-x="822" 
d="M784 346c-7.33301 -45.333 -21.6641 -88.835 -42.9971 -130.502s-49 -79.667 -83 -114s-76.333 -61.666 -127 -81.999s-105.667 -30.5 -165 -30.5c-74 0 -136.667 18.167 -188 54.5s-86.666 81.833 -105.999 136.5s-24.333 112.667 -15 174
c7.33301 45.333 22.166 89 44.499 131s50.666 80 84.999 114s76.666 61.167 126.999 81.5s104.166 30.5 161.499 30.5c56 0 106 -10.5 150 -31.5s78.333 -48.833 103 -83.5s42 -73.667 52 -117s11.333 -87.666 4 -132.999zM117.002 349.998
c-3.33301 -29.333 -4 -58.333 -2 -87s9.5 -56.167 22.5 -82.5s29.333 -49.5 49 -69.5s45.334 -36 77.001 -48s67.167 -18 106.5 -18c96.667 0 176.834 30.167 240.501 90.5s101.834 131.833 114.501 214.5c3.33301 29.333 4 58.333 2 87s-9.5 56.167 -22.5 82.5
s-29.333 49.5 -49 69.5s-45.334 36 -77.001 48s-67.167 18 -106.5 18c-96.667 0 -176.834 -30.167 -240.501 -90.5s-101.834 -131.833 -114.501 -214.5z" />
    <glyph glyph-name="P" unicode="P" horiz-adv-x="660" 
d="M163 700l233.996 -0.000976562c38.667 0 73.834 -3.83301 105.501 -11.5s60.334 -19.667 86.001 -36s44.334 -39.666 56.001 -69.999s14.167 -66.5 7.5 -108.5c-23.333 -146 -132.666 -219 -327.999 -219h-172l-41 -255h-59zM591.996 480.999
c5.33301 31.333 3.5 57.999 -5.5 79.999s-23.667 38.833 -44 50.5s-42.5 19.834 -66.5 24.501s-51.333 7 -82 7h-182l-52 -331h172c155.333 0 242 56.333 260 169z" />
    <glyph glyph-name="Q" unicode="Q" horiz-adv-x="822" 
d="M727 -22l-41.998 -36l-93 109c-67.333 -41.333 -142.666 -62 -225.999 -62c-74 0 -136.667 18.167 -188 54.5s-86.666 81.833 -105.999 136.5s-24.333 112.667 -15 174c7.33301 45.333 22.166 89 44.499 131s50.666 80 84.999 114s76.666 61.167 126.999 81.5
s104.166 30.5 161.499 30.5c56 0 106 -10.5 150 -31.5s78.333 -48.833 103 -83.5s42 -73.667 52 -117s11.333 -87.666 4 -132.999c-16.667 -106.667 -65.667 -194.334 -147 -263.001zM117.002 350c-3.33301 -29.333 -3.99902 -58.333 -1.99902 -87s9.5 -56.167 22.5 -82.5
s29.333 -49.5 49 -69.5s45.334 -36 77.001 -48s67.167 -18 106.5 -18c67.333 0 129 17 185 51l-117 138l42 36l120 -143c68.667 58 110.334 132.333 125.001 223c3.33301 29.333 4 58.333 2 87s-9.5 56.167 -22.5 82.5s-29.333 49.5 -49 69.5s-45.334 36 -77.001 48
s-67.167 18 -106.5 18c-96.667 0 -176.834 -30.167 -240.501 -90.5s-101.834 -131.833 -114.501 -214.5z" />
    <glyph glyph-name="R" unicode="R" horiz-adv-x="691" 
d="M111 0l-59 -0.000976562l111 700h267c32 0 62 -3.83301 90 -11.5s53.5 -19.334 76.5 -35.001s39.833 -37.667 50.5 -66s13 -61.5 7 -99.5c-10 -61.333 -36.5 -108.166 -79.5 -140.499s-94.167 -52.166 -153.5 -59.499l203 -288h-70l-200 283h-198zM212 642.999
l-46.999 -303.001h211c34.667 0 66.5 4.5 95.5 13.5s55.167 25.5 78.5 49.5s38 54.667 44 92c4.66699 28 3 52 -5 72s-20.667 35.333 -38 46s-36.333 18.334 -57 23.001s-43.334 7 -68.001 7h-214z" />
    <glyph glyph-name="S" unicode="S" horiz-adv-x="575" 
d="M94 541c6 38 22.6631 70.334 49.9961 97.001s58.833 45.5 94.5 56.5s73.5 16.5 113.5 16.5c78.667 0 145 -17.667 199 -53l-9 -57c-50.667 36 -113.667 54 -189 54c-53.333 0 -98.166 -9.5 -134.499 -28.5s-58.166 -49.167 -65.499 -90.5
c-4 -26 0.166992 -48.5 12.5 -67.5s30 -34.5 53 -46.5s48.833 -23.333 77.5 -34s57 -22 85 -34s53.333 -25.667 76 -41s39.834 -35.833 51.501 -61.5s14.834 -55.167 9.50098 -88.5c-9.33301 -60.667 -39 -105 -89 -133s-109 -41.667 -177 -41c-94 0 -173 20 -237 60l9 57
c62.667 -40.667 138.334 -61 227.001 -61c126 0 195 40.333 207 121c4.66699 27.333 0.833984 51.166 -11.499 71.499s-29.833 36.833 -52.5 49.5s-48.334 24.5 -77.001 35.5l-85 34c-28 11.667 -53.333 25 -76 40s-39.834 34.667 -51.501 59s-15.167 52.833 -10.5 85.5z
" />
    <glyph glyph-name="T" unicode="T" horiz-adv-x="596" 
d="M77 700h571l-9 -57h-256l-102 -643h-59l102 643h-256z" />
    <glyph glyph-name="U" unicode="U" horiz-adv-x="753" 
d="M669 700h59.002l-71 -452c-14.667 -91.333 -50.667 -157.333 -108 -198s-128.333 -61 -213 -61c-40.667 0 -77.334 4.66699 -110.001 14s-61.334 24 -86.001 44s-42 47.333 -52 82s-11.333 75.667 -4 123l71 448h59l-71 -450c-21.333 -136.667 42.667 -205 192 -205
c153.333 0 241.333 69.667 264 209z" />
    <glyph glyph-name="V" unicode="V" horiz-adv-x="685" 
d="M327 0h-61l-186 700h62l162 -633l365 633h66z" />
    <glyph glyph-name="W" unicode="W" horiz-adv-x="995" 
d="M979 700h63l-329 -700h-67l-97 590l-285 -590h-70l-111 700h60l98 -624l299 621h49l101 -613z" />
    <glyph glyph-name="X" unicode="X" horiz-adv-x="628" 
d="M33 0h-75l333 363l-203 337h66l177 -294l270 294h75l-316 -344l214 -356h-65l-189 312z" />
    <glyph glyph-name="Y" unicode="Y" horiz-adv-x="643" 
d="M305 0h-60l44 273l-207 427h62l181 -370l299 370h68l-343 -427z" />
    <glyph glyph-name="Z" unicode="Z" horiz-adv-x="578" 
d="M501 0h-517l8 53l524 590h-416l9 57h491l-8 -53l-525 -590h444z" />
    <glyph glyph-name="bracketleft" unicode="[" horiz-adv-x="264" 
d="M177 -110h-167l146 920h166l-9 -57h-107l-128 -806h107z" />
    <glyph glyph-name="backslash" unicode="\" horiz-adv-x="413" 
d="M322 -58h-42l-169 816h42z" />
    <glyph glyph-name="bracketright" unicode="]" horiz-adv-x="265" 
d="M128 -110h-167l8 57h108l128 806h-107l8 57h167z" />
    <glyph glyph-name="asciicircum" unicode="^" horiz-adv-x="513" 
d="M135 390h-66l230 310h50l132 -310h-61l-103 247z" />
    <glyph glyph-name="underscore" unicode="_" horiz-adv-x="443" 
d="M374 -140h-442l8 54h443z" />
    <glyph glyph-name="grave" unicode="`" horiz-adv-x="177" 
d="M262 773h-61l-76 142h69z" />
    <glyph glyph-name="a" unicode="a" horiz-adv-x="618" 
d="M458 99c-58 -73.333 -130.997 -110.001 -218.997 -110.001c-69.333 0 -123.333 24.167 -162 72.5s-52 109.5 -40 183.5c11.333 72.667 43.166 131.834 95.499 177.501s112.166 68.5 179.499 68.5c45.333 0 84.166 -10.5 116.499 -31.5s56.833 -47.833 73.5 -80.5l16 101
h51l-76 -480h-51zM92.0029 240.999c-9.33301 -60 1 -108.331 31 -144.998s71.333 -55 124 -55c46 0 88.5 12.833 127.5 38.5s68.833 57.5 89.5 95.5l21 132c-8 37.333 -27.333 68.666 -58 93.999s-67.667 38 -111 38c-54.667 0 -103.167 -17.833 -145.5 -53.5
s-68.5 -83.834 -78.5 -144.501z" />
    <glyph glyph-name="b" unicode="b" horiz-adv-x="619" 
d="M144 700l57.001 -0.000976562l-51 -315c24.667 31.333 55.667 56.833 93 76.5s77.666 29.5 120.999 29.5c68 0 121.5 -24.167 160.5 -72.5s52.833 -109.5 41.5 -183.5c-11.333 -73.333 -42.5 -132.666 -93.5 -177.999s-111.833 -68 -182.5 -68
c-87.333 0 -150.333 37.667 -189 113l-17 -102h-51zM510.001 238.999c9.33301 59.333 -1.33301 107.502 -32 144.502s-71.667 55.5 -123 55.5c-46 0 -88.333 -12.833 -127 -38.5s-68.667 -57.834 -90 -96.501l-22 -131c9.33301 -38 29 -69.5 59 -94.5s67 -37.5 111 -37.5
c58 0 107.333 17.667 148 53s66 83.666 76 144.999z" />
    <glyph glyph-name="c" unicode="c" horiz-adv-x="495" 
d="M37 246c8.66699 55.333 29.334 102.167 62.001 140.5s69 65.333 109 81s81.667 23.5 125 23.5c56 0 103.667 -14 143 -42l-9 -53c-33.333 28.667 -76.666 43 -129.999 43c-36.667 0 -71.334 -6.33301 -104.001 -19s-62.334 -34.5 -89.001 -65.5
s-43.667 -69.167 -51 -114.5c-10.667 -64.667 1 -114 35 -148s80.333 -51 139 -51c52.667 0 104.334 14 155.001 42l-9 -59c-47.333 -23.333 -100 -35 -158 -35c-70.667 0 -127.834 22.333 -171.501 67s-59.167 108 -46.5 190z" />
    <glyph glyph-name="d" unicode="d" horiz-adv-x="618" 
d="M548 700l55.999 -0.000976562l-111 -700h-50l16 102c-55.333 -75.333 -128.666 -113 -219.999 -113c-69.333 0 -123.333 24.167 -162 72.5s-52 109.5 -40 183.5c11.333 72.667 42.5 131.834 93.5 177.501s110.5 68.5 178.5 68.5c46 0 85.167 -10.333 117.5 -31
s55.833 -47 70.5 -79zM485.999 306.999c-8.66699 38 -28.167 69.499 -58.5 94.499s-67.5 37.5 -111.5 37.5c-55.333 0 -104 -17.667 -146 -53s-68 -83.666 -78 -144.999c-9.33301 -59.333 1.16699 -107.5 31.5 -144.5s71.5 -55.5 123.5 -55.5c46 0 88.5 13 127.5 39
s68.833 58 89.5 96z" />
    <glyph glyph-name="e" unicode="e" horiz-adv-x="547" 
d="M36 242c12 78 44.501 139.002 97.501 183.002s111.5 66 175.5 66c42.667 0 79.167 -8.5 109.5 -25.5s51.666 -39 63.999 -66s19.666 -57 21.999 -90s-3.16699 -65.5 -16.5 -97.5h-399c-5.33301 -56.667 10.5 -99.334 47.5 -128.001s82.833 -43 137.5 -43
c60.667 0 116.667 13.333 168 40l-9 -57c-46.667 -23.333 -102.667 -35 -168 -35c-32.667 0 -63.667 5.16699 -93 15.5s-55.666 25.5 -78.999 45.5s-40.333 46.667 -51 80s-12.667 70.666 -6 111.999zM446.001 262.002c2.66699 14.667 4.49805 29.8311 5.49805 45.498
s-1.5 31.334 -7.5 47.001s-14 29.834 -24 42.501s-24.667 22.834 -44 30.501s-41.666 11.5 -66.999 11.5c-50 0 -95.167 -15.833 -135.5 -47.5s-66.166 -74.834 -77.499 -129.501h350z" />
    <glyph glyph-name="f" unicode="f" horiz-adv-x="369" 
d="M152 557c8.66699 54 30.5 93.167 65.5 117.5s76.167 36.5 123.5 36.5c42 0 79 -7.66699 111 -23l-9 -51c-27.333 14.667 -59.333 22 -96 22c-80.667 0 -127 -36 -139 -108l-11 -71h193l-8 -53h-194l-67 -427h-57l68 427h-87l8 53h87z" />
    <glyph glyph-name="g" unicode="g" horiz-adv-x="619" 
d="M494 -2c-12 -78 -44.668 -135.668 -98.001 -173.001s-115.666 -56 -186.999 -56c-76.667 0 -140 16 -190 48l9 54c48 -33.333 106.667 -50 176 -50c60.667 0 112.334 14.667 155.001 44s68.667 75 78 137l15 91c-24 -30.667 -54.333 -55.667 -91 -75
s-77.334 -29 -122.001 -29c-70 0 -124.167 24.167 -162.5 72.5s-51.5 109.5 -39.5 183.5c11.333 72.667 43 131.834 95 177.501s112 68.5 180 68.5c89.333 0 152.333 -38.667 189 -116l16 105h53zM91.999 240.999c-9.33301 -59.333 0.833008 -107.501 30.5 -144.501
s71.167 -55.5 124.5 -55.5c46 0 88.5 12.5 127.5 37.5s68.833 55.833 89.5 92.5l22 136c-8.66699 38 -28 69.5 -58 94.5s-67.333 37.5 -112 37.5c-55.333 0 -104 -17.667 -146 -53s-68 -83.666 -78 -144.999z" />
    <glyph glyph-name="h" unicode="h" horiz-adv-x="584" 
d="M144 700h57l-49 -303c60 62.667 126 94 198 94c56.667 0 100 -18 130 -54s40.667 -83.667 32 -143l-47 -294h-57l46 291c8 48 1 84.667 -21 110s-54 38 -96 38c-37.333 0 -73.5 -11 -108.5 -33s-64.167 -48.333 -87.5 -79l-51 -327h-57z" />
    <glyph glyph-name="i" unicode="i" horiz-adv-x="221" 
d="M93 0h-57l76 480h57zM202 622c-4 -22.667 -18 -33.999 -42 -33.999c-11.333 0 -20.5 3.66699 -27.5 11s-9.5 17.333 -7.5 30c3.33301 23.333 17.333 35 42 35c11.333 0 20.5 -3.83301 27.5 -11.5s9.5 -17.834 7.5 -30.501z" />
    <glyph glyph-name="j" unicode="j" horiz-adv-x="221" 
d="M76 -102c-6.66699 -46 -23.667 -79 -51 -99s-59 -30 -95 -30c-27.333 0 -52 4.66699 -74 14l8 50c17.333 -8 36 -12 56 -12c58 0 92 29.667 102 89l90 570h57zM202 622c-4 -22.667 -18 -33.999 -42 -33.999c-11.333 0 -20.5 3.66699 -27.5 11s-9.5 17.333 -7.5 30
c3.33301 23.333 17.333 35 42 35c11.333 0 20.5 -3.83301 27.5 -11.5s9.5 -17.834 7.5 -30.501z" />
    <glyph glyph-name="k" unicode="k" horiz-adv-x="508" 
d="M444 480h68l-227 -234l172 -246h-64l-158 226h-110l-35 -226h-57l111 700h57l-67 -422h114z" />
    <glyph glyph-name="l" unicode="l" horiz-adv-x="221" 
d="M152 730h57l-116 -730h-57z" />
    <glyph glyph-name="m" unicode="m" horiz-adv-x="893" 
d="M477 399c62.667 61.333 127.666 91.999 194.999 91.999c54.667 0 95.5 -17.833 122.5 -53.5s36.167 -81.167 27.5 -136.5l-48 -301h-56l48 306c6.66699 40 0.666992 72.167 -18 96.5s-47 36.5 -85 36.5c-61.333 0 -119.666 -31.667 -174.999 -95
c0 -13.333 -1 -27.666 -3 -42.999l-48 -301h-57l49 306c6 40 -0.166992 72.167 -18.5 96.5s-46.5 36.5 -84.5 36.5c-63.333 0 -124.333 -34.333 -183 -103l-53 -336h-57l76 480h51l-14 -82c22 24 49.667 45.5 83 64.5s68.333 28.5 105 28.5c36 0 66.333 -8.16699 91 -24.5
s42 -38.833 52 -67.5z" />
    <glyph glyph-name="n" unicode="n" horiz-adv-x="584" 
d="M145 391c61.333 66.667 130 100 206 100c56 0 99 -18.167 129 -54.5s40.667 -83.833 32 -142.5l-47 -294h-57l46 291c8 48 1 84.667 -21 110s-54 38 -96 38c-37.333 0 -73.5 -11 -108.5 -33s-64.167 -48 -87.5 -78l-51 -328h-57l76 480h51z" />
    <glyph glyph-name="o" unicode="o" horiz-adv-x="593" 
d="M540 235c-12 -76.667 -46.168 -136.834 -102.501 -180.501s-118.833 -65.5 -187.5 -65.5c-31.333 0 -61.166 5.83301 -89.499 17.5s-52.833 28 -73.5 49s-35.667 48 -45 81s-11 69.167 -5 108.5c12 76.667 46.167 136.834 102.5 180.501s118.833 65.5 187.5 65.5
c67.333 0 122.833 -23.167 166.5 -69.5s59.167 -108.5 46.5 -186.5zM91.999 238c-9.33301 -59.333 1.83301 -106.666 33.5 -141.999s74.5 -53 128.5 -53c56.667 0 106.834 17.833 150.501 53.5s70.5 84.167 80.5 145.5c9.33301 59.333 -1.83398 106.666 -33.501 141.999
s-74.5 53 -128.5 53c-56.667 0 -107 -17.833 -151 -53.5s-70.667 -84.167 -80 -145.5z" />
    <glyph glyph-name="p" unicode="p" horiz-adv-x="619" 
d="M144 378c57.333 75.333 130.667 113.001 220 113.001c68 0 121.5 -24.167 160.5 -72.5s52.833 -109.5 41.5 -183.5c-11.333 -72.667 -43 -131.834 -95 -177.501s-112.333 -68.5 -181 -68.5c-46 0 -84.5 10.5 -115.5 31.5s-53.833 48.5 -68.5 82.5l-51 -323h-57l111 700
h51zM510.001 239.001c10 59.333 -0.166992 107.501 -30.5 144.501s-71.833 55.5 -124.5 55.5c-45.333 0 -87.5 -13 -126.5 -39s-69.167 -58.333 -90.5 -97l-21 -130c8.66699 -38 28.167 -69.5 58.5 -94.5s67.5 -37.5 111.5 -37.5c55.333 0 103.833 17.667 145.5 53
s67.5 83.666 77.5 144.999z" />
    <glyph glyph-name="q" unicode="q" horiz-adv-x="618" 
d="M37 245c11.333 72.667 43.168 131.833 95.501 177.5s112.166 68.5 179.499 68.5c44.667 0 83.334 -10.667 116.001 -32s57 -49 73 -83l17 104h51l-111 -700h-56l50 315c-24 -31.333 -54.333 -56.833 -91 -76.5s-77.334 -29.5 -122.001 -29.5
c-69.333 0 -123.333 24.167 -162 72.5s-52 109.5 -40 183.5zM486.002 307.999c-8.66699 37.333 -28.333 68.501 -59 93.501s-67.667 37.5 -111 37.5c-54.667 0 -103.167 -17.833 -145.5 -53.5s-68.5 -83.834 -78.5 -144.501c-9.33301 -60 1 -108.333 31 -145
s71.333 -55 124 -55c46 0 88.5 12.833 127.5 38.5s68.833 57.5 89.5 95.5z" />
    <glyph glyph-name="r" unicode="r" horiz-adv-x="356" 
d="M143 371c52.667 84.667 129.332 124.333 229.999 119l-9 -58c-49.333 5.33301 -94.666 -5.66699 -135.999 -33s-72 -63 -92 -107l-46 -292h-57l76 480h51z" />
    <glyph glyph-name="s" unicode="s" horiz-adv-x="462" 
d="M57 365c6 42 28.334 73.5 67.001 94.5s82.667 31.5 132 31.5c63.333 0 117 -14 161 -42l-8 -52c-42.667 28.667 -94.334 43 -155.001 43c-36 0 -67.5 -6.66699 -94.5 -20s-42.5 -33.333 -46.5 -60c-3.33301 -22.667 5.16699 -41.167 25.5 -55.5
s45.666 -25.666 75.999 -33.999s60.5 -17.5 90.5 -27.5s54.333 -25.667 73 -47s25.334 -48.333 20.001 -81c-6.66699 -43.333 -29.5 -75.166 -68.5 -95.499s-85.167 -30.5 -138.5 -30.5c-73.333 0 -132.666 16.333 -177.999 49l9 56c46 -35.333 103 -53 171 -53
c40 0 73.833 6.5 101.5 19.5s43.5 33.167 47.5 60.5c3.33301 22 -4.83398 40.167 -24.501 54.5s-44.667 25.666 -75 33.999s-60.5 17.666 -90.5 27.999s-54.5 26 -73.5 47s-26.167 47.833 -21.5 80.5z" />
    <glyph glyph-name="t" unicode="t" horiz-adv-x="389" 
d="M157 631l59.001 16.999l-27 -168h202l-8 -53h-202l-45 -281c-6 -37.333 -1.33301 -64.166 14 -80.499s41 -24.5 77 -24.5c38 0 75 9 111 27l-9 -55c-32.667 -16 -72.334 -24 -119.001 -24c-45.333 0 -80.5 13.167 -105.5 39.5s-33.5 63.833 -25.5 112.5l46 286h-90l8 53
h90z" />
    <glyph glyph-name="u" unicode="u" horiz-adv-x="583" 
d="M477 480h56.998l-76 -480h-51l15 89c-22 -27.333 -51 -50.833 -87 -70.5s-73.667 -29.5 -113 -29.5c-58 0 -102.5 18.167 -133.5 54.5s-41.833 84.5 -32.5 144.5l46 292h57l-46 -291c-8 -48 -1.16699 -84.667 20.5 -110s53.834 -38 96.501 -38
c40 0 76.833 10.667 110.5 32s61.834 48 84.501 80z" />
    <glyph glyph-name="v" unicode="v" horiz-adv-x="530" 
d="M481 480h62l-294 -480h-60l-141 480h59l120 -416z" />
    <glyph glyph-name="w" unicode="w" horiz-adv-x="795" 
d="M742 480h61l-248 -480h-59l-79 399l-209 -399h-61l-96 480h57l81 -408l212 405h51l81 -404z" />
    <glyph glyph-name="x" unicode="x" horiz-adv-x="486" 
d="M35 0h-67l236 247l-148 233h64l121 -194l185 194h67l-225 -235l158 -245h-64l-130 206z" />
    <glyph glyph-name="y" unicode="y" horiz-adv-x="535" 
d="M238 58l247 422h62l-332 -560c-60 -100.667 -124.333 -151 -193 -151c-20 0 -37.333 2.33301 -52 7l7 48c11.333 -3.33301 24.666 -5 39.999 -5c28.667 0 54.834 10 78.501 30s48.167 51.333 73.5 94l34 57l-160 480h57z" />
    <glyph glyph-name="z" unicode="z" horiz-adv-x="457" 
d="M77 480h364l-9 -50l-366 -380h319l-8 -50h-389l8 50l367 380h-294z" />
    <glyph glyph-name="braceleft" unicode="{" horiz-adv-x="287" 
d="M191 -60l-8.00098 -51.001c-45.333 -8 -77.833 -2.16699 -97.5 17.5s-26.167 49.834 -19.5 90.501l39 243c8.66699 56 -15 84 -71 84l8 52c56 0 88.667 30 98 90l39 243c14 84.667 64 118 150 100l-8 -49c-26.667 4.66699 -46.5 0.5 -59.5 -12.5
s-22.167 -35.833 -27.5 -68.5l-36 -229c-9.33301 -55.333 -36 -89 -80 -101c41.333 -9.33301 57 -44 47 -104l-36 -229c-4.66699 -30 -2.66699 -51.167 6 -63.5s27.334 -16.5 56.001 -12.5z" />
    <glyph glyph-name="bar" unicode="|" horiz-adv-x="206" 
d="M71 -100h-59l144 910h59z" />
    <glyph glyph-name="braceright" unicode="}" horiz-adv-x="285" 
d="M126 -8c-14 -86.667 -64.002 -120.332 -150.002 -100.999l8 52c26 -6 45.667 -3.16699 59 8.5s22.333 32.167 27 61.5l38 243c10 58 38.667 90.333 86 97c-20 4.66699 -35.167 15.834 -45.5 33.501s-13.166 41.167 -8.49902 70.5l37 230
c4.66699 31.333 2.66699 52.833 -6 64.5s-27.667 15.167 -57 10.5l8 49c44.667 8.66699 76.834 3 96.501 -17s26.167 -50.333 19.5 -91l-38 -242c-4.66699 -30.667 -0.166992 -52.834 13.5 -66.501s32.167 -20.5 55.5 -20.5l-7 -50c-24.667 0 -46 -7.33301 -64 -22
s-29.333 -37.334 -34 -68.001z" />
    <glyph glyph-name="asciitilde" unicode="~" horiz-adv-x="582" 
d="M525 377c-2 -32.667 -13 -58.334 -33 -77.001s-45.333 -28 -76 -28c-25.333 0 -64.833 10.333 -118.5 31s-91.5 31 -113.5 31c-17.333 0 -31.5 -4.66699 -42.5 -14s-16.833 -22 -17.5 -38h-53c2.66699 32.667 14.167 58.334 34.5 77.001s45.166 28 74.499 28
c26.667 0 66.334 -10.167 119.001 -30.5s90.667 -30.5 114 -30.5c16.667 0 30.5 4.5 41.5 13.5s16.833 21.5 17.5 37.5h53z" />
    <glyph glyph-name="exclamdown" unicode="&#xa1;" horiz-adv-x="203" 
d="M50 -217h-59l85 511h50zM165 449c-4 -22.667 -17.667 -34 -41 -34c-12 0 -21.5 3.83301 -28.5 11.5s-9.16699 17.834 -6.5 30.501c1.33301 10.667 6 19 14 25s17 9 27 9c12 0 21.5 -3.83301 28.5 -11.5s9.16699 -17.834 6.5 -30.501z" />
    <glyph glyph-name="cent" unicode="&#xa2;" horiz-adv-x="511" 
d="M481 449l-9 -53.001c-32.667 27.333 -73.667 41.666 -123 42.999l-62 -398c48.667 3.33301 95.334 17.333 140.001 42l-9 -59c-42.667 -20 -89.334 -31.667 -140.001 -35l-17 -109h-50l18 111c-63.333 6.66699 -113.333 31.834 -150 75.501s-49 103.5 -37 179.5
c6 38.667 17.833 73.334 35.5 104.001s39 55.5 64 74.5s51.5 34 79.5 45s57 17.833 87 20.5l17 110h50l-17 -110c45.333 -2 86.333 -15.667 123 -41zM299 435.999c-50 -8 -93.667 -28.332 -131 -60.999s-60.666 -77.667 -69.999 -135s-0.833008 -102.833 25.5 -136.5
s64.166 -53.834 113.499 -60.501z" />
    <glyph glyph-name="sterling" unicode="&#xa3;" horiz-adv-x="603" 
d="M517 0h-523l9 57h34c22.667 0 42 8.16699 58 24.5s26.333 38.5 31 66.5l25 161h-83l9 55h83l16 99c8 54 25.833 98.667 53.5 134s58.5 59.833 92.5 73.5s71.333 20.5 112 20.5c54 0 101.333 -13 142 -39l-9 -55c-38 26 -83.333 39 -136 39
c-48.667 0 -91.167 -14.167 -127.5 -42.5s-59.5 -73.5 -69.5 -135.5l-15 -94h237l-9 -55h-236l-27 -165c-6.66699 -46 -25 -75.667 -55 -89l398 2z" />
    <glyph glyph-name="currency" unicode="&#xa4;" horiz-adv-x="575" 
d="M160 195l-76 -64.999l-34 40l73 63c-22 32.667 -29.667 73 -23 121c8 46 27.667 84.667 59 116l-51 60l45 40l54 -64c35.333 22 74.333 33 117 33s79.667 -11.333 111 -34l75 65l34 -40l-73 -63c22 -34 29.333 -74.333 22 -121
c-6.66699 -44.667 -26 -83.334 -58 -116.001l52 -60l-46 -40l-54 64c-35.333 -22 -74.333 -33 -117 -33c-42 0 -78.667 11.333 -110 34zM157 346.001c-6.66699 -40 1 -72 23 -96s53 -36 93 -36c41.333 0 77.5 12.833 108.5 38.5s49.833 59.5 56.5 101.5
c6.66699 40 -1 72 -23 96s-53 36 -93 36c-41.333 0 -77.5 -12.667 -108.5 -38s-49.833 -59.333 -56.5 -102z" />
    <glyph glyph-name="yen" unicode="&#xa5;" horiz-adv-x="655" 
d="M613 680h66l-293 -363h150l-8 -50h-177l-12 -74h178l-8 -50h-178l-23 -143h-59l23 143h-177l8 50h177l12 74h-177l8 50h150l-178 363h64l170 -355z" />
    <glyph glyph-name="brokenbar" unicode="&#xa6;" horiz-adv-x="223" 
d="M168 459h-59l55 351h59zM79 -100h-59l56 351h59z" />
    <glyph glyph-name="section" unicode="&#xa7;" horiz-adv-x="493" 
d="M398 90c-6.66699 -41.333 -29.166 -72.332 -67.499 -92.999s-83.833 -31 -136.5 -31c-66.667 0 -122.667 15.333 -168 46l8 53c46.667 -32.667 99.667 -49 159 -49c40.667 0 74.667 6.5 102 19.5s43 33.167 47 60.5c2 11.333 0.833008 21.833 -3.5 31.5
s-9.66602 17.5 -15.999 23.5s-16.166 12 -29.499 18s-25 10.667 -35 14s-24.333 7.66602 -43 12.999c-20 6 -36 11 -48 15s-26.167 10.167 -42.5 18.5s-28.5 17 -36.5 26s-14.333 21 -19 36s-5.33398 31.5 -2.00098 49.5c7.33301 50 44 93.333 110 130
c-48.667 25.333 -69.334 63 -62.001 113c6.66699 41.333 28.834 72.833 66.501 94.5s80.5 32.5 128.5 32.5c55.333 0 106.333 -13.667 153 -41l-8 -52c-40 28.667 -88 43 -144 43c-35.333 0 -66.333 -7.33301 -93 -22s-42 -35 -46 -61c-2 -12 -0.666992 -22.667 4 -32
s10.167 -17 16.5 -23s17.166 -12.167 32.499 -18.5s27.666 -10.833 36.999 -13.5l45 -13c24 -6.66699 43.667 -13.167 59 -19.5s31 -14.833 47 -25.5s27.167 -24.334 33.5 -41.001s7.5 -36 3.5 -58c-8 -49.333 -46 -92.333 -114 -129c49.333 -25.333 70 -63.666 62 -114.999
zM235.001 243.001c6.66699 -2 15.8311 -4.5 27.498 -7.5s19.834 -5.16699 24.501 -6.5c27.333 10 51.333 24.167 72 42.5s33 38.833 37 61.5c2 14.667 0.833008 27.167 -3.5 37.5s-12.666 19.333 -24.999 27s-23.5 13.5 -33.5 17.5s-25 9.33301 -45 16l-19.5 5.5
c-8.33301 2.33301 -15.833 4.33301 -22.5 6s-12.667 3.5 -18 5.5c-26 -9.33301 -49.333 -23.666 -70 -42.999s-32.667 -40.333 -36 -63c-2 -12 -1 -22.667 3 -32s8.33301 -16.833 13 -22.5s14 -11.834 28 -18.501s24 -11 30 -13z" />
    <glyph glyph-name="dieresis" unicode="&#xa8;" horiz-adv-x="291" 
d="M399 833c-1.33301 -10.667 -6.33301 -19.668 -15 -27.001s-18.334 -11 -29.001 -11c-12.667 0 -22.667 4.5 -30 13.5s-10 19.5 -8 31.5c2 10 7.33301 18.833 16 26.5s18.334 11.5 29.001 11.5c12 0 21.667 -4.66699 29 -14s10 -19.666 8 -30.999zM198 832.999
c-1.33301 -10.667 -6.33301 -19.668 -15 -27.001s-18.334 -11 -29.001 -11c-12.667 0 -22.667 4.5 -30 13.5s-10 19.5 -8 31.5c2 10 7.33301 18.833 16 26.5s18.334 11.5 29.001 11.5c12 0 21.667 -4.66699 29 -14s10 -19.666 8 -30.999z" />
    <glyph glyph-name="copyright" unicode="&#xa9;" horiz-adv-x="851" 
d="M809 345c-8.66699 -57.333 -27.6689 -109.331 -57.002 -155.998s-64.166 -84.167 -104.499 -112.5s-83.333 -50 -129 -65s-91.5 -22.5 -137.5 -22.5c-44.667 0 -87.667 8 -129 24s-78.166 38.667 -110.499 68s-56.166 67.833 -71.499 115.5s-18.333 100.5 -9 158.5
c7.33301 46 21.333 88.833 42 128.5s45.334 73.167 74.001 100.5s60.5 50.666 95.5 69.999s70.833 33.666 107.5 42.999s73 14 109 14c44.667 0 87.667 -8 129 -24s78.166 -38.667 110.499 -68s56.166 -67.833 71.499 -115.5s18.333 -100.5 9 -158.5zM557.998 182.002
c-44 -22 -90.002 -33 -138.002 -33c-53.333 0 -97.666 17.333 -132.999 52s-48 83.334 -38 146.001c10.667 67.333 39.5 118.166 86.5 152.499s98.167 51.5 153.5 51.5c47.333 0 87 -11.667 119 -35l-4 -42c-31.333 22 -67.666 33 -108.999 33
c-47.333 0 -90 -13.5 -128 -40.5s-61.333 -68.5 -70 -124.5c-8 -50 1.33301 -87.333 28 -112s62 -37 106 -37s87.667 11.333 131 34zM83.9961 355.002c-8.66699 -53.333 -6.16602 -102.333 7.50098 -147s35.167 -80.834 64.5 -108.501s63.333 -49.167 102 -64.5
s79 -23 121 -23c43.333 0 86.666 7 129.999 21s84.333 34.167 123 60.5s71.834 61.333 99.501 105s45.834 92.5 54.501 146.5c8.66699 53.333 6.16699 102.333 -7.5 147s-35 80.834 -64 108.501s-62.833 49.167 -101.5 64.5s-79 23 -121 23c-44 0 -87.667 -7 -131 -21
s-84.333 -34.167 -123 -60.5s-71.834 -61.333 -99.501 -105s-45.834 -92.5 -54.501 -146.5z" />
    <glyph glyph-name="guillemotleft" unicode="&#xab;" horiz-adv-x="462" 
d="M365 63h-60l-94 171l2 14l147 169h62l-154 -177zM193 63h-60l-94 171l2 14l147 169h62l-154 -177z" />
    <glyph glyph-name="logicalnot" unicode="&#xac;" horiz-adv-x="575" 
d="M498 284h-57l23 142h-381l8 54h438z" />
    <glyph glyph-name="registered" unicode="&#xae;" horiz-adv-x="851" 
d="M809 345c-8.66699 -57.333 -27.6689 -109.331 -57.002 -155.998s-64.166 -84.167 -104.499 -112.5s-83.333 -50 -129 -65s-91.5 -22.5 -137.5 -22.5c-44.667 0 -87.667 8 -129 24s-78.166 38.667 -110.499 68s-56.166 67.833 -71.499 115.5s-18.333 100.5 -9 158.5
c7.33301 46 21.333 88.833 42 128.5s45.334 73.167 74.001 100.5s60.5 50.666 95.5 69.999s70.833 33.666 107.5 42.999s73 14 109 14c44.667 0 87.667 -8 129 -24s78.166 -38.667 110.499 -68s56.166 -67.833 71.499 -115.5s18.333 -100.5 9 -158.5zM83.998 355.002
c-8.66699 -53.333 -6.16602 -102.333 7.50098 -147s35.167 -80.834 64.5 -108.501s63.333 -49.167 102 -64.5s79 -23 121 -23c43.333 0 86.666 7 129.999 21s84.333 34.167 123 60.5s71.834 61.333 99.501 105s45.834 92.5 54.501 146.5
c8.66699 53.333 6.16699 102.333 -7.5 147s-35 80.834 -64 108.501s-62.833 49.167 -101.5 64.5s-79 23 -121 23c-44 0 -87.667 -7 -131 -21s-84.333 -34.167 -123 -60.5s-71.834 -61.333 -99.501 -105s-45.834 -92.5 -54.501 -146.5zM310.999 152.002l-43.001 -0.00195312
l62 394h160c12.667 0 25.167 -1 37.5 -3s24.833 -6 37.5 -12s23.5 -13.5 32.5 -22.5s15.667 -21.167 20 -36.5s4.83301 -32.666 1.5 -51.999c-9.33301 -57.333 -44.333 -93.666 -105 -108.999l86 -159h-48l-82 153c-5.33301 -0.666992 -12.666 -1 -21.999 -1h-113z
M365.998 504l-25.002 -158h113c72.667 0 113.667 27 123 81c2.66699 17.333 1.33398 31.5 -3.99902 42.5s-13.833 18.833 -25.5 23.5s-22.167 7.66699 -31.5 9s-20.666 2 -33.999 2h-116z" />
    <glyph glyph-name="macron" unicode="&#xaf;" horiz-adv-x="333" 
d="M140 847h280l-8 -52h-280z" />
    <glyph glyph-name="degree" unicode="&#xb0;" horiz-adv-x="392" 
d="M388 564c-6.66699 -44 -26.3301 -78.833 -58.9971 -104.5s-69.334 -38.5 -110.001 -38.5c-41.333 0 -75.333 13.833 -102 41.5s-36.334 64.5 -29.001 110.5c7.33301 43.333 27.666 77.833 60.999 103.5s70 38.5 110 38.5c40.667 0 74.167 -14 100.5 -42
s35.833 -64.333 28.5 -109zM131.004 569c-4.66699 -31.333 1.5 -56.834 18.5 -76.501s40.167 -29.5 69.5 -29.5c32 0 60 9.33301 84 28s38.667 44.334 44 77.001c4.66699 30.667 -1.5 55.667 -18.5 75s-40.167 29 -69.5 29c-32 0 -60 -9.16699 -84 -27.5
s-38.667 -43.5 -44 -75.5z" />
    <glyph glyph-name="plusminus" unicode="&#xb1;" horiz-adv-x="577" 
d="M366 591l-30 -191h192l-9 -54h-191l-31 -192h-54l31 192h-192l8 54h192l30 191h54zM464 0h-437l9 54h437z" />
    <glyph glyph-name="acute" unicode="&#xb4;" horiz-adv-x="177" 
d="M191 773h-63l112 142h72z" />
    <glyph glyph-name="paragraph" unicode="&#xb6;" horiz-adv-x="619" 
d="M232 -220h-59l81 507c-68 0 -118.833 18.5 -152.5 55.5s-45.167 88.5 -34.5 154.5c10 64 37.167 113.833 81.5 149.5s100.5 53.5 168.5 53.5h283l-146 -920h-59l136 863h-162z" />
    <glyph glyph-name="periodcentered" unicode="&#xb7;" horiz-adv-x="214" 
d="M138 235c-4 -23.333 -18 -35 -42 -35c-12 0 -21.667 3.83301 -29 11.5s-10 18.167 -8 31.5c2 11.333 7 20 15 26s17.333 9 28 9c12 0 21.5 -3.83301 28.5 -11.5s9.5 -18.167 7.5 -31.5z" />
    <glyph glyph-name="cedilla" unicode="&#xb8;" horiz-adv-x="213" 
d="M55 0h49.002l-30 -73c30.667 3.33301 56.167 -1.66699 76.5 -15s28.833 -33.333 25.5 -60c-4 -26.667 -17.5 -47.167 -40.5 -61.5s-52.833 -21.5 -89.5 -21.5s-71.334 7 -104.001 21l8 46c26.667 -14 57 -21 91 -21c53.333 0 82.333 14 87 42
c1.33301 12 -3.5 21.333 -14.5 28s-25.333 10 -43 10s-36.834 -2 -57.501 -6z" />
    <glyph glyph-name="guillemotright" unicode="&#xbb;" horiz-adv-x="462" 
d="M257 63h-62l154 177l-96 177h59l95 -171l-3 -14zM86 63h-62l154 177l-96 177h59l95 -171l-3 -14z" />
    <glyph glyph-name="onequarter" unicode="&#xbc;" horiz-adv-x="940" 
d="M792 408h54l-43 -271h77l-7 -46h-77l-15 -91h-48l14 91h-228l7 45zM754 137l32 202l-198 -202h166zM189 -12h-29l572 723h29zM221 680h37l-57 -361h73l-8 -47h-215l7 47h93l49 309l-92 -34l8 48z" />
    <glyph glyph-name="onehalf" unicode="&#xbd;" horiz-adv-x="893" 
d="M184 -12h-29l572 723h29zM594 378c42.667 24.667 87.332 37 133.999 37c38.667 0 70.334 -10.167 95.001 -30.5s34 -47.833 28 -82.5c-8.66699 -51.333 -54 -98 -136 -140c-22 -11.333 -37.5 -19.666 -46.5 -24.999s-20.833 -13 -35.5 -23s-25.5 -20.333 -32.5 -31
s-11.833 -22.667 -14.5 -36h229l-8 -47h-287l4 26c3.33301 23.333 9.83301 44.166 19.5 62.499s23.334 34.5 41.001 48.5s32.834 24.833 45.501 32.5s31 17.5 55 29.5c36 18 63.5 35.167 82.5 51.5s30.5 35.5 34.5 57.5c3.33301 19.333 -2.33398 34.333 -17.001 45
s-34.334 16 -59.001 16c-46 0 -92.667 -14.667 -140 -44zM215.998 680h37l-57 -361h73l-8 -47h-215l7 47h93l49 309l-92 -34l8 48z" />
    <glyph glyph-name="threequarters" unicode="&#xbe;" horiz-adv-x="992" 
d="M257 -12h-29l572 723h29zM843 408h54l-43 -271h77l-7 -46h-77l-15 -91h-48l14 91h-228l7 45zM805 137l32 202l-198 -202h166zM373 577c-3.33301 -20.667 -12.001 -38.999 -26.001 -54.999s-32.333 -27.333 -55 -34c22 -5.33301 39.833 -16.833 53.5 -34.5
s18.167 -41.167 13.5 -70.5c-6 -36.667 -24.5 -64.834 -55.5 -84.501s-68.5 -29.5 -112.5 -29.5c-52 0 -97.333 9.33301 -136 28l8 48c35.333 -19.333 77.333 -29 126 -29c74.667 0 115.667 25.667 123 77c4 25.333 -1.83301 43.333 -17.5 54s-38.834 16 -69.501 16h-64
l7 47h57c28.667 0 51.834 6.5 69.501 19.5s28.167 29.833 31.5 50.5c2.66699 19.333 -3.83301 34.833 -19.5 46.5s-37.167 17.5 -64.5 17.5c-43.333 0 -86.666 -10.333 -129.999 -31l8 51c40 18 83.333 27 130 27c38.667 0 70 -11 94 -33s33.667 -49 29 -81z" />
    <glyph glyph-name="questiondown" unicode="&#xbf;" horiz-adv-x="483" 
d="M377 -176c-64 -36 -130.335 -54.001 -199.002 -54.001c-64 0 -115 15 -153 45s-53 71.333 -45 124c4 26 14.833 52.167 32.5 78.5s37.5 50.166 59.5 71.499l66.5 63c22.333 20.667 41.833 42.334 58.5 65.001s26.667 44.334 30 65.001h56
c-4.66699 -30 -19.334 -61 -44.001 -93s-50.667 -59.667 -78 -83s-53.166 -50.333 -77.499 -81s-38.833 -60 -43.5 -88c-6 -36.667 4.33301 -64.167 31 -82.5s66.334 -27.5 119.001 -27.5c66.667 0 132.334 19.333 197.001 58zM320.998 448.999
c-2 -11.333 -6.99902 -20 -14.999 -26s-17.333 -9 -28 -9c-12 0 -21.5 3.83301 -28.5 11.5s-9.16699 17.834 -6.5 30.501c1.33301 11.333 6 20 14 26s17.333 9 28 9c12 0 21.667 -3.83301 29 -11.5s9.66602 -17.834 6.99902 -30.501z" />
    <glyph glyph-name="Agrave" unicode="&#xc0;" horiz-adv-x="714" 
d="M656 0h-62l-53 188h-396l-112 -188h-67l422 700h68zM402 616l-223.998 -372h349l-106 373c-2.66699 10.667 -4.33398 18.667 -5.00098 24c-2.66699 -6 -7.33398 -14.333 -14.001 -25zM482.002 773h-61l-76 142h69z" />
    <glyph glyph-name="Aacute" unicode="&#xc1;" horiz-adv-x="714" 
d="M656 0h-62l-53 188h-396l-112 -188h-67l422 700h68zM402 616l-223.998 -372h349l-106 373c-2.66699 10.667 -4.33398 18.667 -5.00098 24c-2.66699 -6 -7.33398 -14.333 -14.001 -25zM451.002 773h-63l112 142h72z" />
    <glyph glyph-name="Acircumflex" unicode="&#xc2;" horiz-adv-x="714" 
d="M656 0h-62l-53 188h-396l-112 -188h-67l422 700h68zM402 616l-223.998 -372h349l-106 373c-2.66699 10.667 -4.33398 18.667 -5.00098 24c-2.66699 -6 -7.33398 -14.333 -14.001 -25zM427.002 911h51l108 -137h-62l-76 94l-105 -94h-67z" />
    <glyph glyph-name="Atilde" unicode="&#xc3;" horiz-adv-x="714" 
d="M656 0h-62l-53 188h-396l-112 -188h-67l422 700h68zM402 616l-223.998 -372h349l-106 373c-2.66699 10.667 -4.33398 18.667 -5.00098 24c-2.66699 -6 -7.33398 -14.333 -14.001 -25zM599.002 866c-0.666992 -29.333 -8.83691 -51.999 -24.5039 -67.999
s-35.167 -24 -58.5 -24c-21.333 0 -48.666 8 -81.999 24s-56.333 24 -69 24s-22.667 -3.83301 -30 -11.5s-11 -18.167 -11 -31.5h-49c0.666992 29.333 8.83398 52.166 24.501 68.499s34.834 24.5 57.501 24.5c21.333 0 48.833 -8 82.5 -24s56.834 -24 69.501 -24
c27.333 0 41 14 41 42h49z" />
    <glyph glyph-name="Adieresis" unicode="&#xc4;" horiz-adv-x="714" 
d="M656 0h-62l-53 188h-396l-112 -188h-67l422 700h68zM402 616l-223.998 -372h349l-106 373c-2.66699 10.667 -4.33398 18.667 -5.00098 24c-2.66699 -6 -7.33398 -14.333 -14.001 -25zM581.002 833c-1.33301 -10.667 -6.33301 -19.668 -15 -27.001
s-18.334 -11 -29.001 -11c-12.667 0 -22.667 4.5 -30 13.5s-10 19.5 -8 31.5c2 10 7.33301 18.833 16 26.5s18.334 11.5 29.001 11.5c12 0 21.667 -4.66699 29 -14s10 -19.666 8 -30.999zM380.002 832.999c-1.33301 -10.667 -6.33301 -19.668 -15 -27.001
s-18.334 -11 -29.001 -11c-12.667 0 -22.667 4.5 -30 13.5s-10 19.5 -8 31.5c2 10 7.33301 18.833 16 26.5s18.334 11.5 29.001 11.5c12 0 21.667 -4.66699 29 -14s10 -19.666 8 -30.999z" />
    <glyph glyph-name="Aring" unicode="&#xc5;" horiz-adv-x="714" 
d="M656 0h-62l-53 188h-396l-112 -188h-67l422 700h68zM402 616l-223.998 -372h349l-106 373c-2.66699 10.667 -4.33398 18.667 -5.00098 24c-2.66699 -6 -7.33398 -14.333 -14.001 -25zM549.002 845c-4.66699 -28.667 -18 -51.667 -40 -69s-46.667 -26 -74 -26
c-28 0 -51.167 9.5 -69.5 28.5s-25.166 43.5 -20.499 73.5c4.66699 28 18.167 50.667 40.5 68s47.166 26 74.499 26c28 0 51 -9.5 69 -28.5s24.667 -43.167 20 -72.5zM388.002 848c-2.66699 -16.667 0.666016 -30.5 9.99902 -41.5s21.666 -16.5 36.999 -16.5
c17.333 0 33 5.16699 47 15.5s22.333 24.5 25 42.5c2.66699 16.667 -0.666016 30.5 -9.99902 41.5s-21.666 16.5 -36.999 16.5c-17.333 0 -33 -5.16699 -47 -15.5s-22.333 -24.5 -25 -42.5z" />
    <glyph glyph-name="AE" unicode="&#xc6;" horiz-adv-x="1000" 
d="M1007 700l-9 -57h-375l-41 -262h345l-9 -57h-345l-43 -267h382l-9 -57h-441l30 190h-314l-162 -190h-72l602 700h461zM224 244h276l63 395z" />
    <glyph glyph-name="Ccedilla" unicode="&#xc7;" horiz-adv-x="647" 
d="M653 606c-44.667 32.667 -101.333 49 -170 49c-53.333 0 -105.166 -10.5 -155.499 -31.5s-95.166 -54.833 -134.499 -101.5s-64.333 -102 -75 -166c-8 -51.333 -5.83301 -97.5 6.5 -138.5s32 -73.667 59 -98s57.5 -42.833 91.5 -55.5s70 -19 108 -19
c72 0 136.667 17.333 194 52l-10 -64c-52 -27.333 -113.667 -42 -185 -44l-25 -62c30.667 3.33301 56.167 -1.66699 76.5 -15s28.833 -33.333 25.5 -60c-4 -26.667 -17.5 -47.167 -40.5 -61.5s-52.833 -21.5 -89.5 -21.5s-71.334 7 -104.001 21l8 46
c26.667 -14 57 -21 91 -21c53.333 0 82.333 14 87 42c1.33301 12 -3.5 21.333 -14.5 28s-25.333 10 -43 10s-36.834 -2 -57.501 -6l39 102c-41.333 4 -80 14.833 -116 32.5s-67.833 41.5 -95.5 71.5s-47.5 68.333 -59.5 115s-13.333 98 -4 154
c12 72.667 40.667 136.167 86 190.5s96.833 94 154.5 119s116.5 37.5 176.5 37.5c71.333 0 133 -16 185 -48z" />
    <glyph glyph-name="Egrave" unicode="&#xc8;" horiz-adv-x="621" 
d="M163 700h465l-9 -57h-406l-41 -262h375l-8 -57h-376l-42 -267h411l-9 -57h-471zM456 773h-61l-76 142h69z" />
    <glyph glyph-name="Eacute" unicode="&#xc9;" horiz-adv-x="621" 
d="M163 700h465l-9 -57h-406l-41 -262h375l-8 -57h-376l-42 -267h411l-9 -57h-471zM425 773h-63l112 142h72z" />
    <glyph glyph-name="Ecircumflex" unicode="&#xca;" horiz-adv-x="621" 
d="M163 700h465l-9 -57h-406l-41 -262h375l-8 -57h-376l-42 -267h411l-9 -57h-471zM401 911h51l108 -137h-62l-76 94l-105 -94h-67z" />
    <glyph glyph-name="Edieresis" unicode="&#xcb;" horiz-adv-x="621" 
d="M163 700h465l-9 -57h-406l-41 -262h375l-8 -57h-376l-42 -267h411l-9 -57h-471zM555 833c-1.33301 -10.667 -6.33301 -19.668 -15 -27.001s-18.334 -11 -29.001 -11c-12.667 0 -22.667 4.5 -30 13.5s-10 19.5 -8 31.5c2 10 7.33301 18.833 16 26.5
s18.334 11.5 29.001 11.5c12 0 21.667 -4.66699 29 -14s10 -19.666 8 -30.999zM354 832.999c-1.33301 -10.667 -6.33301 -19.668 -15 -27.001s-18.334 -11 -29.001 -11c-12.667 0 -22.667 4.5 -30 13.5s-10 19.5 -8 31.5c2 10 7.33301 18.833 16 26.5
s18.334 11.5 29.001 11.5c12 0 21.667 -4.66699 29 -14s10 -19.666 8 -30.999z" />
    <glyph glyph-name="Igrave" unicode="&#xcc;" horiz-adv-x="255" 
d="M163 700h59l-111 -700h-59zM252 773h-61l-76 142h69z" />
    <glyph glyph-name="Iacute" unicode="&#xcd;" horiz-adv-x="255" 
d="M163 700h59l-111 -700h-59zM221 773h-63l112 142h72z" />
    <glyph glyph-name="Icircumflex" unicode="&#xce;" horiz-adv-x="255" 
d="M163 700h59l-111 -700h-59zM197 911h51l108 -137h-62l-76 94l-105 -94h-67z" />
    <glyph glyph-name="Idieresis" unicode="&#xcf;" horiz-adv-x="255" 
d="M163 700h59l-111 -700h-59zM351 833c-1.33301 -10.667 -6.33301 -19.668 -15 -27.001s-18.334 -11 -29.001 -11c-12.667 0 -22.667 4.5 -30 13.5s-10 19.5 -8 31.5c2 10 7.33301 18.833 16 26.5s18.334 11.5 29.001 11.5c12 0 21.667 -4.66699 29 -14
s10 -19.666 8 -30.999zM150 832.999c-1.33301 -10.667 -6.33301 -19.668 -15 -27.001s-18.334 -11 -29.001 -11c-12.667 0 -22.667 4.5 -30 13.5s-10 19.5 -8 31.5c2 10 7.33301 18.833 16 26.5s18.334 11.5 29.001 11.5c12 0 21.667 -4.66699 29 -14s10 -19.666 8 -30.999z
" />
    <glyph glyph-name="Eth" unicode="&#xd0;" horiz-adv-x="737" 
d="M165 700l214.001 -0.000976562c118 0 204.667 -32.667 260 -98s74.666 -150.666 57.999 -255.999c-16.667 -104.667 -61 -188.5 -133 -251.5s-169.333 -94.5 -292 -94.5h-218l51 322h-74l8 54h74zM278.001 56.999c102 0 183.666 26.5 244.999 79.5
s99.333 125.5 114 217.5c14.667 90 -0.166016 160.667 -44.499 212s-117.5 77 -219.5 77h-159l-42 -267h232l-9 -54h-231l-42 -265h156z" />
    <glyph glyph-name="Ntilde" unicode="&#xd1;" horiz-adv-x="768" 
d="M111 0h-59l111 700h50l368 -604c0.666992 7.33301 2 17.5 4 30.5s3.33301 23.167 4 30.5l87 543h59l-111 -700h-50l-368 605c-0.666992 -8 -2 -18.5 -4 -31.5s-3.33301 -22.833 -4 -29.5zM627 866c-0.666992 -29.333 -8.83691 -51.999 -24.5039 -67.999
s-35.167 -24 -58.5 -24c-21.333 0 -48.666 8 -81.999 24s-56.333 24 -69 24s-22.667 -3.83301 -30 -11.5s-11 -18.167 -11 -31.5h-49c0.666992 29.333 8.83398 52.166 24.501 68.499s34.834 24.5 57.501 24.5c21.333 0 48.833 -8 82.5 -24s56.834 -24 69.501 -24
c27.333 0 41 14 41 42h49z" />
    <glyph glyph-name="Ograve" unicode="&#xd2;" horiz-adv-x="822" 
d="M784 346c-7.33301 -45.333 -21.6641 -88.835 -42.9971 -130.502s-49 -79.667 -83 -114s-76.333 -61.666 -127 -81.999s-105.667 -30.5 -165 -30.5c-74 0 -136.667 18.167 -188 54.5s-86.666 81.833 -105.999 136.5s-24.333 112.667 -15 174
c7.33301 45.333 22.166 89 44.499 131s50.666 80 84.999 114s76.666 61.167 126.999 81.5s104.166 30.5 161.499 30.5c56 0 106 -10.5 150 -31.5s78.333 -48.833 103 -83.5s42 -73.667 52 -117s11.333 -87.666 4 -132.999zM117.002 349.998
c-3.33301 -29.333 -4 -58.333 -2 -87s9.5 -56.167 22.5 -82.5s29.333 -49.5 49 -69.5s45.334 -36 77.001 -48s67.167 -18 106.5 -18c96.667 0 176.834 30.167 240.501 90.5s101.834 131.833 114.501 214.5c3.33301 29.333 4 58.333 2 87s-9.5 56.167 -22.5 82.5
s-29.333 49.5 -49 69.5s-45.334 36 -77.001 48s-67.167 18 -106.5 18c-96.667 0 -176.834 -30.167 -240.501 -90.5s-101.834 -131.833 -114.501 -214.5zM536.002 772.998h-61l-76 142h69z" />
    <glyph glyph-name="Oacute" unicode="&#xd3;" horiz-adv-x="822" 
d="M784 346c-7.33301 -45.333 -21.6641 -88.835 -42.9971 -130.502s-49 -79.667 -83 -114s-76.333 -61.666 -127 -81.999s-105.667 -30.5 -165 -30.5c-74 0 -136.667 18.167 -188 54.5s-86.666 81.833 -105.999 136.5s-24.333 112.667 -15 174
c7.33301 45.333 22.166 89 44.499 131s50.666 80 84.999 114s76.666 61.167 126.999 81.5s104.166 30.5 161.499 30.5c56 0 106 -10.5 150 -31.5s78.333 -48.833 103 -83.5s42 -73.667 52 -117s11.333 -87.666 4 -132.999zM117.002 349.998
c-3.33301 -29.333 -4 -58.333 -2 -87s9.5 -56.167 22.5 -82.5s29.333 -49.5 49 -69.5s45.334 -36 77.001 -48s67.167 -18 106.5 -18c96.667 0 176.834 30.167 240.501 90.5s101.834 131.833 114.501 214.5c3.33301 29.333 4 58.333 2 87s-9.5 56.167 -22.5 82.5
s-29.333 49.5 -49 69.5s-45.334 36 -77.001 48s-67.167 18 -106.5 18c-96.667 0 -176.834 -30.167 -240.501 -90.5s-101.834 -131.833 -114.501 -214.5zM505.002 772.998h-63l112 142h72z" />
    <glyph glyph-name="Ocircumflex" unicode="&#xd4;" horiz-adv-x="822" 
d="M784 346c-7.33301 -45.333 -21.6641 -88.835 -42.9971 -130.502s-49 -79.667 -83 -114s-76.333 -61.666 -127 -81.999s-105.667 -30.5 -165 -30.5c-74 0 -136.667 18.167 -188 54.5s-86.666 81.833 -105.999 136.5s-24.333 112.667 -15 174
c7.33301 45.333 22.166 89 44.499 131s50.666 80 84.999 114s76.666 61.167 126.999 81.5s104.166 30.5 161.499 30.5c56 0 106 -10.5 150 -31.5s78.333 -48.833 103 -83.5s42 -73.667 52 -117s11.333 -87.666 4 -132.999zM117.002 349.998
c-3.33301 -29.333 -4 -58.333 -2 -87s9.5 -56.167 22.5 -82.5s29.333 -49.5 49 -69.5s45.334 -36 77.001 -48s67.167 -18 106.5 -18c96.667 0 176.834 30.167 240.501 90.5s101.834 131.833 114.501 214.5c3.33301 29.333 4 58.333 2 87s-9.5 56.167 -22.5 82.5
s-29.333 49.5 -49 69.5s-45.334 36 -77.001 48s-67.167 18 -106.5 18c-96.667 0 -176.834 -30.167 -240.501 -90.5s-101.834 -131.833 -114.501 -214.5zM481.002 910.998h51l108 -137h-62l-76 94l-105 -94h-67z" />
    <glyph glyph-name="Otilde" unicode="&#xd5;" horiz-adv-x="822" 
d="M784 346c-7.33301 -45.333 -21.6641 -88.835 -42.9971 -130.502s-49 -79.667 -83 -114s-76.333 -61.666 -127 -81.999s-105.667 -30.5 -165 -30.5c-74 0 -136.667 18.167 -188 54.5s-86.666 81.833 -105.999 136.5s-24.333 112.667 -15 174
c7.33301 45.333 22.166 89 44.499 131s50.666 80 84.999 114s76.666 61.167 126.999 81.5s104.166 30.5 161.499 30.5c56 0 106 -10.5 150 -31.5s78.333 -48.833 103 -83.5s42 -73.667 52 -117s11.333 -87.666 4 -132.999zM117.002 349.998
c-3.33301 -29.333 -4 -58.333 -2 -87s9.5 -56.167 22.5 -82.5s29.333 -49.5 49 -69.5s45.334 -36 77.001 -48s67.167 -18 106.5 -18c96.667 0 176.834 30.167 240.501 90.5s101.834 131.833 114.501 214.5c3.33301 29.333 4 58.333 2 87s-9.5 56.167 -22.5 82.5
s-29.333 49.5 -49 69.5s-45.334 36 -77.001 48s-67.167 18 -106.5 18c-96.667 0 -176.834 -30.167 -240.501 -90.5s-101.834 -131.833 -114.501 -214.5zM653.002 865.998c-0.666992 -29.333 -8.83691 -51.999 -24.5039 -67.999s-35.167 -24 -58.5 -24
c-21.333 0 -48.666 8 -81.999 24s-56.333 24 -69 24s-22.667 -3.83301 -30 -11.5s-11 -18.167 -11 -31.5h-49c0.666992 29.333 8.83398 52.166 24.501 68.499s34.834 24.5 57.501 24.5c21.333 0 48.833 -8 82.5 -24s56.834 -24 69.501 -24c27.333 0 41 14 41 42h49z" />
    <glyph glyph-name="Odieresis" unicode="&#xd6;" horiz-adv-x="822" 
d="M784 346c-7.33301 -45.333 -21.6641 -88.835 -42.9971 -130.502s-49 -79.667 -83 -114s-76.333 -61.666 -127 -81.999s-105.667 -30.5 -165 -30.5c-74 0 -136.667 18.167 -188 54.5s-86.666 81.833 -105.999 136.5s-24.333 112.667 -15 174
c7.33301 45.333 22.166 89 44.499 131s50.666 80 84.999 114s76.666 61.167 126.999 81.5s104.166 30.5 161.499 30.5c56 0 106 -10.5 150 -31.5s78.333 -48.833 103 -83.5s42 -73.667 52 -117s11.333 -87.666 4 -132.999zM117.002 349.998
c-3.33301 -29.333 -4 -58.333 -2 -87s9.5 -56.167 22.5 -82.5s29.333 -49.5 49 -69.5s45.334 -36 77.001 -48s67.167 -18 106.5 -18c96.667 0 176.834 30.167 240.501 90.5s101.834 131.833 114.501 214.5c3.33301 29.333 4 58.333 2 87s-9.5 56.167 -22.5 82.5
s-29.333 49.5 -49 69.5s-45.334 36 -77.001 48s-67.167 18 -106.5 18c-96.667 0 -176.834 -30.167 -240.501 -90.5s-101.834 -131.833 -114.501 -214.5zM635.002 832.998c-1.33301 -10.667 -6.33301 -19.668 -15 -27.001s-18.334 -11 -29.001 -11
c-12.667 0 -22.667 4.5 -30 13.5s-10 19.5 -8 31.5c2 10 7.33301 18.833 16 26.5s18.334 11.5 29.001 11.5c12 0 21.667 -4.66699 29 -14s10 -19.666 8 -30.999zM434.002 832.997c-1.33301 -10.667 -6.33301 -19.668 -15 -27.001s-18.334 -11 -29.001 -11
c-12.667 0 -22.667 4.5 -30 13.5s-10 19.5 -8 31.5c2 10 7.33301 18.833 16 26.5s18.334 11.5 29.001 11.5c12 0 21.667 -4.66699 29 -14s10 -19.666 8 -30.999z" />
    <glyph glyph-name="multiply" unicode="&#xd7;" horiz-adv-x="458" 
d="M233 315l-152 -131l-31 37l151 130l-110 130l41 37l110 -130l151 130l32 -37l-152 -130l110 -131l-41 -36z" />
    <glyph glyph-name="Oslash" unicode="&#xd8;" horiz-adv-x="822" 
d="M98 -48l-58.9961 -0.000976562l105 119c-36.667 34.667 -62.334 77 -77.001 127s-18 102 -10 156c7.33301 45.333 22.166 89 44.499 131s50.666 80 84.999 114s76.666 61.167 126.999 81.5s104.166 30.5 161.499 30.5c74 0 137 -18 189 -54l80 91h59l-106 -119
c36.667 -34.667 62.5 -77 77.5 -127s18.167 -102 9.5 -156c-7.33301 -45.333 -21.666 -88.833 -42.999 -130.5s-49 -79.667 -83 -114s-76.333 -61.666 -127 -81.999s-105.667 -30.5 -165 -30.5c-73.333 0 -136 18 -188 54zM116.004 349.999
c-6.66699 -44 -4.5 -86.833 6.5 -128.5s31.167 -77.167 60.5 -106.5l441 498c-42 28 -92.667 42 -152 42c-96.667 0 -177 -30.167 -241 -90.5s-102.333 -131.833 -115 -214.5zM217.004 86.999c42 -28 92.9971 -42 152.997 -42c96.667 0 176.834 30.167 240.501 90.5
s101.834 131.833 114.501 214.5c14.667 98 -7.66602 176.333 -66.999 235z" />
    <glyph glyph-name="Ugrave" unicode="&#xd9;" horiz-adv-x="753" 
d="M669 700h59.002l-71 -452c-14.667 -91.333 -50.667 -157.333 -108 -198s-128.333 -61 -213 -61c-40.667 0 -77.334 4.66699 -110.001 14s-61.334 24 -86.001 44s-42 47.333 -52 82s-11.333 75.667 -4 123l71 448h59l-71 -450c-21.333 -136.667 42.667 -205 192 -205
c153.333 0 241.333 69.667 264 209zM495.002 773h-61l-76 142h69z" />
    <glyph glyph-name="Uacute" unicode="&#xda;" horiz-adv-x="753" 
d="M669 700h59.002l-71 -452c-14.667 -91.333 -50.667 -157.333 -108 -198s-128.333 -61 -213 -61c-40.667 0 -77.334 4.66699 -110.001 14s-61.334 24 -86.001 44s-42 47.333 -52 82s-11.333 75.667 -4 123l71 448h59l-71 -450c-21.333 -136.667 42.667 -205 192 -205
c153.333 0 241.333 69.667 264 209zM464.002 773h-63l112 142h72z" />
    <glyph glyph-name="Ucircumflex" unicode="&#xdb;" horiz-adv-x="753" 
d="M669 700h59.002l-71 -452c-14.667 -91.333 -50.667 -157.333 -108 -198s-128.333 -61 -213 -61c-40.667 0 -77.334 4.66699 -110.001 14s-61.334 24 -86.001 44s-42 47.333 -52 82s-11.333 75.667 -4 123l71 448h59l-71 -450c-21.333 -136.667 42.667 -205 192 -205
c153.333 0 241.333 69.667 264 209zM440.002 911h51l108 -137h-62l-76 94l-105 -94h-67z" />
    <glyph glyph-name="Udieresis" unicode="&#xdc;" horiz-adv-x="753" 
d="M669 700h59.002l-71 -452c-14.667 -91.333 -50.667 -157.333 -108 -198s-128.333 -61 -213 -61c-40.667 0 -77.334 4.66699 -110.001 14s-61.334 24 -86.001 44s-42 47.333 -52 82s-11.333 75.667 -4 123l71 448h59l-71 -450c-21.333 -136.667 42.667 -205 192 -205
c153.333 0 241.333 69.667 264 209zM594.002 833c-1.33301 -10.667 -6.33301 -19.668 -15 -27.001s-18.334 -11 -29.001 -11c-12.667 0 -22.667 4.5 -30 13.5s-10 19.5 -8 31.5c2 10 7.33301 18.833 16 26.5s18.334 11.5 29.001 11.5c12 0 21.667 -4.66699 29 -14
s10 -19.666 8 -30.999zM393.002 832.999c-1.33301 -10.667 -6.33301 -19.668 -15 -27.001s-18.334 -11 -29.001 -11c-12.667 0 -22.667 4.5 -30 13.5s-10 19.5 -8 31.5c2 10 7.33301 18.833 16 26.5s18.334 11.5 29.001 11.5c12 0 21.667 -4.66699 29 -14
s10 -19.666 8 -30.999z" />
    <glyph glyph-name="Yacute" unicode="&#xdd;" horiz-adv-x="643" 
d="M305 0h-60l44 273l-207 427h62l181 -370l299 370h68l-343 -427zM409 773h-63l112 142h72z" />
    <glyph glyph-name="Thorn" unicode="&#xde;" horiz-adv-x="655" 
d="M202 572h171.001c40 0 76.167 -3.66699 108.5 -11s61.5 -19.333 87.5 -36s44.667 -40.167 56 -70.5s13.666 -66.5 6.99902 -108.5c-24 -145.333 -133.333 -218 -328 -218h-172l-21 -128h-59l111 700h59zM140.001 184h172.001c155.333 0 242 56.667 260 170
c9.33301 60 -4.83398 102 -42.501 126s-90.5 36 -158.5 36h-178z" />
    <glyph glyph-name="germandbls" unicode="&#xdf;" horiz-adv-x="594" 
d="M534 145c-8.66699 -51.333 -34.499 -90.1738 -77.499 -116.507s-91.5 -39.5 -145.5 -39.5c-48.667 0 -90.667 9.33301 -126 28l8 49c32 -18 68.333 -27 109 -27c44.667 0 83.667 9.5 117 28.5s53 48.167 59 87.5c3.33301 22.667 -1.16699 45.334 -13.5 68.001
s-26.833 41.834 -43.5 57.501s-31.5 33.167 -44.5 52.5s-18.167 37 -15.5 53c2.66699 18 11.667 36 27 54l47 58c16 20.667 25.667 42.667 29 66c4 26.667 -4.33301 49.5 -25 68.5s-50.334 28.5 -89.001 28.5c-47.333 0 -87.333 -13.667 -120 -41s-52.667 -65 -60 -113
l-80 -507h-57l79 502c10.667 66 37.167 117.333 79.5 154s95.166 55 158.499 55c59.333 0.666992 104.166 -14.333 134.499 -45s42.5 -65 36.5 -103c-4 -24.667 -14.167 -47.667 -30.5 -69s-32.166 -40.666 -47.499 -57.999s-24 -33.666 -26 -48.999
c-2 -12 1.33301 -24.5 10 -37.5s19.5 -26.167 32.5 -39.5s25.833 -27.666 38.5 -42.999s22.834 -33.666 30.501 -54.999s9.5 -43.666 5.5 -66.999z" />
    <glyph glyph-name="agrave" unicode="&#xe0;" horiz-adv-x="618" 
d="M458 99c-58 -73.333 -130.997 -110.001 -218.997 -110.001c-69.333 0 -123.333 24.167 -162 72.5s-52 109.5 -40 183.5c11.333 72.667 43.166 131.834 95.499 177.501s112.166 68.5 179.499 68.5c45.333 0 84.166 -10.5 116.499 -31.5s56.833 -47.833 73.5 -80.5l16 101
h51l-76 -480h-51zM92.0029 240.999c-9.33301 -60 1 -108.331 31 -144.998s71.333 -55 124 -55c46 0 88.5 12.833 127.5 38.5s68.833 57.5 89.5 95.5l21 132c-8 37.333 -27.333 68.666 -58 93.999s-67.667 38 -111 38c-54.667 0 -103.167 -17.833 -145.5 -53.5
s-68.5 -83.834 -78.5 -144.501zM390.003 553.001h-61l-76 142h69z" />
    <glyph glyph-name="aacute" unicode="&#xe1;" horiz-adv-x="618" 
d="M458 99c-58 -73.333 -130.997 -110.001 -218.997 -110.001c-69.333 0 -123.333 24.167 -162 72.5s-52 109.5 -40 183.5c11.333 72.667 43.166 131.834 95.499 177.501s112.166 68.5 179.499 68.5c45.333 0 84.166 -10.5 116.499 -31.5s56.833 -47.833 73.5 -80.5l16 101
h51l-76 -480h-51zM92.0029 240.999c-9.33301 -60 1 -108.331 31 -144.998s71.333 -55 124 -55c46 0 88.5 12.833 127.5 38.5s68.833 57.5 89.5 95.5l21 132c-8 37.333 -27.333 68.666 -58 93.999s-67.667 38 -111 38c-54.667 0 -103.167 -17.833 -145.5 -53.5
s-68.5 -83.834 -78.5 -144.501zM359.003 553.001h-63l112 142h72z" />
    <glyph glyph-name="acircumflex" unicode="&#xe2;" horiz-adv-x="618" 
d="M458 99c-58 -73.333 -130.997 -110.001 -218.997 -110.001c-69.333 0 -123.333 24.167 -162 72.5s-52 109.5 -40 183.5c11.333 72.667 43.166 131.834 95.499 177.501s112.166 68.5 179.499 68.5c45.333 0 84.166 -10.5 116.499 -31.5s56.833 -47.833 73.5 -80.5l16 101
h51l-76 -480h-51zM92.0029 240.999c-9.33301 -60 1 -108.331 31 -144.998s71.333 -55 124 -55c46 0 88.5 12.833 127.5 38.5s68.833 57.5 89.5 95.5l21 132c-8 37.333 -27.333 68.666 -58 93.999s-67.667 38 -111 38c-54.667 0 -103.167 -17.833 -145.5 -53.5
s-68.5 -83.834 -78.5 -144.501zM335.003 691.001h51l108 -137h-62l-76 94l-105 -94h-67z" />
    <glyph glyph-name="atilde" unicode="&#xe3;" horiz-adv-x="618" 
d="M458 99c-58 -73.333 -130.997 -110.001 -218.997 -110.001c-69.333 0 -123.333 24.167 -162 72.5s-52 109.5 -40 183.5c11.333 72.667 43.166 131.834 95.499 177.501s112.166 68.5 179.499 68.5c45.333 0 84.166 -10.5 116.499 -31.5s56.833 -47.833 73.5 -80.5l16 101
h51l-76 -480h-51zM92.0029 240.999c-9.33301 -60 1 -108.331 31 -144.998s71.333 -55 124 -55c46 0 88.5 12.833 127.5 38.5s68.833 57.5 89.5 95.5l21 132c-8 37.333 -27.333 68.666 -58 93.999s-67.667 38 -111 38c-54.667 0 -103.167 -17.833 -145.5 -53.5
s-68.5 -83.834 -78.5 -144.501zM507.003 646.001c-0.666992 -29.333 -8.83691 -51.999 -24.5039 -67.999s-35.167 -24 -58.5 -24c-21.333 0 -48.666 8 -81.999 24s-56.333 24 -69 24s-22.667 -3.83301 -30 -11.5s-11 -18.167 -11 -31.5h-49
c0.666992 29.333 8.83398 52.166 24.501 68.499s34.834 24.5 57.501 24.5c21.333 0 48.833 -8 82.5 -24s56.834 -24 69.501 -24c27.333 0 41 14 41 42h49z" />
    <glyph glyph-name="adieresis" unicode="&#xe4;" horiz-adv-x="618" 
d="M458 99c-58 -73.333 -130.997 -110.001 -218.997 -110.001c-69.333 0 -123.333 24.167 -162 72.5s-52 109.5 -40 183.5c11.333 72.667 43.166 131.834 95.499 177.501s112.166 68.5 179.499 68.5c45.333 0 84.166 -10.5 116.499 -31.5s56.833 -47.833 73.5 -80.5l16 101
h51l-76 -480h-51zM92.0029 240.999c-9.33301 -60 1 -108.331 31 -144.998s71.333 -55 124 -55c46 0 88.5 12.833 127.5 38.5s68.833 57.5 89.5 95.5l21 132c-8 37.333 -27.333 68.666 -58 93.999s-67.667 38 -111 38c-54.667 0 -103.167 -17.833 -145.5 -53.5
s-68.5 -83.834 -78.5 -144.501zM489.003 613.001c-1.33301 -10.667 -6.33301 -19.668 -15 -27.001s-18.334 -11 -29.001 -11c-12.667 0 -22.667 4.5 -30 13.5s-10 19.5 -8 31.5c2 10 7.33301 18.833 16 26.5s18.334 11.5 29.001 11.5c12 0 21.667 -4.66699 29 -14
s10 -19.666 8 -30.999zM288.003 613c-1.33301 -10.667 -6.33301 -19.668 -15 -27.001s-18.334 -11 -29.001 -11c-12.667 0 -22.667 4.5 -30 13.5s-10 19.5 -8 31.5c2 10 7.33301 18.833 16 26.5s18.334 11.5 29.001 11.5c12 0 21.667 -4.66699 29 -14s10 -19.666 8 -30.999z
" />
    <glyph glyph-name="aring" unicode="&#xe5;" horiz-adv-x="618" 
d="M458 99c-58 -73.333 -130.997 -110.001 -218.997 -110.001c-69.333 0 -123.333 24.167 -162 72.5s-52 109.5 -40 183.5c11.333 72.667 43.166 131.834 95.499 177.501s112.166 68.5 179.499 68.5c45.333 0 84.166 -10.5 116.499 -31.5s56.833 -47.833 73.5 -80.5l16 101
h51l-76 -480h-51zM92.0029 240.999c-9.33301 -60 1 -108.331 31 -144.998s71.333 -55 124 -55c46 0 88.5 12.833 127.5 38.5s68.833 57.5 89.5 95.5l21 132c-8 37.333 -27.333 68.666 -58 93.999s-67.667 38 -111 38c-54.667 0 -103.167 -17.833 -145.5 -53.5
s-68.5 -83.834 -78.5 -144.501zM457.003 625.001c-4.66699 -28.667 -18 -51.667 -40 -69s-46.667 -26 -74 -26c-28 0 -51.167 9.5 -69.5 28.5s-25.166 43.5 -20.499 73.5c4.66699 28 18.167 50.667 40.5 68s47.166 26 74.499 26c28 0 51 -9.5 69 -28.5
s24.667 -43.167 20 -72.5zM296.003 628.001c-2.66699 -16.667 0.666016 -30.5 9.99902 -41.5s21.666 -16.5 36.999 -16.5c17.333 0 33 5.16699 47 15.5s22.333 24.5 25 42.5c2.66699 16.667 -0.666016 30.5 -9.99902 41.5s-21.666 16.5 -36.999 16.5
c-17.333 0 -33 -5.16699 -47 -15.5s-22.333 -24.5 -25 -42.5z" />
    <glyph glyph-name="ae" unicode="&#xe6;" horiz-adv-x="992" 
d="M458 99c-58 -73.333 -130.996 -110.001 -218.996 -110.001c-69.333 0 -123.333 24.167 -162 72.5s-52 109.5 -40 183.5c11.333 72.667 43.166 131.834 95.499 177.501s112.166 68.5 179.499 68.5c45.333 0 84.166 -10.5 116.499 -31.5s56.833 -47.833 73.5 -80.5l16 101
h51l-16 -106c23.333 38 53.5 67 90.5 87s76.5 30 118.5 30c43.333 0 79.666 -8.5 108.999 -25.5s49.833 -39.167 61.5 -66.5s17.667 -57.166 18 -89.499s-5.5 -64.833 -17.5 -97.5h-399c-5.33301 -56.667 10.5 -99.334 47.5 -128.001s82.833 -43 137.5 -43
c58.667 0 113.667 13.333 165 40l-9 -57c-46.667 -23.333 -102 -35 -166 -35c-44 0 -84.833 10.667 -122.5 32s-62.5 52.333 -74.5 93l-19 -114h-51zM92.0039 240.999c-9.33301 -60 1 -108.333 31 -145s71.333 -55 124 -55c46 0 88.5 12.833 127.5 38.5
s68.833 57.5 89.5 95.5l21 132c-8 36.667 -27.333 67.834 -58 93.501s-67.667 38.5 -111 38.5c-54.667 0 -103.167 -17.833 -145.5 -53.5s-68.5 -83.834 -78.5 -144.501zM756.004 438.999c-51.333 0 -97.333 -16.334 -138 -49.001s-66 -75.334 -76 -128.001h349
c6.66699 18 8.66699 37.333 6 58s-8 39.834 -16 57.501s-22.833 32.334 -44.5 44.001s-48.5 17.5 -80.5 17.5z" />
    <glyph glyph-name="ccedilla" unicode="&#xe7;" horiz-adv-x="495" 
d="M467 396c-33.333 28.667 -76.6699 43 -130.003 43c-57.333 0 -109.5 -16.5 -156.5 -49.5s-76.167 -82.833 -87.5 -149.5c-10 -64.667 2 -114 36 -148s80.333 -51 139 -51c51.333 0 103 14 155 42l-9 -59c-43.333 -21.333 -91.666 -33 -144.999 -35l-25 -62
c30.667 3.33301 56.167 -1.66699 76.5 -15s28.833 -33.333 25.5 -60c-4 -26.667 -17.5 -47.167 -40.5 -61.5s-52.833 -21.5 -89.5 -21.5c-36 0 -70.333 7 -103 21l8 46c26.667 -14 57 -21 91 -21c54 0 82.667 14 86 42c2.66699 17.333 -8.33301 29 -33 35s-52 5 -82 -3
l39 102c-62 7.33301 -111.167 32.833 -147.5 76.5s-48.5 103.167 -36.5 178.5c12.667 80.667 47.834 141.667 105.501 183s120.834 62 189.501 62c56.667 0 104.667 -14 144 -42z" />
    <glyph glyph-name="egrave" unicode="&#xe8;" horiz-adv-x="547" 
d="M36 242c12 78 44.501 139.002 97.501 183.002s111.5 66 175.5 66c42.667 0 79.167 -8.5 109.5 -25.5s51.666 -39 63.999 -66s19.666 -57 21.999 -90s-3.16699 -65.5 -16.5 -97.5h-399c-5.33301 -56.667 10.5 -99.334 47.5 -128.001s82.833 -43 137.5 -43
c60.667 0 116.667 13.333 168 40l-9 -57c-46.667 -23.333 -102.667 -35 -168 -35c-32.667 0 -63.667 5.16699 -93 15.5s-55.666 25.5 -78.999 45.5s-40.333 46.667 -51 80s-12.667 70.666 -6 111.999zM446.001 262.002c2.66699 14.667 4.49805 29.8311 5.49805 45.498
s-1.5 31.334 -7.5 47.001s-14 29.834 -24 42.501s-24.667 22.834 -44 30.501s-41.666 11.5 -66.999 11.5c-50 0 -95.167 -15.833 -135.5 -47.5s-66.166 -74.834 -77.499 -129.501h350zM368.999 552.999h-61l-76 142h69z" />
    <glyph glyph-name="eacute" unicode="&#xe9;" horiz-adv-x="547" 
d="M36 242c12 78 44.501 139.002 97.501 183.002s111.5 66 175.5 66c42.667 0 79.167 -8.5 109.5 -25.5s51.666 -39 63.999 -66s19.666 -57 21.999 -90s-3.16699 -65.5 -16.5 -97.5h-399c-5.33301 -56.667 10.5 -99.334 47.5 -128.001s82.833 -43 137.5 -43
c60.667 0 116.667 13.333 168 40l-9 -57c-46.667 -23.333 -102.667 -35 -168 -35c-32.667 0 -63.667 5.16699 -93 15.5s-55.666 25.5 -78.999 45.5s-40.333 46.667 -51 80s-12.667 70.666 -6 111.999zM446.001 262.002c2.66699 14.667 4.49805 29.8311 5.49805 45.498
s-1.5 31.334 -7.5 47.001s-14 29.834 -24 42.501s-24.667 22.834 -44 30.501s-41.666 11.5 -66.999 11.5c-50 0 -95.167 -15.833 -135.5 -47.5s-66.166 -74.834 -77.499 -129.501h350zM337.999 552.999h-63l112 142h72z" />
    <glyph glyph-name="ecircumflex" unicode="&#xea;" horiz-adv-x="547" 
d="M36 242c12 78 44.501 139.002 97.501 183.002s111.5 66 175.5 66c42.667 0 79.167 -8.5 109.5 -25.5s51.666 -39 63.999 -66s19.666 -57 21.999 -90s-3.16699 -65.5 -16.5 -97.5h-399c-5.33301 -56.667 10.5 -99.334 47.5 -128.001s82.833 -43 137.5 -43
c60.667 0 116.667 13.333 168 40l-9 -57c-46.667 -23.333 -102.667 -35 -168 -35c-32.667 0 -63.667 5.16699 -93 15.5s-55.666 25.5 -78.999 45.5s-40.333 46.667 -51 80s-12.667 70.666 -6 111.999zM446.001 262.002c2.66699 14.667 4.49805 29.8311 5.49805 45.498
s-1.5 31.334 -7.5 47.001s-14 29.834 -24 42.501s-24.667 22.834 -44 30.501s-41.666 11.5 -66.999 11.5c-50 0 -95.167 -15.833 -135.5 -47.5s-66.166 -74.834 -77.499 -129.501h350zM313.999 690.999h51l108 -137h-62l-76 94l-105 -94h-67z" />
    <glyph glyph-name="edieresis" unicode="&#xeb;" horiz-adv-x="547" 
d="M36 242c12 78 44.501 139.002 97.501 183.002s111.5 66 175.5 66c42.667 0 79.167 -8.5 109.5 -25.5s51.666 -39 63.999 -66s19.666 -57 21.999 -90s-3.16699 -65.5 -16.5 -97.5h-399c-5.33301 -56.667 10.5 -99.334 47.5 -128.001s82.833 -43 137.5 -43
c60.667 0 116.667 13.333 168 40l-9 -57c-46.667 -23.333 -102.667 -35 -168 -35c-32.667 0 -63.667 5.16699 -93 15.5s-55.666 25.5 -78.999 45.5s-40.333 46.667 -51 80s-12.667 70.666 -6 111.999zM446.001 262.002c2.66699 14.667 4.49805 29.8311 5.49805 45.498
s-1.5 31.334 -7.5 47.001s-14 29.834 -24 42.501s-24.667 22.834 -44 30.501s-41.666 11.5 -66.999 11.5c-50 0 -95.167 -15.833 -135.5 -47.5s-66.166 -74.834 -77.499 -129.501h350zM467.999 612.999c-1.33301 -10.667 -6.33301 -19.668 -15 -27.001
s-18.334 -11 -29.001 -11c-12.667 0 -22.667 4.5 -30 13.5s-10 19.5 -8 31.5c2 10 7.33301 18.833 16 26.5s18.334 11.5 29.001 11.5c12 0 21.667 -4.66699 29 -14s10 -19.666 8 -30.999zM266.999 612.998c-1.33301 -10.667 -6.33301 -19.668 -15 -27.001
s-18.334 -11 -29.001 -11c-12.667 0 -22.667 4.5 -30 13.5s-10 19.5 -8 31.5c2 10 7.33301 18.833 16 26.5s18.334 11.5 29.001 11.5c12 0 21.667 -4.66699 29 -14s10 -19.666 8 -30.999z" />
    <glyph glyph-name="igrave" unicode="&#xec;" horiz-adv-x="221" 
d="M191 553h-57l-53 142h69zM93 0h-57l76 480h57z" />
    <glyph glyph-name="iacute" unicode="&#xed;" horiz-adv-x="221" 
d="M93 0h-57l76 480h57zM170 553h-63l112 142h72z" />
    <glyph glyph-name="icircumflex" unicode="&#xee;" horiz-adv-x="221" 
d="M93 0h-57l76 480h57zM80 554h-67l134 137h51l91 -137h-61l-59 94z" />
    <glyph glyph-name="idieresis" unicode="&#xef;" horiz-adv-x="221" 
d="M93 0h-57l76 480h57zM120 613c-1.33301 -9.33301 -6.16699 -17.5 -14.5 -24.5s-17.5 -10.5 -27.5 -10.5c-11.333 0 -20.333 4.16699 -27 12.5s-9 18.166 -7 29.499c2 9.33301 7 17.5 15 24.5s16.667 10.5 26 10.5c11.333 0 20.5 -4.16699 27.5 -12.5
s9.5 -18.166 7.5 -29.499zM273.999 613c-1.33301 -9.33301 -6.16699 -17.5 -14.5 -24.5s-17.5 -10.5 -27.5 -10.5c-11.333 0 -20.333 4.16699 -27 12.5s-9 18.166 -7 29.499c2 9.33301 7 17.5 15 24.5s16.667 10.5 26 10.5c11.333 0 20.5 -4.16699 27.5 -12.5
s9.5 -18.166 7.5 -29.499z" />
    <glyph glyph-name="eth" unicode="&#xf0;" horiz-adv-x="595" 
d="M536 265c-14 -87.333 -47.3359 -155.168 -100.003 -203.501s-116 -72.5 -190 -72.5c-71.333 0 -127.166 21.833 -167.499 65.5s-54.833 100.834 -43.5 171.501c10 63.333 40.333 115.833 91 157.5s107.334 62.5 170.001 62.5c50.667 0 94.167 -12.667 130.5 -38
s57.833 -59.333 64.5 -102c0 2 0.333008 4.66699 1 8s1.16699 6.5 1.5 9.5s0.5 6.16699 0.5 9.5c8.66699 136.667 -42.333 230 -153 280l-121 -105l-29 33l103 88c-37.333 11.333 -82.333 17 -135 17l6 54c63.333 0 121 -10.333 173 -31l101 86l28 -33l-86 -74
c132.667 -69.333 184.334 -197 155.001 -383zM90.9971 218.998c-8.66699 -53.333 1.66797 -96.001 31.001 -128.001s71.666 -48 126.999 -48c52.667 0 97.5 14.667 134.5 44s63.833 69 80.5 119c8 57.333 -3.5 102.833 -34.5 136.5s-73.167 50.5 -126.5 50.5
s-100 -16.167 -140 -48.5s-64 -74.166 -72 -125.499z" />
    <glyph glyph-name="ntilde" unicode="&#xf1;" horiz-adv-x="584" 
d="M145 391c61.333 66.667 130 100 206 100c56 0 99 -18.167 129 -54.5s40.667 -83.833 32 -142.5l-47 -294h-57l46 291c8 48 1 84.667 -21 110s-54 38 -96 38c-37.333 0 -73.5 -11 -108.5 -33s-64.167 -48 -87.5 -78l-51 -328h-57l76 480h51zM502 646
c-0.666992 -29.333 -8.83691 -51.999 -24.5039 -67.999s-35.167 -24 -58.5 -24c-21.333 0 -48.666 8 -81.999 24s-56.333 24 -69 24s-22.667 -3.83301 -30 -11.5s-11 -18.167 -11 -31.5h-49c0.666992 29.333 8.83398 52.166 24.501 68.499s34.834 24.5 57.501 24.5
c21.333 0 48.833 -8 82.5 -24s56.834 -24 69.501 -24c27.333 0 41 14 41 42h49z" />
    <glyph glyph-name="ograve" unicode="&#xf2;" horiz-adv-x="593" 
d="M540 235c-12 -76.667 -46.168 -136.834 -102.501 -180.501s-118.833 -65.5 -187.5 -65.5c-31.333 0 -61.166 5.83301 -89.499 17.5s-52.833 28 -73.5 49s-35.667 48 -45 81s-11 69.167 -5 108.5c12 76.667 46.167 136.834 102.5 180.501s118.833 65.5 187.5 65.5
c67.333 0 122.833 -23.167 166.5 -69.5s59.167 -108.5 46.5 -186.5zM91.999 238c-9.33301 -59.333 1.83301 -106.666 33.5 -141.999s74.5 -53 128.5 -53c56.667 0 106.834 17.833 150.501 53.5s70.5 84.167 80.5 145.5c9.33301 59.333 -1.83398 106.666 -33.501 141.999
s-74.5 53 -128.5 53c-56.667 0 -107 -17.833 -151 -53.5s-70.667 -84.167 -80 -145.5zM382.998 550h-61l-76 142h69z" />
    <glyph glyph-name="oacute" unicode="&#xf3;" horiz-adv-x="593" 
d="M540 235c-12 -76.667 -46.168 -136.834 -102.501 -180.501s-118.833 -65.5 -187.5 -65.5c-31.333 0 -61.166 5.83301 -89.499 17.5s-52.833 28 -73.5 49s-35.667 48 -45 81s-11 69.167 -5 108.5c12 76.667 46.167 136.834 102.5 180.501s118.833 65.5 187.5 65.5
c67.333 0 122.833 -23.167 166.5 -69.5s59.167 -108.5 46.5 -186.5zM91.999 238c-9.33301 -59.333 1.83301 -106.666 33.5 -141.999s74.5 -53 128.5 -53c56.667 0 106.834 17.833 150.501 53.5s70.5 84.167 80.5 145.5c9.33301 59.333 -1.83398 106.666 -33.501 141.999
s-74.5 53 -128.5 53c-56.667 0 -107 -17.833 -151 -53.5s-70.667 -84.167 -80 -145.5zM351.998 550h-63l112 142h72z" />
    <glyph glyph-name="ocircumflex" unicode="&#xf4;" horiz-adv-x="593" 
d="M540 235c-12 -76.667 -46.168 -136.834 -102.501 -180.501s-118.833 -65.5 -187.5 -65.5c-31.333 0 -61.166 5.83301 -89.499 17.5s-52.833 28 -73.5 49s-35.667 48 -45 81s-11 69.167 -5 108.5c12 76.667 46.167 136.834 102.5 180.501s118.833 65.5 187.5 65.5
c67.333 0 122.833 -23.167 166.5 -69.5s59.167 -108.5 46.5 -186.5zM91.999 238c-9.33301 -59.333 1.83301 -106.666 33.5 -141.999s74.5 -53 128.5 -53c56.667 0 106.834 17.833 150.501 53.5s70.5 84.167 80.5 145.5c9.33301 59.333 -1.83398 106.666 -33.501 141.999
s-74.5 53 -128.5 53c-56.667 0 -107 -17.833 -151 -53.5s-70.667 -84.167 -80 -145.5zM327.998 688h51l108 -137h-62l-76 94l-105 -94h-67z" />
    <glyph glyph-name="otilde" unicode="&#xf5;" horiz-adv-x="593" 
d="M540 235c-12 -76.667 -46.168 -136.834 -102.501 -180.501s-118.833 -65.5 -187.5 -65.5c-31.333 0 -61.166 5.83301 -89.499 17.5s-52.833 28 -73.5 49s-35.667 48 -45 81s-11 69.167 -5 108.5c12 76.667 46.167 136.834 102.5 180.501s118.833 65.5 187.5 65.5
c67.333 0 122.833 -23.167 166.5 -69.5s59.167 -108.5 46.5 -186.5zM91.999 238c-9.33301 -59.333 1.83301 -106.666 33.5 -141.999s74.5 -53 128.5 -53c56.667 0 106.834 17.833 150.501 53.5s70.5 84.167 80.5 145.5c9.33301 59.333 -1.83398 106.666 -33.501 141.999
s-74.5 53 -128.5 53c-56.667 0 -107 -17.833 -151 -53.5s-70.667 -84.167 -80 -145.5zM499.998 643c-0.666992 -29.333 -8.83691 -51.999 -24.5039 -67.999s-35.167 -24 -58.5 -24c-21.333 0 -48.666 8 -81.999 24s-56.333 24 -69 24s-22.667 -3.83301 -30 -11.5
s-11 -18.167 -11 -31.5h-49c0.666992 29.333 8.83398 52.166 24.501 68.499s34.834 24.5 57.501 24.5c21.333 0 48.833 -8 82.5 -24s56.834 -24 69.501 -24c27.333 0 41 14 41 42h49z" />
    <glyph glyph-name="odieresis" unicode="&#xf6;" horiz-adv-x="593" 
d="M540 235c-12 -76.667 -46.168 -136.834 -102.501 -180.501s-118.833 -65.5 -187.5 -65.5c-31.333 0 -61.166 5.83301 -89.499 17.5s-52.833 28 -73.5 49s-35.667 48 -45 81s-11 69.167 -5 108.5c12 76.667 46.167 136.834 102.5 180.501s118.833 65.5 187.5 65.5
c67.333 0 122.833 -23.167 166.5 -69.5s59.167 -108.5 46.5 -186.5zM91.999 238c-9.33301 -59.333 1.83301 -106.666 33.5 -141.999s74.5 -53 128.5 -53c56.667 0 106.834 17.833 150.501 53.5s70.5 84.167 80.5 145.5c9.33301 59.333 -1.83398 106.666 -33.501 141.999
s-74.5 53 -128.5 53c-56.667 0 -107 -17.833 -151 -53.5s-70.667 -84.167 -80 -145.5zM481.998 610c-1.33301 -10.667 -6.33301 -19.668 -15 -27.001s-18.334 -11 -29.001 -11c-12.667 0 -22.667 4.5 -30 13.5s-10 19.5 -8 31.5c2 10 7.33301 18.833 16 26.5
s18.334 11.5 29.001 11.5c12 0 21.667 -4.66699 29 -14s10 -19.666 8 -30.999zM280.998 609.999c-1.33301 -10.667 -6.33301 -19.668 -15 -27.001s-18.334 -11 -29.001 -11c-12.667 0 -22.667 4.5 -30 13.5s-10 19.5 -8 31.5c2 10 7.33301 18.833 16 26.5
s18.334 11.5 29.001 11.5c12 0 21.667 -4.66699 29 -14s10 -19.666 8 -30.999z" />
    <glyph glyph-name="divide" unicode="&#xf7;" horiz-adv-x="635" 
d="M563 323h-480l8 54h480zM330 122c-2.66699 -23.333 -16.667 -35 -42 -35c-12 0 -21.5 3.66699 -28.5 11s-9.5 17.666 -7.5 30.999c4 23.333 18 35 42 35c12.667 0 22.5 -3.66699 29.5 -11s9.16699 -17.666 6.5 -30.999zM402 569
c-4 -23.333 -18.334 -35.002 -43.001 -35.002c-12 0 -21.5 3.83301 -28.5 11.5s-9.16699 17.834 -6.5 30.501c1.33301 11.333 6 20 14 26s17.333 9 28 9c12.667 0 22.334 -3.66699 29.001 -11s9 -17.666 7 -30.999z" />
    <glyph glyph-name="oslash" unicode="&#xf8;" horiz-adv-x="593" 
d="M559 543l-84.001 -103c56.667 -50 78.334 -118.333 65.001 -205c-12 -76.667 -46.167 -136.834 -102.5 -180.501s-118.833 -65.5 -187.5 -65.5c-43.333 0 -82.333 10.333 -117 31l-63 -79h-52l83 102c-56.667 48.667 -78 116 -64 202
c12 76.667 46.167 136.834 102.5 180.501s118.833 65.5 187.5 65.5c42 0 80.333 -9.66699 115 -29l65 81h52zM321.999 437c-56 0 -106 -17.832 -150 -53.499s-70.667 -84.167 -80 -145.5c-10.667 -64.667 4 -115.334 44 -152.001l269 332c-23.333 12.667 -51 19 -83 19z
M253.999 43.001c56.667 0 107 17.833 151 53.5s70.667 84.167 80 145.5c10.667 66 -4.66602 117.333 -45.999 154l-270 -333c25.333 -13.333 53.666 -20 84.999 -20z" />
    <glyph glyph-name="ugrave" unicode="&#xf9;" horiz-adv-x="583" 
d="M477 480h56.998l-76 -480h-51l15 89c-22 -27.333 -51 -50.833 -87 -70.5s-73.667 -29.5 -113 -29.5c-58 0 -102.5 18.167 -133.5 54.5s-41.833 84.5 -32.5 144.5l46 292h57l-46 -291c-8 -48 -1.16699 -84.667 20.5 -110s53.834 -38 96.501 -38
c40 0 76.833 10.667 110.5 32s61.834 48 84.501 80zM372.998 553h-61l-76 142h69z" />
    <glyph glyph-name="uacute" unicode="&#xfa;" horiz-adv-x="583" 
d="M477 480h56.998l-76 -480h-51l15 89c-22 -27.333 -51 -50.833 -87 -70.5s-73.667 -29.5 -113 -29.5c-58 0 -102.5 18.167 -133.5 54.5s-41.833 84.5 -32.5 144.5l46 292h57l-46 -291c-8 -48 -1.16699 -84.667 20.5 -110s53.834 -38 96.501 -38
c40 0 76.833 10.667 110.5 32s61.834 48 84.501 80zM341.998 553h-63l112 142h72z" />
    <glyph glyph-name="ucircumflex" unicode="&#xfb;" horiz-adv-x="583" 
d="M477 480h56.998l-76 -480h-51l15 89c-22 -27.333 -51 -50.833 -87 -70.5s-73.667 -29.5 -113 -29.5c-58 0 -102.5 18.167 -133.5 54.5s-41.833 84.5 -32.5 144.5l46 292h57l-46 -291c-8 -48 -1.16699 -84.667 20.5 -110s53.834 -38 96.501 -38
c40 0 76.833 10.667 110.5 32s61.834 48 84.501 80zM317.998 691h51l108 -137h-62l-76 94l-105 -94h-67z" />
    <glyph glyph-name="udieresis" unicode="&#xfc;" horiz-adv-x="583" 
d="M477 480h56.998l-76 -480h-51l15 89c-22 -27.333 -51 -50.833 -87 -70.5s-73.667 -29.5 -113 -29.5c-58 0 -102.5 18.167 -133.5 54.5s-41.833 84.5 -32.5 144.5l46 292h57l-46 -291c-8 -48 -1.16699 -84.667 20.5 -110s53.834 -38 96.501 -38
c40 0 76.833 10.667 110.5 32s61.834 48 84.501 80zM471.998 613c-1.33301 -10.667 -6.33301 -19.668 -15 -27.001s-18.334 -11 -29.001 -11c-12.667 0 -22.667 4.5 -30 13.5s-10 19.5 -8 31.5c2 10 7.33301 18.833 16 26.5s18.334 11.5 29.001 11.5
c12 0 21.667 -4.66699 29 -14s10 -19.666 8 -30.999zM270.998 612.999c-1.33301 -10.667 -6.33301 -19.668 -15 -27.001s-18.334 -11 -29.001 -11c-12.667 0 -22.667 4.5 -30 13.5s-10 19.5 -8 31.5c2 10 7.33301 18.833 16 26.5s18.334 11.5 29.001 11.5
c12 0 21.667 -4.66699 29 -14s10 -19.666 8 -30.999z" />
    <glyph glyph-name="yacute" unicode="&#xfd;" horiz-adv-x="535" 
d="M238 58l247 422h62l-332 -560c-60 -100.667 -124.333 -151 -193 -151c-20 0 -37.333 2.33301 -52 7l7 48c11.333 -3.33301 24.666 -5 39.999 -5c28.667 0 54.834 10 78.501 30s48.167 51.333 73.5 94l34 57l-160 480h57zM313 553h-63l112 142h72z" />
    <glyph glyph-name="thorn" unicode="&#xfe;" horiz-adv-x="619" 
d="M55 -220l-57 0.000976562l146 920h57l-51 -318c56 72.667 127.333 109 214 109c68 0 121.5 -24.167 160.5 -72.5s52.833 -109.5 41.5 -183.5c-11.333 -72.667 -43 -131.834 -95 -177.501s-112.333 -68.5 -181 -68.5c-46 0 -84.5 10.5 -115.5 31.5
s-53.833 48.5 -68.5 82.5zM117 173.001c8.66699 -38 28.167 -69.499 58.5 -94.499s67.5 -37.5 111.5 -37.5c55.333 0 103.833 17.667 145.5 53s67.5 83.666 77.5 144.999c10 59.333 -0.166992 107.5 -30.5 144.5s-71.833 55.5 -124.5 55.5c-45.333 0 -87.5 -13 -126.5 -39
s-69.167 -58.333 -90.5 -97z" />
    <glyph glyph-name="ydieresis" unicode="&#xff;" horiz-adv-x="535" 
d="M238 58l247 422h62l-332 -560c-60 -100.667 -124.333 -151 -193 -151c-20 0 -37.333 2.33301 -52 7l7 48c11.333 -3.33301 24.666 -5 39.999 -5c28.667 0 54.834 10 78.501 30s48.167 51.333 73.5 94l34 57l-160 480h57zM443 613
c-1.33301 -10.667 -6.33301 -19.668 -15 -27.001s-18.334 -11 -29.001 -11c-12.667 0 -22.667 4.5 -30 13.5s-10 19.5 -8 31.5c2 10 7.33301 18.833 16 26.5s18.334 11.5 29.001 11.5c12 0 21.667 -4.66699 29 -14s10 -19.666 8 -30.999zM242 612.999
c-1.33301 -10.667 -6.33301 -19.668 -15 -27.001s-18.334 -11 -29.001 -11c-12.667 0 -22.667 4.5 -30 13.5s-10 19.5 -8 31.5c2 10 7.33301 18.833 16 26.5s18.334 11.5 29.001 11.5c12 0 21.667 -4.66699 29 -14s10 -19.666 8 -30.999z" />
    <glyph glyph-name="Amacron" unicode="&#x100;" horiz-adv-x="714" 
d="M656 0h-62l-53 188h-396l-112 -188h-67l422 700h68zM402 616l-223.998 -372h349l-106 373c-2.66699 10.667 -4.33398 18.667 -5.00098 24c-2.66699 -6 -7.33398 -14.333 -14.001 -25zM308.002 847h280l-8 -52h-280z" />
    <glyph glyph-name="amacron" unicode="&#x101;" horiz-adv-x="618" 
d="M458 99c-58 -73.333 -130.997 -110.001 -218.997 -110.001c-69.333 0 -123.333 24.167 -162 72.5s-52 109.5 -40 183.5c11.333 72.667 43.166 131.834 95.499 177.501s112.166 68.5 179.499 68.5c45.333 0 84.166 -10.5 116.499 -31.5s56.833 -47.833 73.5 -80.5l16 101
h51l-76 -480h-51zM92.0029 240.999c-9.33301 -60 1 -108.331 31 -144.998s71.333 -55 124 -55c46 0 88.5 12.833 127.5 38.5s68.833 57.5 89.5 95.5l21 132c-8 37.333 -27.333 68.666 -58 93.999s-67.667 38 -111 38c-54.667 0 -103.167 -17.833 -145.5 -53.5
s-68.5 -83.834 -78.5 -144.501zM216.003 627.001h280l-8 -52h-280z" />
    <glyph glyph-name="Abreve" unicode="&#x102;" horiz-adv-x="714" 
d="M656 0h-62l-53 188h-396l-112 -188h-67l422 700h68zM402 616l-223.998 -372h349l-106 373c-2.66699 10.667 -4.33398 18.667 -5.00098 24c-2.66699 -6 -7.33398 -14.333 -14.001 -25zM574.002 819c-41.333 -27.333 -87.333 -41 -138 -41c-54 0 -97 13.667 -129 41l9 57
c35.333 -29.333 77 -44 125 -44c49.333 0 96.333 14.667 141 44z" />
    <glyph glyph-name="abreve" unicode="&#x103;" horiz-adv-x="618" 
d="M458 99c-58 -73.333 -130.997 -110.001 -218.997 -110.001c-69.333 0 -123.333 24.167 -162 72.5s-52 109.5 -40 183.5c11.333 72.667 43.166 131.834 95.499 177.501s112.166 68.5 179.499 68.5c45.333 0 84.166 -10.5 116.499 -31.5s56.833 -47.833 73.5 -80.5l16 101
h51l-76 -480h-51zM92.0029 240.999c-9.33301 -60 1 -108.331 31 -144.998s71.333 -55 124 -55c46 0 88.5 12.833 127.5 38.5s68.833 57.5 89.5 95.5l21 132c-8 37.333 -27.333 68.666 -58 93.999s-67.667 38 -111 38c-54.667 0 -103.167 -17.833 -145.5 -53.5
s-68.5 -83.834 -78.5 -144.501zM482.003 599.001c-41.333 -27.333 -87.333 -41 -138 -41c-54 0 -97 13.667 -129 41l9 57c35.333 -29.333 77 -44 125 -44c49.333 0 96.333 14.667 141 44z" />
    <glyph glyph-name="Aogonek" unicode="&#x104;" horiz-adv-x="714" 
d="M656 0c-34 -21.333 -62.832 -44.501 -86.499 -69.501s-36.834 -48.167 -39.501 -69.5c-2.66699 -14 -0.166992 -25 7.5 -33s19.5 -12 35.5 -12c18 0 36.333 5 55 15l-7 -49c-20 -8.66699 -41 -13 -63 -13c-30.667 0 -53.167 8.16699 -67.5 24.5s-19.5 37.5 -15.5 63.5
c7.33301 46.667 46 98.334 116 155.001l-50 176h-396l-112 -188h-67l422 700h68zM402.001 615.999l-223.998 -372h349l-106 373c-2.66699 10.667 -4.33398 18.667 -5.00098 24c-2.66699 -6 -7.33398 -14.333 -14.001 -25z" />
    <glyph glyph-name="aogonek" unicode="&#x105;" horiz-adv-x="618" 
d="M569 480l-75.9971 -480.003c-33.333 -20.667 -61.5 -43.667 -84.5 -69s-35.833 -48.666 -38.5 -69.999c-2.66699 -14 -0.333984 -25.167 6.99902 -33.5s18.333 -12.5 33 -12.5c18 0 36.333 3.66699 55 11l-8 -48c-18 -6 -38.333 -9 -61 -9
c-29.333 0 -51.166 8.16699 -65.499 24.5s-19.5 37.5 -15.5 63.5c7.33301 48.667 50.333 101.334 129 158.001l14 84c-58 -73.333 -131 -110 -219 -110c-69.333 0 -123.333 24.167 -162 72.5s-52 109.5 -40 183.5c11.333 72.667 43.166 131.834 95.499 177.501
s112.166 68.5 179.499 68.5c45.333 0 84.166 -10.5 116.499 -31.5s56.833 -47.833 73.5 -80.5l16 101h51zM92.0029 240.997c-9.33301 -60 1 -108.331 31 -144.998s71.333 -55 124 -55c46 0 88.5 12.833 127.5 38.5s68.833 57.5 89.5 95.5l21 132
c-8 37.333 -27.333 68.666 -58 93.999s-67.667 38 -111 38c-54.667 0 -103.167 -17.833 -145.5 -53.5s-68.5 -83.834 -78.5 -144.501z" />
    <glyph glyph-name="Cacute" unicode="&#x106;" horiz-adv-x="647" 
d="M60 364c12 72.667 40.665 136.167 85.998 190.5s96.833 94 154.5 119s116.5 37.5 176.5 37.5c71.333 0 133 -16 185 -48l-9 -57c-44.667 32.667 -101.334 49 -170.001 49c-53.333 0 -105.166 -10.5 -155.499 -31.5s-95.166 -54.833 -134.499 -101.5
s-64.333 -102 -75 -166c-8 -51.333 -5.83301 -97.5 6.5 -138.5s32 -73.667 59 -98s57.5 -42.833 91.5 -55.5s70 -19 108 -19c72 0 136.667 17.333 194 52l-10 -64c-56.667 -29.333 -123 -44 -199 -44c-44 0 -86 8 -126 24s-75.667 39 -107 69s-54.166 69.5 -68.499 118.5
s-16.5 103.5 -6.5 163.5zM508.998 773h-63l112 142h72z" />
    <glyph glyph-name="cacute" unicode="&#x107;" horiz-adv-x="495" 
d="M37 246c8.66699 55.333 29.334 102.167 62.001 140.5s69 65.333 109 81s81.667 23.5 125 23.5c56 0 103.667 -14 143 -42l-9 -53c-33.333 28.667 -76.666 43 -129.999 43c-36.667 0 -71.334 -6.33301 -104.001 -19s-62.334 -34.5 -89.001 -65.5
s-43.667 -69.167 -51 -114.5c-10.667 -64.667 1 -114 35 -148s80.333 -51 139 -51c52.667 0 104.334 14 155.001 42l-9 -59c-47.333 -23.333 -100 -35 -158 -35c-70.667 0 -127.834 22.333 -171.501 67s-59.167 108 -46.5 190zM352 553.001h-63l112 142h72z" />
    <glyph glyph-name="Cdotaccent" unicode="&#x10a;" horiz-adv-x="647" 
d="M60 364c12 72.667 40.665 136.167 85.998 190.5s96.833 94 154.5 119s116.5 37.5 176.5 37.5c71.333 0 133 -16 185 -48l-9 -57c-44.667 32.667 -101.334 49 -170.001 49c-53.333 0 -105.166 -10.5 -155.499 -31.5s-95.166 -54.833 -134.499 -101.5
s-64.333 -102 -75 -166c-8 -51.333 -5.83301 -97.5 6.5 -138.5s32 -73.667 59 -98s57.5 -42.833 91.5 -55.5s70 -19 108 -19c72 0 136.667 17.333 194 52l-10 -64c-56.667 -29.333 -123 -44 -199 -44c-44 0 -86 8 -126 24s-75.667 39 -107 69s-54.166 69.5 -68.499 118.5
s-16.5 103.5 -6.5 163.5zM539.998 819c-2 -13.333 -7.66797 -23.667 -17.001 -31s-20.333 -11 -33 -11c-14 0 -25.167 4.5 -33.5 13.5s-11.166 21.167 -8.49902 36.5c2.66699 12.667 8.66699 22.667 18 30s20 11 32 11c14.667 0 26 -4.33301 34 -13s10.667 -20.667 8 -36z
" />
    <glyph glyph-name="cdotaccent" unicode="&#x10b;" horiz-adv-x="495" 
d="M37 246c8.66699 55.333 29.334 102.167 62.001 140.5s69 65.333 109 81s81.667 23.5 125 23.5c56 0 103.667 -14 143 -42l-9 -53c-33.333 28.667 -76.666 43 -129.999 43c-36.667 0 -71.334 -6.33301 -104.001 -19s-62.334 -34.5 -89.001 -65.5
s-43.667 -69.167 -51 -114.5c-10.667 -64.667 1 -114 35 -148s80.333 -51 139 -51c52.667 0 104.334 14 155.001 42l-9 -59c-47.333 -23.333 -100 -35 -158 -35c-70.667 0 -127.834 22.333 -171.501 67s-59.167 108 -46.5 190zM383 599.001
c-2 -13.333 -7.66797 -23.667 -17.001 -31s-20.333 -11 -33 -11c-14 0 -25.167 4.5 -33.5 13.5s-11.166 21.167 -8.49902 36.5c2.66699 12.667 8.66699 22.667 18 30s20 11 32 11c14.667 0 26 -4.33301 34 -13s10.667 -20.667 8 -36z" />
    <glyph glyph-name="Ccaron" unicode="&#x10c;" horiz-adv-x="647" 
d="M60 364c12 72.667 40.665 136.167 85.998 190.5s96.833 94 154.5 119s116.5 37.5 176.5 37.5c71.333 0 133 -16 185 -48l-9 -57c-44.667 32.667 -101.334 49 -170.001 49c-53.333 0 -105.166 -10.5 -155.499 -31.5s-95.166 -54.833 -134.499 -101.5
s-64.333 -102 -75 -166c-8 -51.333 -5.83301 -97.5 6.5 -138.5s32 -73.667 59 -98s57.5 -42.833 91.5 -55.5s70 -19 108 -19c72 0 136.667 17.333 194 52l-10 -64c-56.667 -29.333 -123 -44 -199 -44c-44 0 -86 8 -126 24s-75.667 39 -107 69s-54.166 69.5 -68.499 118.5
s-16.5 103.5 -6.5 163.5zM663.998 901l-151 -137h-51l-108 137h63l75 -94l103 94h69z" />
    <glyph glyph-name="ccaron" unicode="&#x10d;" horiz-adv-x="495" 
d="M37 246c8.66699 55.333 29.334 102.167 62.001 140.5s69 65.333 109 81s81.667 23.5 125 23.5c56 0 103.667 -14 143 -42l-9 -53c-33.333 28.667 -76.666 43 -129.999 43c-36.667 0 -71.334 -6.33301 -104.001 -19s-62.334 -34.5 -89.001 -65.5
s-43.667 -69.167 -51 -114.5c-10.667 -64.667 1 -114 35 -148s80.333 -51 139 -51c52.667 0 104.334 14 155.001 42l-9 -59c-47.333 -23.333 -100 -35 -158 -35c-70.667 0 -127.834 22.333 -171.501 67s-59.167 108 -46.5 190zM507 681.001l-151 -137h-51l-108 137h63
l75 -94l103 94h69z" />
    <glyph glyph-name="Dcaron" unicode="&#x10e;" horiz-adv-x="735" 
d="M163 700l214.001 -0.000976562c118.667 0 205.5 -32.667 260.5 -98s74.167 -150.666 57.5 -255.999s-60.834 -189.333 -132.501 -252s-169.167 -94 -292.5 -94h-218zM635.001 353.999c14.667 90 -0.166992 160.667 -44.5 212s-117.5 77 -219.5 77h-159l-92 -586h156
c102 0 183.667 26.5 245 79.5s99.333 125.5 114 217.5zM576 900.999l-151 -137h-51l-108 137h63l75 -94l103 94h69z" />
    <glyph glyph-name="dcaron" unicode="&#x10f;" horiz-adv-x="617" 
d="M683 700h57l-53 -172h-49zM548 700l55.999 -0.000976562l-111 -700h-50l16 102c-55.333 -75.333 -128.666 -113 -219.999 -113c-69.333 0 -123.333 24.167 -162 72.5s-52 109.5 -40 183.5c11.333 72.667 42.5 131.834 93.5 177.501s110.5 68.5 178.5 68.5
c46 0 85.167 -10.333 117.5 -31s55.833 -47 70.5 -79zM485.999 306.999c-8.66699 38 -28.167 69.499 -58.5 94.499s-67.5 37.5 -111.5 37.5c-55.333 0 -104 -17.667 -146 -53s-68 -83.666 -78 -144.999c-9.33301 -59.333 1.16699 -107.5 31.5 -144.5s71.5 -55.5 123.5 -55.5
c46 0 88.5 13 127.5 39s68.833 58 89.5 96z" />
    <glyph glyph-name="Dcroat" unicode="&#x110;" horiz-adv-x="737" 
d="M165 700l214.001 -0.000976562c118 0 204.667 -32.667 260 -98s74.666 -150.666 57.999 -255.999c-16.667 -104.667 -61 -188.5 -133 -251.5s-169.333 -94.5 -292 -94.5h-218l51 322h-74l8 54h74zM278.001 56.999c102 0 183.666 26.5 244.999 79.5
s99.333 125.5 114 217.5c14.667 90 -0.166016 160.667 -44.499 212s-117.5 77 -219.5 77h-159l-42 -267h232l-9 -54h-231l-42 -265h156z" />
    <glyph glyph-name="dcroat" unicode="&#x111;" horiz-adv-x="617" 
d="M591 617l72.999 -0.000976562l-6 -44h-74l-91 -573h-50l16 102c-55.333 -75.333 -128.666 -113 -219.999 -113c-69.333 0 -123.333 24.167 -162 72.5s-52 109.5 -40 183.5c11.333 72.667 42.5 131.834 93.5 177.501s110.5 68.5 178.5 68.5c46 0 85.167 -10.333 117.5 -31
s55.833 -47 70.5 -79l31 192h-182l6 44h182l14 83h56zM246.999 40.999c46 0 88.5 12.999 127.5 38.999s68.833 58 89.5 96l22 131c-8.66699 38 -28.167 69.5 -58.5 94.5s-67.5 37.5 -111.5 37.5c-55.333 0 -104 -17.667 -146 -53s-68 -83.666 -78 -144.999
c-9.33301 -59.333 1.16699 -107.5 31.5 -144.5s71.5 -55.5 123.5 -55.5z" />
    <glyph glyph-name="Emacron" unicode="&#x112;" horiz-adv-x="621" 
d="M163 700h465l-9 -57h-406l-41 -262h375l-8 -57h-376l-42 -267h411l-9 -57h-471zM282 847h280l-8 -52h-280z" />
    <glyph glyph-name="emacron" unicode="&#x113;" horiz-adv-x="547" 
d="M36 242c12 78 44.501 139.002 97.501 183.002s111.5 66 175.5 66c42.667 0 79.167 -8.5 109.5 -25.5s51.666 -39 63.999 -66s19.666 -57 21.999 -90s-3.16699 -65.5 -16.5 -97.5h-399c-5.33301 -56.667 10.5 -99.334 47.5 -128.001s82.833 -43 137.5 -43
c60.667 0 116.667 13.333 168 40l-9 -57c-46.667 -23.333 -102.667 -35 -168 -35c-32.667 0 -63.667 5.16699 -93 15.5s-55.666 25.5 -78.999 45.5s-40.333 46.667 -51 80s-12.667 70.666 -6 111.999zM446.001 262.002c2.66699 14.667 4.49805 29.8311 5.49805 45.498
s-1.5 31.334 -7.5 47.001s-14 29.834 -24 42.501s-24.667 22.834 -44 30.501s-41.666 11.5 -66.999 11.5c-50 0 -95.167 -15.833 -135.5 -47.5s-66.166 -74.834 -77.499 -129.501h350zM194.999 626.999h280l-8 -52h-280z" />
    <glyph glyph-name="Edotaccent" unicode="&#x116;" horiz-adv-x="621" 
d="M163 700h465l-9 -57h-406l-41 -262h375l-8 -57h-376l-42 -267h411l-9 -57h-471zM456 819c-2 -13.333 -7.66797 -23.667 -17.001 -31s-20.333 -11 -33 -11c-14 0 -25.167 4.5 -33.5 13.5s-11.166 21.167 -8.49902 36.5c2.66699 12.667 8.66699 22.667 18 30s20 11 32 11
c14.667 0 26 -4.33301 34 -13s10.667 -20.667 8 -36z" />
    <glyph glyph-name="edotaccent" unicode="&#x117;" horiz-adv-x="547" 
d="M36 242c12 78 44.501 139.002 97.501 183.002s111.5 66 175.5 66c42.667 0 79.167 -8.5 109.5 -25.5s51.666 -39 63.999 -66s19.666 -57 21.999 -90s-3.16699 -65.5 -16.5 -97.5h-399c-5.33301 -56.667 10.5 -99.334 47.5 -128.001s82.833 -43 137.5 -43
c60.667 0 116.667 13.333 168 40l-9 -57c-46.667 -23.333 -102.667 -35 -168 -35c-32.667 0 -63.667 5.16699 -93 15.5s-55.666 25.5 -78.999 45.5s-40.333 46.667 -51 80s-12.667 70.666 -6 111.999zM446.001 262.002c2.66699 14.667 4.49805 29.8311 5.49805 45.498
s-1.5 31.334 -7.5 47.001s-14 29.834 -24 42.501s-24.667 22.834 -44 30.501s-41.666 11.5 -66.999 11.5c-50 0 -95.167 -15.833 -135.5 -47.5s-66.166 -74.834 -77.499 -129.501h350zM368.999 598.999c-2 -13.333 -7.66797 -23.667 -17.001 -31s-20.333 -11 -33 -11
c-14 0 -25.167 4.5 -33.5 13.5s-11.166 21.167 -8.49902 36.5c2.66699 12.667 8.66699 22.667 18 30s20 11 32 11c14.667 0 26 -4.33301 34 -13s10.667 -20.667 8 -36z" />
    <glyph glyph-name="Eogonek" unicode="&#x118;" horiz-adv-x="621" 
d="M493 -172l-8.00098 -48.999c-19.333 -6.66699 -40.666 -10 -63.999 -10c-28.667 0 -50 8.16699 -64 24.5s-19 37.166 -15 62.499c7.33301 50 44 98 110 144h-400l111 700h465l-9 -57h-406l-41 -262h375l-8 -57h-376l-42 -267h411l-9 -57c-78 -49.333 -120 -95 -126 -137
c-2.66699 -14 -0.5 -25.333 6.5 -34s17.833 -13 32.5 -13c20 0 39 4 57 12z" />
    <glyph glyph-name="eogonek" unicode="&#x119;" horiz-adv-x="548" 
d="M385 -211c-22.667 -13.333 -49.3311 -19.998 -79.998 -19.998c-30.667 -0.666992 -53.167 7.16602 -67.5 23.499s-19.5 37.5 -15.5 63.5c6.66699 45.333 44 92 112 140c-26 -4.66699 -49 -7 -69 -7c-32.667 0 -63.667 5.16699 -93 15.5s-55.666 25.5 -78.999 45.5
s-40.333 46.667 -51 80s-12.667 70.666 -6 111.999c12 78 44.5 139 97.5 183s111.5 66 175.5 66c42.667 0 79.167 -8.5 109.5 -25.5s51.666 -39 63.999 -66s19.666 -57 21.999 -90s-3.16699 -65.5 -16.5 -97.5h-399c-5.33301 -56.667 10.5 -99.334 47.5 -128.001
s82.833 -43 137.5 -43c60.667 0 116.667 13.333 168 40l-9 -57c-97.333 -66.667 -149.333 -121 -156 -163c-2 -14 0.666992 -25.167 8 -33.5s19 -12.5 35 -12.5c25.333 0.666992 49.666 8.33398 72.999 23.001zM309.003 439.002c-50 0 -95.1689 -15.8359 -135.502 -47.5029
s-66.166 -74.834 -77.499 -129.501h350c2.66699 14.667 4.5 29.834 5.5 45.501s-1.5 31.334 -7.5 47.001s-14 29.834 -24 42.501s-24.667 22.834 -44 30.501s-41.666 11.5 -66.999 11.5z" />
    <glyph glyph-name="Ecaron" unicode="&#x11a;" horiz-adv-x="621" 
d="M163 700h465l-9 -57h-406l-41 -262h375l-8 -57h-376l-42 -267h411l-9 -57h-471zM580 901l-151 -137h-51l-108 137h63l75 -94l103 94h69z" />
    <glyph glyph-name="ecaron" unicode="&#x11b;" horiz-adv-x="547" 
d="M36 242c12 78 44.501 139.002 97.501 183.002s111.5 66 175.5 66c42.667 0 79.167 -8.5 109.5 -25.5s51.666 -39 63.999 -66s19.666 -57 21.999 -90s-3.16699 -65.5 -16.5 -97.5h-399c-5.33301 -56.667 10.5 -99.334 47.5 -128.001s82.833 -43 137.5 -43
c60.667 0 116.667 13.333 168 40l-9 -57c-46.667 -23.333 -102.667 -35 -168 -35c-32.667 0 -63.667 5.16699 -93 15.5s-55.666 25.5 -78.999 45.5s-40.333 46.667 -51 80s-12.667 70.666 -6 111.999zM446.001 262.002c2.66699 14.667 4.49805 29.8311 5.49805 45.498
s-1.5 31.334 -7.5 47.001s-14 29.834 -24 42.501s-24.667 22.834 -44 30.501s-41.666 11.5 -66.999 11.5c-50 0 -95.167 -15.833 -135.5 -47.5s-66.166 -74.834 -77.499 -129.501h350zM492.999 680.999l-151 -137h-51l-108 137h63l75 -94l103 94h69z" />
    <glyph glyph-name="Gbreve" unicode="&#x11e;" horiz-adv-x="709" 
d="M60 364c9.33301 58.667 28.4961 110.832 57.4961 156.499s63.667 82 104 109s82.833 47.333 127.5 61s89.667 20.5 135 20.5c76 0 142.667 -15.667 200 -47l-8 -57c-46.667 32 -109 48 -187 48c-40.667 0 -80.167 -5.5 -118.5 -16.5s-75.166 -27.833 -110.499 -50.5
s-65.666 -54 -90.999 -94s-42 -86 -50 -138c-8.66699 -52.667 -6.66699 -99.667 6 -141s32.834 -74 60.501 -98s58.834 -42 93.501 -54s71.667 -18 111 -18c59.333 0 113.333 11.333 162 34l46 290h60l-52 -334c-70.667 -30.667 -145 -46 -223 -46
c-46 0 -89.833 7.5 -131.5 22.5s-79 37 -112 66s-57 68.333 -72 118s-17.5 105.834 -7.5 168.501zM620.996 818.998c-41.333 -27.333 -87.333 -41 -138 -41c-54 0 -97 13.667 -129 41l9 57c35.333 -29.333 77 -44 125 -44c49.333 0 96.333 14.667 141 44z" />
    <glyph glyph-name="gbreve" unicode="&#x11f;" horiz-adv-x="619" 
d="M494 -2c-12 -78 -44.668 -135.668 -98.001 -173.001s-115.666 -56 -186.999 -56c-76.667 0 -140 16 -190 48l9 54c48 -33.333 106.667 -50 176 -50c60.667 0 112.334 14.667 155.001 44s68.667 75 78 137l15 91c-24 -30.667 -54.333 -55.667 -91 -75
s-77.334 -29 -122.001 -29c-70 0 -124.167 24.167 -162.5 72.5s-51.5 109.5 -39.5 183.5c11.333 72.667 43 131.834 95 177.501s112 68.5 180 68.5c89.333 0 152.333 -38.667 189 -116l16 105h53zM91.999 240.999c-9.33301 -59.333 0.833008 -107.501 30.5 -144.501
s71.167 -55.5 124.5 -55.5c46 0 88.5 12.5 127.5 37.5s68.833 55.833 89.5 92.5l22 136c-8.66699 38 -28 69.5 -58 94.5s-67.333 37.5 -112 37.5c-55.333 0 -104 -17.667 -146 -53s-68 -83.666 -78 -144.999zM470.998 598.998c-41.333 -27.333 -87.333 -41 -138 -41
c-54 0 -97 13.667 -129 41l9 57c35.333 -29.333 77 -44 125 -44c49.333 0 96.333 14.667 141 44z" />
    <glyph glyph-name="Gdotaccent" unicode="&#x120;" horiz-adv-x="709" 
d="M60 364c9.33301 58.667 28.4961 110.832 57.4961 156.499s63.667 82 104 109s82.833 47.333 127.5 61s89.667 20.5 135 20.5c76 0 142.667 -15.667 200 -47l-8 -57c-46.667 32 -109 48 -187 48c-40.667 0 -80.167 -5.5 -118.5 -16.5s-75.166 -27.833 -110.499 -50.5
s-65.666 -54 -90.999 -94s-42 -86 -50 -138c-8.66699 -52.667 -6.66699 -99.667 6 -141s32.834 -74 60.501 -98s58.834 -42 93.501 -54s71.667 -18 111 -18c59.333 0 113.333 11.333 162 34l46 290h60l-52 -334c-70.667 -30.667 -145 -46 -223 -46
c-46 0 -89.833 7.5 -131.5 22.5s-79 37 -112 66s-57 68.333 -72 118s-17.5 105.834 -7.5 168.501zM528.996 818.998c-2 -13.333 -7.66797 -23.667 -17.001 -31s-20.333 -11 -33 -11c-14 0 -25.167 4.5 -33.5 13.5s-11.166 21.167 -8.49902 36.5
c2.66699 12.667 8.66699 22.667 18 30s20 11 32 11c14.667 0 26 -4.33301 34 -13s10.667 -20.667 8 -36z" />
    <glyph glyph-name="gdotaccent" unicode="&#x121;" horiz-adv-x="619" 
d="M494 -2c-12 -78 -44.668 -135.668 -98.001 -173.001s-115.666 -56 -186.999 -56c-76.667 0 -140 16 -190 48l9 54c48 -33.333 106.667 -50 176 -50c60.667 0 112.334 14.667 155.001 44s68.667 75 78 137l15 91c-24 -30.667 -54.333 -55.667 -91 -75
s-77.334 -29 -122.001 -29c-70 0 -124.167 24.167 -162.5 72.5s-51.5 109.5 -39.5 183.5c11.333 72.667 43 131.834 95 177.501s112 68.5 180 68.5c89.333 0 152.333 -38.667 189 -116l16 105h53zM91.999 240.999c-9.33301 -59.333 0.833008 -107.501 30.5 -144.501
s71.167 -55.5 124.5 -55.5c46 0 88.5 12.5 127.5 37.5s68.833 55.833 89.5 92.5l22 136c-8.66699 38 -28 69.5 -58 94.5s-67.333 37.5 -112 37.5c-55.333 0 -104 -17.667 -146 -53s-68 -83.666 -78 -144.999zM378.998 598.998c-2 -13.333 -7.66797 -23.667 -17.001 -31
s-20.333 -11 -33 -11c-14 0 -25.167 4.5 -33.5 13.5s-11.166 21.167 -8.49902 36.5c2.66699 12.667 8.66699 22.667 18 30s20 11 32 11c14.667 0 26 -4.33301 34 -13s10.667 -20.667 8 -36z" />
    <glyph glyph-name="Gcommaaccent" unicode="&#x122;" horiz-adv-x="709" 
d="M60 364c9.33301 58.667 28.4961 110.832 57.4961 156.499s63.667 82 104 109s82.833 47.333 127.5 61s89.667 20.5 135 20.5c76 0 142.667 -15.667 200 -47l-8 -57c-46.667 32 -109 48 -187 48c-40.667 0 -80.167 -5.5 -118.5 -16.5s-75.166 -27.833 -110.499 -50.5
s-65.666 -54 -90.999 -94s-42 -86 -50 -138c-8.66699 -52.667 -6.66699 -99.667 6 -141s32.834 -74 60.501 -98s58.834 -42 93.501 -54s71.667 -18 111 -18c59.333 0 113.333 11.333 162 34l46 290h60l-52 -334c-70.667 -30.667 -145 -46 -223 -46
c-46 0 -89.833 7.5 -131.5 22.5s-79 37 -112 66s-57 68.333 -72 118s-17.5 105.834 -7.5 168.501zM344.996 -234.002h-50l51 180h57z" />
    <glyph glyph-name="gcommaaccent" unicode="&#x123;" horiz-adv-x="619" 
d="M347 548h-57l54 159h50zM494 -2c-12 -78 -44.668 -135.668 -98.001 -173.001s-115.666 -56 -186.999 -56c-76.667 0 -140 16 -190 48l9 54c48 -33.333 106.667 -50 176 -50c60.667 0 112.334 14.667 155.001 44s68.667 75 78 137l15 91
c-24 -30.667 -54.333 -55.667 -91 -75s-77.334 -29 -122.001 -29c-70 0 -124.167 24.167 -162.5 72.5s-51.5 109.5 -39.5 183.5c11.333 72.667 43 131.834 95 177.501s112 68.5 180 68.5c89.333 0 152.333 -38.667 189 -116l16 105h53zM91.999 240.999
c-9.33301 -59.333 0.833008 -107.501 30.5 -144.501s71.167 -55.5 124.5 -55.5c46 0 88.5 12.5 127.5 37.5s68.833 55.833 89.5 92.5l22 136c-8.66699 38 -28 69.5 -58 94.5s-67.333 37.5 -112 37.5c-55.333 0 -104 -17.667 -146 -53s-68 -83.666 -78 -144.999z" />
    <glyph glyph-name="Hbar" unicode="&#x126;" horiz-adv-x="772" 
d="M113 0h-59l81 510h-76l8 50h76l22 140h59l-22 -140h454l22 140h59l-22 -140h76l-8 -50h-76l-81 -510h-59l51 323h-454zM195 510l-21 -130h453l21 130h-453z" />
    <glyph glyph-name="hbar" unicode="&#x127;" horiz-adv-x="583" 
d="M151 397c60 62.667 126 94 198 94c56.667 0 100 -18 130 -54s40.667 -83.667 32 -143l-47 -294h-57l46 291c8 48 1 84.667 -21 110s-54 38 -96 38c-37.333 0 -73.5 -11 -108.5 -33s-64.167 -48.333 -87.5 -79l-51 -327h-57l91 573h-59l6 44h59l14 83h57l-14 -83h196
l-7 -44h-195z" />
    <glyph glyph-name="Imacron" unicode="&#x12a;" horiz-adv-x="255" 
d="M163 700h59l-111 -700h-59zM78 847h280l-8 -52h-280z" />
    <glyph glyph-name="imacron" unicode="&#x12b;" horiz-adv-x="221" 
d="M267 582h-220l8 53h220zM93 0h-57l76 480h57z" />
    <glyph glyph-name="Iogonek" unicode="&#x12e;" horiz-adv-x="255" 
d="M111 0c-54 -54 -83.998 -99.334 -89.998 -136.001c-2 -14.667 0.833008 -26.667 8.5 -36s19.5 -13.666 35.5 -12.999c23.333 0 47.666 7.33301 72.999 22l-8 -49c-22.667 -12.667 -49.334 -19 -80.001 -19c-29.333 0 -51.5 8.5 -66.5 25.5s-20.5 38.167 -16.5 63.5
c6 42 34.667 91.333 86 148l110 694h59z" />
    <glyph glyph-name="iogonek" unicode="&#x12f;" horiz-adv-x="221" 
d="M125 629c3.33301 23.333 17.333 35.001 42 35.001c11.333 0 20.5 -3.83301 27.5 -11.5s9.5 -17.834 7.5 -30.501c-4 -22.667 -18 -34 -42 -34c-11.333 0 -20.5 3.66699 -27.5 11s-9.5 17.333 -7.5 30zM169 480.001l-75.999 -479.999c-52.667 -54 -82 -99.333 -88 -136
c-2.66699 -14 0 -25.667 8 -35s20 -14 36 -14c22 0 44.333 6.33301 67 19l-8 -49c-22 -10.667 -46.667 -16 -74 -16c-30 0 -52.167 8.66699 -66.5 26s-19.5 38.666 -15.5 63.999c7.33301 44 35.666 92.667 84.999 146l75 475h57z" />
    <glyph glyph-name="Idotaccent" unicode="&#x130;" horiz-adv-x="255" 
d="M163 700h59l-111 -700h-59zM252 819c-2 -13.333 -7.66797 -23.667 -17.001 -31s-20.333 -11 -33 -11c-14 0 -25.167 4.5 -33.5 13.5s-11.166 21.167 -8.49902 36.5c2.66699 12.667 8.66699 22.667 18 30s20 11 32 11c14.667 0 26 -4.33301 34 -13s10.667 -20.667 8 -36z
" />
    <glyph glyph-name="dotlessi" unicode="&#x131;" horiz-adv-x="221" 
d="M93 0h-57l76 480h57z" />
    <glyph glyph-name="IJ" unicode="&#x132;" horiz-adv-x="771" 
d="M163 700h59l-111 -700h-59zM470 700l275 0.000976562l-79 -503c-10.667 -70.667 -38.5 -122.834 -83.5 -156.501s-101.167 -50.5 -168.5 -50.5c-74 0 -132.333 14.667 -175 44l9 58c41.333 -30 94 -45 158 -45c118 0 185 52 201 156l70 440h-217z" />
    <glyph glyph-name="ij" unicode="&#x133;" horiz-adv-x="442" 
d="M93 0h-57l76 480h57zM202 622c-4 -22.667 -18 -33.999 -42 -33.999c-11.333 0 -20.5 3.66699 -27.5 11s-9.5 17.333 -7.5 30c3.33301 23.333 17.333 35 42 35c11.333 0 20.5 -3.83301 27.5 -11.5s9.5 -17.834 7.5 -30.501zM297 -101.999
c-6.66699 -46 -23.668 -79 -51.001 -99s-59 -30 -95 -30c-27.333 0 -52 4.66699 -74 14l8 50c16.667 -8 35.334 -12 56.001 -12c58 0 92 29.667 102 89l90 570h57zM422.999 622.001c-4 -22.667 -18 -33.999 -42 -33.999c-11.333 0 -20.5 3.66699 -27.5 11
s-9.5 17.333 -7.5 30c3.33301 23.333 17.333 35 42 35c11.333 0 20.5 -3.83301 27.5 -11.5s9.5 -17.834 7.5 -30.501z" />
    <glyph glyph-name="Kcommaaccent" unicode="&#x136;" horiz-adv-x="658" 
d="M629 700h68l-297 -343l209 -357h-64l-195 330h-187l-52 -330h-59l111 700h59l-49 -314h183zM282 -224h-50l51 180h57z" />
    <glyph glyph-name="kcommaaccent" unicode="&#x137;" horiz-adv-x="508" 
d="M444 480h68l-227 -234l172 -246h-64l-158 226h-110l-35 -226h-57l111 700h57l-67 -422h114zM205 -224h-50l51 180h57z" />
    <glyph glyph-name="Lacute" unicode="&#x139;" horiz-adv-x="572" 
d="M163 700h59l-101 -643h404l-9 -57h-464zM236 773h-63l112 142h72z" />
    <glyph glyph-name="lacute" unicode="&#x13a;" horiz-adv-x="221" 
d="M152 730h57l-116 -730h-57zM216 776h-63l112 142h72z" />
    <glyph glyph-name="Lcommaaccent" unicode="&#x13b;" horiz-adv-x="572" 
d="M163 700h59l-101 -643h404l-9 -57h-464zM263 -224h-50l51 180h57z" />
    <glyph glyph-name="lcommaaccent" unicode="&#x13c;" horiz-adv-x="221" 
d="M152 730h57l-116 -730h-57zM26 -224h-50l51 180h57z" />
    <glyph glyph-name="Lcaron" unicode="&#x13d;" horiz-adv-x="573" 
d="M442 700h57l-53 -172h-49zM163 700h59l-101 -643h404l-9 -57h-464z" />
    <glyph glyph-name="lcaron" unicode="&#x13e;" horiz-adv-x="221" 
d="M288 730h57l-53 -172h-49zM152 730h57l-116 -730h-57z" />
    <glyph glyph-name="Ldot" unicode="&#x13f;" horiz-adv-x="576" 
d="M406 340c-4 -24 -18 -36.001 -42 -36.001c-12 0 -21.667 3.83301 -29 11.5s-10 18.167 -8 31.5c4 23.333 18.333 35 43 35c12 0 21.5 -3.66699 28.5 -11s9.5 -17.666 7.5 -30.999zM163 699.999h59l-101 -643h404l-9 -57h-464z" />
    <glyph glyph-name="ldot" unicode="&#x140;" horiz-adv-x="286" 
d="M152 730h57l-116 -730h-57zM301 346c-4 -23.333 -18 -35 -42 -35c-12 0 -21.667 3.83301 -29 11.5s-10 18.167 -8 31.5c2 11.333 7 20 15 26s17.333 9 28 9c12 0 21.5 -3.83301 28.5 -11.5s9.5 -18.167 7.5 -31.5z" />
    <glyph glyph-name="Lslash" unicode="&#x141;" horiz-adv-x="577" 
d="M522 0h-464l44 279l-92 -37l8 50l92 37l59 371h59l-55 -348l239 95l-8 -50l-239 -95l-38 -245h404z" />
    <glyph glyph-name="lslash" unicode="&#x142;" horiz-adv-x="262" 
d="M172 730h57l-52 -320l93 37l-8 -50l-92 -38l-57 -359h-57l53 337l-91 -37l8 50l92 38z" />
    <glyph glyph-name="Nacute" unicode="&#x143;" horiz-adv-x="768" 
d="M111 0h-59l111 700h50l368 -604c0.666992 7.33301 2 17.5 4 30.5s3.33301 23.167 4 30.5l87 543h59l-111 -700h-50l-368 605c-0.666992 -8 -2 -18.5 -4 -31.5s-3.33301 -22.833 -4 -29.5zM479 773h-63l112 142h72z" />
    <glyph glyph-name="nacute" unicode="&#x144;" horiz-adv-x="584" 
d="M145 391c61.333 66.667 130 100 206 100c56 0 99 -18.167 129 -54.5s40.667 -83.833 32 -142.5l-47 -294h-57l46 291c8 48 1 84.667 -21 110s-54 38 -96 38c-37.333 0 -73.5 -11 -108.5 -33s-64.167 -48 -87.5 -78l-51 -328h-57l76 480h51zM354 553h-63l112 142h72z" />
    <glyph glyph-name="Ncommaaccent" unicode="&#x145;" horiz-adv-x="768" 
d="M111 0h-59l111 700h50l368 -604c0.666992 7.33301 2 17.5 4 30.5s3.33301 23.167 4 30.5l87 543h59l-111 -700h-50l-368 605c-0.666992 -8 -2 -18.5 -4 -31.5s-3.33301 -22.833 -4 -29.5zM319 -224h-50l51 180h57z" />
    <glyph glyph-name="ncommaaccent" unicode="&#x146;" horiz-adv-x="584" 
d="M145 391c61.333 66.667 130 100 206 100c56 0 99 -18.167 129 -54.5s40.667 -83.833 32 -142.5l-47 -294h-57l46 291c8 48 1 84.667 -21 110s-54 38 -96 38c-37.333 0 -73.5 -11 -108.5 -33s-64.167 -48 -87.5 -78l-51 -328h-57l76 480h51zM223 -224h-50l51 180h57z" />
    <glyph glyph-name="Ncaron" unicode="&#x147;" horiz-adv-x="768" 
d="M111 0h-59l111 700h50l368 -604c0.666992 7.33301 2 17.5 4 30.5s3.33301 23.167 4 30.5l87 543h59l-111 -700h-50l-368 605c-0.666992 -8 -2 -18.5 -4 -31.5s-3.33301 -22.833 -4 -29.5zM634 901l-151 -137h-51l-108 137h63l75 -94l103 94h69z" />
    <glyph glyph-name="ncaron" unicode="&#x148;" horiz-adv-x="584" 
d="M145 391c61.333 66.667 130 100 206 100c56 0 99 -18.167 129 -54.5s40.667 -83.833 32 -142.5l-47 -294h-57l46 291c8 48 1 84.667 -21 110s-54 38 -96 38c-37.333 0 -73.5 -11 -108.5 -33s-64.167 -48 -87.5 -78l-51 -328h-57l76 480h51zM509 681l-151 -137h-51
l-108 137h63l75 -94l103 94h69z" />
    <glyph glyph-name="Eng" unicode="&#x14a;" horiz-adv-x="769" 
d="M609 -97c-7.33301 -46 -24.333 -79.833 -51 -101.5s-59.667 -32.5 -99 -32.5c-25.333 0 -50 4 -74 12l9 54c18 -6.66699 36 -10 54 -10c58.667 0 93 29.667 103 89l16 98l-361 593c-0.666992 -8 -2 -18.5 -4 -31.5s-3.33301 -22.833 -4 -29.5l-87 -544h-59l111 700h50
l368 -604c0.666992 7.33301 2 17.5 4 30.5s3.33301 23.167 4 30.5l87 543h59z" />
    <glyph glyph-name="eng" unicode="&#x14b;" horiz-adv-x="584" 
d="M449 -102c-13.333 -86 -62.333 -129 -147 -129c-28 0 -52.667 4.33301 -74 13l8 51c17.333 -8 37.333 -12 60 -12c55.333 0 88 29.667 98 89l60 381c8 48 1 84.667 -21 110s-54 38 -96 38c-37.333 0 -73.5 -11 -108.5 -33s-64.167 -48 -87.5 -78l-51 -328h-57l76 480h51
l-15 -89c61.333 66.667 130 100 206 100c56 0 99.167 -18.167 129.5 -54.5s40.833 -83.833 31.5 -142.5z" />
    <glyph glyph-name="Omacron" unicode="&#x14c;" horiz-adv-x="822" 
d="M784 346c-7.33301 -45.333 -21.6641 -88.835 -42.9971 -130.502s-49 -79.667 -83 -114s-76.333 -61.666 -127 -81.999s-105.667 -30.5 -165 -30.5c-74 0 -136.667 18.167 -188 54.5s-86.666 81.833 -105.999 136.5s-24.333 112.667 -15 174
c7.33301 45.333 22.166 89 44.499 131s50.666 80 84.999 114s76.666 61.167 126.999 81.5s104.166 30.5 161.499 30.5c56 0 106 -10.5 150 -31.5s78.333 -48.833 103 -83.5s42 -73.667 52 -117s11.333 -87.666 4 -132.999zM117.002 349.998
c-3.33301 -29.333 -4 -58.333 -2 -87s9.5 -56.167 22.5 -82.5s29.333 -49.5 49 -69.5s45.334 -36 77.001 -48s67.167 -18 106.5 -18c96.667 0 176.834 30.167 240.501 90.5s101.834 131.833 114.501 214.5c3.33301 29.333 4 58.333 2 87s-9.5 56.167 -22.5 82.5
s-29.333 49.5 -49 69.5s-45.334 36 -77.001 48s-67.167 18 -106.5 18c-96.667 0 -176.834 -30.167 -240.501 -90.5s-101.834 -131.833 -114.501 -214.5zM362.002 846.998h280l-8 -52h-280z" />
    <glyph glyph-name="omacron" unicode="&#x14d;" horiz-adv-x="593" 
d="M540 235c-12 -76.667 -46.168 -136.834 -102.501 -180.501s-118.833 -65.5 -187.5 -65.5c-31.333 0 -61.166 5.83301 -89.499 17.5s-52.833 28 -73.5 49s-35.667 48 -45 81s-11 69.167 -5 108.5c12 76.667 46.167 136.834 102.5 180.501s118.833 65.5 187.5 65.5
c67.333 0 122.833 -23.167 166.5 -69.5s59.167 -108.5 46.5 -186.5zM91.999 238c-9.33301 -59.333 1.83301 -106.666 33.5 -141.999s74.5 -53 128.5 -53c56.667 0 106.834 17.833 150.501 53.5s70.5 84.167 80.5 145.5c9.33301 59.333 -1.83398 106.666 -33.501 141.999
s-74.5 53 -128.5 53c-56.667 0 -107 -17.833 -151 -53.5s-70.667 -84.167 -80 -145.5zM208.998 624h280l-8 -52h-280z" />
    <glyph glyph-name="Ohungarumlaut" unicode="&#x150;" horiz-adv-x="822" 
d="M784 346c-7.33301 -45.333 -21.6641 -88.835 -42.9971 -130.502s-49 -79.667 -83 -114s-76.333 -61.666 -127 -81.999s-105.667 -30.5 -165 -30.5c-74 0 -136.667 18.167 -188 54.5s-86.666 81.833 -105.999 136.5s-24.333 112.667 -15 174
c7.33301 45.333 22.166 89 44.499 131s50.666 80 84.999 114s76.666 61.167 126.999 81.5s104.166 30.5 161.499 30.5c56 0 106 -10.5 150 -31.5s78.333 -48.833 103 -83.5s42 -73.667 52 -117s11.333 -87.666 4 -132.999zM117.002 349.998
c-3.33301 -29.333 -4 -58.333 -2 -87s9.5 -56.167 22.5 -82.5s29.333 -49.5 49 -69.5s45.334 -36 77.001 -48s67.167 -18 106.5 -18c96.667 0 176.834 30.167 240.501 90.5s101.834 131.833 114.501 214.5c3.33301 29.333 4 58.333 2 87s-9.5 56.167 -22.5 82.5
s-29.333 49.5 -49 69.5s-45.334 36 -77.001 48s-67.167 18 -106.5 18c-96.667 0 -176.834 -30.167 -240.501 -90.5s-101.834 -131.833 -114.501 -214.5zM596.002 778.998h-62l95 145h65zM443.002 778.998h-62l95 145h65z" />
    <glyph glyph-name="ohungarumlaut" unicode="&#x151;" horiz-adv-x="593" 
d="M540 235c-12 -76.667 -46.168 -136.834 -102.501 -180.501s-118.833 -65.5 -187.5 -65.5c-31.333 0 -61.166 5.83301 -89.499 17.5s-52.833 28 -73.5 49s-35.667 48 -45 81s-11 69.167 -5 108.5c12 76.667 46.167 136.834 102.5 180.501s118.833 65.5 187.5 65.5
c67.333 0 122.833 -23.167 166.5 -69.5s59.167 -108.5 46.5 -186.5zM91.999 238c-9.33301 -59.333 1.83301 -106.666 33.5 -141.999s74.5 -53 128.5 -53c56.667 0 106.834 17.833 150.501 53.5s70.5 84.167 80.5 145.5c9.33301 59.333 -1.83398 106.666 -33.501 141.999
s-74.5 53 -128.5 53c-56.667 0 -107 -17.833 -151 -53.5s-70.667 -84.167 -80 -145.5zM442.998 556h-62l95 145h65zM289.998 556h-62l95 145h65z" />
    <glyph glyph-name="OE" unicode="&#x152;" horiz-adv-x="1022" 
d="M485 -1c-32.667 -6.66699 -68.665 -10.002 -107.998 -10.002c-58 0 -109.667 10.833 -155 32.5s-80.833 50.334 -106.5 86.001s-43.5 76.334 -53.5 122.001s-11 92.5 -3 140.5c15.333 91.333 60.166 171 134.499 239s165.166 102 272.499 102c47.333 0 86.333 -4 117 -12
l446 1l-9 -57h-375l-42 -262h346l-9 -57h-346l-42 -267h381l-9 -57zM118.002 362.998c-9.33301 -56 -6.16797 -107.667 9.49902 -155s45.334 -86.333 89.001 -117s98.167 -46 163.5 -46c38.667 0 75.667 4.66699 111 14l92 581c-27.333 10 -67.333 15 -120 15
c-91.333 0 -168.333 -29 -231 -87s-100.667 -126.333 -114 -205z" />
    <glyph glyph-name="oe" unicode="&#x153;" horiz-adv-x="985" 
d="M492 134c-24.667 -47.333 -58.502 -83.333 -101.502 -108s-90.5 -37 -142.5 -37c-66 0 -120.667 23.333 -164 70s-59 109 -47 187c12 76 46 135.833 102 179.5s117.667 65.5 185 65.5c48 0 90.167 -12.833 126.5 -38.5s60.5 -61.5 72.5 -107.5
c22.667 47.333 54.334 83.5 95.001 108.5s84.334 37.5 131.001 37.5c34.667 0 65 -5.66699 91 -17s46.5 -26.333 61.5 -45s26.167 -40.167 33.5 -64.5s10.166 -49.666 8.49902 -75.999s-7.16699 -52.5 -16.5 -78.5h-395c-3.33301 -38 4 -70.333 22 -97
s40.833 -45.334 68.5 -56.001s58.167 -16 91.5 -16c58 0 113.667 13.333 167 40l-10 -57c-46.667 -23.333 -102.667 -35 -168 -35c-50.667 0 -95.667 12.333 -135 37s-64.666 60.667 -75.999 108zM91.998 238c-9.33301 -59.333 1.83203 -106.667 33.499 -142
s73.834 -53 126.501 -53c57.333 0 107.333 17.833 150 53.5s69 84.167 79 145.5c9.33301 60 -1.5 107.5 -32.5 142.5s-73.5 52.5 -127.5 52.5c-55.333 0 -105 -17.833 -149 -53.5s-70.667 -84.167 -80 -145.5zM749.996 438.999c-49.333 0 -93.833 -16 -133.5 -48
s-65.167 -75.667 -76.5 -131h345c6.66699 18 8.5 37.5 5.5 58.5s-8.5 40.5 -16.5 58.5s-22.833 32.833 -44.5 44.5s-48.167 17.5 -79.5 17.5z" />
    <glyph glyph-name="Racute" unicode="&#x154;" horiz-adv-x="691" 
d="M111 0l-59 -0.000976562l111 700h267c32 0 62 -3.83301 90 -11.5s53.5 -19.334 76.5 -35.001s39.833 -37.667 50.5 -66s13 -61.5 7 -99.5c-10 -61.333 -36.5 -108.166 -79.5 -140.499s-94.167 -52.166 -153.5 -59.499l203 -288h-70l-200 283h-198zM212 642.999
l-46.999 -303.001h211c34.667 0 66.5 4.5 95.5 13.5s55.167 25.5 78.5 49.5s38 54.667 44 92c4.66699 28 3 52 -5 72s-20.667 35.333 -38 46s-36.333 18.334 -57 23.001s-43.334 7 -68.001 7h-214zM429.001 772.998h-63l112 142h72z" />
    <glyph glyph-name="racute" unicode="&#x155;" horiz-adv-x="356" 
d="M143 371c52.667 84.667 129.332 124.333 229.999 119l-9 -58c-49.333 5.33301 -94.666 -5.66699 -135.999 -33s-72 -63 -92 -107l-46 -292h-57l76 480h51zM273.998 552.999h-63l112 142h72z" />
    <glyph glyph-name="Rcommaaccent" unicode="&#x156;" horiz-adv-x="691" 
d="M111 0l-59 -0.000976562l111 700h267c32 0 62 -3.83301 90 -11.5s53.5 -19.334 76.5 -35.001s39.833 -37.667 50.5 -66s13 -61.5 7 -99.5c-10 -61.333 -36.5 -108.166 -79.5 -140.499s-94.167 -52.166 -153.5 -59.499l203 -288h-70l-200 283h-198zM212 642.999
l-46.999 -303.001h211c34.667 0 66.5 4.5 95.5 13.5s55.167 25.5 78.5 49.5s38 54.667 44 92c4.66699 28 3 52 -5 72s-20.667 35.333 -38 46s-36.333 18.334 -57 23.001s-43.334 7 -68.001 7h-214zM300.001 -224.002h-50l51 180h57z" />
    <glyph glyph-name="rcommaaccent" unicode="&#x157;" horiz-adv-x="356" 
d="M143 371c52.667 84.667 129.332 124.333 229.999 119l-9 -58c-49.333 5.33301 -94.666 -5.66699 -135.999 -33s-72 -63 -92 -107l-46 -292h-57l76 480h51zM25.998 -224.001h-50l51 180h57z" />
    <glyph glyph-name="Rcaron" unicode="&#x158;" horiz-adv-x="691" 
d="M111 0l-59 -0.000976562l111 700h267c32 0 62 -3.83301 90 -11.5s53.5 -19.334 76.5 -35.001s39.833 -37.667 50.5 -66s13 -61.5 7 -99.5c-10 -61.333 -36.5 -108.166 -79.5 -140.499s-94.167 -52.166 -153.5 -59.499l203 -288h-70l-200 283h-198zM212 642.999
l-46.999 -303.001h211c34.667 0 66.5 4.5 95.5 13.5s55.167 25.5 78.5 49.5s38 54.667 44 92c4.66699 28 3 52 -5 72s-20.667 35.333 -38 46s-36.333 18.334 -57 23.001s-43.334 7 -68.001 7h-214zM584.001 900.998l-151 -137h-51l-108 137h63l75 -94l103 94h69z" />
    <glyph glyph-name="rcaron" unicode="&#x159;" horiz-adv-x="355" 
d="M142 371c52.667 84.667 129.332 124.333 229.999 119l-9 -58c-49.333 5.33301 -94.666 -5.66699 -135.999 -33s-72 -63 -92 -107l-46 -292h-57l76 480h51zM427.998 680.999l-151 -137h-51l-108 137h63l75 -94l103 94h69z" />
    <glyph glyph-name="Sacute" unicode="&#x15a;" horiz-adv-x="575" 
d="M94 541c6 38 22.6631 70.334 49.9961 97.001s58.833 45.5 94.5 56.5s73.5 16.5 113.5 16.5c78.667 0 145 -17.667 199 -53l-9 -57c-50.667 36 -113.667 54 -189 54c-53.333 0 -98.166 -9.5 -134.499 -28.5s-58.166 -49.167 -65.499 -90.5
c-4 -26 0.166992 -48.5 12.5 -67.5s30 -34.5 53 -46.5s48.833 -23.333 77.5 -34s57 -22 85 -34s53.333 -25.667 76 -41s39.834 -35.833 51.501 -61.5s14.834 -55.167 9.50098 -88.5c-9.33301 -60.667 -39 -105 -89 -133s-109 -41.667 -177 -41c-94 0 -173 20 -237 60l9 57
c62.667 -40.667 138.334 -61 227.001 -61c126 0 195 40.333 207 121c4.66699 27.333 0.833984 51.166 -11.499 71.499s-29.833 36.833 -52.5 49.5s-48.334 24.5 -77.001 35.5l-85 34c-28 11.667 -53.333 25 -76 40s-39.834 34.667 -51.501 59s-15.167 52.833 -10.5 85.5z
M365.996 773.001h-63l112 142h72z" />
    <glyph glyph-name="sacute" unicode="&#x15b;" horiz-adv-x="462" 
d="M57 365c6 42 28.334 73.5 67.001 94.5s82.667 31.5 132 31.5c63.333 0 117 -14 161 -42l-8 -52c-42.667 28.667 -94.334 43 -155.001 43c-36 0 -67.5 -6.66699 -94.5 -20s-42.5 -33.333 -46.5 -60c-3.33301 -22.667 5.16699 -41.167 25.5 -55.5
s45.666 -25.666 75.999 -33.999s60.5 -17.5 90.5 -27.5s54.333 -25.667 73 -47s25.334 -48.333 20.001 -81c-6.66699 -43.333 -29.5 -75.166 -68.5 -95.499s-85.167 -30.5 -138.5 -30.5c-73.333 0 -132.666 16.333 -177.999 49l9 56c46 -35.333 103 -53 171 -53
c40 0 73.833 6.5 101.5 19.5s43.5 33.167 47.5 60.5c3.33301 22 -4.83398 40.167 -24.501 54.5s-44.667 25.666 -75 33.999s-60.5 17.666 -90.5 27.999s-54.5 26 -73.5 47s-26.167 47.833 -21.5 80.5zM279.001 553h-63l112 142h72z" />
    <glyph glyph-name="Scedilla" unicode="&#x15e;" horiz-adv-x="575" 
d="M355 -148c-4 -26.667 -17.502 -47.167 -40.502 -61.5s-52.833 -21.5 -89.5 -21.5s-71.334 7 -104.001 21l8 46c26.667 -14 57 -21 91 -21c53.333 0 82.333 14 87 42c1.33301 12 -3.5 21.333 -14.5 28s-25.333 10 -43 10s-36.834 -2 -57.501 -6l38 100
c-86 4 -157.667 24 -215 60l9 57c62.667 -40.667 138.334 -61 227.001 -61c126 0 195 40.333 207 121c4.66699 27.333 0.833984 51.166 -11.499 71.499s-29.833 36.833 -52.5 49.5s-48.334 24.5 -77.001 35.5l-85 34c-28 11.667 -53.333 25 -76 40
s-39.834 34.667 -51.501 59s-15.167 52.833 -10.5 85.5c6 38 22.667 70.333 50 97s58.833 45.5 94.5 56.5s73.5 16.5 113.5 16.5c78.667 0 145 -17.667 199 -53l-9 -57c-50.667 36 -113.667 54 -189 54c-53.333 0 -98.166 -9.5 -134.499 -28.5
s-58.166 -49.167 -65.499 -90.5c-4 -26 0.166992 -48.5 12.5 -67.5s30 -34.5 53 -46.5s48.833 -23.333 77.5 -34s57 -22 85 -34s53.333 -25.667 76 -41s39.834 -35.833 51.501 -61.5s14.834 -55.167 9.50098 -88.5c-8.66699 -56 -35.167 -98.167 -79.5 -126.5
s-97.5 -44.166 -159.5 -47.499l-26 -62c30.667 3.33301 56.167 -1.66699 76.5 -15s28.833 -33.333 25.5 -60z" />
    <glyph glyph-name="scedilla" unicode="&#x15f;" horiz-adv-x="462" 
d="M292 -148c-4 -26.667 -17.4971 -47.165 -40.4971 -61.498s-52.833 -21.5 -89.5 -21.5s-71.334 7 -104.001 21l8 46c26.667 -14 57 -21 91 -21c53.333 0 82.333 14 87 42c1.33301 12 -3.5 21.333 -14.5 28s-25.333 10 -43 10s-36.834 -2 -57.501 -6l38 100
c-63.333 4 -114.666 20.333 -153.999 49l9 56c46 -35.333 103 -53 171 -53c40 0 73.833 6.5 101.5 19.5s43.5 33.167 47.5 60.5c3.33301 22 -4.83398 40.167 -24.501 54.5s-44.667 25.666 -75 33.999s-60.5 17.666 -90.5 27.999s-54.5 26 -73.5 47
s-26.167 47.833 -21.5 80.5c6 42 28.333 73.5 67 94.5s82.667 31.5 132 31.5c63.333 0 117 -14 161 -42l-8 -52c-42.667 28.667 -94.334 43 -155.001 43c-36 0 -67.5 -6.66699 -94.5 -20s-42.5 -33.333 -46.5 -60c-3.33301 -22.667 5.16699 -41.167 25.5 -55.5
s45.666 -25.666 75.999 -33.999s60.5 -17.5 90.5 -27.5s54.333 -25.667 73 -47s25.334 -48.333 20.001 -81c-6 -40 -25.833 -70.333 -59.5 -91s-74.5 -32.334 -122.5 -35.001l-26 -62c30.667 3.33301 56.167 -1.66699 76.5 -15s28.833 -33.333 25.5 -60z" />
    <glyph glyph-name="Scaron" unicode="&#x160;" horiz-adv-x="575" 
d="M94 541c6 38 22.6631 70.334 49.9961 97.001s58.833 45.5 94.5 56.5s73.5 16.5 113.5 16.5c78.667 0 145 -17.667 199 -53l-9 -57c-50.667 36 -113.667 54 -189 54c-53.333 0 -98.166 -9.5 -134.499 -28.5s-58.166 -49.167 -65.499 -90.5
c-4 -26 0.166992 -48.5 12.5 -67.5s30 -34.5 53 -46.5s48.833 -23.333 77.5 -34s57 -22 85 -34s53.333 -25.667 76 -41s39.834 -35.833 51.501 -61.5s14.834 -55.167 9.50098 -88.5c-9.33301 -60.667 -39 -105 -89 -133s-109 -41.667 -177 -41c-94 0 -173 20 -237 60l9 57
c62.667 -40.667 138.334 -61 227.001 -61c126 0 195 40.333 207 121c4.66699 27.333 0.833984 51.166 -11.499 71.499s-29.833 36.833 -52.5 49.5s-48.334 24.5 -77.001 35.5l-85 34c-28 11.667 -53.333 25 -76 40s-39.834 34.667 -51.501 59s-15.167 52.833 -10.5 85.5z
M520.996 901.001l-151 -137h-51l-108 137h63l75 -94l103 94h69z" />
    <glyph glyph-name="scaron" unicode="&#x161;" horiz-adv-x="462" 
d="M57 365c6 42 28.334 73.5 67.001 94.5s82.667 31.5 132 31.5c63.333 0 117 -14 161 -42l-8 -52c-42.667 28.667 -94.334 43 -155.001 43c-36 0 -67.5 -6.66699 -94.5 -20s-42.5 -33.333 -46.5 -60c-3.33301 -22.667 5.16699 -41.167 25.5 -55.5
s45.666 -25.666 75.999 -33.999s60.5 -17.5 90.5 -27.5s54.333 -25.667 73 -47s25.334 -48.333 20.001 -81c-6.66699 -43.333 -29.5 -75.166 -68.5 -95.499s-85.167 -30.5 -138.5 -30.5c-73.333 0 -132.666 16.333 -177.999 49l9 56c46 -35.333 103 -53 171 -53
c40 0 73.833 6.5 101.5 19.5s43.5 33.167 47.5 60.5c3.33301 22 -4.83398 40.167 -24.501 54.5s-44.667 25.666 -75 33.999s-60.5 17.666 -90.5 27.999s-54.5 26 -73.5 47s-26.167 47.833 -21.5 80.5zM434.001 681l-151 -137h-51l-108 137h63l75 -94l103 94h69z" />
    <glyph glyph-name="Tcommaaccent" unicode="&#x162;" horiz-adv-x="596" 
d="M77 700h571l-9 -57h-256l-102 -643h-59l102 643h-256zM217 -224h-50l51 180h57z" />
    <glyph glyph-name="tcommaaccent" unicode="&#x163;" horiz-adv-x="389" 
d="M157 631l59.001 16.999l-27 -168h202l-8 -53h-202l-45 -281c-6 -37.333 -1.33301 -64.166 14 -80.499s41 -24.5 77 -24.5c38 0 75 9 111 27l-9 -55c-32.667 -16 -72.334 -24 -119.001 -24c-45.333 0 -80.5 13.167 -105.5 39.5s-33.5 63.833 -25.5 112.5l46 286h-90l8 53
h90zM183.001 -224.001h-50l51 180h57z" />
    <glyph glyph-name="Tcaron" unicode="&#x164;" horiz-adv-x="596" 
d="M77 700h571l-9 -57h-256l-102 -643h-59l102 643h-256zM549 901l-151 -137h-51l-108 137h63l75 -94l103 94h69z" />
    <glyph glyph-name="tcaron" unicode="&#x165;" horiz-adv-x="389" 
d="M330 718h56l-52 -166h-49zM157 631l59.001 16.999l-27 -168h202l-8 -53h-202l-45 -281c-6 -37.333 -1.33301 -64.166 14 -80.499s41 -24.5 77 -24.5c38 0 75 9 111 27l-9 -55c-32.667 -16 -72.334 -24 -119.001 -24c-45.333 0 -80.5 13.167 -105.5 39.5
s-33.5 63.833 -25.5 112.5l46 286h-90l8 53h90z" />
    <glyph glyph-name="Tbar" unicode="&#x166;" horiz-adv-x="607" 
d="M286 0h-59l52 327h-128l8 50h128l42 266h-256l9 57h571l-9 -57h-256l-42 -266h128l-8 -50h-128z" />
    <glyph glyph-name="tbar" unicode="&#x167;" horiz-adv-x="389" 
d="M391 480l-7.99902 -53.001h-202l-19 -119h162l-8 -50h-162l-18 -112c-6 -37.333 -1.33301 -64.166 14 -80.499s41 -24.5 77 -24.5c38 0 75 9 111 27l-9 -55c-32.667 -16 -72.334 -24 -119.001 -24c-45.333 0 -80.5 13.167 -105.5 39.5s-33.5 63.833 -25.5 112.5l19 117
h-50l8 50h50l19 119h-90l8 53h90l24 151l59 17l-27 -168h202z" />
    <glyph glyph-name="Umacron" unicode="&#x16a;" horiz-adv-x="753" 
d="M669 700h59.002l-71 -452c-14.667 -91.333 -50.667 -157.333 -108 -198s-128.333 -61 -213 -61c-40.667 0 -77.334 4.66699 -110.001 14s-61.334 24 -86.001 44s-42 47.333 -52 82s-11.333 75.667 -4 123l71 448h59l-71 -450c-21.333 -136.667 42.667 -205 192 -205
c153.333 0 241.333 69.667 264 209zM321.002 847h280l-8 -52h-280z" />
    <glyph glyph-name="umacron" unicode="&#x16b;" horiz-adv-x="583" 
d="M477 480h56.998l-76 -480h-51l15 89c-22 -27.333 -51 -50.833 -87 -70.5s-73.667 -29.5 -113 -29.5c-58 0 -102.5 18.167 -133.5 54.5s-41.833 84.5 -32.5 144.5l46 292h57l-46 -291c-8 -48 -1.16699 -84.667 20.5 -110s53.834 -38 96.501 -38
c40 0 76.833 10.667 110.5 32s61.834 48 84.501 80zM198.998 627h280l-8 -52h-280z" />
    <glyph glyph-name="Uring" unicode="&#x16e;" horiz-adv-x="753" 
d="M669 700h59.002l-71 -452c-14.667 -91.333 -50.667 -157.333 -108 -198s-128.333 -61 -213 -61c-40.667 0 -77.334 4.66699 -110.001 14s-61.334 24 -86.001 44s-42 47.333 -52 82s-11.333 75.667 -4 123l71 448h59l-71 -450c-21.333 -136.667 42.667 -205 192 -205
c153.333 0 241.333 69.667 264 209zM562.002 845c-4.66699 -28.667 -18 -51.667 -40 -69s-46.667 -26 -74 -26c-28 0 -51.167 9.5 -69.5 28.5s-25.166 43.5 -20.499 73.5c4.66699 28 18.167 50.667 40.5 68s47.166 26 74.499 26c28 0 51 -9.5 69 -28.5
s24.667 -43.167 20 -72.5zM401.002 848c-2.66699 -16.667 0.666016 -30.5 9.99902 -41.5s21.666 -16.5 36.999 -16.5c17.333 0 33 5.16699 47 15.5s22.333 24.5 25 42.5c2.66699 16.667 -0.666016 30.5 -9.99902 41.5s-21.666 16.5 -36.999 16.5
c-17.333 0 -33 -5.16699 -47 -15.5s-22.333 -24.5 -25 -42.5z" />
    <glyph glyph-name="uring" unicode="&#x16f;" horiz-adv-x="583" 
d="M477 480h56.998l-76 -480h-51l15 89c-22 -27.333 -51 -50.833 -87 -70.5s-73.667 -29.5 -113 -29.5c-58 0 -102.5 18.167 -133.5 54.5s-41.833 84.5 -32.5 144.5l46 292h57l-46 -291c-8 -48 -1.16699 -84.667 20.5 -110s53.834 -38 96.501 -38
c40 0 76.833 10.667 110.5 32s61.834 48 84.501 80zM439.998 625c-4.66699 -28.667 -18 -51.667 -40 -69s-46.667 -26 -74 -26c-28 0 -51.167 9.5 -69.5 28.5s-25.166 43.5 -20.499 73.5c4.66699 28 18.167 50.667 40.5 68s47.166 26 74.499 26c28 0 51 -9.5 69 -28.5
s24.667 -43.167 20 -72.5zM278.998 628c-2.66699 -16.667 0.666016 -30.5 9.99902 -41.5s21.666 -16.5 36.999 -16.5c17.333 0 33 5.16699 47 15.5s22.333 24.5 25 42.5c2.66699 16.667 -0.666016 30.5 -9.99902 41.5s-21.666 16.5 -36.999 16.5
c-17.333 0 -33 -5.16699 -47 -15.5s-22.333 -24.5 -25 -42.5z" />
    <glyph glyph-name="Uhungarumlaut" unicode="&#x170;" horiz-adv-x="753" 
d="M669 700h59.002l-71 -452c-14.667 -91.333 -50.667 -157.333 -108 -198s-128.333 -61 -213 -61c-40.667 0 -77.334 4.66699 -110.001 14s-61.334 24 -86.001 44s-42 47.333 -52 82s-11.333 75.667 -4 123l71 448h59l-71 -450c-21.333 -136.667 42.667 -205 192 -205
c153.333 0 241.333 69.667 264 209zM555.002 779h-62l95 145h65zM402.002 779h-62l95 145h65z" />
    <glyph glyph-name="uhungarumlaut" unicode="&#x171;" horiz-adv-x="583" 
d="M477 480h56.998l-76 -480h-51l15 89c-22 -27.333 -51 -50.833 -87 -70.5s-73.667 -29.5 -113 -29.5c-58 0 -102.5 18.167 -133.5 54.5s-41.833 84.5 -32.5 144.5l46 292h57l-46 -291c-8 -48 -1.16699 -84.667 20.5 -110s53.834 -38 96.501 -38
c40 0 76.833 10.667 110.5 32s61.834 48 84.501 80zM432.998 559h-62l95 145h65zM279.998 559h-62l95 145h65z" />
    <glyph glyph-name="Uogonek" unicode="&#x172;" horiz-adv-x="753" 
d="M599 254l70 446.001h59l-71 -452c-13.333 -88.667 -50.666 -155.667 -111.999 -201c-95.333 -70 -146.666 -132 -153.999 -186c-2.66699 -14 0 -25.333 8 -34s20 -12.667 36 -12c24 0 48 7 72 21l-8 -48c-24.667 -12.667 -51.667 -19 -81 -19
c-30.667 0 -53.5 8.16699 -68.5 24.5s-20.5 37.166 -16.5 62.499c7.33301 44.667 39.333 92.667 96 144c-26 -7.33301 -57 -11 -93 -11c-40.667 0 -77.334 4.66699 -110.001 14s-61.334 24 -86.001 44s-42 47.333 -52 82s-11.333 75.667 -4 123l71 448h59l-71 -450
c-21.333 -136.667 42.667 -205 192 -205c153.333 0 241.333 69.667 264 209z" />
    <glyph glyph-name="uogonek" unicode="&#x173;" horiz-adv-x="583" 
d="M534 480l-76.001 -480.001c-33.333 -20.667 -61.5 -43.667 -84.5 -69s-35.833 -48.666 -38.5 -69.999c-2.66699 -14 -0.333984 -25.167 6.99902 -33.5s18.333 -12.5 33 -12.5c18 0 36 3.66699 54 11l-8 -48c-16.667 -6 -36.667 -9 -60 -9
c-29.333 0 -51.166 8.16699 -65.499 24.5s-19.5 37.5 -15.5 63.5c7.33301 48.667 50.666 102.667 129.999 162l12 70c-22 -27.333 -51 -50.833 -87 -70.5s-73.667 -29.5 -113 -29.5c-58 0 -102.5 18.167 -133.5 54.5s-41.833 84.5 -32.5 144.5l46 292h57l-46 -291
c-8 -48 -1.16699 -84.667 20.5 -110s53.834 -38 96.501 -38c40 0 76.833 10.667 110.5 32s61.834 48 84.501 80l52 327h57z" />
    <glyph glyph-name="Wcircumflex" unicode="&#x174;" horiz-adv-x="997" 
d="M979 700h63l-329 -700h-67l-97 590l-285 -590h-70l-111 700h60l98 -624l299 621h49l101 -613zM567 911h51l108 -137h-62l-76 94l-105 -94h-67z" />
    <glyph glyph-name="wcircumflex" unicode="&#x175;" horiz-adv-x="795" 
d="M742 480h61l-248 -480h-59l-79 399l-209 -399h-61l-96 480h57l81 -408l212 405h51l81 -404zM432 691h51l108 -137h-62l-76 94l-105 -94h-67z" />
    <glyph glyph-name="Ycircumflex" unicode="&#x176;" horiz-adv-x="643" 
d="M305 0h-60l44 273l-207 427h62l181 -370l299 370h68l-343 -427zM385 911h51l108 -137h-62l-76 94l-105 -94h-67z" />
    <glyph glyph-name="ycircumflex" unicode="&#x177;" horiz-adv-x="535" 
d="M238 58l247 422h62l-332 -560c-60 -100.667 -124.333 -151 -193 -151c-20 0 -37.333 2.33301 -52 7l7 48c11.333 -3.33301 24.666 -5 39.999 -5c28.667 0 54.834 10 78.501 30s48.167 51.333 73.5 94l34 57l-160 480h57zM289 691h51l108 -137h-62l-76 94l-105 -94h-67z
" />
    <glyph glyph-name="Ydieresis" unicode="&#x178;" horiz-adv-x="643" 
d="M305 0h-60l44 273l-207 427h62l181 -370l299 370h68l-343 -427zM539 833c-1.33301 -10.667 -6.33301 -19.668 -15 -27.001s-18.334 -11 -29.001 -11c-12.667 0 -22.667 4.5 -30 13.5s-10 19.5 -8 31.5c2 10 7.33301 18.833 16 26.5s18.334 11.5 29.001 11.5
c12 0 21.667 -4.66699 29 -14s10 -19.666 8 -30.999zM338 832.999c-1.33301 -10.667 -6.33301 -19.668 -15 -27.001s-18.334 -11 -29.001 -11c-12.667 0 -22.667 4.5 -30 13.5s-10 19.5 -8 31.5c2 10 7.33301 18.833 16 26.5s18.334 11.5 29.001 11.5
c12 0 21.667 -4.66699 29 -14s10 -19.666 8 -30.999z" />
    <glyph glyph-name="Zacute" unicode="&#x179;" horiz-adv-x="578" 
d="M501 0h-517l8 53l524 590h-416l9 57h491l-8 -53l-525 -590h444zM392 773h-63l112 142h72z" />
    <glyph glyph-name="zacute" unicode="&#x17a;" horiz-adv-x="457" 
d="M77 480h364l-9 -50l-366 -380h319l-8 -50h-389l8 50l367 380h-294zM289 553h-63l112 142h72z" />
    <glyph glyph-name="Zdotaccent" unicode="&#x17b;" horiz-adv-x="578" 
d="M501 0h-517l8 53l524 590h-416l9 57h491l-8 -53l-525 -590h444zM423 819c-2 -13.333 -7.66797 -23.667 -17.001 -31s-20.333 -11 -33 -11c-14 0 -25.167 4.5 -33.5 13.5s-11.166 21.167 -8.49902 36.5c2.66699 12.667 8.66699 22.667 18 30s20 11 32 11
c14.667 0 26 -4.33301 34 -13s10.667 -20.667 8 -36z" />
    <glyph glyph-name="zdotaccent" unicode="&#x17c;" horiz-adv-x="457" 
d="M77 480h364l-9 -50l-366 -380h319l-8 -50h-389l8 50l367 380h-294zM320 599c-2 -13.333 -7.66797 -23.667 -17.001 -31s-20.333 -11 -33 -11c-14 0 -25.167 4.5 -33.5 13.5s-11.166 21.167 -8.49902 36.5c2.66699 12.667 8.66699 22.667 18 30s20 11 32 11
c14.667 0 26 -4.33301 34 -13s10.667 -20.667 8 -36z" />
    <glyph glyph-name="Zcaron" unicode="&#x17d;" horiz-adv-x="578" 
d="M501 0h-517l8 53l524 590h-416l9 57h491l-8 -53l-525 -590h444zM547 901l-151 -137h-51l-108 137h63l75 -94l103 94h69z" />
    <glyph glyph-name="zcaron" unicode="&#x17e;" horiz-adv-x="457" 
d="M77 480h364l-9 -50l-366 -380h319l-8 -50h-389l8 50l367 380h-294zM444 681l-151 -137h-51l-108 137h63l75 -94l103 94h69z" />
    <glyph glyph-name="Scommaaccent" unicode="&#x218;" horiz-adv-x="575" 
d="M94 541c6 38 22.6631 70.334 49.9961 97.001s58.833 45.5 94.5 56.5s73.5 16.5 113.5 16.5c78.667 0 145 -17.667 199 -53l-9 -57c-50.667 36 -113.667 54 -189 54c-53.333 0 -98.166 -9.5 -134.499 -28.5s-58.166 -49.167 -65.499 -90.5
c-4 -26 0.166992 -48.5 12.5 -67.5s30 -34.5 53 -46.5s48.833 -23.333 77.5 -34s57 -22 85 -34s53.333 -25.667 76 -41s39.834 -35.833 51.501 -61.5s14.834 -55.167 9.50098 -88.5c-9.33301 -60.667 -39 -105 -89 -133s-109 -41.667 -177 -41c-94 0 -173 20 -237 60l9 57
c62.667 -40.667 138.334 -61 227.001 -61c126 0 195 40.333 207 121c4.66699 27.333 0.833984 51.166 -11.499 71.499s-29.833 36.833 -52.5 49.5s-48.334 24.5 -77.001 35.5l-85 34c-28 11.667 -53.333 25 -76 40s-39.834 34.667 -51.501 59s-15.167 52.833 -10.5 85.5z
M238.996 -223.999h-50l51 180h57z" />
    <glyph glyph-name="scommaaccent" unicode="&#x219;" horiz-adv-x="462" 
d="M57 365c6 42 28.334 73.5 67.001 94.5s82.667 31.5 132 31.5c63.333 0 117 -14 161 -42l-8 -52c-42.667 28.667 -94.334 43 -155.001 43c-36 0 -67.5 -6.66699 -94.5 -20s-42.5 -33.333 -46.5 -60c-3.33301 -22.667 5.16699 -41.167 25.5 -55.5
s45.666 -25.666 75.999 -33.999s60.5 -17.5 90.5 -27.5s54.333 -25.667 73 -47s25.334 -48.333 20.001 -81c-6.66699 -43.333 -29.5 -75.166 -68.5 -95.499s-85.167 -30.5 -138.5 -30.5c-73.333 0 -132.666 16.333 -177.999 49l9 56c46 -35.333 103 -53 171 -53
c40 0 73.833 6.5 101.5 19.5s43.5 33.167 47.5 60.5c3.33301 22 -4.83398 40.167 -24.501 54.5s-44.667 25.666 -75 33.999s-60.5 17.666 -90.5 27.999s-54.5 26 -73.5 47s-26.167 47.833 -21.5 80.5zM176.001 -224h-50l51 180h57z" />
    <glyph glyph-name="uni021A" unicode="&#x21a;" horiz-adv-x="596" 
d="M77 700h571l-9 -57h-256l-102 -643h-59l102 643h-256zM218 -224h-50l51 180h57z" />
    <glyph glyph-name="uni021B" unicode="&#x21b;" horiz-adv-x="389" 
d="M157 631l59.001 16.999l-27 -168h202l-8 -53h-202l-45 -281c-6 -37.333 -1.33301 -64.166 14 -80.499s41 -24.5 77 -24.5c38 0 75 9 111 27l-9 -55c-32.667 -16 -72.334 -24 -119.001 -24c-45.333 0 -80.5 13.167 -105.5 39.5s-33.5 63.833 -25.5 112.5l46 286h-90l8 53
h90zM183.001 -224.001h-50l51 180h57z" />
    <glyph glyph-name="circumflex" unicode="&#x2c6;" horiz-adv-x="299" 
d="M246 911h51l108 -137h-62l-76 94l-105 -94h-67z" />
    <glyph glyph-name="caron" unicode="&#x2c7;" horiz-adv-x="299" 
d="M427 901l-151 -137h-51l-108 137h63l75 -94l103 94h69z" />
    <glyph glyph-name="breve" unicode="&#x2d8;" horiz-adv-x="329" 
d="M407 819c-41.333 -27.333 -87.333 -41 -138 -41c-54 0 -97 13.667 -129 41l9 57c35.333 -29.333 77 -44 125 -44c49.333 0 96.333 14.667 141 44z" />
    <glyph glyph-name="dotaccent" unicode="&#x2d9;" horiz-adv-x="101" 
d="M206 819c-2 -13.333 -7.66797 -23.667 -17.001 -31s-20.333 -11 -33 -11c-14 0 -25.167 4.5 -33.5 13.5s-11.166 21.167 -8.49902 36.5c2.66699 12.667 8.66699 22.667 18 30s20 11 32 11c14.667 0 26 -4.33301 34 -13s10.667 -20.667 8 -36z" />
    <glyph glyph-name="ring" unicode="&#x2da;" horiz-adv-x="213" 
d="M322 845c-4.66699 -28.667 -18 -51.667 -40 -69s-46.667 -26 -74 -26c-28 0 -51.167 9.5 -69.5 28.5s-25.166 43.5 -20.499 73.5c4.66699 28 18.167 50.667 40.5 68s47.166 26 74.499 26c28 0 51 -9.5 69 -28.5s24.667 -43.167 20 -72.5zM161 848
c-2.66699 -16.667 0.666016 -30.5 9.99902 -41.5s21.666 -16.5 36.999 -16.5c17.333 0 33 5.16699 47 15.5s22.333 24.5 25 42.5c2.66699 16.667 -0.666016 30.5 -9.99902 41.5s-21.666 16.5 -36.999 16.5c-17.333 0 -33 -5.16699 -47 -15.5s-22.333 -24.5 -25 -42.5z" />
    <glyph glyph-name="ogonek" unicode="&#x2db;" horiz-adv-x="210" 
d="M85 3l67 -3c-78 -49.333 -120 -95 -126 -137c-2.66699 -14 -0.166992 -25.333 7.5 -34s19.5 -13 35.5 -13c24.667 0 48.667 6.33301 72 19l-8 -50c-22 -10.667 -48.333 -16 -79 -16s-53.167 8 -67.5 24s-19.5 37 -15.5 63c7.33301 50 45.333 99 114 147z" />
    <glyph glyph-name="tilde" unicode="&#x2dc;" horiz-adv-x="333" 
d="M438 866c-0.666992 -29.333 -8.83691 -51.999 -24.5039 -67.999s-35.167 -24 -58.5 -24c-21.333 0 -48.666 8 -81.999 24s-56.333 24 -69 24s-22.667 -3.83301 -30 -11.5s-11 -18.167 -11 -31.5h-49c0.666992 29.333 8.83398 52.166 24.501 68.499
s34.834 24.5 57.501 24.5c21.333 0 48.833 -8 82.5 -24s56.834 -24 69.501 -24c27.333 0 41 14 41 42h49z" />
    <glyph glyph-name="hungarumlaut" unicode="&#x2dd;" horiz-adv-x="343" 
d="M344 779h-62l95 145h65zM191 779h-62l95 145h65z" />
    <glyph glyph-name="uni0326" unicode="&#x326;" horiz-adv-x="120" 
d="M15 -224h-50l51 180h57z" />
    <glyph glyph-name="uni0401" unicode="&#x401;" horiz-adv-x="619" 
d="M555 833c-1.33301 -10.667 -6.33301 -19.668 -15 -27.001s-18.334 -11 -29.001 -11c-12.667 0 -22.667 4.5 -30 13.5s-10 19.5 -8 31.5c2 10 7.33301 18.833 16 26.5s18.334 11.5 29.001 11.5c12 0 21.667 -4.66699 29 -14s10 -19.666 8 -30.999zM354 832.999
c-1.33301 -10.667 -6.33301 -19.668 -15 -27.001s-18.334 -11 -29.001 -11c-12.667 0 -22.667 4.5 -30 13.5s-10 19.5 -8 31.5c2 10 7.33301 18.833 16 26.5s18.334 11.5 29.001 11.5c12 0 21.667 -4.66699 29 -14s10 -19.666 8 -30.999zM163 699.998h465l-9 -57h-406
l-41 -262h375l-8 -57h-376l-42 -267h411l-9 -57h-471z" />
    <glyph glyph-name="uni0410" unicode="&#x410;" horiz-adv-x="714" 
d="M656 0h-62l-53 188h-396l-112 -188h-67l422 700h68zM402 616l-223.998 -372h349l-106 373c-2.66699 10.667 -4.33398 18.667 -5.00098 24c-2.66699 -6 -7.33398 -14.333 -14.001 -25z" />
    <glyph glyph-name="uni0411" unicode="&#x411;" horiz-adv-x="663" 
d="M176 408h192.001c36 0 68.5 -3 97.5 -9s56.333 -16 82 -30s44.167 -35.333 55.5 -64s13.666 -63.667 6.99902 -105c-20.667 -133.333 -122.667 -200 -306 -200h-252l111 700h474l-10 -57h-414zM120.001 57h192.999c30 0 56.667 1.83301 80 5.5
s46.666 10.334 69.999 20.001s42.5 25 57.5 46s25.167 47.167 30.5 78.5c4.66699 30.667 2.83398 56.167 -5.49902 76.5s-22.666 35.166 -42.999 44.499s-40.833 15.5 -61.5 18.5s-46 4.5 -76 4.5h-198z" />
    <glyph glyph-name="uni0412" unicode="&#x412;" horiz-adv-x="686" 
d="M163 700l271 0.000976562c68.667 0 123 -15.667 163 -47s55.333 -76 46 -134c-7.33301 -42.667 -24.666 -76.667 -51.999 -102s-60 -42 -98 -50c39.333 -8.66699 72.166 -27.334 98.499 -56.001s35.5 -70 27.5 -124c-20 -124.667 -117.333 -187 -292 -187h-275z
M560 200.001c3.33301 23.333 2 43.667 -4 61s-14.5 30.666 -25.5 39.999s-25 16.666 -42 21.999s-32.5 8.83301 -46.5 10.5s-29 2.5 -45 2.5h-233l-44 -279h202c28.667 0 53.667 1.5 75 4.5s44.5 8.83301 69.5 17.5s45.667 23.334 62 44.001s26.833 46.334 31.5 77.001z
M583 520.002c6.66699 44 -4.16797 75.5 -32.501 94.5s-71.166 28.5 -128.499 28.5h-210l-39 -251h236c44.667 0 83 10.5 115 31.5s51.667 53.167 59 96.5z" />
    <glyph glyph-name="uni0413" unicode="&#x413;" horiz-adv-x="573" 
d="M111 0h-59l111 700h456l-9 -57h-397z" />
    <glyph glyph-name="uni0414" unicode="&#x414;" horiz-adv-x="761" 
d="M4 -170l-57.001 0.000976562l36 227h82c54.667 79.333 100.834 176.166 138.501 290.499s65.5 231.833 83.5 352.5h419l-102 -643h87l-36 -227h-56l26 170h-594zM337.999 643.001c-49.333 -258 -118.667 -453.333 -208 -586h416l92 586h-300z" />
    <glyph glyph-name="uni0415" unicode="&#x415;" horiz-adv-x="619" 
d="M163 700h465l-9 -57h-406l-41 -262h375l-8 -57h-376l-42 -267h411l-9 -57h-471z" />
    <glyph glyph-name="uni0416" unicode="&#x416;" horiz-adv-x="930" 
d="M897 700h67l-264 -341l176 -359h-62l-162 330h-149l-52 -330h-60l52 330h-142l-269 -330h-70l294 359l-156 341h63l141 -314h149l49 314h60l-50 -314h143z" />
    <glyph glyph-name="uni0417" unicode="&#x417;" horiz-adv-x="605" 
d="M539 185c-5.33301 -35.333 -18.0029 -66.1709 -38.0029 -92.5039s-44.333 -46.666 -73 -60.999s-58.834 -25 -90.501 -32s-64.5 -10.5 -98.5 -10.5c-91.333 0 -171.333 14.667 -240 44l9 58c64 -30.667 140.667 -46 230 -46c38 0 73.167 4.33301 105.5 13
s61.833 24.834 88.5 48.501s43 53.834 49 90.501c4 26.667 1.33301 49.5 -8 68.5s-23.833 33.333 -43.5 43s-40.667 16.667 -63 21s-47.166 6.5 -74.499 6.5h-139l9 56h130c57.333 0 105.5 11.833 144.5 35.5s61.833 56.5 68.5 98.5c6 42.667 -7.5 74.834 -40.5 96.501
s-77.167 32.5 -132.5 32.5c-81.333 0 -158.666 -16.667 -231.999 -50l9 58c70 32 147 48 231 48c71.333 0 128.833 -16.333 172.5 -49s60.834 -78.334 51.501 -137.001c-6 -42 -24 -76.833 -54 -104.5s-67 -46.167 -111 -55.5
c44.667 -7.33301 81.334 -25.666 110.001 -54.999s38.667 -71 30 -125z" />
    <glyph glyph-name="uni0418" unicode="&#x418;" horiz-adv-x="768" 
d="M735 700l-111.001 -699.999h-59l87 547c2 18 5.33301 37 10 57l-552 -604h-58l111 700h59l-87 -548c-3.33301 -22.667 -6.66602 -41.334 -9.99902 -56.001l552 604h58z" />
    <glyph glyph-name="uni0419" unicode="&#x419;" horiz-adv-x="768" 
d="M735 700l-111.001 -699.999h-59l87 547c2 18 5.33301 37 10 57l-552 -604h-58l111 700h59l-87 -548c-3.33301 -22.667 -6.66602 -41.334 -9.99902 -56.001l552 604h58zM609.999 819.001c-41.333 -27.333 -87.333 -41 -138 -41c-54 0 -97 13.667 -129 41l9 57
c35.333 -29.333 77 -44 125 -44c49.333 0 96.333 14.667 141 44z" />
    <glyph glyph-name="uni041A" unicode="&#x41a;" horiz-adv-x="658" 
d="M629 700h68l-297 -343l209 -357h-64l-195 330h-187l-52 -330h-59l111 700h59l-49 -314h183z" />
    <glyph glyph-name="uni041B" unicode="&#x41b;" horiz-adv-x="742" 
d="M296 700l413.001 0.000976562l-111 -700h-59l101 643h-297l-27 -116.5l-27 -108.5c-10.667 -42 -20.167 -76.333 -28.5 -103s-18.333 -56.5 -30 -89.5s-22.834 -59.833 -33.501 -80.5s-22.834 -41.834 -36.501 -63.501s-27.5 -38.5 -41.5 -50.5
s-29.5 -21.833 -46.5 -29.5s-34.833 -11.5 -53.5 -11.5c-24.667 0 -45.667 3.66699 -63 11l9 58c18 -6.66699 34 -10 48 -10c16 0 31.333 4.33301 46 13s28.667 22.167 42 40.5s26 38.333 38 60s23.833 49 35.5 82s22.334 65 32.001 96s20 68.333 31 112l29 119z" />
    <glyph glyph-name="uni041C" unicode="&#x41c;" horiz-adv-x="903" 
d="M810 700h60l-111 -700h-59l94 593l-339 -415h-39l-210 415l-95 -593h-59l111 700h52l227 -450z" />
    <glyph glyph-name="uni041D" unicode="&#x41d;" horiz-adv-x="768" 
d="M676 700h59l-111 -700h-59l51 323h-454l-51 -323h-59l111 700h59l-50 -320h453z" />
    <glyph glyph-name="uni041E" unicode="&#x41e;" horiz-adv-x="822" 
d="M784 346c-7.33301 -45.333 -21.6641 -88.835 -42.9971 -130.502s-49 -79.667 -83 -114s-76.333 -61.666 -127 -81.999s-105.667 -30.5 -165 -30.5c-74 0 -136.667 18.167 -188 54.5s-86.666 81.833 -105.999 136.5s-24.333 112.667 -15 174
c7.33301 45.333 22.166 89 44.499 131s50.666 80 84.999 114s76.666 61.167 126.999 81.5s104.166 30.5 161.499 30.5c56 0 106 -10.5 150 -31.5s78.333 -48.833 103 -83.5s42 -73.667 52 -117s11.333 -87.666 4 -132.999zM117.002 349.998
c-3.33301 -29.333 -4 -58.333 -2 -87s9.5 -56.167 22.5 -82.5s29.333 -49.5 49 -69.5s45.334 -36 77.001 -48s67.167 -18 106.5 -18c96.667 0 176.834 30.167 240.501 90.5s101.834 131.833 114.501 214.5c3.33301 29.333 4 58.333 2 87s-9.5 56.167 -22.5 82.5
s-29.333 49.5 -49 69.5s-45.334 36 -77.001 48s-67.167 18 -106.5 18c-96.667 0 -176.834 -30.167 -240.501 -90.5s-101.834 -131.833 -114.501 -214.5z" />
    <glyph glyph-name="uni041F" unicode="&#x41f;" horiz-adv-x="753" 
d="M111 0h-59l111 700h557l-111 -700h-59l102 643h-439z" />
    <glyph glyph-name="uni0420" unicode="&#x420;" horiz-adv-x="658" 
d="M163 700l233.996 -0.000976562c38.667 0 73.834 -3.83301 105.501 -11.5s60.334 -19.667 86.001 -36s44.334 -39.666 56.001 -69.999s14.167 -66.5 7.5 -108.5c-23.333 -146 -132.666 -219 -327.999 -219h-172l-41 -255h-59zM591.996 480.999
c5.33301 31.333 3.5 57.999 -5.5 79.999s-23.667 38.833 -44 50.5s-42.5 19.834 -66.5 24.501s-51.333 7 -82 7h-182l-52 -331h172c155.333 0 242 56.333 260 169z" />
    <glyph glyph-name="uni0421" unicode="&#x421;" horiz-adv-x="652" 
d="M60 364c12 72.667 40.665 136.167 85.998 190.5s96.833 94 154.5 119s116.5 37.5 176.5 37.5c71.333 0 133 -16 185 -48l-9 -57c-44.667 32.667 -101.334 49 -170.001 49c-53.333 0 -105.166 -10.5 -155.499 -31.5s-95.166 -54.833 -134.499 -101.5
s-64.333 -102 -75 -166c-8 -51.333 -5.83301 -97.5 6.5 -138.5s32 -73.667 59 -98s57.5 -42.833 91.5 -55.5s70 -19 108 -19c72 0 136.667 17.333 194 52l-10 -64c-56.667 -29.333 -123 -44 -199 -44c-44 0 -86 8 -126 24s-75.667 39 -107 69s-54.166 69.5 -68.499 118.5
s-16.5 103.5 -6.5 163.5z" />
    <glyph glyph-name="uni0422" unicode="&#x422;" horiz-adv-x="596" 
d="M77 700h571l-9 -57h-256l-102 -643h-59l102 643h-256z" />
    <glyph glyph-name="uni0423" unicode="&#x423;" horiz-adv-x="624" 
d="M342 158c-41.333 -64 -81.168 -108.167 -119.501 -132.5s-78.166 -36.5 -119.499 -36.5c-31.333 0 -60.333 4.66699 -87 14l9 56c24 -9.33301 47.667 -14 71 -14c32 0 61.5 7.83301 88.5 23.5s55.833 44.5 86.5 86.5l17 24l-217 521h63l191 -467l297 467h67z" />
    <glyph glyph-name="uni0424" unicode="&#x424;" horiz-adv-x="857" 
d="M406 -36h-59.0029l14 92c-104 2 -186.833 30.167 -248.5 84.5s-85.5 126.833 -71.5 217.5c14 90 57.833 159.667 131.5 209s167.834 75 282.501 77l15 92h59l-15 -92c65.333 -1.33301 123.833 -13.833 175.5 -37.5s91.334 -58.667 119.001 -105
s36.834 -99.5 27.501 -159.5c-14 -90.667 -57.833 -160.5 -131.5 -209.5s-168.167 -74.5 -283.5 -76.5zM100.997 354c-11.333 -73.333 6.83301 -131.667 54.5 -175s119.167 -66.333 214.5 -69l76 480c-99.333 -3.33301 -178.833 -25 -238.5 -65s-95.167 -97 -106.5 -171z
M504.996 589.999l-76 -479.997c99.333 3.33301 179 25.166 239 65.499s96 97.166 108 170.499c11.333 72.667 -7.5 130.667 -56.5 174s-120.5 66.666 -214.5 69.999z" />
    <glyph glyph-name="uni0425" unicode="&#x425;" horiz-adv-x="628" 
d="M33 0h-75l333 363l-203 337h66l177 -294l270 294h75l-316 -344l214 -356h-65l-189 312z" />
    <glyph glyph-name="uni0426" unicode="&#x426;" horiz-adv-x="777" 
d="M670 -170h-56l27 170h-589l111 700h59l-101 -643h440l101 643h60l-102 -643h86z" />
    <glyph glyph-name="uni0427" unicode="&#x427;" horiz-adv-x="677" 
d="M534 0l-59.999 -0.000976562l45 282c-77.333 -25.333 -150.333 -37.333 -219 -36c-81.333 1.33301 -142 22.333 -182 63s-54 99.334 -42 176.001l34 215h59l-35 -222c-9.33301 -60 2 -104 34 -132s81.667 -42.333 149 -43c63.333 -0.666992 133.666 11 210.999 35l57 362
h60z" />
    <glyph glyph-name="uni0428" unicode="&#x428;" horiz-adv-x="1063" 
d="M919 0h-867l111 700h59l-101 -643h344l102 643h59l-101 -643h344l102 643h59z" />
    <glyph glyph-name="uni0429" unicode="&#x429;" horiz-adv-x="1085" 
d="M979 -170h-56l27 170h-898l111 700h59l-101 -643h344l102 643h59l-101 -643h344l102 643h59l-101 -643h86z" />
    <glyph glyph-name="uni042A" unicode="&#x42a;" horiz-adv-x="752" 
d="M377 0l-232 -0.00195312l102 643h-182l9 57h242l-41 -256h173c40 0 76 -3.66699 108 -11s60.833 -19.166 86.5 -35.499s44.167 -39.666 55.5 -69.999s13.666 -66.5 6.99902 -108.5c-23.333 -146 -132.666 -219 -327.999 -219zM266 386.998l-51.998 -330.002h172
c156 0 242.667 56.333 260 169c5.33301 31.333 3.66602 57.833 -5.00098 79.5s-23.167 38.334 -43.5 50.001s-42.833 19.834 -67.5 24.501s-53.334 7 -86.001 7h-178z" />
    <glyph glyph-name="uni042B" unicode="&#x42b;" horiz-adv-x="860" 
d="M283 0l-231 -0.00195312l111 700h59l-40 -256h173c40 0 76 -3.66699 108 -11s60.833 -19.166 86.5 -35.499s44 -39.666 55 -69.999s13.167 -66.5 6.5 -108.5c-22 -146 -131.333 -219 -328 -219zM172 386.998l-51.998 -330.002h172c156 0 242.667 56.333 260 169
c5.33301 31.333 3.66602 57.833 -5.00098 79.5s-23.167 38.334 -43.5 50.001s-42.833 19.834 -67.5 24.501s-53.334 7 -86.001 7h-178zM716.002 -0.00390625h-59l111 700h59z" />
    <glyph glyph-name="uni042C" unicode="&#x42c;" horiz-adv-x="658" 
d="M283 0l-231 -0.00195312l111 700h59l-40 -256h173c40 0 76 -3.66699 108 -11s60.833 -19.166 86.5 -35.499s44 -39.666 55 -69.999s13.167 -66.5 6.5 -108.5c-22 -146 -131.333 -219 -328 -219zM172 386.998l-51.998 -330.002h172c156 0 242.667 56.333 260 169
c5.33301 31.333 3.66602 57.833 -5.00098 79.5s-23.167 38.334 -43.5 50.001s-42.833 19.834 -67.5 24.501s-53.334 7 -86.001 7h-178z" />
    <glyph glyph-name="uni042D" unicode="&#x42d;" horiz-adv-x="654" 
d="M105 666c59.333 30 126.001 45 200.001 45c43.333 0 85 -7.83301 125 -23.5s75.667 -38.334 107 -68.001s54.166 -68.834 68.499 -117.501s16.833 -102.667 7.5 -162c-18.667 -115.333 -66.667 -202.666 -144 -261.999s-166.333 -89 -267 -89
c-76.667 0 -142.334 16 -197.001 48l9 56c51.333 -32 112.333 -48 183 -48c86.667 0 162.5 23.333 227.5 70s106.833 116.334 125.5 209.001l-384 -2l9 56l383 2c4 45.333 -1 86 -15 122s-34 64.833 -60 86.5s-55.167 38.167 -87.5 49.5s-66.166 17 -101.499 17
c-72 0 -138.333 -16.333 -199 -49z" />
    <glyph glyph-name="uni042E" unicode="&#x42e;" horiz-adv-x="1085" 
d="M1047 346c-7.33301 -45.333 -21.668 -88.835 -43.001 -130.502s-49 -79.667 -83 -114s-76.333 -61.666 -127 -81.999s-105.667 -30.5 -165 -30.5c-69.333 0 -129 16.333 -179 49s-85.667 73.834 -107 123.501s-30 103.167 -26 160.5h-155l-51 -322h-59l111 700h59
l-51 -322h154c20.667 91.333 67.834 169.666 141.501 234.999s164.167 98 271.5 98c56 0 106 -10.5 150 -31.5s78.333 -48.833 103 -83.5s42 -73.667 52 -117s11.333 -87.666 4 -132.999zM379.998 349.998c-3.33301 -29.333 -4 -58.333 -2 -87s9.5 -56.167 22.5 -82.5
s29.333 -49.5 49 -69.5s45.334 -36 77.001 -48s67.167 -18 106.5 -18c96.667 0 176.834 30.167 240.501 90.5s101.834 131.833 114.501 214.5c3.33301 29.333 4 58.333 2 87s-9.5 56.167 -22.5 82.5s-29.333 49.5 -49 69.5s-45.334 36 -77.001 48s-67.167 18 -106.5 18
c-96.667 0 -176.834 -30.167 -240.501 -90.5s-101.834 -131.833 -114.501 -214.5z" />
    <glyph glyph-name="uni042F" unicode="&#x42f;" horiz-adv-x="685" 
d="M55 0h-71.001l261 272c-55.333 12.667 -96.666 37.167 -123.999 73.5s-36.333 82.833 -27 139.5c11.333 73.333 44.5 127.5 99.5 162.5s124.167 52.5 207.5 52.5h251l-111 -700h-60l42 263h-187c-12.667 0 -22 0.333008 -28 1zM153.999 478
c-8.66699 -54.667 4 -94.666 38 -119.999s83 -38 147 -38h193l51 323h-191c-63.333 0 -116.5 -13.333 -159.5 -40s-69.167 -68.334 -78.5 -125.001z" />
    <glyph glyph-name="uni0430" unicode="&#x430;" horiz-adv-x="618" 
d="M458 99c-58 -73.333 -130.997 -110.001 -218.997 -110.001c-69.333 0 -123.333 24.167 -162 72.5s-52 109.5 -40 183.5c11.333 72.667 43.166 131.834 95.499 177.501s112.166 68.5 179.499 68.5c45.333 0 84.166 -10.5 116.499 -31.5s56.833 -47.833 73.5 -80.5l16 101
h51l-76 -480h-51zM92.0029 240.999c-9.33301 -60 1 -108.331 31 -144.998s71.333 -55 124 -55c46 0 88.5 12.833 127.5 38.5s68.833 57.5 89.5 95.5l21 132c-8 37.333 -27.333 68.666 -58 93.999s-67.667 38 -111 38c-54.667 0 -103.167 -17.833 -145.5 -53.5
s-68.5 -83.834 -78.5 -144.501z" />
    <glyph glyph-name="uni0431" unicode="&#x431;" horiz-adv-x="591" 
d="M534 220c-10.667 -72 -40.001 -128.5 -88.001 -169.5s-107.667 -61.5 -179 -61.5c-76 0 -134.333 25.833 -175 77.5s-54 122.167 -40 211.5c11.333 74.667 35 138.834 71 192.501s79 94.5 129 122.5c42 22.667 84.667 40 128 52l110 30.5c30 8.33301 55 20.5 75 36.5
l-9 -62c-20.667 -15.333 -60.834 -30 -120.501 -44s-111.167 -33 -154.5 -57c-73.333 -40.667 -126.666 -106.334 -159.999 -197.001c23.333 32.667 54.5 58.834 93.5 78.501s78.5 29.5 118.5 29.5c62 0 113.833 -22.833 155.5 -68.5s56.834 -102.834 45.501 -171.501z
M102.999 250c-8.66699 -62.667 2.16699 -112.834 32.5 -150.501s74.833 -56.5 133.5 -56.5c57.333 0 104.5 16.833 141.5 50.5s59.5 77.834 67.5 132.501c8.66699 50.667 -2.33301 93.5 -33 128.5s-71.667 52.5 -123 52.5c-50.667 0 -96.5 -14.667 -137.5 -44
s-68.167 -67 -81.5 -113z" />
    <glyph glyph-name="uni0432" unicode="&#x432;" horiz-adv-x="546" 
d="M291 0h-258.001l76 480h246c46.667 0 82.334 -11.667 107.001 -35s33.667 -55.333 27 -96c-8.66699 -54 -38.667 -89.333 -90 -106c24 -6 43.167 -19 57.5 -39s18.833 -46 13.5 -78c-6 -40 -24.333 -71 -55 -93s-72 -33 -124 -33zM123.999 218l-27 -168h191
c75.333 0 117.666 29 126.999 87c4.66699 30 -1.16602 51 -17.499 63s-39.5 18 -69.5 18h-204zM157.999 430l-26 -162h192c29.333 0 53.5 7 72.5 21s30.833 34.667 35.5 62c4 27.333 -2 47.333 -18 60s-39.333 19 -70 19h-186z" />
    <glyph glyph-name="uni0433" unicode="&#x433;" horiz-adv-x="441" 
d="M90 0h-57l76 480h345l-8 -53h-289z" />
    <glyph glyph-name="uni0434" unicode="&#x434;" 
d="M15 -133h-55l29 184h65c40 59.333 72.333 122.5 97 189.5s44 146.833 58 239.5h341l-68 -429h70l-30 -184h-55l21 133h-452zM254 427c-25.333 -143.333 -72 -268.667 -140 -376h312l59 376h-231z" />
    <glyph glyph-name="uni0435" unicode="&#x435;" horiz-adv-x="545" 
d="M36 242c12 78 44.501 139.002 97.501 183.002s111.5 66 175.5 66c42.667 0 79.167 -8.5 109.5 -25.5s51.666 -39 63.999 -66s19.666 -57 21.999 -90s-3.16699 -65.5 -16.5 -97.5h-399c-5.33301 -56.667 10.5 -99.334 47.5 -128.001s82.833 -43 137.5 -43
c60.667 0 116.667 13.333 168 40l-9 -57c-46.667 -23.333 -102.667 -35 -168 -35c-32.667 0 -63.667 5.16699 -93 15.5s-55.666 25.5 -78.999 45.5s-40.333 46.667 -51 80s-12.667 70.666 -6 111.999zM446.001 262.002c2.66699 14.667 4.49805 29.8311 5.49805 45.498
s-1.5 31.334 -7.5 47.001s-14 29.834 -24 42.501s-24.667 22.834 -44 30.501s-41.666 11.5 -66.999 11.5c-50 0 -95.167 -15.833 -135.5 -47.5s-66.166 -74.834 -77.499 -129.501h350z" />
    <glyph glyph-name="uni0436" unicode="&#x436;" horiz-adv-x="734" 
d="M29 0h-67l243 246l-139 234h59l128 -212h83l33 212h57l-34 -212h83l193 212h64l-216 -238l164 -242h-63l-148 216h-85l-34 -216h-57l34 216h-82z" />
    <glyph glyph-name="uni0437" unicode="&#x437;" horiz-adv-x="479" 
d="M405 124c-14.667 -90 -92.3359 -135.003 -233.003 -135.003c-66.667 -0.666992 -125 11.333 -175 36l9 54c44 -25.333 98 -38 162 -38c110.667 0 171.334 32 182.001 96c4.66699 28.667 -3.16602 49.334 -23.499 62.001s-45.5 19 -75.5 19h-120l9 52h113
c33.333 0 60.833 7 82.5 21s34.5 34 38.5 60c4 28.667 -7.16699 50.5 -33.5 65.5s-60.166 22.5 -101.499 22.5c-60.667 0 -119 -12.333 -175 -37l9 55c57.333 24 115.666 35.667 174.999 35c60.667 -0.666992 107.834 -13.667 141.501 -39s47.167 -59.333 40.5 -102
c-4 -28.667 -15.5 -52.167 -34.5 -70.5s-43.833 -30.166 -74.5 -35.499c27.333 -7.33301 49.333 -21.666 66 -42.999s22.667 -47.333 18 -78z" />
    <glyph glyph-name="uni0438" unicode="&#x438;" horiz-adv-x="589" 
d="M83 0h-50l76 480h57l-61 -386l385 386h50l-76 -480h-56l60 385z" />
    <glyph glyph-name="uni0439" unicode="&#x439;" horiz-adv-x="589" 
d="M479 599c-41.333 -27.333 -87.332 -41 -137.999 -41c-54 0 -97 13.667 -129 41l8 53c35.333 -29.333 77 -44 125 -44c49.333 0 96.666 14.667 141.999 44zM83.001 0h-50l76 480h57l-61 -386l385 386h50l-76 -480h-56l60 385z" />
    <glyph glyph-name="uni043A" unicode="&#x43a;" horiz-adv-x="511" 
d="M90 0h-57l76 480h57l-32 -202h114l196 202h68l-226 -233l172 -247h-64l-158 226h-111z" />
    <glyph glyph-name="uni043B" unicode="&#x43b;" horiz-adv-x="591" 
d="M250 427c-15.333 -73.333 -29.5 -133.832 -42.5 -181.499s-28.333 -92.167 -46 -133.5s-37.834 -71.5 -60.501 -90.5s-48.334 -28.5 -77.001 -28.5c-22.667 0 -42 3.33301 -58 10l8 47c8.66699 -5.33301 22.334 -8 41.001 -8c42 0 76.833 35.167 104.5 105.5
s55.834 181.166 84.501 332.499h338l-76 -480h-57l68 427h-227z" />
    <glyph glyph-name="uni043C" unicode="&#x43c;" horiz-adv-x="675" 
d="M90 0h-57l76 480h57l154 -284l238 284h68l-76 -480h-57l63 397l-217 -258h-47l-139 257z" />
    <glyph glyph-name="uni043D" unicode="&#x43d;" horiz-adv-x="583" 
d="M90 0h-57l76 480h57l-34 -214h312l34 214h56l-76 -480h-56l33 214h-312z" />
    <glyph glyph-name="uni043E" unicode="&#x43e;" horiz-adv-x="593" 
d="M540 235c-12 -76.667 -46.168 -136.834 -102.501 -180.501s-118.833 -65.5 -187.5 -65.5c-31.333 0 -61.166 5.83301 -89.499 17.5s-52.833 28 -73.5 49s-35.667 48 -45 81s-11 69.167 -5 108.5c12 76.667 46.167 136.834 102.5 180.501s118.833 65.5 187.5 65.5
c67.333 0 122.833 -23.167 166.5 -69.5s59.167 -108.5 46.5 -186.5zM91.999 238c-9.33301 -59.333 1.83301 -106.666 33.5 -141.999s74.5 -53 128.5 -53c56.667 0 106.834 17.833 150.501 53.5s70.5 84.167 80.5 145.5c9.33301 59.333 -1.83398 106.666 -33.501 141.999
s-74.5 53 -128.5 53c-56.667 0 -107 -17.833 -151 -53.5s-70.667 -84.167 -80 -145.5z" />
    <glyph glyph-name="uni043F" unicode="&#x43f;" horiz-adv-x="583" 
d="M90 0h-57l76 480h425l-76 -480h-56l67 427h-312z" />
    <glyph glyph-name="uni0440" unicode="&#x440;" horiz-adv-x="619" 
d="M144 378c57.333 75.333 130.667 113.001 220 113.001c68 0 121.5 -24.167 160.5 -72.5s52.833 -109.5 41.5 -183.5c-11.333 -72.667 -43 -131.834 -95 -177.501s-112.333 -68.5 -181 -68.5c-46 0 -84.5 10.5 -115.5 31.5s-53.833 48.5 -68.5 82.5l-51 -323h-57l111 700
h51zM510.001 239.001c10 59.333 -0.166992 107.501 -30.5 144.501s-71.833 55.5 -124.5 55.5c-45.333 0 -87.5 -13 -126.5 -39s-69.167 -58.333 -90.5 -97l-21 -130c8.66699 -38 28.167 -69.5 58.5 -94.5s67.5 -37.5 111.5 -37.5c55.333 0 103.833 17.667 145.5 53
s67.5 83.666 77.5 144.999z" />
    <glyph glyph-name="uni0441" unicode="&#x441;" horiz-adv-x="498" 
d="M37 246c8.66699 55.333 29.334 102.167 62.001 140.5s69 65.333 109 81s81.667 23.5 125 23.5c56 0 103.667 -14 143 -42l-9 -53c-33.333 28.667 -76.666 43 -129.999 43c-36.667 0 -71.334 -6.33301 -104.001 -19s-62.334 -34.5 -89.001 -65.5
s-43.667 -69.167 -51 -114.5c-10.667 -64.667 1 -114 35 -148s80.333 -51 139 -51c52.667 0 104.334 14 155.001 42l-9 -59c-47.333 -23.333 -100 -35 -158 -35c-70.667 0 -127.834 22.333 -171.501 67s-59.167 108 -46.5 190z" />
    <glyph glyph-name="uni0442" unicode="&#x442;" horiz-adv-x="460" 
d="M212 0h-56l67 427h-186l8 53h429l-8 -53h-186z" />
    <glyph glyph-name="uni0443" unicode="&#x443;" horiz-adv-x="535" 
d="M238 58l247 422h62l-332 -560c-60 -100.667 -124.333 -151 -193 -151c-20 0 -37.333 2.33301 -52 7l7 48c11.333 -3.33301 24.666 -5 39.999 -5c28.667 0 54.834 10 78.501 30s48.167 51.333 73.5 94l34 57l-160 480h57z" />
    <glyph glyph-name="uni0444" unicode="&#x444;" horiz-adv-x="712" 
d="M303 -220h-55.998l33 209c-78.667 1.33301 -141.834 25.5 -189.501 72.5s-65.834 108.167 -54.501 183.5c12 75.333 48 134.833 108 178.5s132 66.167 216 67.5l33 209h56l-33 -209c78.667 -1.33301 142 -25.5 190 -72.5s66 -108.167 54 -183.5s-48 -134.833 -108 -178.5
s-132 -66.167 -216 -67.5zM92.002 241c-9.33301 -60.667 4.00098 -109.168 40.001 -145.501s88.333 -55.166 157 -56.499l64 402c-68.667 -1.33301 -126.834 -19.5 -174.501 -54.5s-76.5 -83.5 -86.5 -145.5zM408.003 440.999l-64.001 -401.999
c68.667 1.33301 126.834 19.5 174.501 54.5s76.5 83.5 86.5 145.5c9.33301 60.667 -4 109.167 -40 145.5s-88.333 55.166 -157 56.499z" />
    <glyph glyph-name="uni0445" unicode="&#x445;" horiz-adv-x="486" 
d="M35 0h-67l236 247l-148 233h64l121 -194l185 194h67l-225 -235l158 -245h-64l-130 206z" />
    <glyph glyph-name="uni0446" unicode="&#x446;" horiz-adv-x="598" 
d="M498 -133h-56l21 133h-430l76 480h57l-68 -427h302l68 427h56l-67 -427h70z" />
    <glyph glyph-name="uni0447" unicode="&#x447;" horiz-adv-x="519" 
d="M394 0h-56.001l27 173c-47.333 -17.333 -98.666 -26 -153.999 -26c-57.333 0 -101.333 14.667 -132 44s-41.667 72.333 -33 129l26 160h56l-25 -160c-6.66699 -43.333 1 -74.333 23 -93s56.333 -28 103 -28c46 0 94.333 8.66699 145 26l40 255h56z" />
    <glyph glyph-name="uni0448" unicode="&#x448;" horiz-adv-x="815" 
d="M690 0h-657l76 480h57l-68 -427h244l67 427h57l-68 -427h244l67 427h57z" />
    <glyph glyph-name="uni0449" unicode="&#x449;" horiz-adv-x="839" 
d="M738 -133h-55l21 133h-671l76 480h57l-68 -427h244l67 427h57l-68 -427h244l67 427h57l-68 -427h70z" />
    <glyph glyph-name="uni044A" unicode="&#x44a;" horiz-adv-x="583" 
d="M324 0l-221 0.000976562l68 430h-134l8 50h190l-27 -175h168c52.667 0 93.167 -14.833 121.5 -44.5s38.833 -66.834 31.5 -111.501s-29 -80.667 -65 -108s-82.667 -41 -140 -41zM200 254.001l-31.999 -203.001h155c42 0 76.167 9.33301 102.5 28
s42.166 44.334 47.499 77.001c4.66699 30.667 -2.83301 54.667 -22.5 72s-48.5 26 -86.5 26h-164z" />
    <glyph glyph-name="uni044B" unicode="&#x44b;" horiz-adv-x="713" 
d="M254 0l-221.001 -0.000976562l76 480h57l-28 -175h169c52.667 0 93 -14.667 121 -44s38.333 -66.666 31 -111.999c-6.66699 -44 -28.167 -79.833 -64.5 -107.5s-83.166 -41.5 -140.499 -41.5zM129.999 253.999l-31.999 -203.001h155c42 0 76.167 9.33301 102.5 28
s42.166 44.334 47.499 77.001c4.66699 30.667 -2.83301 54.667 -22.5 72s-48.5 26 -86.5 26h-164zM588 -0.00195312h-57l76 480h57z" />
    <glyph glyph-name="uni044C" unicode="&#x44c;" horiz-adv-x="513" 
d="M254 0l-221.001 -0.000976562l76 480h57l-28 -175h169c52.667 0 93 -14.667 121 -44s38.333 -66.666 31 -111.999c-6.66699 -44 -28.167 -79.833 -64.5 -107.5s-83.166 -41.5 -140.499 -41.5zM129.999 253.999l-31.999 -203.001h155c42 0 76.167 9.33301 102.5 28
s42.166 44.334 47.499 77.001c4.66699 30.667 -2.83301 54.667 -22.5 72s-48.5 26 -86.5 26h-164z" />
    <glyph glyph-name="uni044D" unicode="&#x44d;" horiz-adv-x="504" 
d="M450 230c-13.333 -81.333 -46.668 -141.832 -100.001 -181.499s-114.666 -59.5 -183.999 -59.5c-60.667 0 -115 14.333 -163 43l9 53c43.333 -29.333 92 -44 146 -44c59.333 0 109.833 14 151.5 42s68.5 72.333 80.5 133l-267 -2l9 52l266 2
c4.66699 57.333 -11.333 100.166 -48 128.499s-81 42.5 -133 42.5c-56 0 -108.333 -14.667 -157 -44l9 54c48 28 100 42 156 42c68.667 0 126.5 -22.5 173.5 -67.5s64.167 -109.5 51.5 -193.5z" />
    <glyph glyph-name="uni044E" unicode="&#x44e;" horiz-adv-x="814" 
d="M761 235c-12 -76.667 -45.999 -136.834 -101.999 -180.501s-118.333 -65.5 -187 -65.5c-62.667 0 -115.5 20.333 -158.5 61s-62.5 95.334 -58.5 164.001h-132l-33 -214h-57l76 480h57l-34 -213h131c16 68.667 51.167 123.167 105.5 163.5s114.166 60.5 179.499 60.5
c67.333 0 122.833 -23.167 166.5 -69.5s59.167 -108.5 46.5 -186.5zM313.001 238c-9.33301 -59.333 1.83301 -106.666 33.5 -141.999s74.5 -53 128.5 -53c56.667 0 106.834 17.833 150.501 53.5s70.5 84.167 80.5 145.5c9.33301 59.333 -1.83398 106.666 -33.501 141.999
s-74.5 53 -128.5 53c-56.667 0 -107 -17.833 -151 -53.5s-70.667 -84.167 -80 -145.5z" />
    <glyph glyph-name="uni044F" unicode="&#x44f;" horiz-adv-x="539" 
d="M52 0l-64.999 -0.000976562l172 186c-36.667 9.33301 -63.834 26.833 -81.501 52.5s-23.5 57.167 -17.5 94.5c6.66699 42.667 28 77.834 64 105.501s82.333 41.5 139 41.5h227l-76 -480h-56l28 178h-168zM116.001 324.999c-4.66699 -29.333 3.16699 -52.667 23.5 -70
s50.166 -26 89.499 -26h165l32 200h-162c-41.333 0 -75.166 -9.33301 -101.499 -28s-41.833 -44 -46.5 -76z" />
    <glyph glyph-name="uni0451" unicode="&#x451;" horiz-adv-x="545" 
d="M468 613c-1.33301 -10.667 -6.33301 -19.668 -15 -27.001s-18.334 -11 -29.001 -11c-12.667 0 -22.667 4.5 -30 13.5s-10 19.5 -8 31.5c2 10 7.33301 18.833 16 26.5s18.334 11.5 29.001 11.5c12 0 21.667 -4.66699 29 -14s10 -19.666 8 -30.999zM267 612.999
c-1.33301 -10.667 -6.33301 -19.668 -15 -27.001s-18.334 -11 -29.001 -11c-12.667 0 -22.667 4.5 -30 13.5s-10 19.5 -8 31.5c2 10 7.33301 18.833 16 26.5s18.334 11.5 29.001 11.5c12 0 21.667 -4.66699 29 -14s10 -19.666 8 -30.999zM36 241.998
c12 78 44.501 139.002 97.501 183.002s111.5 66 175.5 66c42.667 0 79.167 -8.5 109.5 -25.5s51.666 -39 63.999 -66s19.666 -57 21.999 -90s-3.16699 -65.5 -16.5 -97.5h-399c-5.33301 -56.667 10.5 -99.334 47.5 -128.001s82.833 -43 137.5 -43
c60.667 0 116.667 13.333 168 40l-9 -57c-46.667 -23.333 -102.667 -35 -168 -35c-32.667 0 -63.667 5.16699 -93 15.5s-55.666 25.5 -78.999 45.5s-40.333 46.667 -51 80s-12.667 70.666 -6 111.999zM446.001 262c2.66699 14.667 4.49805 29.8311 5.49805 45.498
s-1.5 31.334 -7.5 47.001s-14 29.834 -24 42.501s-24.667 22.834 -44 30.501s-41.666 11.5 -66.999 11.5c-50 0 -95.167 -15.833 -135.5 -47.5s-66.166 -74.834 -77.499 -129.501h350z" />
    <glyph glyph-name="Wgrave" unicode="&#x1e80;" horiz-adv-x="997" 
d="M979 700h63l-329 -700h-67l-97 590l-285 -590h-70l-111 700h60l98 -624l299 621h49l101 -613zM622 773h-61l-76 142h69z" />
    <glyph glyph-name="wgrave" unicode="&#x1e81;" horiz-adv-x="795" 
d="M742 480h61l-248 -480h-59l-79 399l-209 -399h-61l-96 480h57l81 -408l212 405h51l81 -404zM487 553h-61l-76 142h69z" />
    <glyph glyph-name="Wacute" unicode="&#x1e82;" horiz-adv-x="997" 
d="M979 700h63l-329 -700h-67l-97 590l-285 -590h-70l-111 700h60l98 -624l299 621h49l101 -613zM591 773h-63l112 142h72z" />
    <glyph glyph-name="wacute" unicode="&#x1e83;" horiz-adv-x="795" 
d="M742 480h61l-248 -480h-59l-79 399l-209 -399h-61l-96 480h57l81 -408l212 405h51l81 -404zM456 553h-63l112 142h72z" />
    <glyph glyph-name="Wdieresis" unicode="&#x1e84;" horiz-adv-x="997" 
d="M979 700h63l-329 -700h-67l-97 590l-285 -590h-70l-111 700h60l98 -624l299 621h49l101 -613zM721 833c-1.33301 -10.667 -6.33301 -19.668 -15 -27.001s-18.334 -11 -29.001 -11c-12.667 0 -22.667 4.5 -30 13.5s-10 19.5 -8 31.5c2 10 7.33301 18.833 16 26.5
s18.334 11.5 29.001 11.5c12 0 21.667 -4.66699 29 -14s10 -19.666 8 -30.999zM520 832.999c-1.33301 -10.667 -6.33301 -19.668 -15 -27.001s-18.334 -11 -29.001 -11c-12.667 0 -22.667 4.5 -30 13.5s-10 19.5 -8 31.5c2 10 7.33301 18.833 16 26.5
s18.334 11.5 29.001 11.5c12 0 21.667 -4.66699 29 -14s10 -19.666 8 -30.999z" />
    <glyph glyph-name="wdieresis" unicode="&#x1e85;" horiz-adv-x="795" 
d="M742 480h61l-248 -480h-59l-79 399l-209 -399h-61l-96 480h57l81 -408l212 405h51l81 -404zM586 613c-1.33301 -10.667 -6.33301 -19.668 -15 -27.001s-18.334 -11 -29.001 -11c-12.667 0 -22.667 4.5 -30 13.5s-10 19.5 -8 31.5c2 10 7.33301 18.833 16 26.5
s18.334 11.5 29.001 11.5c12 0 21.667 -4.66699 29 -14s10 -19.666 8 -30.999zM385 612.999c-1.33301 -10.667 -6.33301 -19.668 -15 -27.001s-18.334 -11 -29.001 -11c-12.667 0 -22.667 4.5 -30 13.5s-10 19.5 -8 31.5c2 10 7.33301 18.833 16 26.5
s18.334 11.5 29.001 11.5c12 0 21.667 -4.66699 29 -14s10 -19.666 8 -30.999z" />
    <glyph glyph-name="Ygrave" unicode="&#x1ef2;" horiz-adv-x="643" 
d="M305 0h-60l44 273l-207 427h62l181 -370l299 370h68l-343 -427zM440 773h-61l-76 142h69z" />
    <glyph glyph-name="ygrave" unicode="&#x1ef3;" horiz-adv-x="535" 
d="M238 58l247 422h62l-332 -560c-60 -100.667 -124.333 -151 -193 -151c-20 0 -37.333 2.33301 -52 7l7 48c11.333 -3.33301 24.666 -5 39.999 -5c28.667 0 54.834 10 78.501 30s48.167 51.333 73.5 94l34 57l-160 480h57zM344 553h-61l-76 142h69z" />
    <glyph glyph-name="endash" unicode="&#x2013;" horiz-adv-x="572" 
d="M493 219h-437l8 54h438z" />
    <glyph glyph-name="emdash" unicode="&#x2014;" horiz-adv-x="757" 
d="M679 219h-623l8 54h623z" />
    <glyph glyph-name="quoteleft" unicode="&#x2018;" horiz-adv-x="208" 
d="M140 477h-61l101 223h48z" />
    <glyph glyph-name="quoteright" unicode="&#x2019;" horiz-adv-x="205" 
d="M129 477h-47l88 223h61z" />
    <glyph glyph-name="quotesinglbase" unicode="&#x201a;" horiz-adv-x="218" 
d="M11 -147h-47l89 224h60z" />
    <glyph glyph-name="quotedblleft" unicode="&#x201c;" horiz-adv-x="341" 
d="M273 477h-61l101 223h48zM140 477h-61l101 223h48z" />
    <glyph glyph-name="quotedblright" unicode="&#x201d;" horiz-adv-x="339" 
d="M263 477h-47l88 223h61zM129 477h-47l88 223h61z" />
    <glyph glyph-name="quotedblbase" unicode="&#x201e;" horiz-adv-x="351" 
d="M144 -147h-47l89 224h60zM11 -147h-47l89 224h60z" />
    <glyph glyph-name="dagger" unicode="&#x2020;" horiz-adv-x="501" 
d="M199 -220h-59l102 643h-187l9 57h187l35 220h59l-35 -220h187l-9 -57h-187z" />
    <glyph glyph-name="daggerdbl" unicode="&#x2021;" horiz-adv-x="525" 
d="M211 -220h-60l50 313h-186l9 56h186l43 274h-185l9 57h185l35 220h60l-35 -220h186l-9 -57h-186l-43 -274h186l-9 -56h-186z" />
    <glyph glyph-name="bullet" unicode="&#x2022;" horiz-adv-x="315" 
d="M102 354c2.66699 18.667 10.834 33.167 24.501 43.5s29.167 15.5 46.5 15.5c18.667 0 33.5 -6 44.5 -18s15.167 -28.333 12.5 -49c-2.66699 -18.667 -10.834 -33.167 -24.501 -43.5s-29.167 -15.5 -46.5 -15.5c-18.667 0 -33.5 6 -44.5 18s-15.167 28.333 -12.5 49z" />
    <glyph glyph-name="ellipsis" unicode="&#x2026;" horiz-adv-x="533" 
d="M434 28c-4 -24 -18.334 -35.999 -43.001 -35.999c-11.333 0 -20.666 4 -27.999 12s-9.66602 18.333 -6.99902 31c1.33301 10.667 6.16602 19.167 14.499 25.5s17.5 9.5 27.5 9.5c12.667 0 22.5 -3.83301 29.5 -11.5s9.16699 -17.834 6.5 -30.501zM103.999 28.001
c-4 -24 -18 -35.999 -42 -35.999c-12 0 -21.667 4 -29 12s-9.66602 18.333 -6.99902 31c1.33301 10.667 6.16602 19.167 14.499 25.5s17.5 9.5 27.5 9.5c12.667 0 22.5 -3.83301 29.5 -11.5s9.16699 -17.834 6.5 -30.501zM268.999 28.002c-4 -24 -18 -35.999 -42 -35.999
c-12 0 -21.667 4 -29 12s-9.66602 18.333 -6.99902 31c1.33301 10.667 6.16602 19.167 14.499 25.5s17.5 9.5 27.5 9.5c12.667 0 22.5 -3.83301 29.5 -11.5s9.16699 -17.834 6.5 -30.501z" />
    <glyph glyph-name="perthousand" unicode="&#x2030;" horiz-adv-x="1267" 
d="M213 -60h-59l539 820h59zM390 555c-6.66699 -46 -26.998 -81.833 -60.998 -107.5s-72.333 -38.5 -115 -38.5s-77.834 14.167 -105.501 42.5s-37.834 66.166 -30.501 113.499c7.33301 46 28 81.833 62 107.5s72.667 38.5 116 38.5c42.667 0 77.667 -14.167 105 -42.5
s37 -66.166 29 -113.499zM130.002 561c-4.66699 -29.333 0.999023 -53.666 16.999 -72.999s39 -29 69 -29c31.333 0 58.333 9.16699 81 27.5s36.334 42.5 41.001 72.5c4.66699 29.333 -1 53.666 -17 72.999s-38.333 29 -67 29c-32 0 -59.5 -9.16699 -82.5 -27.5
s-36.833 -42.5 -41.5 -72.5zM828.001 135c-7.33301 -46 -27.999 -81.833 -61.999 -107.5s-72.333 -38.5 -115 -38.5s-77.834 14.167 -105.501 42.5s-37.834 66.166 -30.501 113.499c7.33301 46 28 81.833 62 107.5s72.667 38.5 116 38.5c42 0 76.833 -14.167 104.5 -42.5
s37.834 -66.166 30.501 -113.499zM567.002 141c-4.66699 -29.333 0.999023 -53.666 16.999 -72.999s39 -29 69 -29c31.333 0 58.333 9.16699 81 27.5s36.334 42.5 41.001 72.5c4.66699 29.333 -1 53.666 -17 72.999s-38.333 29 -67 29c-32 0 -59.5 -9.16699 -82.5 -27.5
s-36.833 -42.5 -41.5 -72.5zM1208 135c-7.33301 -46 -27.999 -81.833 -61.999 -107.5s-72.333 -38.5 -115 -38.5s-77.834 14.167 -105.501 42.5s-37.834 66.166 -30.501 113.499c7.33301 46 28 81.833 62 107.5s72.667 38.5 116 38.5c42 0 76.833 -14.167 104.5 -42.5
s37.834 -66.166 30.501 -113.499zM947.002 141c-4.66699 -29.333 0.999023 -53.666 16.999 -72.999s39 -29 69 -29c31.333 0 58.333 9.16699 81 27.5s36.334 42.5 41.001 72.5c4.66699 29.333 -1 53.666 -17 72.999s-38.333 29 -67 29c-32 0 -59.5 -9.16699 -82.5 -27.5
s-36.833 -42.5 -41.5 -72.5z" />
    <glyph glyph-name="guilsinglleft" unicode="&#x2039;" horiz-adv-x="290" 
d="M193 63h-60l-94 171l2 14l147 169h62l-154 -177z" />
    <glyph glyph-name="guilsinglright" unicode="&#x203a;" horiz-adv-x="291" 
d="M86 63h-62l154 177l-96 177h59l95 -171l-3 -14z" />
    <glyph glyph-name="fraction" unicode="&#x2044;" horiz-adv-x="167" 
d="M-178 -12h-29l572 723h29z" />
    <glyph glyph-name="Euro" unicode="&#x20ac;" horiz-adv-x="725" 
d="M707 586c-49.333 32.667 -108 48.998 -176 48.998c-68.667 0 -132.5 -16.667 -191.5 -50s-102.5 -83.666 -130.5 -150.999h366l-8 -50h-374c-2 -7.33301 -4.33301 -19 -7 -35s-4 -33.667 -4 -53h371l-8 -50h-359c10 -62 38.5 -111 85.5 -147s102.167 -54 165.5 -54
c80 0 147.333 16.667 202 50l-9 -62c-56.667 -29.333 -123.667 -44 -201 -44c-78.667 0 -146.5 23.167 -203.5 69.5s-90.5 108.833 -100.5 187.5h-90l8 50h79c0 20.667 1.33301 39.334 4 56.001c4 20 6 30.667 6 32h-75l8 50h81c30 83.333 81.333 147 154 191
s149.667 66 231 66c68 0 130 -16.333 186 -49z" />
    <glyph glyph-name="trademark" unicode="&#x2122;" horiz-adv-x="660" 
d="M361 447h-35l41 253h39l75 -144l122 144h42l-40 -253h-35l32 201l-115 -133h-21l-72 133zM189 447h-36l35 220h-88l5 33h212l-5 -33h-88z" />
    <glyph glyph-name="oneeighth" unicode="&#x215b;" horiz-adv-x="923" 
d="M574 313c4.66699 27.333 21.001 51.167 49.001 71.5s65.667 30.5 113 30.5c46 0 81.333 -11.5 106 -34.5s35 -50.5 31 -82.5c-6 -40.667 -30 -74.334 -72 -101.001c43.333 -23.333 61.333 -55.666 54 -96.999c-4.66699 -30 -21.667 -55.333 -51 -76s-71 -31 -125 -31
s-94 11.833 -120 35.5s-36 53.167 -30 88.5c7.33301 43.333 36 79 86 107c-32.667 22 -46.334 51.667 -41.001 89zM712.001 185.001c-25.333 6.66699 -43.6631 12.3301 -54.9961 16.9971c-47.333 -21.333 -73.333 -49.666 -78 -84.999
c-4 -25.333 2.66699 -44.666 20 -57.999s44.666 -20 81.999 -20c35.333 0 64.166 6 86.499 18s35.166 28 38.499 48c4 27.333 -10.667 48.333 -44 63c-6.66699 2.66699 -23.334 8.33398 -50.001 17.001zM822.004 294.997c4 20.667 -1.66406 38.168 -16.9971 52.501
s-39 21.5 -71 21.5c-31.333 0 -56.833 -5.66699 -76.5 -17s-31.167 -26 -34.5 -44c-2.66699 -4.66699 -2.83398 -9.5 -0.500977 -14.5s3.16602 -9 2.49902 -12s1.16602 -6.5 5.49902 -10.5s6.83301 -6.83301 7.5 -8.5s3.83398 -4.16699 9.50098 -7.5s9.5 -5.5 11.5 -6.5
s6.16699 -2.83301 12.5 -5.5s10.666 -4.33398 12.999 -5.00098s6.83301 -2.16699 13.5 -4.5l13 -4.5c6 -1.33301 14.833 -3.5 26.5 -6.5s19.167 -4.83301 22.5 -5.5c37.333 22 58 48 62 78zM178.007 -12.002h-29l572 723h29zM217.007 679.998h37l-57 -361h73l-8 -47h-215
l7 47h93l49 309l-92 -34l8 48z" />
    <glyph glyph-name="threeeighths" unicode="&#x215c;" horiz-adv-x="965" 
d="M616 313c4.66699 27.333 21.001 51.167 49.001 71.5s65.667 30.5 113 30.5c46 0 81.333 -11.5 106 -34.5s35 -50.5 31 -82.5c-6 -40.667 -30 -74.334 -72 -101.001c43.333 -23.333 61.333 -55.666 54 -96.999c-4.66699 -30 -21.667 -55.333 -51 -76s-71 -31 -125 -31
s-94 11.833 -120 35.5s-36 53.167 -30 88.5c7.33301 43.333 36 79 86 107c-32.667 22 -46.334 51.667 -41.001 89zM754.001 185.001c-25.333 6.66699 -43.6631 12.3301 -54.9961 16.9971c-47.333 -21.333 -73.333 -49.666 -78 -84.999
c-4 -25.333 2.66699 -44.666 20 -57.999s44.666 -20 81.999 -20c35.333 0 64.166 6 86.499 18s35.166 28 38.499 48c4 27.333 -10.667 48.333 -44 63c-6.66699 2.66699 -23.334 8.33398 -50.001 17.001zM864.004 294.997c4 20.667 -1.66406 38.168 -16.9971 52.501
s-39 21.5 -71 21.5c-31.333 0 -56.833 -5.66699 -76.5 -17s-31.167 -26 -34.5 -44c-2.66699 -4.66699 -2.83398 -9.5 -0.500977 -14.5s3.16602 -9 2.49902 -12s1.16602 -6.5 5.49902 -10.5s6.83301 -6.83301 7.5 -8.5s3.83398 -4.16699 9.50098 -7.5s9.5 -5.5 11.5 -6.5
s6.16699 -2.83301 12.5 -5.5s10.666 -4.33398 12.999 -5.00098s6.83301 -2.16699 13.5 -4.5l13 -4.5c6 -1.33301 14.833 -3.5 26.5 -6.5s19.167 -4.83301 22.5 -5.5c37.333 22 58 48 62 78zM230.007 -12.002h-29l572 723h29zM369.007 576.998
c-3.33301 -20.667 -12.001 -38.999 -26.001 -54.999s-32.333 -27.333 -55 -34c22 -5.33301 39.833 -16.833 53.5 -34.5s18.167 -41.167 13.5 -70.5c-6 -36.667 -24.5 -64.834 -55.5 -84.501s-68.5 -29.5 -112.5 -29.5c-52 0 -97.333 9.33301 -136 28l8 48
c35.333 -19.333 77.333 -29 126 -29c74.667 0 115.667 25.667 123 77c4 25.333 -1.83301 43.333 -17.5 54s-38.834 16 -69.501 16h-64l7 47h57c28.667 0 51.834 6.5 69.501 19.5s28.167 29.833 31.5 50.5c2.66699 19.333 -3.83301 34.833 -19.5 46.5
s-37.167 17.5 -64.5 17.5c-43.333 0 -86.666 -10.333 -129.999 -31l8 51c40 18 83.333 27 130 27c38.667 0 70 -11 94 -33s33.667 -49 29 -81z" />
    <glyph glyph-name="fiveeighths" unicode="&#x215d;" horiz-adv-x="956" 
d="M607 313c4.66699 27.333 21.001 51.167 49.001 71.5s65.667 30.5 113 30.5c46 0 81.333 -11.5 106 -34.5s35 -50.5 31 -82.5c-6 -40.667 -30 -74.334 -72 -101.001c43.333 -23.333 61.333 -55.666 54 -96.999c-4.66699 -30 -21.667 -55.333 -51 -76s-71 -31 -125 -31
s-94 11.833 -120 35.5s-36 53.167 -30 88.5c7.33301 43.333 36 79 86 107c-32.667 22 -46.334 51.667 -41.001 89zM745.001 185.001c-25.333 6.66699 -43.6631 12.3301 -54.9961 16.9971c-47.333 -21.333 -73.333 -49.666 -78 -84.999
c-4 -25.333 2.66699 -44.666 20 -57.999s44.666 -20 81.999 -20c35.333 0 64.166 6 86.499 18s35.166 28 38.499 48c4 27.333 -10.667 48.333 -44 63c-6.66699 2.66699 -23.334 8.33398 -50.001 17.001zM855.004 294.997c4 20.667 -1.66406 38.168 -16.9971 52.501
s-39 21.5 -71 21.5c-31.333 0 -56.833 -5.66699 -76.5 -17s-31.167 -26 -34.5 -44c-2.66699 -4.66699 -2.83398 -9.5 -0.500977 -14.5s3.16602 -9 2.49902 -12s1.16602 -6.5 5.49902 -10.5s6.83301 -6.83301 7.5 -8.5s3.83398 -4.16699 9.50098 -7.5s9.5 -5.5 11.5 -6.5
s6.16699 -2.83301 12.5 -5.5s10.666 -4.33398 12.999 -5.00098s6.83301 -2.16699 13.5 -4.5l13 -4.5c6 -1.33301 14.833 -3.5 26.5 -6.5s19.167 -4.83301 22.5 -5.5c37.333 22 58 48 62 78zM221.007 -12.002h-29l572 723h29zM134.007 679.998l245 -0.00195312l-8 -47h-198
l-27 -116c22.667 6 46 9 70 9c40.667 0 75.334 -11.167 104.001 -33.5s39.667 -56.166 33 -101.499c-6 -39.333 -25.5 -70.166 -58.5 -92.499s-72.167 -33.5 -117.5 -33.5c-51.333 0 -94 9.33301 -128 28l7 46c32 -18 71 -27 117 -27c35.333 0 64.666 7.5 87.999 22.5
s37.333 36.5 42 64.5c5.33301 30 -2 51.167 -22 63.5s-47.667 18.5 -83 18.5c-32.667 0 -69.667 -6.66699 -111 -20z" />
    <glyph glyph-name="seveneighths" unicode="&#x215e;" horiz-adv-x="863" 
d="M123 -12h-29l572 723h29zM512 313c4.66699 27.333 21.001 51.167 49.001 71.5s65.667 30.5 113 30.5c46 0 81.333 -11.5 106 -34.5s35 -50.5 31 -82.5c-6 -40.667 -30 -74.334 -72 -101.001c43.333 -23.333 61.333 -55.666 54 -96.999
c-4.66699 -30 -21.667 -55.333 -51 -76s-71 -31 -125 -31s-94 11.833 -120 35.5s-36 53.167 -30 88.5c7.33301 43.333 36 79 86 107c-32.667 22 -46.334 51.667 -41.001 89zM650.001 185.001c-25.333 6.66699 -43.6631 12.3301 -54.9961 16.9971
c-47.333 -21.333 -73.333 -49.666 -78 -84.999c-4 -25.333 2.66699 -44.666 20 -57.999s44.666 -20 81.999 -20c35.333 0 64.166 6 86.499 18s35.166 28 38.499 48c4 27.333 -10.667 48.333 -44 63c-6.66699 2.66699 -23.334 8.33398 -50.001 17.001zM760.004 294.997
c4 20.667 -1.66406 38.168 -16.9971 52.501s-39 21.5 -71 21.5c-31.333 0 -56.833 -5.66699 -76.5 -17s-31.167 -26 -34.5 -44c-2.66699 -4.66699 -2.83398 -9.5 -0.500977 -14.5s3.16602 -9 2.49902 -12s1.16602 -6.5 5.49902 -10.5s6.83301 -6.83301 7.5 -8.5
s3.83398 -4.16699 9.50098 -7.5s9.5 -5.5 11.5 -6.5s6.16699 -2.83301 12.5 -5.5s10.666 -4.33398 12.999 -5.00098s6.83301 -2.16699 13.5 -4.5l13 -4.5c6 -1.33301 14.833 -3.5 26.5 -6.5s19.167 -4.83301 22.5 -5.5c37.333 22 58 48 62 78zM154.007 271.998h-55l219 361
h-228l8 47h282l-7 -45z" />
    <glyph glyph-name="partialdiff" unicode="&#x2202;" horiz-adv-x="594" 
d="M536 265c-14 -87.333 -47.3301 -155.167 -99.9971 -203.5s-116 -72.5 -190 -72.5c-70.667 0 -126.334 21.833 -167.001 65.5s-55.334 100.834 -44.001 171.501c10 63.333 40.333 115.833 91 157.5s107.334 62.5 170.001 62.5c50.667 0 94.167 -12.667 130.5 -38
s57.833 -59.333 64.5 -102c0 2 0.333008 4.66699 1 8s1.16699 6.5 1.5 9.5s0.5 6.16699 0.5 9.5c2 55.333 -6.16699 104.166 -24.5 146.499s-44 75.5 -77 99.5s-69.333 41.667 -109 53s-81.834 16.333 -126.501 15l8 53c43.333 0 84.5 -5 123.5 -15
s76.167 -25.667 111.5 -47s64.333 -49 87 -83s39.167 -75 49.5 -123s10.166 -103.667 -0.500977 -167zM90.0029 218.999c-8.66699 -54 1.5 -96.833 30.5 -128.5s71.5 -47.5 127.5 -47.5c53.333 0 98.5 14.667 135.5 44s63.5 69.333 79.5 120
c8 57.333 -3.5 102.666 -34.5 135.999s-73.167 50 -126.5 50s-100 -16.167 -140 -48.5s-64 -74.166 -72 -125.499z" />
    <glyph glyph-name="emptyset" unicode="&#x2205;" horiz-adv-x="817" 
d="M780 343c-16 -96.667 -63.665 -179.835 -142.998 -249.502s-170.333 -104.5 -273 -104.5c-86 0 -157.667 26 -215 78l-67 -67h-39l87 86c-66 74 -90.333 164.333 -73 271c15.333 96.667 62.666 179.834 141.999 249.501s170.666 104.5 273.999 104.5
c86.667 0 157.667 -26 213 -78l68 67h39l-88 -86c32 -34.667 54.5 -75.667 67.5 -123s15.5 -96.666 7.5 -147.999zM88.002 349.999c-14.667 -97.333 7 -178.001 65 -242.001l511 504c-50.667 45.333 -114 68 -190 68c-96 0 -180.667 -32.667 -254 -98
s-117.333 -142.666 -132 -231.999zM172.002 88.998c51.333 -46 115 -68.999 191 -68.999c96 0 180.667 32.667 254 98s117.333 142.666 132 231.999c14.667 96.667 -7 177.667 -65 243z" />
    <glyph glyph-name="product" unicode="&#x220f;" horiz-adv-x="742" 
d="M114 -220h-59l137 863h-99l10 57h666l-9 -57h-98l-137 -863h-59l136 863h-351z" />
    <glyph glyph-name="summation" unicode="&#x2211;" horiz-adv-x="564" 
d="M467 0h-473l5 34l327 318l-226 315l5 33h471l-10 -57h-378l205 -286l-3 -19l-289 -281h375z" />
    <glyph glyph-name="minus" unicode="&#x2212;" horiz-adv-x="519" 
d="M450 320h-375l8 54h375z" />
    <glyph glyph-name="radical" unicode="&#x221a;" horiz-adv-x="730" 
d="M311 0h-53l-113 423h-98l9 57h129l109 -411l446 711h64z" />
    <glyph glyph-name="infinity" unicode="&#x221e;" horiz-adv-x="833" 
d="M433 403c35.333 42 69.167 74.333 101.5 97s69.166 34 110.499 34c46 0 83.667 -16.5 113 -49.5s39.666 -76.5 30.999 -130.5c-8 -52.667 -30.333 -94.5 -67 -125.5s-78.667 -46.5 -126 -46.5c-71.333 0 -130 43.667 -176 131c-35.333 -42 -69.166 -74.333 -101.499 -97
s-69.166 -34 -110.499 -34c-46.667 0 -84.5 16.5 -113.5 49.5s-39.167 76.5 -30.5 130.5c8 52.667 30.5 94.5 67.5 125.5s78.833 46.5 125.5 46.5c70 0 128.667 -43.667 176 -131zM395.001 360c-18.667 38.667 -37.832 68.333 -57.499 89s-44.5 31 -74.5 31
c-36 0 -67.5 -10.5 -94.5 -31.5s-43.5 -51.167 -49.5 -90.5c-6 -38.667 0.5 -68.667 19.5 -90s45.5 -32 79.5 -32c33.333 0 63.166 10.5 89.499 31.5s55.5 51.833 87.5 92.5zM734.003 361.999c6 38 -0.499023 67.166 -19.499 87.499s-45.5 30.5 -79.5 30.5
c-32.667 0 -62.334 -10.5 -89.001 -31.5s-56.334 -51.833 -89.001 -92.5c18.667 -38 38 -67.5 58 -88.5s45 -31.5 75 -31.5c36 0 67.333 10.833 94 32.5s43.334 52.834 50.001 93.501z" />
    <glyph glyph-name="integral" unicode="&#x222b;" horiz-adv-x="412" 
d="M235 652c8 48.667 27.833 84 59.5 106s66.834 33 105.501 33c28 0 53.333 -5 76 -15l-8 -52c-17.333 8.66699 -39 13 -65 13c-64.667 0 -102.334 -31 -113.001 -93l-116 -736c-8 -49.333 -27.5 -84.833 -58.5 -106.5s-66.5 -32.5 -106.5 -32.5c-28 0 -53.333 5 -76 15
l8 52c16 -8.66699 35.333 -13 58 -13c70.667 0 110.667 31 120 93z" />
    <glyph glyph-name="approxequal" unicode="&#x2248;" horiz-adv-x="584" 
d="M543 480c-2 -32 -13.166 -57.333 -33.499 -76s-45.833 -28 -76.5 -28c-24.667 0 -63.834 10.167 -117.501 30.5s-91.5 30.5 -113.5 30.5c-17.333 0 -31.5 -4.5 -42.5 -13.5s-16.833 -21.5 -17.5 -37.5h-53c2.66699 32.667 14.167 58.167 34.5 76.5
s45.166 27.5 74.499 27.5c26.667 0 66.334 -10 119.001 -30s90.667 -30 114 -30c16.667 0 30.5 4.33301 41.5 13s16.833 21 17.5 37h53zM520.001 332c-2 -32 -13.166 -57.333 -33.499 -76s-45.833 -28 -76.5 -28c-24.667 0 -63.834 10.167 -117.501 30.5
s-91.5 30.5 -113.5 30.5c-17.333 0 -31.5 -4.5 -42.5 -13.5s-16.833 -21.5 -17.5 -37.5h-53c2.66699 32.667 14.167 58.167 34.5 76.5s45.166 27.5 74.499 27.5c26.667 0 66.334 -10 119.001 -30s90.667 -30 114 -30c16.667 0 30.5 4.33301 41.5 13s16.833 21 17.5 37h53z
" />
    <glyph glyph-name="notequal" unicode="&#x2260;" horiz-adv-x="552" 
d="M141 131h-52l79 101h-107l8 54h139l99 128h-217l8 54h250l78 101h52l-78 -101h107l-9 -54h-139l-99 -128h218l-8 -54h-250z" />
    <glyph glyph-name="lessequal" unicode="&#x2264;" horiz-adv-x="531" 
d="M435 237l-9 -56l-343 157l9 57l392 156l-8 -56l-331 -129zM397 0h-368l9 54h367z" />
    <glyph glyph-name="greaterequal" unicode="&#x2265;" horiz-adv-x="527" 
d="M465 337l-392 -156l9 56l330 129l-289 129l8 56l344 -157zM412 0h-368l9 54h367z" />
    <glyph glyph-name="lozenge" unicode="&#x25ca;" horiz-adv-x="555" 
d="M264 0h-64l-153 350l263 350h63l154 -350zM110 345l128 -290l226 299l-128 291z" />
    <glyph glyph-name=".null" horiz-adv-x="0" 
 />
    <glyph glyph-name="nonmarkingreturn" horiz-adv-x="333" 
 />
    <glyph glyph-name="i.loclTRK" horiz-adv-x="221" 
d="M93 0h-57l76 480h57zM201 599c-2 -13.333 -7.66797 -23.667 -17.001 -31s-20.333 -11 -33 -11c-14 0 -25.167 4.5 -33.5 13.5s-11.166 21.167 -8.49902 36.5c2.66699 12.667 8.66699 22.667 18 30s20 11 32 11c14.667 0 26 -4.33301 34 -13s10.667 -20.667 8 -36z" />
    <glyph glyph-name="a.ss01" horiz-adv-x="542" 
d="M425 85c-4.66699 -26.667 6.66602 -40.001 33.999 -40.001c12 0 25.667 2.33301 41 7l-8 -47c-16 -6 -33 -9 -51 -9c-22 0 -40 5.66699 -54 17s-20.667 29.333 -20 54c-54 -52 -120 -78 -198 -78c-46.667 0 -85.334 13.333 -116.001 40s-44 63.334 -40 110.001
c3.33301 36.667 17.833 66.667 43.5 90s53.834 39 84.501 47s63.667 12 99 12c56.667 0 109 -7.33301 157 -22l6 37c7.33301 44 -1 77.667 -25 101s-64 35 -120 35c-50 0 -105 -11.333 -165 -34l9 56c52 20 106.667 30 164 30c72.667 0 125.334 -16.833 158.001 -50.5
s43.667 -83.167 33 -148.5zM180 37.999c36 0 71.999 8.33203 107.999 24.999s65.333 39.667 88 69l14 89c-44.667 12.667 -92.667 19 -144 19c-44.667 0 -84.167 -8.16699 -118.5 -24.5s-53.166 -43.166 -56.499 -80.499c-2.66699 -30 6.33301 -53.667 27 -71s48 -26 82 -26
z" />
    <glyph glyph-name="aacute.ss01" horiz-adv-x="541" 
d="M424 85c-5.33301 -26.667 5.99902 -40.001 33.999 -40.001c12 0 25.667 2.33301 41 7l-8 -47c-16 -6 -33 -9 -51 -9c-22 0 -40 5.66699 -54 17s-20.667 29.333 -20 54c-54 -52 -120 -78 -198 -78c-46.667 0 -85.334 13.333 -116.001 40s-44 63.334 -40 110.001
c3.33301 36.667 17.833 66.667 43.5 90s53.834 39 84.501 47s63.667 12 99 12c56.667 0 109 -7.33301 157 -22l6 37c7.33301 44 -1 77.667 -25 101s-64 35 -120 35c-50 0 -105 -11.333 -165 -34l9 56c52 20 106.667 30 164 30c72.667 0 125.334 -16.833 158.001 -50.5
s43.667 -83.167 33 -148.5zM178.999 37.999c36 0 71.999 8.33203 107.999 24.999s65.333 39.667 88 69l14 89c-44.667 12.667 -92.667 19 -144 19c-44.667 0 -84.167 -8.16699 -118.5 -24.5s-53.166 -43.166 -56.499 -80.499c-2.66699 -30 6.33301 -53.667 27 -71
s48 -26 82 -26zM309.998 552.998h-63l112 142h72z" />
    <glyph glyph-name="abreve.ss01" horiz-adv-x="541" 
d="M424 85c-5.33301 -26.667 5.99902 -40.001 33.999 -40.001c12 0 25.667 2.33301 41 7l-8 -47c-16 -6 -33 -9 -51 -9c-22 0 -40 5.66699 -54 17s-20.667 29.333 -20 54c-54 -52 -120 -78 -198 -78c-46.667 0 -85.334 13.333 -116.001 40s-44 63.334 -40 110.001
c3.33301 36.667 17.833 66.667 43.5 90s53.834 39 84.501 47s63.667 12 99 12c56.667 0 109 -7.33301 157 -22l6 37c7.33301 44 -1 77.667 -25 101s-64 35 -120 35c-50 0 -105 -11.333 -165 -34l9 56c52 20 106.667 30 164 30c72.667 0 125.334 -16.833 158.001 -50.5
s43.667 -83.167 33 -148.5zM178.999 37.999c36 0 71.999 8.33203 107.999 24.999s65.333 39.667 88 69l14 89c-44.667 12.667 -92.667 19 -144 19c-44.667 0 -84.167 -8.16699 -118.5 -24.5s-53.166 -43.166 -56.499 -80.499c-2.66699 -30 6.33301 -53.667 27 -71
s48 -26 82 -26zM432.998 598.998c-41.333 -27.333 -87.333 -41 -138 -41c-54 0 -97 13.667 -129 41l9 57c35.333 -29.333 77 -44 125 -44c49.333 0 96.333 14.667 141 44z" />
    <glyph glyph-name="acircumflex.ss01" horiz-adv-x="541" 
d="M424 85c-5.33301 -26.667 5.99902 -40.001 33.999 -40.001c12 0 25.667 2.33301 41 7l-8 -47c-16 -6 -33 -9 -51 -9c-22 0 -40 5.66699 -54 17s-20.667 29.333 -20 54c-54 -52 -120 -78 -198 -78c-46.667 0 -85.334 13.333 -116.001 40s-44 63.334 -40 110.001
c3.33301 36.667 17.833 66.667 43.5 90s53.834 39 84.501 47s63.667 12 99 12c56.667 0 109 -7.33301 157 -22l6 37c7.33301 44 -1 77.667 -25 101s-64 35 -120 35c-50 0 -105 -11.333 -165 -34l9 56c52 20 106.667 30 164 30c72.667 0 125.334 -16.833 158.001 -50.5
s43.667 -83.167 33 -148.5zM178.999 37.999c36 0 71.999 8.33203 107.999 24.999s65.333 39.667 88 69l14 89c-44.667 12.667 -92.667 19 -144 19c-44.667 0 -84.167 -8.16699 -118.5 -24.5s-53.166 -43.166 -56.499 -80.499c-2.66699 -30 6.33301 -53.667 27 -71
s48 -26 82 -26zM285.998 690.998h51l108 -137h-62l-76 94l-105 -94h-67z" />
    <glyph glyph-name="adieresis.ss01" horiz-adv-x="541" 
d="M424 85c-5.33301 -26.667 5.99902 -40.001 33.999 -40.001c12 0 25.667 2.33301 41 7l-8 -47c-16 -6 -33 -9 -51 -9c-22 0 -40 5.66699 -54 17s-20.667 29.333 -20 54c-54 -52 -120 -78 -198 -78c-46.667 0 -85.334 13.333 -116.001 40s-44 63.334 -40 110.001
c3.33301 36.667 17.833 66.667 43.5 90s53.834 39 84.501 47s63.667 12 99 12c56.667 0 109 -7.33301 157 -22l6 37c7.33301 44 -1 77.667 -25 101s-64 35 -120 35c-50 0 -105 -11.333 -165 -34l9 56c52 20 106.667 30 164 30c72.667 0 125.334 -16.833 158.001 -50.5
s43.667 -83.167 33 -148.5zM178.999 37.999c36 0 71.999 8.33203 107.999 24.999s65.333 39.667 88 69l14 89c-44.667 12.667 -92.667 19 -144 19c-44.667 0 -84.167 -8.16699 -118.5 -24.5s-53.166 -43.166 -56.499 -80.499c-2.66699 -30 6.33301 -53.667 27 -71
s48 -26 82 -26zM439.998 612.998c-1.33301 -10.667 -6.33301 -19.668 -15 -27.001s-18.334 -11 -29.001 -11c-12.667 0 -22.667 4.5 -30 13.5s-10 19.5 -8 31.5c2 10 7.33301 18.833 16 26.5s18.334 11.5 29.001 11.5c12 0 21.667 -4.66699 29 -14s10 -19.666 8 -30.999z
M238.998 612.997c-1.33301 -10.667 -6.33301 -19.668 -15 -27.001s-18.334 -11 -29.001 -11c-12.667 0 -22.667 4.5 -30 13.5s-10 19.5 -8 31.5c2 10 7.33301 18.833 16 26.5s18.334 11.5 29.001 11.5c12 0 21.667 -4.66699 29 -14s10 -19.666 8 -30.999z" />
    <glyph glyph-name="agrave.ss01" horiz-adv-x="541" 
d="M424 85c-5.33301 -26.667 5.99902 -40.001 33.999 -40.001c12 0 25.667 2.33301 41 7l-8 -47c-16 -6 -33 -9 -51 -9c-22 0 -40 5.66699 -54 17s-20.667 29.333 -20 54c-54 -52 -120 -78 -198 -78c-46.667 0 -85.334 13.333 -116.001 40s-44 63.334 -40 110.001
c3.33301 36.667 17.833 66.667 43.5 90s53.834 39 84.501 47s63.667 12 99 12c56.667 0 109 -7.33301 157 -22l6 37c7.33301 44 -1 77.667 -25 101s-64 35 -120 35c-50 0 -105 -11.333 -165 -34l9 56c52 20 106.667 30 164 30c72.667 0 125.334 -16.833 158.001 -50.5
s43.667 -83.167 33 -148.5zM178.999 37.999c36 0 71.999 8.33203 107.999 24.999s65.333 39.667 88 69l14 89c-44.667 12.667 -92.667 19 -144 19c-44.667 0 -84.167 -8.16699 -118.5 -24.5s-53.166 -43.166 -56.499 -80.499c-2.66699 -30 6.33301 -53.667 27 -71
s48 -26 82 -26zM340.998 552.998h-61l-76 142h69z" />
    <glyph glyph-name="amacron.ss01" horiz-adv-x="541" 
d="M424 85c-5.33301 -26.667 5.99902 -40.001 33.999 -40.001c12 0 25.667 2.33301 41 7l-8 -47c-16 -6 -33 -9 -51 -9c-22 0 -40 5.66699 -54 17s-20.667 29.333 -20 54c-54 -52 -120 -78 -198 -78c-46.667 0 -85.334 13.333 -116.001 40s-44 63.334 -40 110.001
c3.33301 36.667 17.833 66.667 43.5 90s53.834 39 84.501 47s63.667 12 99 12c56.667 0 109 -7.33301 157 -22l6 37c7.33301 44 -1 77.667 -25 101s-64 35 -120 35c-50 0 -105 -11.333 -165 -34l9 56c52 20 106.667 30 164 30c72.667 0 125.334 -16.833 158.001 -50.5
s43.667 -83.167 33 -148.5zM178.999 37.999c36 0 71.999 8.33203 107.999 24.999s65.333 39.667 88 69l14 89c-44.667 12.667 -92.667 19 -144 19c-44.667 0 -84.167 -8.16699 -118.5 -24.5s-53.166 -43.166 -56.499 -80.499c-2.66699 -30 6.33301 -53.667 27 -71
s48 -26 82 -26zM166.998 626.998h280l-8 -52h-280z" />
    <glyph glyph-name="aogonek.ss01" horiz-adv-x="541" 
d="M499 52l-8 -47.0039c-34.667 -22.667 -63.667 -46.5 -87 -71.5s-36.333 -48.5 -39 -70.5c-2.66699 -13.333 -0.333984 -24.166 6.99902 -32.499s18.333 -12.5 33 -12.5c17.333 0 35.333 3.33301 54 10l-8 -47c-18.667 -6.66699 -38.667 -10 -60 -10
c-28.667 0 -50.334 8.33301 -65.001 25s-20 37.667 -16 63c6 42.667 41 89.334 105 140.001c-33.333 8.66699 -49.666 31.334 -48.999 68.001c-54 -52 -120 -78 -198 -78c-46.667 0 -85.334 13.333 -116.001 40s-44 63.334 -40 110.001
c3.33301 36.667 17.833 66.667 43.5 90s53.834 39 84.501 47s63.667 12 99 12c56.667 0 109 -7.33301 157 -22l6 37c7.33301 44 -1 77.667 -25 101s-64 35 -120 35c-50 0 -105 -11.333 -165 -34l9 56c52 20 106.667 30 164 30c72.667 0 125.334 -16.833 158.001 -50.5
s43.667 -83.167 33 -148.5l-32 -207c-5.33301 -26.667 6 -40 34 -40c12 0 25.667 2.33301 41 7zM179 37.9961c36 0 71.999 8.33203 107.999 24.999s65.333 39.667 88 69l14 89c-44.667 12.667 -92.667 19 -144 19c-44.667 0 -84.167 -8.16699 -118.5 -24.5
s-53.166 -43.166 -56.499 -80.499c-2.66699 -30 6.33301 -53.667 27 -71s48 -26 82 -26z" />
    <glyph glyph-name="aring.ss01" horiz-adv-x="541" 
d="M424 85c-5.33301 -26.667 5.99902 -40.001 33.999 -40.001c12 0 25.667 2.33301 41 7l-8 -47c-16 -6 -33 -9 -51 -9c-22 0 -40 5.66699 -54 17s-20.667 29.333 -20 54c-54 -52 -120 -78 -198 -78c-46.667 0 -85.334 13.333 -116.001 40s-44 63.334 -40 110.001
c3.33301 36.667 17.833 66.667 43.5 90s53.834 39 84.501 47s63.667 12 99 12c56.667 0 109 -7.33301 157 -22l6 37c7.33301 44 -1 77.667 -25 101s-64 35 -120 35c-50 0 -105 -11.333 -165 -34l9 56c52 20 106.667 30 164 30c72.667 0 125.334 -16.833 158.001 -50.5
s43.667 -83.167 33 -148.5zM178.999 37.999c36 0 71.999 8.33203 107.999 24.999s65.333 39.667 88 69l14 89c-44.667 12.667 -92.667 19 -144 19c-44.667 0 -84.167 -8.16699 -118.5 -24.5s-53.166 -43.166 -56.499 -80.499c-2.66699 -30 6.33301 -53.667 27 -71
s48 -26 82 -26zM407.998 624.998c-4.66699 -28.667 -18 -51.667 -40 -69s-46.667 -26 -74 -26c-28 0 -51.167 9.5 -69.5 28.5s-25.166 43.5 -20.499 73.5c4.66699 28 18.167 50.667 40.5 68s47.166 26 74.499 26c28 0 51 -9.5 69 -28.5s24.667 -43.167 20 -72.5z
M246.998 627.998c-2.66699 -16.667 0.666016 -30.5 9.99902 -41.5s21.666 -16.5 36.999 -16.5c17.333 0 33 5.16699 47 15.5s22.333 24.5 25 42.5c2.66699 16.667 -0.666016 30.5 -9.99902 41.5s-21.666 16.5 -36.999 16.5c-17.333 0 -33 -5.16699 -47 -15.5
s-22.333 -24.5 -25 -42.5z" />
    <glyph glyph-name="atilde.ss01" horiz-adv-x="541" 
d="M424 85c-5.33301 -26.667 5.99902 -40.001 33.999 -40.001c12 0 25.667 2.33301 41 7l-8 -47c-16 -6 -33 -9 -51 -9c-22 0 -40 5.66699 -54 17s-20.667 29.333 -20 54c-54 -52 -120 -78 -198 -78c-46.667 0 -85.334 13.333 -116.001 40s-44 63.334 -40 110.001
c3.33301 36.667 17.833 66.667 43.5 90s53.834 39 84.501 47s63.667 12 99 12c56.667 0 109 -7.33301 157 -22l6 37c7.33301 44 -1 77.667 -25 101s-64 35 -120 35c-50 0 -105 -11.333 -165 -34l9 56c52 20 106.667 30 164 30c72.667 0 125.334 -16.833 158.001 -50.5
s43.667 -83.167 33 -148.5zM178.999 37.999c36 0 71.999 8.33203 107.999 24.999s65.333 39.667 88 69l14 89c-44.667 12.667 -92.667 19 -144 19c-44.667 0 -84.167 -8.16699 -118.5 -24.5s-53.166 -43.166 -56.499 -80.499c-2.66699 -30 6.33301 -53.667 27 -71
s48 -26 82 -26zM457.998 645.998c-0.666992 -29.333 -8.83691 -51.999 -24.5039 -67.999s-35.167 -24 -58.5 -24c-21.333 0 -48.666 8 -81.999 24s-56.333 24 -69 24s-22.667 -3.83301 -30 -11.5s-11 -18.167 -11 -31.5h-49c0.666992 29.333 8.83398 52.166 24.501 68.499
s34.834 24.5 57.501 24.5c21.333 0 48.833 -8 82.5 -24s56.834 -24 69.501 -24c27.333 0 41 14 41 42h49z" />
    <glyph glyph-name="ae.ss01" horiz-adv-x="895" 
d="M417 90c-71.333 -67.333 -153.337 -101 -246.004 -101c-47.333 0 -87 13.667 -119 41s-45.333 64.333 -40 111c3.33301 28 12.5 52 27.5 72s34 35.167 57 45.5s46.833 17.833 71.5 22.5s50.667 7 78 7c52 0 102 -7.33301 150 -22l6 37
c7.33301 42.667 -0.666992 76 -24 100s-60.333 36 -111 36c-52.667 0 -111 -11.333 -175 -34l9 56c58.667 20 116.667 30 174 30c50 0 89.833 -10.667 119.5 -32s47.167 -51.333 52.5 -90c24.667 38.667 56.5 68.667 95.5 90s80.833 32 125.5 32c40 0 74.333 -8.5 103 -25.5
s49 -39 61 -66s19 -57.167 21 -90.5s-3.66699 -66.333 -17 -99h-392c-5.33301 -57.333 9.83398 -99.833 45.501 -127.5s81.834 -41.5 138.501 -41.5c61.333 0 115.333 13.333 162 40l-9 -58c-45.333 -22.667 -100.666 -34 -165.999 -34c-43.333 0 -82.666 8.5 -117.999 25.5
s-62 42.167 -80 75.5zM68.9961 137c-3.33301 -29.333 6.33105 -53.167 28.998 -71.5s50.334 -27.5 83.001 -27.5c74 0 146 31 216 93c-8.66699 27.333 -11 57.333 -7 90c-47.333 12.667 -93.666 19 -138.999 19c-113.333 0 -174 -34.333 -182 -103zM661.993 438.999
c-51.333 0 -96.5 -15.832 -135.5 -47.499s-64.167 -75.5 -75.5 -131.5h343c6.66699 18.667 8.5 38.667 5.5 60s-8.66699 40.666 -17 57.999s-23 31.833 -44 43.5s-46.5 17.5 -76.5 17.5z" />
    <glyph glyph-name="y.ss01" horiz-adv-x="583" 
d="M457 -5c-13.333 -78.667 -45.002 -136 -95.002 -172s-108 -54 -174 -54c-74 0 -131.667 12.667 -173 38l9 54c40 -26.667 93 -40 159 -40c56 0 104 14 144 42s64.667 73.333 74 136l13 83c-56.667 -62 -120.667 -93 -192 -93c-59.333 0 -104.166 18 -134.499 54
s-40.833 83.667 -31.5 143l46 294h57l-47 -291c-15.333 -98.667 24 -148 118 -148c38 0 73.833 10.667 107.5 32s62.834 47.333 87.501 78l52 329h57z" />
    <glyph glyph-name="yacute.ss01" horiz-adv-x="583" 
d="M457 -5c-13.333 -78.667 -45.002 -136 -95.002 -172s-108 -54 -174 -54c-74 0 -131.667 12.667 -173 38l9 54c40 -26.667 93 -40 159 -40c56 0 104 14 144 42s64.667 73.333 74 136l13 83c-56.667 -62 -120.667 -93 -192 -93c-59.333 0 -104.166 18 -134.499 54
s-40.833 83.667 -31.5 143l46 294h57l-47 -291c-15.333 -98.667 24 -148 118 -148c38 0 73.833 10.667 107.5 32s62.834 47.333 87.501 78l52 329h57zM344.998 553h-63l112 142h72z" />
    </font>
</defs>
</svg>
