<!DOCTYPE svg PUBLIC "-//W3C//DTD SVG 20010904//EN" "http://www.w3.org/TR/2001/REC-SVG-20010904/DTD/svg10.dtd">
<svg version="1.0" xmlns="http://www.w3.org/2000/svg" width="118px" height="6px" viewBox="0 0 1180 60" preserveAspectRatio="xMidYMid meet">
<g id="layer101" fill="#cb7338" stroke="none">
 <path d="M0 51 c0 -5 16 -19 36 -32 l36 -22 42 20 42 21 39 -21 40 -20 38 22 38 22 39 -22 40 -23 39 22 38 22 40 -22 40 -22 37 22 37 22 41 -21 41 -21 38 21 38 22 39 -22 39 -23 37 22 36 22 44 -22 44 -21 36 22 36 23 34 -21 c18 -12 38 -21 45 -21 23 0 9 16 -34 40 l-46 25 -37 -21 -36 -22 -43 21 -43 21 -38 -21 -37 -22 -38 22 -38 22 -38 -21 -38 -20 -41 20 -42 20 -38 -21 -37 -22 -38 22 -37 21 -42 -20 -41 -20 -39 20 -38 21 -38 -21 -37 -22 -39 20 -40 20 -41 -20 c-42 -20 -42 -20 -71 -1 -32 21 -44 24 -44 10z"/>
 </g>

</svg>