<!DOCTYPE svg PUBLIC "-//W3C//DTD SVG 20010904//EN" "http://www.w3.org/TR/2001/REC-SVG-20010904/DTD/svg10.dtd">
<svg version="1.0" xmlns="http://www.w3.org/2000/svg" width="30px" height="24px" viewBox="0 0 300 240" preserveAspectRatio="xMidYMid meet">
<g id="layer101" fill="#000100" stroke="none">
 <path d="M0 155 c0 -75 2 -85 18 -85 10 0 28 7 40 16 24 16 52 13 52 -7 0 -6 -9 -13 -20 -16 -32 -8 -23 -23 13 -23 21 0 41 8 52 20 14 16 20 17 27 8 6 -10 8 -10 8 0 0 20 -18 49 -35 56 -12 4 -14 0 -9 -18 3 -13 1 -27 -5 -30 -7 -4 -11 1 -11 14 0 31 -42 47 -71 26 -33 -23 -39 -20 -39 17 0 32 1 32 52 34 38 1 48 -1 38 -8 -11 -8 -9 -9 9 -3 14 3 55 7 93 8 67 1 68 1 68 -26 0 -37 -10 -59 -24 -51 -6 3 -8 3 -4 -2 8 -8 -9 -35 -21 -35 -3 0 -6 14 -6 31 0 23 -8 37 -27 52 -37 28 -48 14 -15 -17 15 -14 27 -29 27 -35 0 -14 -29 -41 -45 -41 -8 0 -16 -4 -19 -9 -3 -5 16 -11 43 -13 27 -1 48 -1 46 1 -2 1 8 13 23 26 15 13 30 19 33 14 3 -5 7 33 8 86 l2 95 -150 0 -151 0 0 -85z m280 50 c0 -8 -4 -15 -10 -15 -5 0 -10 5 -10 10 0 6 -5 10 -11 10 -6 0 -8 -7 -5 -16 5 -13 2 -14 -11 -9 -10 5 -28 8 -40 8 -13 -1 -23 3 -23 8 0 5 -5 9 -11 9 -6 0 -9 -7 -5 -15 6 -18 5 -18 -29 -5 -18 7 -33 7 -46 -1 -24 -12 -59 -3 -59 17 0 11 24 14 130 14 109 0 130 -2 130 -15z"/>
 <path d="M49 33 c12 -23 29 -38 37 -31 2 3 -8 15 -22 29 -25 23 -26 23 -15 2z"/>
 </g>

</svg>