<!DOCTYPE svg PUBLIC "-//W3C//DTD SVG 20010904//EN" "http://www.w3.org/TR/2001/REC-SVG-20010904/DTD/svg10.dtd">
<svg version="1.0" xmlns="http://www.w3.org/2000/svg" width="30px" height="20px" viewBox="0 0 300 200" preserveAspectRatio="xMidYMid meet">
<g id="layer101" fill="#000000" stroke="none">
 <path d="M20 180 c-13 -13 -20 -33 -20 -59 0 -32 6 -43 33 -63 46 -36 92 -58 120 -58 33 0 61 33 55 65 -5 24 -3 25 43 25 27 0 49 4 49 9 0 4 -22 29 -50 55 l-49 46 -81 0 c-67 0 -83 -3 -100 -20z m204 -33 l38 -32 -48 3 c-32 3 -60 14 -87 33 l-40 29 50 0 c42 0 56 -5 87 -33z m-114 -31 c0 -13 -7 -29 -15 -36 -19 -16 -61 -5 -69 17 -6 15 -5 15 13 -1 29 -27 56 -17 56 21 0 17 3 29 7 26 5 -2 8 -15 8 -27z m70 -58 c0 -23 -22 -32 -55 -24 l-24 6 22 34 c20 31 23 33 40 18 9 -8 17 -24 17 -34z"/>
 </g>

</svg>