<!DOCTYPE svg PUBLIC "-//W3C//DTD SVG 20010904//EN" "http://www.w3.org/TR/2001/REC-SVG-20010904/DTD/svg10.dtd">
<svg version="1.0" xmlns="http://www.w3.org/2000/svg" width="27px" height="28px" viewBox="0 0 270 280" preserveAspectRatio="xMidYMid meet">
<g id="layer101" fill="#000000" stroke="none">
 <path d="M137 223 c-24 -53 -31 -60 -82 -82 -30 -13 -55 -29 -55 -35 0 -6 55 -31 123 -55 67 -24 128 -46 135 -49 7 -2 12 5 11 19 0 33 -83 252 -96 256 -5 2 -22 -22 -36 -54z m99 -156 c4 -6 -18 12 -49 42 l-56 54 21 40 20 41 29 -82 c15 -45 31 -88 35 -95z m-61 23 c27 -27 47 -50 45 -50 -3 0 -45 16 -95 34 l-89 34 34 15 c19 9 40 16 45 16 6 1 33 -21 60 -49z"/>
 </g>

</svg>