<!DOCTYPE svg PUBLIC "-//W3C//DTD SVG 20010904//EN" "http://www.w3.org/TR/2001/REC-SVG-20010904/DTD/svg10.dtd">
<svg version="1.0" xmlns="http://www.w3.org/2000/svg" width="80px" height="104px" viewBox="0 0 800 1040" preserveAspectRatio="xMidYMid meet">
<g id="layer101" fill="#d86944" stroke="none">
<path d="M141 747 c-5 -13 -15 -42 -22 -65 -9 -32 -25 -52 -66 -82 -29 -22 -53 -45 -53 -50 0 -6 8 -37 17 -70 15 -57 15 -64 0 -114 -9 -29 -17 -60 -17 -69 0 -9 24 -33 54 -54 47 -33 56 -45 73 -98 l19 -60 70 -5 c61 -4 76 -10 121 -43 28 -20 56 -37 63 -37 7 0 35 17 63 37 45 33 60 39 121 43 l70 5 19 60 c17 53 26 65 73 98 30 21 54 45 54 54 0 9 -8 40 -17 69 -15 50 -15 57 0 114 9 33 17 64 17 69 0 6 -24 28 -52 50 -45 34 -56 49 -74 103 l-21 63 -252 3 -251 2 -9 -23z"/>
</g>
<g id="layer102" fill="#eaa854" stroke="none">
<path d="M141 747 c-5 -13 -15 -42 -22 -65 -9 -32 -25 -52 -66 -82 -29 -22 -53 -45 -53 -50 0 -6 8 -37 17 -70 15 -57 15 -64 0 -114 -9 -29 -17 -60 -17 -69 0 -9 24 -33 54 -54 47 -33 56 -45 73 -98 l19 -60 70 -5 c61 -4 76 -10 121 -43 28 -20 56 -37 63 -37 7 0 35 17 63 37 45 33 60 39 121 43 l70 5 19 60 c17 53 26 65 73 98 30 21 54 45 54 54 0 9 -8 40 -17 69 -15 50 -15 57 0 114 9 33 17 64 17 69 0 6 -24 28 -52 50 -45 34 -56 49 -74 103 l-21 63 -252 3 -251 2 -9 -23z m132 -19 c-3 -13 -25 -74 -50 -136 -24 -62 -43 -120 -41 -130 2 -10 39 -35 93 -62 92 -46 95 -50 110 -123 3 -15 10 -27 15 -27 5 0 12 12 15 27 15 73 18 77 110 123 54 27 91 52 93 62 2 10 -17 68 -41 130 -48 119 -60 161 -48 156 4 -2 42 -28 84 -58 l77 -55 34 -108 34 -108 -35 -105 -35 -106 -87 -64 -86 -63 -115 0 -115 0 -86 63 -87 64 -35 106 -35 105 34 108 34 108 77 57 c43 31 81 57 85 57 3 1 4 -9 1 -21z m81 -277 c24 -27 68 -27 92 0 13 15 20 40 22 90 5 77 10 78 53 11 48 -76 45 -84 -68 -157 l-53 -34 -52 34 c-88 56 -98 65 -98 86 0 24 14 52 49 99 l26 35 5 -71 c4 -52 10 -78 24 -93z"/>
</g>
<g id="layer103" fill="#f0c3bc" stroke="none">
<path d="M280 750 c0 -10 -23 -76 -51 -145 -28 -69 -49 -133 -47 -143 2 -10 39 -35 93 -62 92 -46 95 -50 110 -122 7 -36 23 -36 30 -1 15 73 18 77 110 123 54 27 91 52 93 62 2 10 -19 74 -47 143 -28 69 -51 135 -51 145 0 19 -7 20 -120 20 -113 0 -120 -1 -120 -20z m74 -299 c24 -27 68 -27 92 0 13 15 20 40 22 90 5 77 10 78 53 11 48 -76 45 -84 -68 -157 l-53 -34 -52 34 c-88 56 -98 65 -98 86 0 24 14 52 49 99 l26 35 5 -71 c4 -52 10 -78 24 -93z"/>
</g>
<g id="layer104" fill="#fffefe" stroke="none">
<path d="M160 1015 c0 -23 2 -24 53 -18 28 3 56 9 61 14 13 12 29 11 21 -1 -3 -5 20 -8 60 -7 51 1 65 5 65 17 0 13 -20 16 -130 18 l-130 2 0 -25z"/>
<path d="M430 1020 c0 -15 7 -20 29 -20 17 0 31 6 35 16 9 24 9 24 -29 24 -28 0 -35 -4 -35 -20z"/>
<path d="M510 1022 c0 -16 9 -19 65 -21 58 -2 65 0 65 17 0 16 -9 19 -65 20 -57 2 -65 0 -65 -16z"/>
<path d="M60 966 c0 -5 5 -25 12 -43 9 -24 18 -33 35 -33 18 0 23 6 24 28 l1 27 7 -25 c6 -22 13 -25 51 -27 25 0 51 4 58 9 8 7 12 7 12 -1 0 -6 7 -11 15 -11 11 0 15 11 15 38 l0 38 -75 0 c-41 -1 -75 1 -75 4 0 3 -18 5 -40 5 -22 0 -40 -4 -40 -9z"/>
<path d="M628 973 c-25 -4 -28 -8 -28 -44 0 -21 5 -39 10 -39 6 0 10 11 10 25 0 14 5 25 10 25 6 0 10 -11 10 -25 0 -34 18 -32 22 3 l4 27 12 -27 c14 -34 38 -36 46 -4 3 13 9 31 12 40 4 11 1 16 -10 16 -9 0 -16 -5 -16 -11 0 -5 -10 -3 -22 5 -12 9 -25 15 -28 15 -3 -1 -17 -4 -32 -6z"/>
<path d="M329 954 c-19 -23 -2 -64 26 -64 28 0 34 15 10 24 -21 8 -19 23 6 29 13 3 19 1 16 -6 -13 -35 46 -66 59 -32 4 8 10 15 15 15 5 0 9 -7 9 -15 0 -9 9 -15 25 -15 23 0 25 4 25 40 0 48 -20 55 -21 8 l-1 -33 -9 31 c-9 31 -9 31 -79 31 -47 0 -73 -4 -81 -13z"/>
<path d="M530 930 c0 -22 5 -40 10 -40 6 0 10 7 10 15 0 8 5 15 10 15 6 0 10 -7 10 -15 0 -8 5 -15 10 -15 6 0 10 18 10 40 0 22 -4 40 -10 40 -5 0 -10 -7 -10 -15 0 -8 -4 -15 -10 -15 -5 0 -10 7 -10 15 0 8 -4 15 -10 15 -5 0 -10 -18 -10 -40z"/>
<path d="M284 743 c-3 -10 -25 -71 -50 -135 -24 -64 -44 -128 -44 -141 0 -20 14 -30 93 -68 l92 -44 9 -47 c4 -27 12 -48 16 -48 4 0 12 21 16 47 l9 48 93 44 c78 38 92 48 92 68 0 13 -20 77 -44 141 -25 64 -47 125 -50 135 -5 15 -19 17 -116 17 -97 0 -111 -2 -116 -17z m46 -178 c0 -31 7 -71 14 -90 13 -31 19 -35 50 -35 48 0 69 33 74 116 3 35 7 64 11 64 9 -1 60 -84 73 -121 10 -29 9 -34 -13 -51 -13 -11 -44 -31 -69 -45 -25 -15 -51 -33 -57 -41 -12 -14 -14 -14 -25 0 -7 8 -33 26 -58 41 -25 14 -56 34 -69 45 -22 17 -23 22 -13 51 14 39 64 120 75 121 4 0 7 -25 7 -55z"/>
</g>


</svg>